<?xml version="1.0" standalone="no"?>
<!DOCTYPE svg PUBLIC "-//W3C//DTD SVG 1.1//EN" "http://www.w3.org/Graphics/SVG/1.1/DTD/svg11.dtd" >
<svg xmlns="http://www.w3.org/2000/svg" xmlns:xlink="http://www.w3.org/1999/xlink" version="1.1">
<metadata></metadata>
<defs>
<font id="globersemibold_italic" horiz-adv-x="1382" >
<font-face units-per-em="2048" ascent="1536" descent="-512" />
<missing-glyph horiz-adv-x="468" />
<glyph horiz-adv-x="0" />
<glyph horiz-adv-x="682" />
<glyph unicode=" "  horiz-adv-x="468" />
<glyph unicode="&#x09;" horiz-adv-x="468" />
<glyph unicode="&#xa0;" horiz-adv-x="468" />
<glyph unicode="!" horiz-adv-x="559" d="M154 393l192 1067q35 15 113 15q33 0 60 -3.5t37 -7.5l11 -4l-262 -1067q-31 -16 -78 -16q-22 0 -40 4t-25 8zM293 207l-41 -193q-37 -14 -107 -14q-33 0 -58.5 3.5t-34.5 6.5l-9 4l41 193q35 14 109 14q31 0 56 -3.5t35 -7.5z" />
<glyph unicode="&#x22;" horiz-adv-x="731" d="M233 1049l54 411q32 15 102 15q30 0 55 -3.5t35 -7.5l10 -4l-122 -411q-25 -11 -70 -11q-19 0 -35 3t-22 5zM535 1049l53 411q32 15 104 15q29 0 54 -3.5t35 -7.5l10 -4l-123 -411q-25 -11 -68 -11q-20 0 -36.5 3t-22.5 5z" />
<glyph unicode="#" horiz-adv-x="1355" d="M1137 1262q43 14 92 14q51 0 86 -14l-129 -256h160q8 -29 -3 -76q-11 -52 -32 -88h-205l-211 -428h156q1 -1 2 -10.5t0 -29.5t-6 -42q-6 -31 -31 -82h-201l-115 -234q-43 -16 -92 -16t-86 16l115 234h-283l-114 -234q-43 -16 -97 -16q-48 0 -80 16l115 234h-170v2 q-1 3 -1 6.5t-0.5 9t-0.5 12.5t0.5 14.5t2 17.5t3.5 20q5 23 13 43t13 29l5 10h215l211 428h-164q-5 32 6 84q10 49 29 80h209l129 256q41 14 88 14q53 0 88 -14l-127 -256h283zM647 842l-211 -428h283l209 428h-281z" />
<glyph unicode="$" horiz-adv-x="1146" d="M698 1602q37 14 90 14q25 0 46 -3.5t30 -6.5l8 -4l-65 -236q87 -3 167 -15.5t117 -24.5l37 -11q0 -28 -30 -82q-6 -10 -13 -19.5t-13 -16.5t-12 -13.5t-10 -10t-7 -5.5l-3 -3q-122 41 -290 41q-314 0 -355 -196q-12 -54 12 -93.5t71.5 -62t110.5 -43.5t129.5 -39 t127.5 -48t105 -70.5t62 -107.5t-1 -157q-36 -169 -161 -266.5t-335 -114.5l-37 -258q-31 -14 -88 -14q-24 0 -45.5 3.5t-31.5 6.5l-9 4l70 254q-105 4 -199.5 23.5t-137.5 36.5l-42 18l2 10q1 9 7.5 28.5t17.5 41.5q22 45 51 74q20 -6 55 -16t133 -26t184 -16 q153 0 240.5 47t110.5 152q11 54 -5.5 94.5t-54 64.5t-89.5 44t-110 33.5t-115.5 34t-107.5 44.5t-85 65t-47.5 95.5t3.5 136.5q34 163 157 259.5t323 115.5z" />
<glyph unicode="%" horiz-adv-x="1556" d="M1432 1425l-1096 -1433q-29 -12 -84 -12q-23 0 -42.5 3t-27.5 6l-8 3l1098 1433q27 13 82 13q24 0 43.5 -3t26.5 -7zM381 707q-138 0 -191.5 84t-13.5 270q74 354 356 354q281 0 205 -354t-356 -354zM508 1296q-66 0 -108.5 -50.5t-71.5 -184.5q-15 -71 -16.5 -118 t11 -72t32.5 -34.5t53 -9.5q64 0 105.5 49t70.5 185q22 92 15.5 144.5t-28 71.5t-63.5 19zM1059 -20q-137 0 -190 84t-13 270q39 184 127.5 269t224.5 85t190.5 -84.5t16.5 -269.5q-76 -354 -356 -354zM1184 569q-65 0 -107.5 -51t-70.5 -184q-15 -71 -17 -118t10 -72 t32 -34.5t52 -9.5q66 0 108 49t71 185q21 92 14.5 144.5t-28 71.5t-64.5 19z" />
<glyph unicode="&#x26;" horiz-adv-x="1306" d="M819 1413q144 0 211.5 -69t42.5 -185q-12 -60 -43 -114.5t-69 -96t-96.5 -84.5t-108.5 -73.5t-123 -69.5q70 -185 227 -342q74 80 152 217q49 6 87 -11t56 -50q-74 -126 -194 -246q99 -74 208 -127q-7 -46 -43.5 -93t-81.5 -71q-118 51 -245 149q-31 -25 -69.5 -50 t-97 -53.5t-133.5 -46t-153 -17.5q-62 0 -116 13t-99.5 39.5t-74 68.5t-39 99.5t5.5 131.5q14 65 49 126.5t76.5 105.5t94 84t92.5 63t81 43q-41 172 -6 321q32 156 136.5 247t272.5 91zM778 1276q-69 0 -118.5 -48t-69.5 -141q-24 -117 6 -243q124 66 195.5 134.5 t93.5 166.5q12 61 -15 96t-92 35zM414 145q139 0 288 93q-169 175 -249 393q-47 -28 -88.5 -61t-85 -91.5t-56.5 -120.5q-20 -96 31.5 -154.5t159.5 -58.5z" />
<glyph unicode="'" horiz-adv-x="428" d="M233 1049l54 411q30 15 102 15q30 0 54.5 -3.5t34.5 -7.5l9 -4l-122 -411q-25 -11 -68 -11q-19 0 -35 3t-22 5z" />
<glyph unicode="(" horiz-adv-x="604" d="M684 1638q19 -12 32.5 -27t17.5 -23l3 -9q-12 -15 -33.5 -42.5t-81 -120.5t-111 -193.5t-109.5 -255.5t-91 -312t-42 -310t2 -259t27 -189.5t31 -124.5l15 -40q-23 -35 -76 -60q-23 -10 -46 -15.5t-34 -6.5h-12q-8 18 -19.5 51t-37 139t-39 217t-8.5 275t39 323t97 321 t128.5 279.5t126.5 213t100 143.5l39 49q41 2 82 -23z" />
<glyph unicode=")" horiz-adv-x="602" d="M303 655q33 157 42 310t-2.5 259t-28 189.5t-31.5 124.5l-15 41q25 32 80 59q24 11 46.5 17t33.5 6h10q8 -18 19.5 -51t37.5 -139t39 -217.5t8.5 -275.5t-38.5 -323t-97 -321t-129 -279.5t-127 -212.5t-100 -144l-39 -48q-41 -1 -84 22q-18 11 -31.5 26t-17.5 24l-4 10 q13 15 34.5 42.5t81 120.5t111.5 193.5t110 255t91 311.5z" />
<glyph unicode="*" horiz-adv-x="698" d="M430 1286l35 164q59 18 108 -2l-34 -162l170 51q23 -38 10 -104l-166 -51l72 -135q-54 -47 -107 -64l-67 133l-125 -133q-52 18 -78 64l125 135l-144 51q12 60 56 104z" />
<glyph unicode="+" horiz-adv-x="950" d="M377 518h-291q-6 29 4 76q4 21 10.5 40t11.5 28l5 8h291l63 291q31 12 78 12q21 0 39.5 -3t26.5 -6l8 -3l-64 -291h291q6 -29 -2 -76q-4 -21 -11.5 -40t-12.5 -28l-5 -8h-291l-61 -291q-33 -12 -80 -12q-21 0 -39 3t-26 6l-7 3z" />
<glyph unicode="," horiz-adv-x="477" d="M14 -256l-61 51q3 3 9 8.5t21.5 25t30 41.5t31 57.5t27.5 72.5q-21 1 -37.5 4.5t-22.5 6.5l-6 3l41 193q41 14 111 14q31 0 56.5 -3.5t35.5 -7.5l10 -3l-27 -129q-13 -62 -40.5 -119t-57 -94.5t-57.5 -66t-46 -41.5z" />
<glyph unicode="-" horiz-adv-x="735" d="M557 518h-426q-6 29 4 76q4 21 10.5 40t11.5 28l5 8h426q6 -29 -2 -76q-4 -21 -11.5 -40t-12.5 -28z" />
<glyph unicode="." horiz-adv-x="477" d="M260 207l-41 -193q-38 -14 -108 -14q-33 0 -59 3.5t-36 6.5l-10 4l41 193q37 14 111 14q31 0 56.5 -3.5t35.5 -7.5z" />
<glyph unicode="/" horiz-adv-x="978" d="M-104 -82l1026 1604q39 14 102 14q30 0 55 -3.5t35 -6.5l10 -4l-1026 -1604q-38 -14 -104 -14q-29 0 -53.5 3.5t-34.5 6.5z" />
<glyph unicode="0" horiz-adv-x="1267" d="M496 -20q-511 0 -353 737q79 368 242 532t416 164q512 0 354 -737q-79 -371 -242 -533.5t-417 -162.5zM764 1239q-74 0 -131 -25.5t-109 -86t-93.5 -167.5t-74.5 -264t-37 -263.5t21.5 -167t71.5 -86t120 -25.5q101 0 172 46t130.5 167t103.5 329q33 158 38 264 t-19.5 167.5t-71 86.5t-121.5 25z" />
<glyph unicode="1" horiz-adv-x="845" d="M160 1104q260 66 448 274q33 15 103 15q30 0 54.5 -3.5t34.5 -7.5l9 -4l-291 -1364q-32 -14 -104 -14q-29 0 -55 3.5t-37 6.5l-11 4l181 840q34 159 65 266q-161 -132 -385 -186q-25 30 -28.5 75t16.5 95z" />
<glyph unicode="2" horiz-adv-x="1089" d="M334 1192q-57 54 -27 147q20 8 55 20.5t139 33t201 20.5q95 0 169.5 -23.5t126.5 -72t69.5 -122.5t-2.5 -175q-15 -71 -43.5 -127.5t-63.5 -97t-91.5 -80.5t-110.5 -70.5t-137 -74.5q-32 -16 -48 -25q-19 -11 -69.5 -37.5t-76 -41.5t-67.5 -44t-65.5 -54t-45.5 -62 t-30 -77q-6 -30 -6 -45h639q12 -28 2 -92q-12 -51 -41 -92h-829q2 82 16 154q10 47 25.5 89.5t32.5 77t43 68t47 57.5t54.5 51.5t56.5 44.5t62.5 41.5t62.5 37.5t66 37t64 36q64 37 97.5 57.5t77 50t65.5 50.5t46 50.5t37 60.5t21 69q21 98 -33.5 154.5t-189.5 56.5 q-67 0 -141.5 -12.5t-115.5 -25.5z" />
<glyph unicode="3" horiz-adv-x="1075" d="M905 373q-85 -393 -590 -393q-63 0 -121.5 7.5t-96.5 17.5t-67.5 20.5t-43.5 18.5l-13 7q8 43 30.5 85t53.5 67q14 -6 44.5 -15t99.5 -20.5t137 -11.5q160 0 248 58.5t114 184.5q29 131 -34 188.5t-201 57.5h-152q-16 84 35 164h152q118 0 193 53t98 162q24 111 -31 164 t-187 53q-69 0 -137.5 -11.5t-102.5 -22.5l-34 -11q-62 50 -33 145q17 8 47.5 20t125.5 32t190 20q212 0 309.5 -102.5t60.5 -278.5q-24 -112 -82 -185t-165 -118q103 -52 141.5 -138.5t11.5 -217.5z" />
<glyph unicode="4" horiz-adv-x="1183" d="M53 514l821 864q37 15 107 15q30 0 54 -3.5t33 -7.5l9 -4l-184 -864h182q8 -29 -2 -82q-5 -24 -13.5 -44.5t-13.5 -29.5l-6 -8h-182l-72 -336q-37 -14 -96 -14q-28 0 -52.5 3.5t-35.5 6.5l-10 4l72 336h-646q-10 29 2 82q4 24 12.5 44.5t14.5 29.5zM825 1110l-567 -596 h440z" />
<glyph unicode="5" horiz-adv-x="1075" d="M508 1212l-84 -393q48 6 108 6q234 0 330.5 -114.5t50.5 -333.5q-44 -204 -193 -300.5t-417 -96.5q-67 0 -125.5 7t-94 16.5t-61.5 19.5t-36 17l-11 7q6 42 29 84t55 68q11 -5 32.5 -12t89.5 -19t138 -12q166 0 262.5 58t125.5 187q29 138 -36 196t-249 58 q-71 0 -236 -12l158 750h723q16 -96 -37 -181h-522z" />
<glyph unicode="6" horiz-adv-x="1126" d="M1055 1393q9 -35 -0.5 -80.5t-34.5 -83.5q-231 -25 -383 -125.5t-242 -300.5q145 49 264 49q90 0 160 -26.5t117 -81.5t60 -140.5t-11 -202.5q-89 -421 -536 -421q-216 0 -312 136.5t-37 413.5q172 813 955 863zM780 416q59 274 -186 274q-100 0 -262 -59 q-14 -47 -27 -113q-31 -135 -15.5 -219.5t61.5 -123t122 -38.5q114 0 195.5 70.5t111.5 208.5z" />
<glyph unicode="7" horiz-adv-x="1011" d="M242 1393h848q7 -44 -11 -115q-24 -97 -72.5 -186t-108.5 -161.5t-129 -145.5t-138.5 -152.5t-131.5 -167t-114 -205t-80 -250.5q-48 -10 -100 -10q-57 0 -99 10q30 140 79.5 262.5t108 212.5t123.5 169t130.5 146.5t123.5 129.5t109 134.5t80 145.5h-655q-10 36 2 93 q5 26 14 48.5t15 32.5z" />
<glyph unicode="8" horiz-adv-x="1193" d="M754 1415q196 0 294 -103t64 -263q-11 -51 -34.5 -96.5t-47 -76t-61.5 -62.5t-61.5 -48t-63.5 -41q216 -136 176 -383q-29 -181 -171.5 -274t-381.5 -93q-210 0 -327.5 110.5t-78.5 281.5q54 234 334 366q-190 116 -139 357q33 158 163 241.5t335 83.5zM713 793 q177 109 211 268q20 95 -32.5 147t-166.5 52q-110 0 -182.5 -50t-89.5 -135q-5 -27 -4.5 -49.5t8.5 -42.5t20 -37.5t29.5 -33t37 -29t43.5 -27t48 -25.5t51 -25q18 -9 27 -13zM496 141q126 0 209.5 56.5t105.5 154.5q12 56 -2 100t-64 82.5t-83 57t-113 55.5q-21 10 -31 15 q-25 -13 -50 -29t-61 -45.5t-64.5 -61.5t-53.5 -78t-35 -94q-22 -96 46 -154.5t196 -58.5z" />
<glyph unicode="9" horiz-adv-x="1130" d="M106 0q-15 85 33 164q231 24 383 124t242 302q-5 -2 -24.5 -8.5t-25.5 -9t-24.5 -8t-28 -7.5t-27.5 -6t-32.5 -5.5t-33.5 -3t-38 -1.5q-91 0 -165 27.5t-127.5 84t-71 143t5.5 203.5q88 414 541 414q103 0 180 -31.5t127 -98.5t61 -170t-18 -247q-175 -816 -957 -866z M379 977q-56 -275 188 -275q106 0 260 58l29 114q41 194 -8 287.5t-162 93.5q-114 0 -195.5 -70t-111.5 -208z" />
<glyph unicode=":" horiz-adv-x="495" d="M436 1016l-41 -193q-38 -14 -108 -14q-33 0 -59 3.5t-36 7.5l-10 3l41 193q37 14 111 14q31 0 56.5 -3.5t35.5 -6.5zM264 207l-41 -193q-38 -14 -108 -14q-33 0 -59 3.5t-36 6.5l-10 4l41 193q37 14 111 14q31 0 56.5 -3.5t35.5 -7.5z" />
<glyph unicode=";" horiz-adv-x="507" d="M444 1016l-41 -193q-38 -14 -108 -14q-33 0 -59 3.5t-36 7.5l-10 3l41 193q37 14 111 14q31 0 56.5 -3.5t35.5 -6.5zM29 -256l-64 51q9 8 23.5 23.5t47 69t48.5 112.5q-21 1 -37.5 4.5t-22.5 6.5l-6 3l41 193q37 14 111 14q31 0 56.5 -3.5t35.5 -7.5l10 -3l-26 -129 q-13 -62 -40.5 -119t-56.5 -94.5t-56.5 -66t-45.5 -41.5z" />
<glyph unicode="&#x3c;" horiz-adv-x="915" d="M676 217l-592 295q-4 35 6 84q4 21 11.5 40.5t12.5 28.5l5 9l717 295q8 -25 -2 -76q-5 -23 -13 -43t-13 -28l-5 -9l-535 -223l443 -217q6 -25 -4 -78q-5 -22 -13 -41.5t-13 -27.5z" />
<glyph unicode="=" horiz-adv-x="1060" d="M913 700h-733q-6 83 33 154h733q9 -71 -33 -154zM834 332h-734q-3 82 33 153h733q10 -75 -32 -153z" />
<glyph unicode="&#x3e;" horiz-adv-x="917" d="M786 512l-718 -295q-6 29 6 78q4 24 11 43.5t12 27.5l5 7l533 217l-440 223q-6 29 6 80q4 23 10.5 42t10.5 27l5 7l594 -295q6 -31 -4 -78q-4 -22 -12 -43t-13 -31z" />
<glyph unicode="?" horiz-adv-x="886" d="M897 1057q-17 -81 -51 -144.5t-75 -104t-87 -74t-92 -64.5t-85.5 -65.5t-71 -86.5t-46.5 -119q-27 -20 -82 -20q-22 0 -41 5t-27 10l-8 5q19 89 51 157.5t68.5 110.5t77 75t80 61t74 59t62 77.5t40.5 107.5q40 196 -192 196q-65 0 -126 -11.5t-90 -23.5l-28 -12 q-62 50 -33 145q15 8 43.5 20t118.5 32t182 20q188 0 281.5 -89.5t56.5 -266.5zM377 207l-41 -193q-39 -14 -109 -14q-33 0 -59 3.5t-36 6.5l-9 4l41 193q36 14 110 14q31 0 57 -3.5t36 -7.5z" />
<glyph unicode="@" horiz-adv-x="1869" d="M1749 621q-44 -213 -165.5 -330t-293.5 -117q-200 0 -227 125q-98 -125 -289 -125q-321 0 -237 395q84 398 405 398q160 0 219 -88l17 79q31 17 90 17q27 0 47.5 -4.5t27.5 -8.5l7 -4l-107 -507q-15 -71 4.5 -105.5t77.5 -34.5q88 0 157.5 78.5t102.5 231.5 q62 291 -67 465t-424 174q-304 0 -523 -185t-288 -504q-31 -142 -17.5 -252t57.5 -189t118 -129.5t163.5 -74.5t194.5 -24q279 0 573 155q51 -29 39 -102q-321 -193 -670 -193q-160 0 -292.5 49t-228.5 149t-128 252t8 359q54 251 205 439.5t362 285.5t453 97 q246 0 406 -96.5t216 -270.5t7 -405zM725 569q-32 -150 5 -208t132 -58q76 0 134 47.5t79 118.5l41 201q12 72 -25 120t-114 48q-47 0 -82 -11t-68.5 -39.5t-59 -83t-42.5 -135.5z" />
<glyph unicode="A" horiz-adv-x="1339" d="M725 1460q53 15 125 15q35 0 65 -3.5t43 -7.5l13 -4l205 -1446q-39 -14 -115 -14q-31 0 -53.5 3.5t-29.5 6.5l-7 4l-49 361h-607l-202 -361q-51 -14 -117 -14q-28 0 -51.5 3.5t-32.5 6.5l-10 4zM811 1257h-6l-395 -712h487l-72 528q-6 47 -9.5 93t-3.5 68z" />
<glyph unicode="B" horiz-adv-x="1284" d="M367 1475h548q96 0 166 -34t104.5 -92t45.5 -135.5t-10 -164.5q-42 -194 -222 -297q72 -42 113 -130.5t12 -226.5q-40 -188 -173 -291.5t-341 -103.5h-557zM438 825h295q119 0 189.5 66t95.5 178q25 115 -18.5 179.5t-165.5 64.5h-293zM297 162h309q262 0 314 254 q28 129 -23 191.5t-186 62.5h-308z" />
<glyph unicode="C" horiz-adv-x="1144" d="M150 766q79 370 264.5 549.5t482.5 179.5q101 0 185 -17.5t118 -35.5l33 -17q-12 -80 -94 -155q-12 5 -34 13t-89 21t-131 13q-75 0 -137.5 -16.5t-123 -57t-109 -106t-89.5 -167t-70 -235.5q-28 -134 -29.5 -234.5t19 -164.5t64 -103.5t99 -55t130.5 -15.5 q72 0 145.5 12t111.5 24l38 11q46 -55 29 -160q-17 -8 -48 -19.5t-132 -30.5t-208 -19q-290 0 -397 203.5t-28 582.5z" />
<glyph unicode="D" horiz-adv-x="1357" d="M367 1475h454q145 0 244.5 -43t158.5 -135.5t65.5 -237t-34.5 -348.5q-34 -161 -86 -282.5t-117.5 -202.5t-150.5 -132t-180.5 -72.5t-212.5 -21.5h-455zM299 174h231q76 0 136.5 14t119.5 51.5t104 100t84.5 162t67.5 235.5q29 136 32.5 236t-15 162.5t-61.5 99.5 t-97.5 51t-130.5 14h-231z" />
<glyph unicode="E" horiz-adv-x="1138" d="M367 1475h831q5 -58 0 -80q-11 -47 -37 -90h-622l-101 -476h520q5 -58 0 -81q-7 -34 -34 -86h-521l-104 -492h643q4 -53 -2 -82q-7 -38 -35 -88h-852z" />
<glyph unicode="F" horiz-adv-x="1095" d="M397 635l-133 -621q-36 -14 -108 -14q-30 0 -55.5 3.5t-35.5 6.5l-10 4l312 1461h815q10 -36 -2 -84q-8 -44 -35 -86h-606l-107 -500h537q9 -31 0 -82q-7 -38 -35 -88h-537z" />
<glyph unicode="G" horiz-adv-x="1290" d="M152 778q78 367 273.5 542t506.5 175q108 0 200 -17.5t130 -35.5l38 -17q-20 -95 -94 -153q-14 5 -39.5 13t-101 21t-147.5 13q-78 0 -145 -16.5t-131.5 -57.5t-116 -106.5t-95 -167.5t-72.5 -236q-28 -134 -27.5 -235t24 -165t71.5 -104t107.5 -55.5t138.5 -15.5 q116 0 188 16l101 473h-297q-8 31 2 84q5 24 13.5 45.5t14.5 31.5l6 9h494l-164 -770q-19 -8 -53.5 -19.5t-144 -30.5t-222.5 -19q-303 0 -420 209.5t-38 588.5z" />
<glyph unicode="H" horiz-adv-x="1400" d="M1055 846l131 614q38 15 106 15q30 0 56 -3.5t36 -7.5l11 -4l-310 -1446q-36 -14 -104 -14q-35 0 -61 3.5t-34 6.5l-9 4l139 652h-615l-139 -652q-38 -14 -106 -14q-33 0 -58.5 3.5t-35.5 6.5l-9 4l309 1446q37 15 105 15q31 0 57 -3.5t36 -7.5l11 -4l-131 -614h615z" />
<glyph unicode="I" horiz-adv-x="577" d="M53 14l309 1446q37 15 105 15q32 0 58 -3.5t36 -7.5l10 -4l-309 -1446q-38 -14 -106 -14q-33 0 -58.5 3.5t-35.5 6.5z" />
<glyph unicode="J" horiz-adv-x="913" d="M477 385l230 1075q30 15 106 15q31 0 56.5 -3.5t35.5 -7.5l10 -4l-227 -1069q-43 -203 -171.5 -307t-311.5 -104q-73 0 -144.5 15t-106.5 31l-36 15q19 98 90 158q87 -37 191 -37q229 0 278 223z" />
<glyph unicode="K" horiz-adv-x="1261" d="M590 850l545 610q67 15 110 15q37 0 115 -15l-610 -702l362 -744q-35 -14 -115 -14q-34 0 -63.5 3.5t-41.5 6.5l-13 4l-314 668h-159l-144 -668q-32 -14 -106 -14q-29 0 -55 3.5t-37 6.5l-11 4l309 1446q39 15 109 15q30 0 55 -3.5t35 -7.5l10 -4l-131 -610h150z" />
<glyph unicode="L" horiz-adv-x="1058" d="M51 0l311 1460q37 15 105 15q32 0 58 -3.5t36 -7.5l10 -4l-272 -1280h612q7 -44 -4 -90q-8 -45 -35 -90h-821z" />
<glyph unicode="M" horiz-adv-x="1716" d="M1434 1460q73 15 143 15q36 0 69.5 -3.5t48.5 -7.5l15 -4l-309 -1446q-37 -14 -105 -14q-29 0 -54.5 3.5t-36.5 6.5l-11 4l139 656q8 35 25.5 118.5t27 128.5t24 108.5t27.5 110t25 81.5h-10q-9 -19 -22 -42.5t-32.5 -54t-36 -55.5t-43 -64t-43 -62.5t-48 -68.5 l-45.5 -65l-334 -451q-29 -10 -66 -10q-17 0 -31 2.5t-19 5.5l-5 2l-141 443q-92 310 -99 420h-8q0 -21 -2.5 -48.5t-8.5 -65.5t-10.5 -67.5t-15 -81.5t-16 -79.5t-18 -89.5t-17.5 -85l-147 -686q-35 -14 -101 -14q-25 0 -47.5 3.5t-32.5 6.5l-10 4l309 1446q51 15 127 15 q28 0 57 -3.5t44 -7.5l14 -4l234 -829h8z" />
<glyph unicode="N" horiz-adv-x="1437" d="M877 14l-308 932q-19 59 -37.5 125t-27.5 103l-8 36h-9q-16 -137 -59 -344l-182 -852q-33 -14 -101 -14q-29 0 -52 3.5t-31 6.5l-9 4l309 1446q45 15 127 15q36 0 66.5 -3.5t42.5 -7.5l12 -4l303 -923q19 -59 38.5 -127.5t29.5 -107.5l10 -38h6q19 152 60 342l182 854 q32 15 100 15q30 0 53.5 -3.5t31.5 -7.5l8 -4l-310 -1446q-41 -14 -123 -14q-36 0 -66.5 3.5t-42.5 6.5z" />
<glyph unicode="O" horiz-adv-x="1384" d="M154 782q42 194 110.5 333t162.5 221.5t204.5 120.5t247.5 38q271 0 378.5 -200t22.5 -590q-42 -196 -110 -336.5t-160.5 -225.5t-203.5 -124t-249 -39q-272 0 -379.5 205t-23.5 597zM1075 737q28 133 33 234.5t-11 167t-52.5 107t-86 58.5t-116.5 17q-85 0 -154.5 -28 t-132.5 -93.5t-112.5 -181t-84.5 -281.5q-28 -133 -31.5 -234.5t13.5 -167t54 -106.5t86 -58t114 -17q86 0 155 28t131.5 93t111.5 180.5t83 281.5z" />
<glyph unicode="P" horiz-adv-x="1236" d="M385 575l-121 -561q-36 -14 -104 -14q-34 0 -60 3.5t-36 6.5l-9 4l312 1461h534q132 0 218 -63.5t114.5 -170.5t-0.5 -242q-41 -199 -180 -311.5t-342 -112.5h-326zM422 750h299q120 0 199.5 72t107.5 202q28 132 -20.5 204t-169.5 72h-299z" />
<glyph unicode="Q" horiz-adv-x="1384" d="M879 1495q271 0 378.5 -200t22.5 -590q-91 -430 -315 -601q91 -91 243 -124q-19 -56 -60 -105t-91 -72q-82 30 -146 86.5t-102 128.5q-110 -38 -252 -38q-272 0 -379.5 205t-23.5 597q42 194 110.5 333t162.5 221.5t204.5 120.5t247.5 38zM842 1321q-85 0 -154.5 -28 t-132.5 -93.5t-112.5 -181t-84.5 -281.5q-28 -133 -31.5 -234.5t13.5 -167t54 -106.5t86 -58t114 -17q86 0 155 28t131.5 93t111.5 180.5t83 281.5q28 133 33 234.5t-11 167t-52.5 107t-86 58.5t-116.5 17z" />
<glyph unicode="R" horiz-adv-x="1290" d="M367 1475h524q197 0 287.5 -129.5t48.5 -327.5q-32 -151 -125.5 -248.5t-237.5 -136.5l223 -619q-44 -14 -124 -14q-34 0 -57 3.5t-30 6.5l-6 4l-211 598h-266l-129 -598q-36 -14 -104 -14q-34 0 -60 3.5t-36 6.5l-9 4zM719 786q119 0 198 67t105 189q26 123 -24.5 190.5 t-170.5 67.5h-288l-109 -514h289z" />
<glyph unicode="S" horiz-adv-x="1159" d="M221 1120q79 375 576 375q109 0 206.5 -14.5t140.5 -28.5l42 -14q-21 -102 -92 -164q-15 5 -41 12.5t-106.5 20t-158.5 12.5q-323 0 -370 -225q-10 -46 2.5 -84t35.5 -63.5t72 -51.5t86.5 -40.5t104.5 -37.5q36 -13 65.5 -27t62 -32t57.5 -39t48 -47t37.5 -57t23.5 -67 t8 -80t-11 -93q-42 -203 -189.5 -299t-402.5 -96q-76 0 -147.5 9t-119.5 21.5t-85 25t-54 21.5l-18 9q16 87 84 165q20 -7 55 -17.5t132 -28t181 -17.5q313 0 363 233q21 100 -36 159.5t-171 98.5q-157 57 -218 91q-164 94 -174 252q-3 54 11 118z" />
<glyph unicode="T" horiz-adv-x="1112" d="M248 1475h981q8 -38 -2 -89q-5 -24 -14.5 -47t-16.5 -34l-6 -11h-381l-272 -1280q-39 -14 -107 -14q-33 0 -58.5 3.5t-34.5 6.5l-9 4l272 1280h-391q-8 35 4 90q4 23 13 45.5t16 34.5z" />
<glyph unicode="U" d="M1384 1460l-208 -993q-51 -245 -207.5 -366t-397.5 -121q-238 0 -356.5 138.5t-67.5 381.5l205 960q37 15 105 15q31 0 56.5 -3.5t35.5 -7.5l10 -4l-213 -993q-31 -148 33.5 -229.5t212.5 -81.5q149 0 246.5 81.5t128.5 229.5l213 993q34 15 102 15q30 0 55.5 -3.5 t36.5 -7.5z" />
<glyph unicode="V" horiz-adv-x="1308" d="M422 1458l129 -983q7 -60 10.5 -121t3.5 -92v-31h6q41 107 117 244l549 983q41 17 109 17q29 0 54.5 -4.5t36.5 -8.5l11 -4l-803 -1444q-51 -14 -123 -14q-32 0 -62 3.5t-44 6.5l-13 4l-186 1442q43 19 119 19q31 0 52.5 -4.5t27.5 -8.5z" />
<glyph unicode="W" horiz-adv-x="1974" d="M1149 14l-35 938q-1 84 3 159.5t9 108.5l4 33h-8q-28 -111 -112 -301l-437 -938q-68 -14 -135 -14q-53 0 -116 14l-93 1446q37 15 107 15q32 0 55 -3.5t30 -7.5l7 -4l64 -962q4 -59 4 -127t-2 -106l-2 -38h8q45 136 106 271l451 962q45 15 121 15q35 0 59.5 -3.5 t31.5 -7.5l7 -4l39 -962q2 -63 -0.5 -130.5t-6.5 -103.5l-3 -37h6q42 124 114 271l473 962q50 15 107 15q27 0 51 -3.5t34 -7.5l11 -4l-708 -1446q-49 -14 -121 -14q-31 0 -62 3.5t-46 6.5z" />
<glyph unicode="X" horiz-adv-x="1275" d="M1389 1460l-605 -696l334 -746q-47 -18 -125 -18q-33 0 -56 4t-29 8l-7 4l-260 582l-506 -584q-47 -14 -117 -14q-79 0 -120 14l663 762l-305 684q43 15 123 15q31 0 54.5 -3.5t31.5 -7.5l8 -4l232 -518l452 518q58 15 123 15q58 0 109 -15z" />
<glyph unicode="Y" horiz-adv-x="1294" d="M1208 1460q51 15 123 15q31 0 60 -3.5t42 -7.5l13 -4l-698 -844l-130 -602q-36 -14 -104 -14q-33 0 -59 3.5t-35 6.5l-10 4l129 598l-324 848q47 15 129 15q28 0 54.5 -3.5t38.5 -7.5l12 -4l239 -633z" />
<glyph unicode="Z" horiz-adv-x="1212" d="M326 1475h944q8 -35 -4 -89q-12 -53 -35 -94l-1006 -1108h797q4 -45 -6 -88q-7 -34 -33 -96h-1026q-7 48 4 94q7 40 35 90l995 1108h-704q0 62 8 97q7 31 31 86z" />
<glyph unicode="[" horiz-adv-x="675" d="M406 1659h407q6 -27 -4 -80q-4 -23 -11.5 -42t-12.5 -27l-5 -7h-217l-360 -1696h217q6 -26 -4 -77q-5 -24 -12.5 -43.5t-11.5 -26.5l-5 -8h-407z" />
<glyph unicode="\" horiz-adv-x="974" d="M440 1520l344 -1600q-38 -16 -108 -16q-30 0 -55.5 4t-35.5 8l-10 4l-344 1600q39 16 109 16q29 0 54 -4t36 -8z" />
<glyph unicode="]" horiz-adv-x="675" d="M285 -348h-408q-8 25 4 78q4 23 11.5 42t12.5 27l5 8h217l360 1696h-217q-6 25 4 76q4 24 11.5 44t12.5 28l5 8h408z" />
<glyph unicode="^" horiz-adv-x="1058" d="M799 1462l241 -524q-30 -12 -79 -12q-23 0 -45 3t-33 6l-11 3l-184 401l-358 -401q-39 -12 -90 -12q-22 0 -41 3t-27 6l-8 3l467 524q33 13 86 13q24 0 44.5 -3.5t28.5 -6.5z" />
<glyph unicode="_" horiz-adv-x="1130" d="M836 -178h-877q-6 20 4 69q4 21 11 38t12 23l4 7h876q8 -21 -2 -68q-4 -22 -11 -39t-12 -24z" />
<glyph unicode="`" horiz-adv-x="487" d="M281 1305l-197 276q30 37 82 60.5t98 17.5l144 -291q-48 -51 -127 -63z" />
<glyph unicode="a" horiz-adv-x="1134" d="M889 1063q26 14 96 14q30 0 52.5 -3.5t30.5 -7.5l7 -3l-223 -1049q-37 -14 -88 -14q-23 0 -45.5 3.5t-33.5 6.5l-11 4l10 111q-126 -145 -338 -145q-180 0 -249 149t-5 442q27 122 66 215t84.5 151.5t102 95t114 51t125.5 14.5q107 0 172 -34.5t96 -107.5zM788 674 q21 107 -27 181.5t-151 74.5q-116 0 -192.5 -86.5t-126.5 -304.5q-48 -217 -14 -304.5t159 -87.5q105 0 189 77.5t106 185.5z" />
<glyph unicode="b" horiz-adv-x="1140" d="M549 1522l-119 -557q120 133 324 133q380 0 258 -578q-32 -153 -81 -260t-113.5 -167.5t-137.5 -86.5t-164 -26q-191 0 -260 149l-39 -115q-26 -14 -96 -14q-30 0 -54.5 3.5t-34.5 6.5l-9 4l321 1508q34 14 102 14q31 0 57 -3.5t36 -6.5zM809 539q24 113 25.5 189.5 t-21.5 120.5t-63.5 62.5t-104.5 18.5q-103 0 -178 -74.5t-98 -183.5l-58 -262q-23 -111 21 -187t147 -76q86 0 145 34t106 121t79 237z" />
<glyph unicode="c" horiz-adv-x="909" d="M647 930q-146 0 -230 -94.5t-126 -296.5q-43 -201 5 -293t196 -92q50 0 100 8.5t75 17.5l25 8q20 -23 27.5 -63.5t-0.5 -83.5q-11 -7 -34 -17t-102.5 -27t-170.5 -17q-220 0 -301 155t-21 434q58 272 195.5 400.5t363.5 128.5q88 0 154 -13t88 -25l22 -13q-9 -42 -34 -82 t-58 -66q-65 31 -174 31z" />
<glyph unicode="d" horiz-adv-x="1136" d="M971 1522q36 14 106 14q30 0 55 -3.5t34 -6.5l10 -4l-322 -1508q-37 -14 -88 -14q-23 0 -45.5 3.5t-33.5 6.5l-11 4l10 111q-63 -73 -137 -109t-184 -36q-185 0 -260.5 140.5t-12.5 440.5q32 153 80.5 259.5t113 166.5t136.5 85.5t164 25.5q201 0 266 -133zM791 674 q21 108 -23.5 182t-146.5 74q-86 0 -144.5 -33.5t-104.5 -120.5t-79 -237q-20 -91 -24 -158t5 -112t34 -72t60.5 -38.5t86.5 -11.5q103 0 179 76t99 187z" />
<glyph unicode="e" horiz-adv-x="1046" d="M901 475h-625q-26 -179 26 -250t192 -71q64 0 127.5 15t94.5 29l32 15q23 -25 32.5 -66.5t1.5 -85.5q-6 -3 -16 -8.5t-45.5 -19.5t-74 -24.5t-99.5 -19.5t-123 -9q-232 0 -315 154t-19 437q61 271 206 399t357 128q187 0 272.5 -106t43.5 -306q-12 -57 -29 -110t-28 -77z M778 713q21 99 -16 161t-144 62q-219 0 -311 -315h445q12 32 26 92z" />
<glyph unicode="f" horiz-adv-x="729" d="M338 1200q33 160 130 248t282 88q61 0 115 -11t78 -21l24 -11q-20 -82 -84 -143q-60 22 -154 22q-85 0 -125.5 -38.5t-58.5 -123.5l-29 -133h256q0 -49 -8 -80q-3 -24 -25 -73h-256l-194 -910q-37 -14 -105 -14q-32 0 -57 3.5t-34 6.5l-9 4l195 910h-136q0 43 7 77 q8 39 26 76h135z" />
<glyph unicode="g" horiz-adv-x="1140" d="M662 41l14 59q-111 -120 -299 -120q-90 0 -155.5 32.5t-107.5 103t-47.5 181.5t25.5 268q32 153 81 259t114.5 165t138 84t164.5 25q98 0 167 -38t99 -102l31 107q28 12 98 12q30 0 54 -3.5t33 -7.5l9 -3l-215 -1010q-63 -300 -197.5 -432.5t-396.5 -132.5 q-94 0 -170 18.5t-106 37.5l-29 18q23 88 88 137q11 -5 30 -12.5t78.5 -20t117.5 -12.5q78 0 131 14.5t101.5 55t84 118t64.5 199.5zM297 539q-25 -114 -27 -190t19 -120.5t60.5 -63t103.5 -18.5q104 0 181 75.5t101 176.5l58 254q13 49 7.5 98.5t-23.5 89t-57.5 64.5 t-94.5 25q-86 0 -144.5 -33.5t-104.5 -120.5t-79 -237z" />
<glyph unicode="h" horiz-adv-x="1128" d="M1012 756l-160 -742q-36 -14 -104 -14q-31 0 -56.5 3.5t-35.5 6.5l-9 4l158 738q39 180 -152 180q-68 0 -137 -35t-123 -96l-168 -787q-38 -14 -104 -14q-32 0 -57 3.5t-34 6.5l-10 4l322 1508q32 14 104 14q29 0 54.5 -3.5t35.5 -6.5l11 -4l-117 -541q68 62 144 89.5 t174 27.5q154 0 226 -92.5t38 -249.5z" />
<glyph unicode="i" horiz-adv-x="516" d="M545 1477l-41 -193q-39 -14 -109 -14q-33 0 -59 3.5t-36 6.5l-9 4l41 193q36 14 110 14q31 0 57 -3.5t36 -7.5zM453 1063l-224 -1049q-36 -14 -104 -14q-32 0 -57 3.5t-34 6.5l-9 4l223 1049q34 14 106 14q30 0 55 -3.5t35 -7.5z" />
<glyph unicode="j" horiz-adv-x="518" d="M547 1479l-41 -193q-39 -14 -109 -14q-33 0 -59 3.5t-36 6.5l-9 4l41 193q36 14 110 14q31 0 57 -3.5t36 -7.5zM-16 -188l266 1251q34 14 106 14q30 0 55 -3.5t35 -7.5l9 -3l-265 -1243q-34 -162 -127.5 -247t-238.5 -85q-38 0 -71.5 4.5t-47.5 9.5l-14 4q-2 21 4 48 q6 32 16.5 58t17.5 36l7 10q33 -8 76 -8q139 0 172 162z" />
<glyph unicode="k" horiz-adv-x="1028" d="M479 639l359 424q53 14 116 14q25 0 49.5 -3t36.5 -6l11 -3l-422 -512l245 -539q-46 -16 -116 -16q-31 0 -54 4t-30 8l-8 4l-211 471h-127l-101 -471q-43 -14 -102 -14q-29 0 -54.5 3.5t-36.5 6.5l-11 4l321 1512q44 10 107 10q24 0 48.5 -2.5t36.5 -5.5l13 -2l-189 -887 h119z" />
<glyph unicode="l" horiz-adv-x="522" d="M555 1522l-322 -1508q-36 -14 -104 -14q-32 0 -57 3.5t-34 6.5l-9 4l321 1508q33 14 105 14q30 0 55 -3.5t35 -6.5z" />
<glyph unicode="m" horiz-adv-x="1699" d="M983 948q82 77 163.5 113.5t184.5 36.5q151 0 218 -96t34 -248l-158 -740q-36 -14 -104 -14q-32 0 -57 3.5t-34 6.5l-9 4l157 738q39 180 -139 180q-64 0 -129.5 -34t-118.5 -97l-168 -787q-36 -14 -102 -14q-32 0 -57 3.5t-34 6.5l-9 4l157 738q39 180 -139 180 q-63 0 -128.5 -34.5t-119.5 -94.5l-168 -789q-36 -14 -102 -14q-32 0 -57 3.5t-34 6.5l-10 4l224 1049q34 14 106 14q29 0 53 -3.5t33 -7.5l10 -3l-18 -92q136 127 301 127q95 0 162.5 -37t91.5 -113z" />
<glyph unicode="n" horiz-adv-x="1128" d="M1010 745l-158 -731q-36 -14 -104 -14q-31 0 -56.5 3.5t-35.5 6.5l-9 4l158 738q39 180 -152 180q-68 0 -137 -35t-123 -96l-168 -787q-38 -14 -104 -14q-32 0 -57 3.5t-34 6.5l-10 4l224 1049q34 14 106 14q29 0 54 -3.5t35 -7.5l10 -3l-21 -94q141 129 317 129 q157 0 229 -91t36 -262z" />
<glyph unicode="o" horiz-adv-x="1105" d="M90 563q32 150 83 254.5t123 165.5t157 88t194 27q456 0 334 -576q-32 -150 -82.5 -255.5t-121.5 -168t-155.5 -90.5t-193.5 -28q-218 0 -309.5 144t-28.5 439zM780 539q25 116 25.5 195t-23 123t-62 62.5t-97.5 18.5t-106 -18.5t-90 -62.5t-77 -123.5t-59 -194.5 q-23 -118 -25 -195.5t23.5 -123t64 -63.5t97.5 -18t105.5 18.5t89 63t76 123.5t58.5 195z" />
<glyph unicode="p" horiz-adv-x="1136" d="M428 965q120 133 324 133q378 0 256 -580q-32 -153 -82 -260t-115.5 -166.5t-139 -85.5t-165.5 -26q-196 0 -258 133l-123 -574q-37 -12 -107 -12q-30 0 -54.5 3t-33.5 6l-10 3l324 1524q36 14 104 14q31 0 56.5 -3.5t35.5 -7.5l9 -3zM807 539q25 114 27.5 189.5 t-18.5 120t-60 63t-103 18.5q-104 0 -183.5 -75t-102.5 -183l-58 -262q-23 -110 23.5 -186.5t150.5 -76.5q128 0 202 85t122 307z" />
<glyph unicode="q" horiz-adv-x="1134" d="M547 -461l123 574q-61 -72 -121 -102.5t-162 -30.5q-90 0 -157 31.5t-112 101t-51.5 179.5t23.5 267q32 153 81.5 260t114.5 167t137 86t161 26q201 0 266 -133l29 98q26 14 96 14q30 0 55 -3.5t35 -7.5l10 -3l-323 -1524q-35 -12 -103 -12q-31 0 -56.5 3t-35.5 6z M291 539q-25 -114 -27 -190t19 -120.5t60 -63t103 -18.5q101 0 179 73.5t104 178.5l59 273q23 109 -22.5 183.5t-147.5 74.5q-86 0 -144 -33.5t-104 -120.5t-79 -237z" />
<glyph unicode="r" horiz-adv-x="808" d="M420 942q70 91 140.5 122.5t146.5 31.5q95 0 165 -52q-34 -97 -122 -167q-46 38 -121 38q-59 0 -123 -41.5t-121 -113.5l-160 -746q-36 -14 -104 -14q-32 0 -57 3.5t-34 6.5l-10 4l224 1049q34 14 106 14q30 0 52.5 -3.5t29.5 -7.5l8 -3z" />
<glyph unicode="s" horiz-adv-x="907" d="M145 803q70 295 441 295q89 0 158 -14t94 -28l24 -14q-8 -40 -31 -80.5t-53 -64.5q-92 33 -209 33q-208 0 -239 -148q-7 -34 6 -61t47 -47.5t66.5 -34t84.5 -32.5q10 -3 15 -5q29 -10 52.5 -20.5t49 -26t43 -33.5t34.5 -42.5t22.5 -53t8 -65t-8.5 -78.5 q-34 -155 -144 -229t-305 -74q-60 0 -116 7.5t-93 18t-65 21.5t-41 19l-13 7q24 100 88 152q14 -6 38.5 -14.5t94.5 -22.5t134 -14q198 0 227 147q3 21 3.5 37.5t-6 31t-15 25.5t-23 21t-28.5 17.5t-33.5 15t-38 13t-39.5 12.5q-7 2 -10 3q-277 87 -220 326z" />
<glyph unicode="t" horiz-adv-x="763" d="M479 924l-114 -537q-30 -139 -2.5 -190.5t135.5 -51.5q18 0 45 2.5t45 4.5l18 2q6 -35 -4 -82q-4 -21 -10 -39.5t-10 -26.5l-4 -8q-70 -18 -152 -18q-185 0 -247.5 98.5t-20.5 298.5l116 547h-157q-6 28 4 75q4 23 11.5 42.5t12.5 27.5l5 8h157l39 187q94 51 213 41 l-47 -228h266q6 -27 -4 -76q-4 -21 -11.5 -40t-12.5 -28l-5 -9h-266z" />
<glyph unicode="u" horiz-adv-x="1126" d="M82 334l154 729q38 14 106 14q31 0 55.5 -3.5t33.5 -7.5l9 -3l-155 -737q-39 -181 151 -181q68 0 136.5 34t123.5 97l166 787q41 14 107 14q32 0 56.5 -3.5t32.5 -7.5l9 -3l-223 -1049q-24 -14 -96 -14q-29 0 -53 3.5t-33 6.5l-9 4l6 95q-67 -68 -139.5 -97.5 t-169.5 -29.5q-112 0 -180.5 50.5t-88 128.5t0.5 173z" />
<glyph unicode="v" horiz-adv-x="1056" d="M334 1063l84 -645q6 -51 9 -106t3 -84v-29h8q46 102 109 219l354 645q48 14 107 14q28 0 52.5 -3.5t35.5 -7.5l10 -3l-584 -1049q-53 -14 -125 -14q-34 0 -64 3.5t-43 6.5l-14 4l-145 1049q43 14 111 14q32 0 55 -3.5t30 -7.5z" />
<glyph unicode="w" horiz-adv-x="1630" d="M905 14l-39 555q-10 180 8 295h-8q-38 -132 -121 -295l-280 -555q-49 -14 -119 -14q-71 0 -117 14l-86 1049q27 14 93 14q23 0 45 -3.5t33 -7.5l10 -3l59 -653q8 -83 2 -201h6q36 100 86 201l324 653q53 14 114 14q30 0 54.5 -3.5t33.5 -7.5l9 -3l43 -649q7 -108 -2 -205 h6q22 59 94 203l326 651q43 14 100 14q28 0 51.5 -3.5t33.5 -7.5l9 -3l-532 -1049q-55 -14 -119 -14q-65 0 -117 14z" />
<glyph unicode="x" horiz-adv-x="1028" d="M389 559l-239 504q44 14 116 14q33 0 56.5 -3.5t30.5 -7.5l7 -3l175 -354l311 354q54 14 117 14q31 0 56.5 -3.5t35.5 -7.5l10 -3l-453 -512l254 -537q-42 -14 -114 -14q-33 0 -56.5 3.5t-31.5 6.5l-7 4l-186 387l-344 -387q-56 -14 -119 -14q-30 0 -56 3.5t-37 6.5 l-11 4z" />
<glyph unicode="y" horiz-adv-x="1126" d="M862 1063q41 14 107 14q32 0 56.5 -3.5t32.5 -7.5l9 -3l-217 -1028q-63 -293 -200 -420t-392 -127q-94 0 -170 18.5t-106 37.5l-29 18q23 88 88 137q11 -5 30 -12.5t78 -20t117 -12.5q46 0 78.5 2.5t69 11t62 24t53 42.5t47 65.5t37.5 93.5t32 127l14 74 q-66 -62 -139 -88t-170 -26q-160 0 -232 92.5t-38 251.5l156 739q38 14 106 14q31 0 55.5 -3.5t33.5 -7.5l9 -3l-155 -737q-39 -181 151 -181q68 0 136.5 34t123.5 97z" />
<glyph unicode="z" horiz-adv-x="954" d="M209 168h543q6 -29 -4 -84q-5 -23 -13 -44t-13 -30l-5 -10h-760q0 55 6 88q10 43 29 80l702 741h-510q-4 35 6 86q5 24 13 44.5t13 28.5l5 9h725q6 -29 -6 -80q-10 -53 -31 -88z" />
<glyph unicode="{" horiz-adv-x="716" d="M715 1659h139q6 -28 -4 -78q-7 -34 -29 -78h-100q-122 0 -150 -121l-104 -491q-29 -146 -125 -205q68 -57 39 -207l-105 -491q-25 -121 97 -121h100q5 -31 -4 -80q-8 -41 -29 -76h-139q-133 0 -187.5 73.5t-27.5 199.5l115 532q16 90 -68 90h-57q-5 31 4 80q4 22 29 78 h57q86 0 106 90l113 532q27 127 112 200t218 73z" />
<glyph unicode="|" horiz-adv-x="575" d="M391 1604q35 14 107 14q30 0 54.5 -3.5t33.5 -6.5l10 -4l-422 -1993q-38 -14 -106 -14q-32 0 -56.5 3.5t-33.5 7.5l-9 3z" />
<glyph unicode="}" horiz-adv-x="718" d="M301 1659h141q133 0 187.5 -73.5t27.5 -199.5l-112 -532q-20 -90 65 -90h56q4 -41 -4 -78q-8 -39 -29 -80h-55q-89 0 -105 -90l-115 -532q-27 -127 -111.5 -200t-217.5 -73h-142q-6 29 4 76q8 39 29 80h100q125 0 150 121l104 491q28 144 123 207q-65 60 -37 205l105 491 q28 121 -96 121h-101q-4 40 4 78q8 44 29 78z" />
<glyph unicode="~" horiz-adv-x="1069" d="M356 555q-44 0 -83.5 -18.5t-57.5 -36.5l-18 -19q-36 10 -55 37.5t-17 63.5q4 5 11.5 14t33.5 31.5t55 40t75 31.5t95 14q45 0 85.5 -16.5t66.5 -36t65 -36t82 -16.5q44 0 84.5 19t59.5 38l18 19q35 -12 53.5 -38.5t18.5 -61.5q-4 -5 -11.5 -14t-34 -32t-55.5 -40.5 t-76 -32t-96 -14.5q-45 0 -85.5 16.5t-66.5 35.5t-65 35.5t-82 16.5z" />
<glyph unicode="&#xa1;" horiz-adv-x="532" d="M250 1047q38 14 108 14q33 0 59 -3.5t36 -7.5l10 -3l-41 -193q-37 -14 -111 -14q-31 0 -56.5 3.5t-35.5 6.5l-10 4zM199 668q30 12 77 12q22 0 40.5 -3t25.5 -6l8 -3l-190 -1067q-37 -15 -115 -15q-33 0 -59.5 4t-36.5 8l-10 3z" />
<glyph unicode="&#xa2;" horiz-adv-x="950" d="M616 1284q1 1 13 5t34 7.5t42 3.5q24 0 44 -4t27.5 -7t9.5 -5l-53 -188q63 -4 111.5 -16.5t65.5 -22.5l18 -10q-23 -88 -90 -140q-65 31 -174 31q-145 0 -231 -98t-128 -301q-43 -202 4.5 -298t194.5 -96q50 0 100.5 8.5t75.5 17.5l25 9q41 -47 28 -139q-9 -5 -27 -13.5 t-79.5 -24.5t-130.5 -21l-27 -189q-2 -2 -12 -5.5t-31.5 -7t-44.5 -3.5q-21 0 -41 3.5t-29.5 7t-11.5 5.5l55 191q-184 22 -249 162.5t-11 392.5q110 509 496 555z" />
<glyph unicode="&#xa3;" horiz-adv-x="1087" d="M831 616h-337q-2 -120 -50 -224t-178 -208h606q1 -1 2.5 -11.5t1 -33t-5.5 -47.5q-5 -24 -14 -46.5t-14.5 -33t-7.5 -12.5h-824l39 184q76 60 126 117.5t74.5 112t33 101t6.5 101.5h-168q-1 1 -2 9.5t0 27t6 39.5q4 18 10.5 36t10.5 26t6 10h124q-19 152 5 270 q41 194 178 287.5t338 93.5q184 0 331 -69q-13 -94 -92 -148q-111 44 -243 47q-118 0 -197.5 -52t-103.5 -165q-19 -91 -3 -264h373v-4q1 -4 1.5 -10t0.5 -14t-1 -19.5t-3 -22.5q-4 -19 -11 -38t-13 -30z" />
<glyph unicode="&#xa4;" horiz-adv-x="1216" d="M881 63l-121 150q-120 -74 -254 -74q-133 0 -223 74l-181 -150q-30 2 -59 39q-12 15 -18 31t-5 25v8l185 151q-54 108 -25 238q26 128 125 238l-119 151q11 33 52 66q20 16 38.5 25.5t26.5 10.5l8 1l119 -152q121 76 254 76q129 0 221 -76l182 152q31 0 58 -37 q12 -15 17.5 -31.5t5.5 -25.5l-1 -9l-182 -151q54 -107 27 -238q-29 -131 -127 -240l119 -149q-9 -33 -50 -66q-20 -17 -38 -26.5t-26 -9.5zM653 827q-114 0 -209 -78.5t-120 -193.5t37 -193.5t176 -78.5q116 0 211 78.5t120 193.5t-37 193.5t-178 78.5z" />
<glyph unicode="&#xa5;" horiz-adv-x="1261" d="M1159 1386q41 15 109 15q27 0 51.5 -3.5t35.5 -7.5l11 -4l-569 -688h264q5 -20 -2 -63q-7 -31 -25 -66h-332l-30 -147h332q4 -29 -5 -62q-5 -32 -24 -67h-332l-59 -279q-36 -14 -99 -14q-27 0 -50 3.5t-33 6.5l-9 4l60 279h-336q-3 28 4 67q9 38 24 62h336l31 147h-336 q-3 27 4 66q4 25 23 63h266l-252 684q43 19 117 19q32 0 59 -4.5t38 -8.5l11 -4l215 -610z" />
<glyph unicode="&#xa6;" horiz-adv-x="569" d="M399 1606q33 12 105 12q30 0 54 -3t33 -6l9 -3l-192 -912q-35 -14 -103 -14q-32 0 -56.5 3.5t-32.5 6.5l-9 4zM170 524q32 13 104 13q30 0 54.5 -3.5t33.5 -6.5l9 -3l-195 -911q-32 -14 -100 -14q-32 0 -57 3.5t-35 7.5l-9 3z" />
<glyph unicode="&#xa7;" horiz-adv-x="993" d="M612 268q8 36 -10.5 63t-54.5 42.5t-83.5 30.5t-97 26.5t-95.5 33t-79.5 48.5t-47.5 72.5t-1 105.5q23 120 166 230q-82 75 -53 206q30 142 145.5 214.5t288.5 72.5q138 0 275 -45q-2 -33 -21 -71t-49 -60q-112 29 -207 29q-226 0 -254 -138q-9 -41 15 -69.5t68 -44.5 t99 -30t108.5 -33t95 -46.5t61 -77t4.5 -118.5q-26 -115 -156 -217q104 -77 74 -226q-16 -77 -60.5 -133.5t-109 -89t-139.5 -48t-162 -15.5q-84 0 -164.5 12.5t-119.5 25.5l-38 13q0 38 18.5 75.5t53.5 59.5q144 -35 258 -35q242 0 272 137zM424 852q-86 -69 -102 -135 q-6 -28 3.5 -50t27 -36t50 -26t61 -19t71.5 -18t71 -19q27 23 42 37.5t33 41.5t24 54q6 28 -3.5 49.5t-27.5 35t-50 26t-61 20t-70 18.5t-69 21z" />
<glyph unicode="&#xa8;" horiz-adv-x="931" d="M367 1430l-35 -166q-35 -13 -94 -13q-28 0 -51.5 3.5t-32.5 6.5l-9 3l35 166q36 12 99 12q26 0 48 -3t31 -6zM715 1430l-35 -166q-35 -13 -96 -13q-28 0 -50.5 3.5t-31.5 6.5l-8 3l34 166q34 12 97 12q27 0 49.5 -3t31.5 -6z" />
<glyph unicode="&#xa9;" horiz-adv-x="1638" d="M686 -12q-115 0 -216 36t-173.5 100.5t-121 153.5t-59.5 194.5t11 223.5q41 192 171 355t313.5 257.5t375.5 94.5t334.5 -94.5t202 -257.5t18.5 -355q-40 -192 -169 -355t-312 -258t-375 -95zM958 1268q-156 0 -304.5 -76.5t-253.5 -208t-138 -287.5t16 -288t165 -208.5 t272 -76.5t303.5 76.5t251.5 208.5t137 288t-15 287.5t-163 208t-271 76.5zM758 301q-176 0 -244.5 106t-26.5 304q43 201 155.5 304t289.5 103q60 0 111.5 -11t72.5 -23l21 -11q-14 -66 -72 -110q-67 32 -145 32q-107 0 -177 -66t-102 -220q-32 -149 11 -213t149 -64 q38 0 79.5 6t63.5 12l23 7q41 -30 26 -109q-11 -5 -30.5 -13t-80.5 -21t-124 -13z" />
<glyph unicode="&#xaa;" horiz-adv-x="741" d="M287 1241q12 5 33.5 13.5t82.5 22t117 13.5q127 0 171.5 -55.5t19.5 -171.5l-93 -434q-20 -13 -57 -13q-15 0 -28.5 3t-20.5 7l-6 3l-2 59q-77 -84 -205 -84q-91 0 -134 55t-20 156q42 203 287 203q105 0 129 -6l10 45q21 112 -94 112q-37 0 -80.5 -7.5t-68.5 -15.5 l-25 -7q-27 46 -16 102zM541 911q-16 4 -115 4q-120 0 -139 -100q-12 -52 8.5 -75t69.5 -23q63 0 108 45t59 112zM92 500h494q9 -53 -27 -119h-493q-3 68 26 119z" />
<glyph unicode="&#xab;" horiz-adv-x="1064" d="M111 637l501 405q43 -40 43 -120l-399 -371l242 -369q-32 -79 -95 -121l-329 402q-8 31 2 82q5 25 14 48t15 33zM506 633l469 379q41 -35 41 -115l-371 -346l223 -344q-34 -80 -88 -115l-311 375q-8 29 2 78q5 24 14 46t15 32z" />
<glyph unicode="&#xac;" horiz-adv-x="1232" d="M1135 899l-115 -541q-35 -18 -90 -18q-24 0 -45 4.5t-30 9.5l-9 4l78 367h-785q-10 37 0 86q5 24 14.5 46t16.5 32l6 10h959z" />
<glyph unicode="&#xad;" horiz-adv-x="503" />
<glyph unicode="&#xae;" horiz-adv-x="1124" d="M551 524q-120 0 -211 60t-130.5 162.5t-14.5 222.5q38 183 189.5 309.5t334.5 126.5t288.5 -130.5t67.5 -313.5t-189.5 -310t-334.5 -127zM709 1315q-145 0 -269 -102t-155 -248t50 -248.5t226 -102.5q146 0 269.5 102.5t154.5 248.5t-49.5 248t-226.5 102zM717 1206 q73 0 107 -38t20 -103q-9 -46 -39.5 -81t-77.5 -50l80 -180q-26 -15 -57 -15q-13 0 -24 2.5t-16 4.5l-5 2l-80 176h-66l-37 -176q-22 -9 -45 -9q-12 0 -23 2.5t-16 4.5l-4 2l96 458h187zM575 999h93q72 0 84 66q15 68 -56 68h-92z" />
<glyph unicode="&#xaf;" horiz-adv-x="833" d="M682 1290h-637q-10 66 27 125h637q13 -58 -27 -125z" />
<glyph unicode="&#xb0;" horiz-adv-x="716" d="M229 1264q22 103 109.5 181.5t210.5 78.5q82 0 134.5 -38t68.5 -94.5t2 -121.5q-22 -103 -107 -178.5t-207 -75.5q-127 0 -180 73t-31 175zM635 1268q11 61 -16 103t-95 42t-116.5 -44t-61.5 -103q-11 -59 17.5 -100.5t99.5 -41.5q68 0 113.5 42t58.5 102z" />
<glyph unicode="&#xb1;" horiz-adv-x="1040" d="M473 748h-291q-6 28 2 75q4 21 11.5 40t12.5 27l5 9h291l49 229q31 13 78 13q21 0 39.5 -3.5t26.5 -6.5l8 -3l-50 -229h291q6 -29 -4 -76q-4 -21 -10.5 -39.5t-11.5 -27.5l-5 -8h-290l-50 -230q-32 -12 -79 -12q-21 0 -39 3t-25 6l-8 3zM811 260h-733q-6 29 4 76 q4 21 11.5 40t12.5 28l5 8h733q6 -29 -4 -76q-4 -21 -11.5 -40t-12.5 -28z" />
<glyph unicode="&#xb2;" horiz-adv-x="616" d="M98 793q14 65 50.5 116.5t81.5 80.5t95.5 56t93.5 47t75.5 50t40.5 67q9 47 -21.5 72t-95.5 25q-67 0 -137 -21q-29 43 -13 103q90 32 203 32t169.5 -52.5t35.5 -149.5q-13 -64 -52.5 -110.5t-91 -75.5t-104.5 -54.5t-104 -63.5t-78 -86h323q5 -26 -2 -61q-6 -30 -22 -59 h-455q-2 37 8 84z" />
<glyph unicode="&#xb3;" horiz-adv-x="612" d="M600 903q-46 -205 -330 -205q-55 0 -101.5 10t-65.5 20l-19 9q16 69 59 99q62 -23 146 -23q154 0 174 105q12 53 -13.5 77.5t-89.5 24.5h-96q-8 49 23 110h96q104 0 121 87q10 47 -14.5 68.5t-83.5 21.5q-36 0 -74 -4.5t-58 -9.5l-20 -5q-30 34 -14 98q83 35 198 35 q118 0 174 -49t37 -139q-24 -108 -121 -154q99 -47 72 -176z" />
<glyph unicode="&#xb4;" horiz-adv-x="458" d="M420 1561l-297 -256q-80 14 -103 63l250 289q47 6 90 -25t60 -71z" />
<glyph unicode="&#xb5;" horiz-adv-x="1198" d="M901 1063q39 14 107 14q32 0 56.5 -3.5t33.5 -7.5l8 -3l-223 -1049q-33 -14 -105 -14q-30 0 -55 3.5t-35 6.5l-10 4l18 78q-121 -112 -282 -112q-124 0 -183 71q-23 -156 -29.5 -285.5t-1.5 -181.5l5 -51q-45 -32 -116.5 -41.5t-113.5 6.5q-1 15 0 46t18 153t50 274 l231 1092q39 14 107 14q32 0 56.5 -3.5t32.5 -7.5l9 -3l-155 -739q-40 -179 153 -179q69 0 137 36.5t121 94.5z" />
<glyph unicode="&#xb6;" horiz-adv-x="1200" d="M186 -455l240 1129q-72 1 -128 23t-90 58.5t-55 85t-21.5 102t9.5 110.5q17 73 56.5 139.5t96.5 121t137.5 86.5t170.5 32h148l-402 -1887q-29 -10 -82 -10q-25 0 -45 2.5t-27 4.5zM1169 1421l-397 -1876q-31 -10 -84 -10q-24 0 -43.5 2.5t-26.5 4.5l-8 3l398 1876 q29 11 84 11q24 0 43 -3t27 -5z" />
<glyph unicode="&#xb7;" horiz-adv-x="473" d="M338 666l-35 -166q-37 -15 -98 -15q-29 0 -51.5 3.5t-30.5 7.5l-8 4l35 166q32 14 98 14q27 0 49.5 -3.5t31.5 -6.5z" />
<glyph unicode="&#xb8;" horiz-adv-x="606" d="M-70 100l109 -26l-51 -127q110 0 153 -61.5t23 -153.5q-40 -185 -295 -185q-54 0 -98 12.5t-61 24.5l-17 13q10 61 61 86q52 -29 127 -29q130 0 152 104q9 43 -13.5 69t-80.5 26h-74l-21 28z" />
<glyph unicode="&#xb9;" horiz-adv-x="501" d="M178 1276q135 34 236 125q31 8 71 8q37 0 64 -8l-146 -686q-40 -8 -67 -8q-39 0 -72 8l94 440q8 43 21 84q-94 -60 -189 -74q-34 37 -12 111z" />
<glyph unicode="&#xba;" horiz-adv-x="768" d="M174 958q38 180 123.5 256t226.5 76q138 0 191.5 -83.5t13.5 -266.5q-38 -182 -124 -259t-226 -77q-139 0 -191.5 84.5t-13.5 269.5zM582 948q26 134 6.5 181t-88.5 47q-71 0 -113 -49t-70 -179q-22 -89 -15.5 -139.5t30 -69t71.5 -18.5q69 0 110 48t69 179zM104 500h500 q0 -35 -4 -58q-5 -26 -22 -61h-500q0 27 6 61q6 30 20 58z" />
<glyph unicode="&#xbb;" horiz-adv-x="1062" d="M629 1042l327 -405q8 -35 -4 -92q-4 -23 -12 -43.5t-14 -29.5l-6 -9l-500 -402q-43 37 -43 121l397 369l-239 371q33 81 94 120zM252 1012l309 -379q6 -33 -6 -88q-4 -22 -12 -41.5t-13 -27.5l-6 -9l-467 -375q-41 35 -41 115l371 344l-223 346q34 80 88 115z" />
<glyph unicode="&#xbc;" horiz-adv-x="1363" d="M76 -8l1095 1433q27 13 80 13q23 0 41.5 -3t25.5 -7l7 -3l-1098 -1433q-32 -12 -77 -12q-19 0 -37.5 3t-27.5 6zM197 1276q137 34 237 125q31 8 70 8t63 -8l-145 -686q-40 -8 -68 -8q-38 0 -71 8l94 440q9 50 20 84q-90 -60 -188 -74q-34 37 -12 111zM1128 272h80 q3 -27 -2 -51q-1 -6 -18 -51h-80l-35 -162q-31 -8 -61 -8q-37 0 -58 8l35 162h-348q-3 19 0 45q7 28 16 43l428 434q30 10 70 10q34 0 64 -10zM1067 537l-262 -265h205z" />
<glyph unicode="&#xbd;" horiz-adv-x="1468" d="M1171 1425q27 13 80 13q23 0 41.5 -3t25.5 -7l7 -3l-1098 -1433q-32 -12 -77 -12q-19 0 -37.5 3t-27.5 6l-9 3zM434 1401q31 8 70 8t63 -8l-145 -686q-40 -8 -68 -8q-38 0 -71 8l94 440q9 50 20 84q-90 -60 -188 -74q-34 37 -12 111q137 34 237 125zM954 680 q88 33 201 33q114 0 171 -53t36 -150q-14 -64 -54 -110.5t-92 -75t-105 -54.5t-103.5 -63.5t-77.5 -85.5h323q3 -35 -2 -62q-7 -33 -24 -59h-455q0 37 10 84q16 77 64 134t105.5 89t114 58t99.5 60t52 77q9 46 -20.5 71t-92.5 25q-89 0 -139 -20q-30 43 -11 102z" />
<glyph unicode="&#xbe;" horiz-adv-x="1460" d="M1268 1425q27 13 80 13q23 0 41 -3t25 -7l7 -3l-1097 -1433q-33 -12 -78 -12q-19 0 -37.5 3t-27.5 6l-9 3zM266 1386q82 35 197 35q118 0 174 -49t37 -139q-24 -108 -121 -154q101 -48 74 -176q-46 -205 -332 -205q-54 0 -100.5 10t-66.5 20l-19 9q15 67 61 99 q59 -23 143 -23q154 0 174 105q12 53 -13 77.5t-89 24.5h-94q-12 51 22 110h95q105 0 122 87q10 46 -15 68t-85 22q-36 0 -73.5 -4.5t-57.5 -9.5l-20 -5q-29 36 -13 98zM1182 692q30 10 69 10q34 0 64 -10l-90 -420h80q3 -27 -2 -51q0 -1 -19 -51h-80l-35 -162 q-31 -8 -61 -8q-36 0 -57 8l34 162h-348q-3 22 0 47q5 22 17 41zM901 272h205l57 265z" />
<glyph unicode="&#xbf;" horiz-adv-x="872" d="M467 858l41 193q38 14 108 14q33 0 59 -3.5t36 -7.5l10 -3l-41 -193q-35 -14 -109 -14q-31 0 -57 3.5t-36 6.5zM-53 8q17 81 50.5 144.5t74.5 104t87 74t92 64.5t85.5 65.5t71 86.5t45.5 119q29 14 82 14q23 0 42 -3.5t27 -6.5l8 -4q-19 -89 -50.5 -157.5t-68 -110.5 t-77 -75t-80 -61t-73.5 -59t-61 -77.5t-40 -107.5q-43 -196 188 -196q65 0 126.5 12t90.5 24l29 11q62 -50 33 -145q-15 -8 -43.5 -20t-118 -32t-180.5 -20q-188 0 -282.5 90t-57.5 266z" />
<glyph unicode="&#xc0;" horiz-adv-x="1339" d="M872 1890l134 -288q-44 -50 -129 -64l-199 277q29 35 88 58t106 17zM725 1460q53 15 125 15q35 0 65 -3.5t43 -7.5l13 -4l205 -1446q-39 -14 -115 -14q-31 0 -53.5 3.5t-29.5 6.5l-7 4l-49 361h-607l-202 -361q-51 -14 -117 -14q-28 0 -51.5 3.5t-32.5 6.5l-10 4z M811 1257h-6l-395 -712h487l-72 528q-6 47 -9.5 93t-3.5 68z" />
<glyph unicode="&#xc1;" horiz-adv-x="1339" d="M766 1604l256 288q50 6 98.5 -16.5t63.5 -58.5l-314 -277q-78 13 -104 64zM725 1460q53 15 125 15q35 0 65 -3.5t43 -7.5l13 -4l205 -1446q-39 -14 -115 -14q-31 0 -53.5 3.5t-29.5 6.5l-7 4l-49 361h-607l-202 -361q-51 -14 -117 -14q-28 0 -51.5 3.5t-32.5 6.5l-10 4z M811 1257h-6l-395 -712h487l-72 528q-6 47 -9.5 93t-3.5 68z" />
<glyph unicode="&#xc2;" horiz-adv-x="1339" d="M952 1874l234 -234q-48 -73 -113 -90l-184 150l-234 -150q-66 23 -86 90l330 234h53zM725 1460q53 15 125 15q35 0 65 -3.5t43 -7.5l13 -4l205 -1446q-39 -14 -115 -14q-31 0 -53.5 3.5t-29.5 6.5l-7 4l-49 361h-607l-202 -361q-51 -14 -117 -14q-28 0 -51.5 3.5 t-32.5 6.5l-10 4zM811 1257h-6l-395 -712h487l-72 528q-6 47 -9.5 93t-3.5 68z" />
<glyph unicode="&#xc3;" horiz-adv-x="1339" d="M580 1655q2 5 6 12.5t20 27t34.5 34.5t50 29t67.5 16q51 3 93.5 -15.5t78.5 -37.5t71 -17q24 1 47.5 14t34.5 26l11 13q30 -6 53.5 -24.5t30.5 -44.5q-2 -4 -7 -11.5t-22 -26t-37 -33.5t-52.5 -27.5t-68.5 -14.5q-50 -3 -91.5 15t-76.5 36t-69 16q-28 -2 -52 -15t-34 -25 l-11 -13q-32 5 -53 22.5t-24 43.5zM725 1460q53 15 125 15q35 0 65 -3.5t43 -7.5l13 -4l205 -1446q-39 -14 -115 -14q-31 0 -53.5 3.5t-29.5 6.5l-7 4l-49 361h-607l-202 -361q-51 -14 -117 -14q-28 0 -51.5 3.5t-32.5 6.5l-10 4zM811 1257h-6l-395 -712h487l-72 528 q-6 47 -9.5 93t-3.5 68z" />
<glyph unicode="&#xc4;" horiz-adv-x="1339" d="M629 1753q31 12 94 12q27 0 50 -3t33 -6l9 -3l-35 -166q-35 -12 -96 -12q-28 0 -50.5 3t-31.5 6l-8 3zM977 1753q31 12 94 12q27 0 50 -3t33 -6l9 -3l-35 -166q-35 -12 -96 -12q-28 0 -50.5 3t-31.5 6l-8 3zM725 1460q53 15 125 15q35 0 65 -3.5t43 -7.5l13 -4l205 -1446 q-39 -14 -115 -14q-31 0 -53.5 3.5t-29.5 6.5l-7 4l-49 361h-607l-202 -361q-51 -14 -117 -14q-28 0 -51.5 3.5t-32.5 6.5l-10 4zM811 1257h-6l-395 -712h487l-72 528q-6 47 -9.5 93t-3.5 68z" />
<glyph unicode="&#xc5;" horiz-adv-x="1339" d="M975 1419l201 -1405q-39 -14 -115 -14q-31 0 -53.5 3.5t-29.5 6.5l-7 4l-49 361h-607l-206 -361q-47 -14 -113 -14q-28 0 -51.5 3.5t-32.5 6.5l-10 4l796 1399q-98 58 -69 193q22 105 107.5 165t185.5 60q99 0 160.5 -59.5t39.5 -165.5q-29 -128 -147 -187zM1004 1606 q10 49 -17.5 84.5t-89.5 35.5q-61 0 -101.5 -36t-50.5 -84q-11 -51 14.5 -87t86.5 -36q62 0 104.5 36.5t53.5 86.5zM897 545l-74 524q-6 47 -9.5 93t-3.5 68l-1 23h-6q-33 -82 -92 -184l-301 -524h487z" />
<glyph unicode="&#xc6;" horiz-adv-x="1769" d="M1079 1475h750q10 -39 -1 -86t-36 -84h-561l-101 -476h459q13 -92 -37 -170h-458l-103 -489h582q16 -94 -37 -170h-758l78 367h-469l-283 -351q-50 -16 -116 -16q-78 0 -105 16zM524 537h369l131 616z" />
<glyph unicode="&#xc7;" horiz-adv-x="1144" d="M963 137q4 -24 3.5 -43.5t-2.5 -31.5l-3 -13q-16 -8 -46.5 -19t-128 -30t-200.5 -20l-43 -93q112 0 152 -52t20 -142q-21 -100 -97.5 -152.5t-193.5 -52.5q-54 0 -98 12t-61 24l-17 13q10 61 61 86q52 -29 127 -29q130 0 152 105q8 43 -15 68.5t-81 25.5h-74l-21 29 l74 166q-232 32 -310.5 239.5t-6.5 554.5q79 368 262 540.5t481 172.5q100 0 184 -17.5t118 -35.5l34 -17q-2 -35 -33 -82q-13 -23 -28.5 -40.5t-25.5 -24.5l-9 -6q-12 5 -34 13t-88.5 21t-131.5 13q-74 0 -136.5 -16.5t-122.5 -57.5t-108.5 -106.5t-89.5 -167.5t-70 -236 q-28 -134 -29.5 -235t19 -165t63.5 -104t98.5 -55.5t129.5 -15.5q73 0 146 12t110 24l37 11q25 -23 33 -70z" />
<glyph unicode="&#xc8;" horiz-adv-x="1138" d="M807 1538l-199 277q29 35 88.5 58t106.5 17l133 -288q-44 -50 -129 -64zM367 1475h831q5 -58 0 -80q-11 -47 -37 -90h-622l-101 -476h520q5 -58 0 -81q-7 -34 -34 -86h-521l-104 -492h643q4 -53 -2 -82q-7 -38 -35 -88h-852z" />
<glyph unicode="&#xc9;" horiz-adv-x="1138" d="M1069 1819l-315 -277q-80 14 -103 64l256 288q49 6 98 -17t64 -58zM367 1475h831q5 -58 0 -80q-11 -47 -37 -90h-622l-101 -476h520q5 -58 0 -81q-7 -34 -34 -86h-521l-104 -492h643q4 -53 -2 -82q-7 -38 -35 -88h-852z" />
<glyph unicode="&#xca;" horiz-adv-x="1138" d="M891 1874l233 -234q-52 -74 -112 -90l-185 146l-243 -146q-57 20 -78 90l332 234h53zM367 1475h831q5 -58 0 -80q-11 -47 -37 -90h-622l-101 -476h520q5 -58 0 -81q-7 -34 -34 -86h-521l-104 -492h643q4 -53 -2 -82q-7 -38 -35 -88h-852z" />
<glyph unicode="&#xcb;" horiz-adv-x="1138" d="M752 1726l-35 -165q-35 -13 -94 -13q-29 0 -52.5 3t-32.5 7l-8 3l35 165q31 13 97 13q26 0 48.5 -3.5t31.5 -6.5zM1100 1726l-35 -165q-35 -13 -96 -13q-28 0 -50.5 3t-30.5 7l-9 3l34 165q32 13 95 13q27 0 50 -3.5t32 -6.5zM367 1475h831q5 -58 0 -80q-11 -47 -37 -90 h-622l-101 -476h520q5 -58 0 -81q-7 -34 -34 -86h-521l-104 -492h643q4 -53 -2 -82q-7 -38 -35 -88h-852z" />
<glyph unicode="&#xcc;" horiz-adv-x="577" d="M508 1538l-199 277q29 35 88.5 58t106.5 17l133 -288q-44 -50 -129 -64zM53 14l309 1446q37 15 105 15q32 0 58 -3.5t36 -7.5l10 -4l-309 -1446q-38 -14 -106 -14q-33 0 -58.5 3.5t-35.5 6.5z" />
<glyph unicode="&#xcd;" horiz-adv-x="577" d="M750 1819l-316 -277q-79 13 -102 64l256 288q49 6 98 -17t64 -58zM53 14l309 1446q37 15 105 15q32 0 58 -3.5t36 -7.5l10 -4l-309 -1446q-38 -14 -106 -14q-33 0 -58.5 3.5t-35.5 6.5z" />
<glyph unicode="&#xce;" horiz-adv-x="577" d="M580 1874l233 -234q-52 -73 -113 -90l-184 146l-244 -146q-56 19 -77 90l331 234h54zM53 14l309 1446q37 15 105 15q32 0 58 -3.5t36 -7.5l10 -4l-309 -1446q-38 -14 -106 -14q-33 0 -58.5 3.5t-35.5 6.5z" />
<glyph unicode="&#xcf;" horiz-adv-x="577" d="M442 1726l-34 -165q-36 -13 -95 -13q-28 0 -51 3t-32 7l-9 3l35 165q33 13 96 13q26 0 48.5 -3.5t31.5 -6.5zM791 1726l-35 -165q-36 -13 -97 -13q-28 0 -50.5 3t-30.5 7l-9 3l35 165q31 13 94 13q27 0 50.5 -3.5t33.5 -6.5zM53 14l309 1446q37 15 105 15q32 0 58 -3.5 t36 -7.5l10 -4l-309 -1446q-38 -14 -106 -14q-33 0 -58.5 3.5t-35.5 6.5z" />
<glyph unicode="&#xd0;" horiz-adv-x="1390" d="M393 1475h455q605 0 440 -764q-34 -161 -86.5 -282.5t-118.5 -202.5t-152.5 -132t-182.5 -72.5t-213 -21.5h-455l139 659h-162q-2 33 7 74t24 68h162zM565 1300l-106 -499h270q4 -28 -5.5 -69.5t-25.5 -72.5h-270l-102 -485h231q76 0 136.5 14t119.5 51.5t104 100 t84.5 162t67.5 235.5q29 136 32.5 236t-15 162.5t-61.5 99.5t-97.5 51t-130.5 14h-232z" />
<glyph unicode="&#xd1;" horiz-adv-x="1437" d="M1073 1726q27 0 54 13.5t40 26.5l13 14q27 -10 42 -36.5t15 -57.5l-6 -7q-6 -7 -13.5 -15t-19.5 -18.5t-27 -20t-33 -18t-40.5 -13.5t-46.5 -5q-50 0 -90.5 17t-75 34t-68.5 17q-28 0 -55.5 -13.5t-41.5 -26.5l-13 -13q-59 35 -56 92q3 4 7.5 11t22 24t37.5 30t52.5 24 t67.5 11q50 0 91 -17.5t75.5 -35t68.5 -17.5zM877 14l-308 932q-19 59 -37.5 125t-27.5 103l-8 36h-9q-16 -137 -59 -344l-182 -852q-33 -14 -101 -14q-29 0 -52 3.5t-31 6.5l-9 4l309 1446q45 15 127 15q36 0 66.5 -3.5t42.5 -7.5l12 -4l303 -923q19 -59 38.5 -127.5 t29.5 -107.5l10 -38h6q19 152 60 342l182 854q32 15 100 15q30 0 53.5 -3.5t31.5 -7.5l8 -4l-310 -1446q-41 -14 -123 -14q-36 0 -66.5 3.5t-42.5 6.5z" />
<glyph unicode="&#xd2;" horiz-adv-x="1384" d="M938 1905l129 -283q-48 -50 -131 -63l-193 270q29 35 88.5 58.5t106.5 17.5zM154 782q42 194 110.5 333t162.5 221.5t204.5 120.5t247.5 38q271 0 378.5 -200t22.5 -590q-42 -196 -110 -336.5t-160.5 -225.5t-203.5 -124t-249 -39q-272 0 -379.5 205t-23.5 597zM1075 737 q28 133 33 234.5t-11 167t-52.5 107t-86 58.5t-116.5 17q-85 0 -154.5 -28t-132.5 -93.5t-112.5 -181t-84.5 -281.5q-28 -133 -31.5 -234.5t13.5 -167t54 -106.5t86 -58t114 -17q86 0 155 28t131.5 93t111.5 180.5t83 281.5z" />
<glyph unicode="&#xd3;" horiz-adv-x="1384" d="M862 1651l252 282q50 5 98.5 -17.5t63.5 -57.5l-311 -273q-80 14 -103 66zM154 782q42 194 110.5 333t162.5 221.5t204.5 120.5t247.5 38q271 0 378.5 -200t22.5 -590q-42 -196 -110 -336.5t-160.5 -225.5t-203.5 -124t-249 -39q-272 0 -379.5 205t-23.5 597zM1075 737 q28 133 33 234.5t-11 167t-52.5 107t-86 58.5t-116.5 17q-85 0 -154.5 -28t-132.5 -93.5t-112.5 -181t-84.5 -281.5q-28 -133 -31.5 -234.5t13.5 -167t54 -106.5t86 -58t114 -17q86 0 155 28t131.5 93t111.5 180.5t83 281.5z" />
<glyph unicode="&#xd4;" horiz-adv-x="1384" d="M958 1884l254 -233q-52 -74 -112 -90l-185 145l-243 -145q-55 19 -76 90l309 233h53zM154 782q42 194 110.5 333t162.5 221.5t204.5 120.5t247.5 38q271 0 378.5 -200t22.5 -590q-42 -196 -110 -336.5t-160.5 -225.5t-203.5 -124t-249 -39q-272 0 -379.5 205t-23.5 597z M1075 737q28 133 33 234.5t-11 167t-52.5 107t-86 58.5t-116.5 17q-85 0 -154.5 -28t-132.5 -93.5t-112.5 -181t-84.5 -281.5q-28 -133 -31.5 -234.5t13.5 -167t54 -106.5t86 -58t114 -17q86 0 155 28t131.5 93t111.5 180.5t83 281.5z" />
<glyph unicode="&#xd5;" horiz-adv-x="1384" d="M1051 1739q29 1 55.5 15t38.5 28l12 14q27 -10 43.5 -35.5t16.5 -54.5q-2 -4 -7 -11t-22 -24.5t-36.5 -31.5t-51.5 -25t-66 -12q-52 -2 -125.5 29t-113.5 30q-28 -1 -55 -15t-40 -28l-12 -14q-57 28 -57 90q2 4 6.5 11t21 24.5t36 31t51 25t65.5 12.5q64 2 133.5 -29 t106.5 -30zM154 782q42 194 110.5 333t162.5 221.5t204.5 120.5t247.5 38q271 0 378.5 -200t22.5 -590q-42 -196 -110 -336.5t-160.5 -225.5t-203.5 -124t-249 -39q-272 0 -379.5 205t-23.5 597zM1075 737q28 133 33 234.5t-11 167t-52.5 107t-86 58.5t-116.5 17 q-85 0 -154.5 -28t-132.5 -93.5t-112.5 -181t-84.5 -281.5q-28 -133 -31.5 -234.5t13.5 -167t54 -106.5t86 -58t114 -17q86 0 155 28t131.5 93t111.5 180.5t83 281.5z" />
<glyph unicode="&#xd6;" horiz-adv-x="1384" d="M664 1788q32 12 98 12q26 0 48 -3t31 -6l9 -3l-35 -166q-35 -12 -94 -12q-29 0 -52 3t-31 6l-9 3zM1012 1788q33 12 96 12q27 0 49.5 -3t31.5 -6l9 -3l-35 -166q-35 -12 -96 -12q-28 0 -50.5 3t-30.5 6l-9 3zM154 782q42 194 110.5 333t162.5 221.5t204.5 120.5t247.5 38 q271 0 378.5 -200t22.5 -590q-42 -196 -110 -336.5t-160.5 -225.5t-203.5 -124t-249 -39q-272 0 -379.5 205t-23.5 597zM1075 737q28 133 33 234.5t-11 167t-52.5 107t-86 58.5t-116.5 17q-85 0 -154.5 -28t-132.5 -93.5t-112.5 -181t-84.5 -281.5q-28 -133 -31.5 -234.5 t13.5 -167t54 -106.5t86 -58t114 -17q86 0 155 28t131.5 93t111.5 180.5t83 281.5z" />
<glyph unicode="&#xd7;" horiz-adv-x="960" d="M451 481l-291 -239q-29 12 -54 47q-13 15 -21 30.5t-9 24.5l-2 8l288 240l-188 239q19 31 62 64q17 16 35.5 27.5t28.5 15.5l9 4l189 -240l290 240q27 -12 54 -47q12 -15 20 -31t10 -24l2 -9l-290 -239l190 -240q-20 -30 -61 -63q-18 -16 -36.5 -27.5t-28.5 -15.5l-9 -4z " />
<glyph unicode="&#xd8;" horiz-adv-x="1380" d="M1415 1503l-164 -200q111 -202 27 -598q-42 -196 -110 -336.5t-160.5 -225.5t-203.5 -124t-249 -39q-181 0 -295 94l-135 -170q-91 3 -131 67l178 219q-101 207 -20 592q42 194 110.5 333t162.5 221.5t204.5 120.5t247.5 38q173 0 280 -82l129 158q40 -3 75 -22t54 -46z M840 1321q-85 0 -154.5 -28t-132.5 -93.5t-112.5 -181t-84.5 -281.5q-45 -219 -26 -352l702 872q-67 64 -192 64zM592 154q86 0 155 28t131.5 93t111.5 180.5t83 281.5q51 243 27 377l-711 -883q66 -77 203 -77z" />
<glyph unicode="&#xd9;" d="M887 1544l-193 271q29 35 88.5 58t106.5 17l129 -280q-47 -53 -131 -66zM1384 1460l-208 -993q-51 -245 -207.5 -366t-397.5 -121q-238 0 -356.5 138.5t-67.5 381.5l205 960q37 15 105 15q31 0 56.5 -3.5t35.5 -7.5l10 -4l-213 -993q-31 -148 33.5 -229.5t212.5 -81.5 q149 0 246.5 81.5t128.5 229.5l213 993q34 15 102 15q30 0 55.5 -3.5t36.5 -7.5z" />
<glyph unicode="&#xda;" d="M1176 1819l-316 -277q-79 13 -102 64l256 288q49 6 98 -17t64 -58zM1384 1460l-208 -993q-51 -245 -207.5 -366t-397.5 -121q-238 0 -356.5 138.5t-67.5 381.5l205 960q37 15 105 15q31 0 56.5 -3.5t35.5 -7.5l10 -4l-213 -993q-31 -148 33.5 -229.5t212.5 -81.5 q149 0 246.5 81.5t128.5 229.5l213 993q34 15 102 15q30 0 55.5 -3.5t36.5 -7.5z" />
<glyph unicode="&#xdb;" d="M983 1868l248 -228q-52 -73 -113 -90l-184 146l-244 -146q-57 20 -78 90l318 228h53zM1384 1460l-208 -993q-51 -245 -207.5 -366t-397.5 -121q-238 0 -356.5 138.5t-67.5 381.5l205 960q37 15 105 15q31 0 56.5 -3.5t35.5 -7.5l10 -4l-213 -993q-31 -148 33.5 -229.5 t212.5 -81.5q149 0 246.5 81.5t128.5 229.5l213 993q34 15 102 15q30 0 55.5 -3.5t36.5 -7.5z" />
<glyph unicode="&#xdc;" d="M848 1759l-35 -168q-35 -12 -94 -12q-28 0 -51 3t-32 6l-9 3l35 168q35 13 98 13q26 0 48 -3t31 -7zM1196 1759l-35 -168q-35 -12 -96 -12q-28 0 -50.5 3t-30.5 6l-9 3l35 168q33 13 96 13q27 0 49.5 -3t31.5 -7zM1384 1460l-208 -993q-51 -245 -207.5 -366t-397.5 -121 q-238 0 -356.5 138.5t-67.5 381.5l205 960q37 15 105 15q31 0 56.5 -3.5t35.5 -7.5l10 -4l-213 -993q-31 -148 33.5 -229.5t212.5 -81.5q149 0 246.5 81.5t128.5 229.5l213 993q34 15 102 15q30 0 55.5 -3.5t36.5 -7.5z" />
<glyph unicode="&#xdd;" horiz-adv-x="1294" d="M731 1606l256 288q49 6 98 -17t64 -58l-315 -277q-80 14 -103 64zM1208 1460q51 15 123 15q31 0 60 -3.5t42 -7.5l13 -4l-698 -844l-130 -602q-36 -14 -104 -14q-33 0 -59 3.5t-35 6.5l-10 4l129 598l-324 848q47 15 129 15q28 0 54.5 -3.5t38.5 -7.5l12 -4l239 -633z " />
<glyph unicode="&#xde;" horiz-adv-x="1234" d="M362 1460q37 15 105 15q32 0 58 -3.5t36 -7.5l10 -4l-57 -262h326q131 0 216.5 -64t113 -170.5t-0.5 -238.5q-41 -195 -175 -298t-339 -103h-325l-68 -310q-38 -14 -106 -14q-33 0 -58.5 3.5t-35.5 6.5l-9 4zM477 1024l-110 -526h299q121 0 200 68.5t105 193.5t-24 194.5 t-171 69.5h-299z" />
<glyph unicode="&#xdf;" horiz-adv-x="1173" d="M23 14l239 1125q83 397 502 397q80 0 145 -19t106.5 -52.5t68 -79t30 -97.5t-7.5 -108q-20 -100 -84 -193q-8 -1 -22 -3t-50.5 -14.5t-66 -30t-58 -52.5t-37.5 -80q-8 -37 0.5 -69.5t28 -56.5t46 -50t55 -50t53.5 -55.5t42.5 -67t22.5 -85t-8 -109.5q-62 -284 -410 -284 q-63 0 -117.5 9.5t-78.5 18.5l-23 10q9 83 74 142q63 -23 148 -23t142.5 37.5t72.5 108.5q9 42 -2.5 79.5t-36 65.5t-56 59t-62 60t-54 69t-32 85.5t4.5 109.5q13 61 44 109.5t66.5 73.5t69.5 41.5t56 20.5l22 5q33 59 45 115q16 85 -22 140.5t-134 55.5q-119 0 -186 -57.5 t-92 -175.5l-240 -1125q-36 -14 -104 -14q-32 0 -57 3.5t-34 6.5z" />
<glyph unicode="&#xe0;" horiz-adv-x="1134" d="M889 1063q26 14 96 14q30 0 52.5 -3.5t30.5 -7.5l7 -3l-223 -1049q-37 -14 -88 -14q-23 0 -45.5 3.5t-33.5 6.5l-11 4l10 111q-126 -145 -338 -145q-180 0 -249 149t-5 442q27 122 66 215t84.5 151.5t102 95t114 51t125.5 14.5q107 0 172 -34.5t96 -107.5zM788 674 q21 107 -27 181.5t-151 74.5q-116 0 -192.5 -86.5t-126.5 -304.5q-48 -217 -14 -304.5t159 -87.5q105 0 189 77.5t106 185.5zM649 1229l-196 276q30 37 82 60.5t98 17.5l143 -291q-48 -51 -127 -63z" />
<glyph unicode="&#xe1;" horiz-adv-x="1134" d="M889 1063q26 14 96 14q30 0 52.5 -3.5t30.5 -7.5l7 -3l-223 -1049q-37 -14 -88 -14q-23 0 -45.5 3.5t-33.5 6.5l-11 4l10 111q-126 -145 -338 -145q-180 0 -249 149t-5 442q27 122 66 215t84.5 151.5t102 95t114 51t125.5 14.5q107 0 172 -34.5t96 -107.5zM788 674 q21 107 -27 181.5t-151 74.5q-116 0 -192.5 -86.5t-126.5 -304.5q-48 -217 -14 -304.5t159 -87.5q105 0 189 77.5t106 185.5zM907 1464l-297 -256q-79 13 -102 64l250 289q47 6 89.5 -25.5t59.5 -71.5z" />
<glyph unicode="&#xe2;" horiz-adv-x="1134" d="M889 1063q26 14 96 14q30 0 52.5 -3.5t30.5 -7.5l7 -3l-223 -1049q-37 -14 -88 -14q-23 0 -45.5 3.5t-33.5 6.5l-11 4l10 111q-126 -145 -338 -145q-180 0 -249 149t-5 442q27 122 66 215t84.5 151.5t102 95t114 51t125.5 14.5q107 0 172 -34.5t96 -107.5zM788 674 q21 107 -27 181.5t-151 74.5q-116 0 -192.5 -86.5t-126.5 -304.5q-48 -217 -14 -304.5t159 -87.5q105 0 189 77.5t106 185.5zM737 1552l254 -231q-54 -76 -108 -92l-191 145l-243 -143q-29 10 -51.5 38.5t-30.5 61.5l317 221h53z" />
<glyph unicode="&#xe3;" horiz-adv-x="1134" d="M889 1063q26 14 96 14q30 0 52.5 -3.5t30.5 -7.5l7 -3l-223 -1049q-37 -14 -88 -14q-23 0 -45.5 3.5t-33.5 6.5l-11 4l10 111q-126 -145 -338 -145q-180 0 -249 149t-5 442q27 122 66 215t84.5 151.5t102 95t114 51t125.5 14.5q107 0 172 -34.5t96 -107.5zM788 674 q21 107 -27 181.5t-151 74.5q-116 0 -192.5 -86.5t-126.5 -304.5q-48 -217 -14 -304.5t159 -87.5q105 0 189 77.5t106 185.5zM821 1399q28 0 55.5 13.5t40.5 27.5l13 14q57 -25 57 -94q-3 -4 -8 -10.5t-23 -23.5t-38 -30t-52.5 -23.5t-66.5 -10.5q-64 0 -131 33.5t-105 33.5 q-28 0 -55.5 -14.5t-41.5 -28.5l-13 -14q-56 35 -56 94q3 4 8 11t23 24t38.5 30t53 24t66.5 11q64 0 130.5 -33.5t104.5 -33.5z" />
<glyph unicode="&#xe4;" horiz-adv-x="1134" d="M659 1446l-34 -166q-36 -12 -95 -12q-28 0 -51 3t-32 6l-9 3l35 166q35 12 98 12q26 0 48 -3t31 -6zM1008 1446l-35 -166q-35 -12 -96 -12q-28 0 -50.5 3t-31.5 6l-9 3l35 166q34 12 97 12q27 0 49.5 -3t31.5 -6zM889 1063q26 14 96 14q30 0 52.5 -3.5t30.5 -7.5l7 -3 l-223 -1049q-37 -14 -88 -14q-23 0 -45.5 3.5t-33.5 6.5l-11 4l10 111q-126 -145 -338 -145q-180 0 -249 149t-5 442q27 122 66 215t84.5 151.5t102 95t114 51t125.5 14.5q107 0 172 -34.5t96 -107.5zM788 674q21 107 -27 181.5t-151 74.5q-116 0 -192.5 -86.5 t-126.5 -304.5q-48 -217 -14 -304.5t159 -87.5q105 0 189 77.5t106 185.5z" />
<glyph unicode="&#xe5;" horiz-adv-x="1134" d="M463 1419q22 100 106 157.5t183 57.5q98 0 158 -57t38 -158q-21 -102 -104 -160.5t-187 -58.5t-159.5 58.5t-34.5 160.5zM823 1419q10 46 -14 77.5t-82 31.5q-55 0 -93 -32t-48 -77q-8 -45 15.5 -76.5t78.5 -31.5q58 0 96.5 32.5t46.5 75.5zM889 1063q26 14 96 14 q30 0 52.5 -3.5t30.5 -7.5l7 -3l-223 -1049q-37 -14 -88 -14q-23 0 -45.5 3.5t-33.5 6.5l-11 4l10 111q-126 -145 -338 -145q-180 0 -249 149t-5 442q27 122 66 215t84.5 151.5t102 95t114 51t125.5 14.5q107 0 172 -34.5t96 -107.5zM788 674q21 107 -27 181.5t-151 74.5 q-116 0 -192.5 -86.5t-126.5 -304.5q-48 -217 -14 -304.5t159 -87.5q105 0 189 77.5t106 185.5z" />
<glyph unicode="&#xe6;" horiz-adv-x="1613" d="M1470 489h-567l-6 -24q-19 -167 27.5 -243.5t160.5 -76.5q62 0 123 14t91 28l30 14q40 -40 33 -135q-5 -3 -14 -9t-40.5 -21t-65 -26t-85 -20.5t-104.5 -9.5q-95 0 -154.5 37.5t-75.5 97.5l-28 -101q-31 -14 -82 -14q-23 0 -42.5 3.5t-27.5 6.5l-8 4l8 105 q-120 -139 -315 -139q-163 0 -230.5 149t-5.5 442q31 148 80 253t112 163.5t131 84.5t150 26q102 0 160 -31t90 -104l35 100q20 14 90 14q24 0 44 -3.5t28 -7.5l8 -3l-16 -94q116 129 262 129q172 0 241 -104.5t27 -307.5q-11 -51 -27 -100.5t-27 -73.5zM1360 713 q47 223 -146 223q-94 0 -164.5 -70.5t-115.5 -232.5h403q13 31 23 80zM700 410l58 264q11 70 2 127t-50.5 93t-109.5 36q-232 0 -313 -391q-33 -145 -21 -232t52 -123.5t112 -36.5q103 0 175 75.5t95 187.5z" />
<glyph unicode="&#xe7;" horiz-adv-x="907" d="M90 569q58 272 195.5 400.5t363.5 128.5q88 0 154 -13t88 -25l22 -13q-9 -42 -34 -82t-58 -66q-65 31 -174 31q-146 0 -230 -94.5t-126 -296.5q-43 -201 5 -293t196 -92q50 0 100 8.5t75 17.5l25 8q20 -23 27.5 -63.5t-0.5 -83.5q-10 -6 -30 -15t-89.5 -25.5 t-148.5 -20.5l-37 -101q110 0 151 -51t23 -139q-23 -100 -98.5 -150.5t-192.5 -50.5q-54 0 -98 12t-61 24l-17 13q10 61 61 86q52 -29 127 -29q129 0 150 101q9 43 -13.5 67.5t-80.5 24.5h-74l-21 29l66 170q-177 26 -239 178t-7 405z" />
<glyph unicode="&#xe8;" horiz-adv-x="1046" d="M692 1237l-196 276q29 35 88 58.5t106 17.5l133 -289q-47 -50 -131 -63zM901 475h-625q-26 -179 26 -250t192 -71q64 0 127.5 15t94.5 29l32 15q23 -25 32.5 -66.5t1.5 -85.5q-6 -3 -16 -8.5t-45.5 -19.5t-74 -24.5t-99.5 -19.5t-123 -9q-232 0 -315 154t-19 437 q61 271 206 399t357 128q187 0 272.5 -106t43.5 -306q-12 -57 -29 -110t-28 -77zM778 713q21 99 -16 161t-144 62q-219 0 -311 -315h445q12 32 26 92z" />
<glyph unicode="&#xe9;" horiz-adv-x="1046" d="M932 1493l-316 -276q-79 14 -102 63l256 289q50 6 98.5 -17t63.5 -59zM901 475h-625q-26 -179 26 -250t192 -71q64 0 127.5 15t94.5 29l32 15q23 -25 32.5 -66.5t1.5 -85.5q-6 -3 -16 -8.5t-45.5 -19.5t-74 -24.5t-99.5 -19.5t-123 -9q-232 0 -315 154t-19 437 q61 271 206 399t357 128q187 0 272.5 -106t43.5 -306q-12 -57 -29 -110t-28 -77zM778 713q21 99 -16 161t-144 62q-219 0 -311 -315h445q12 32 26 92z" />
<glyph unicode="&#xea;" horiz-adv-x="1046" d="M756 1548l239 -225q-46 -70 -110 -90l-178 141l-240 -139q-56 20 -76 88l314 225h51zM901 475h-625q-26 -179 26 -250t192 -71q64 0 127.5 15t94.5 29l32 15q23 -25 32.5 -66.5t1.5 -85.5q-6 -3 -16 -8.5t-45.5 -19.5t-74 -24.5t-99.5 -19.5t-123 -9q-232 0 -315 154 t-19 437q61 271 206 399t357 128q187 0 272.5 -106t43.5 -306q-12 -57 -29 -110t-28 -77zM778 713q21 99 -16 161t-144 62q-219 0 -311 -315h445q12 32 26 92z" />
<glyph unicode="&#xeb;" horiz-adv-x="1046" d="M639 1436l-35 -168q-37 -13 -98 -13q-28 0 -50 3.5t-30 6.5l-8 3l35 168q31 12 94 12q27 0 50 -3t33 -6zM985 1436l-35 -168q-37 -13 -96 -13q-28 0 -50.5 3.5t-31.5 6.5l-8 3l35 168q33 12 96 12q26 0 48.5 -3t32.5 -6zM901 475h-625q-26 -179 26 -250t192 -71 q64 0 127.5 15t94.5 29l32 15q23 -25 32.5 -66.5t1.5 -85.5q-6 -3 -16 -8.5t-45.5 -19.5t-74 -24.5t-99.5 -19.5t-123 -9q-232 0 -315 154t-19 437q61 271 206 399t357 128q187 0 272.5 -106t43.5 -306q-12 -57 -29 -110t-28 -77zM778 713q21 99 -16 161t-144 62 q-219 0 -311 -315h445q12 32 26 92z" />
<glyph unicode="&#xec;" horiz-adv-x="516" d="M401 1241l-198 277q29 35 88 58t106 17l133 -288q-45 -51 -129 -64zM453 1063l-224 -1049q-36 -14 -104 -14q-32 0 -57 3.5t-34 6.5l-9 4l223 1049q34 14 106 14q30 0 55 -3.5t35 -7.5z" />
<glyph unicode="&#xed;" horiz-adv-x="516" d="M674 1513l-316 -276q-79 14 -102 63l256 289q50 6 98.5 -17t63.5 -59zM453 1063l-224 -1049q-36 -14 -104 -14q-32 0 -57 3.5t-34 6.5l-9 4l223 1049q34 14 106 14q30 0 55 -3.5t35 -7.5z" />
<glyph unicode="&#xee;" horiz-adv-x="516" d="M481 1548l230 -225q-50 -70 -113 -90l-178 141l-240 -139q-54 19 -74 88l324 225h51zM453 1063l-224 -1049q-36 -14 -104 -14q-32 0 -57 3.5t-34 6.5l-9 4l223 1049q34 14 106 14q30 0 55 -3.5t35 -7.5z" />
<glyph unicode="&#xef;" horiz-adv-x="516" d="M344 1440l-35 -168q-35 -10 -94 -10q-28 0 -51 2.5t-32 5.5l-9 2l35 168q35 12 98 12q26 0 48 -3t31 -6zM692 1440l-35 -168q-35 -10 -96 -10q-28 0 -50.5 2.5t-30.5 5.5l-9 2l35 168q33 12 96 12q27 0 49.5 -3t31.5 -6zM453 1063l-224 -1049q-36 -14 -104 -14 q-32 0 -57 3.5t-34 6.5l-9 4l223 1049q34 14 106 14q30 0 55 -3.5t35 -7.5z" />
<glyph unicode="&#xf0;" horiz-adv-x="1136" d="M1026 1419l-137 -76q112 -122 147.5 -298.5t-12.5 -415.5q-39 -186 -95 -313t-131.5 -200.5t-163.5 -104.5t-204 -31q-219 0 -312 139.5t-32 423.5q30 143 81 244t121.5 158.5t151.5 82.5t183 25q164 0 239 -101q-13 188 -129 301l-215 -120q-49 49 -49 110l156 86 q-90 54 -195 76q10 85 70 131q162 -26 295 -113l186 105q45 -42 45 -109zM449 137q58 0 104.5 17.5t89.5 59t77 117t58 185.5q19 90 20.5 157t-10.5 109t-39 67.5t-61 35.5t-82 10q-59 0 -105 -17.5t-87.5 -59t-73.5 -116.5t-55 -186q-19 -88 -22 -154.5t8.5 -109 t37.5 -68.5t60 -36.5t80 -10.5z" />
<glyph unicode="&#xf1;" horiz-adv-x="1128" d="M420 1366q2 4 7 11t22.5 24t37 30t52 24t67.5 11q63 0 130.5 -33.5t105.5 -33.5q28 0 55 14.5t40 28.5l13 14q26 -12 42 -38t16 -56q-3 -4 -8 -11t-22.5 -24t-38 -30t-53 -24t-67.5 -11q-50 0 -91 17t-75.5 33.5t-68.5 16.5q-28 0 -55.5 -14.5t-40.5 -28.5l-13 -14 q-61 36 -55 94zM1010 745l-158 -731q-36 -14 -104 -14q-31 0 -56.5 3.5t-35.5 6.5l-9 4l158 738q39 180 -152 180q-68 0 -137 -35t-123 -96l-168 -787q-38 -14 -104 -14q-32 0 -57 3.5t-34 6.5l-10 4l224 1049q34 14 106 14q29 0 54 -3.5t35 -7.5l10 -3l-21 -94 q141 129 317 129q157 0 229 -91t36 -262z" />
<glyph unicode="&#xf2;" horiz-adv-x="1105" d="M649 1589l131 -289q-47 -50 -131 -63l-196 276q31 36 89 59t107 17zM90 563q32 150 83 254.5t123 165.5t157 88t194 27q456 0 334 -576q-32 -150 -82.5 -255.5t-121.5 -168t-155.5 -90.5t-193.5 -28q-218 0 -309.5 144t-28.5 439zM780 539q25 116 25.5 195t-23 123 t-62 62.5t-97.5 18.5t-106 -18.5t-90 -62.5t-77 -123.5t-59 -194.5q-23 -118 -25 -195.5t23.5 -123t64 -63.5t97.5 -18t105.5 18.5t89 63t76 123.5t58.5 195z" />
<glyph unicode="&#xf3;" horiz-adv-x="1105" d="M516 1300l256 289q50 6 98.5 -17t63.5 -59l-316 -276q-79 14 -102 63zM90 563q32 150 83 254.5t123 165.5t157 88t194 27q456 0 334 -576q-32 -150 -82.5 -255.5t-121.5 -168t-155.5 -90.5t-193.5 -28q-218 0 -309.5 144t-28.5 439zM780 539q25 116 25.5 195t-23 123 t-62 62.5t-97.5 18.5t-106 -18.5t-90 -62.5t-77 -123.5t-59 -194.5q-23 -118 -25 -195.5t23.5 -123t64 -63.5t97.5 -18t105.5 18.5t89 63t76 123.5t58.5 195z" />
<glyph unicode="&#xf4;" horiz-adv-x="1105" d="M762 1544l233 -221q-50 -70 -110 -90l-180 141l-240 -139q-54 21 -74 88l320 221h51zM90 563q32 150 83 254.5t123 165.5t157 88t194 27q456 0 334 -576q-32 -150 -82.5 -255.5t-121.5 -168t-155.5 -90.5t-193.5 -28q-218 0 -309.5 144t-28.5 439zM780 539 q25 116 25.5 195t-23 123t-62 62.5t-97.5 18.5t-106 -18.5t-90 -62.5t-77 -123.5t-59 -194.5q-23 -118 -25 -195.5t23.5 -123t64 -63.5t97.5 -18t105.5 18.5t89 63t76 123.5t58.5 195z" />
<glyph unicode="&#xf5;" horiz-adv-x="1105" d="M403 1360q3 4 8 11t22.5 24t38 30t53 24t67.5 11q50 0 90.5 -17t74.5 -33.5t68 -16.5q28 0 55.5 14.5t40.5 28.5l13 14q27 -12 43 -38t14 -56q-3 -4 -8 -11t-22.5 -24.5t-37.5 -30.5t-52.5 -24t-67.5 -11q-50 0 -91 17t-76 34t-69 17q-28 0 -55 -14.5t-40 -28.5l-13 -14 q-59 35 -56 94zM90 563q32 150 83 254.5t123 165.5t157 88t194 27q456 0 334 -576q-32 -150 -82.5 -255.5t-121.5 -168t-155.5 -90.5t-193.5 -28q-218 0 -309.5 144t-28.5 439zM780 539q25 116 25.5 195t-23 123t-62 62.5t-97.5 18.5t-106 -18.5t-90 -62.5t-77 -123.5 t-59 -194.5q-23 -118 -25 -195.5t23.5 -123t64 -63.5t97.5 -18t105.5 18.5t89 63t76 123.5t58.5 195z" />
<glyph unicode="&#xf6;" horiz-adv-x="1105" d="M451 1444q33 12 96 12q26 0 48.5 -3t32.5 -6l9 -3l-37 -168q-35 -10 -94 -10q-28 0 -51 2.5t-32 5.5l-9 2zM799 1444q31 12 94 12q27 0 50 -3t33 -6l9 -3l-37 -168q-35 -10 -96 -10q-28 0 -50.5 2.5t-31.5 5.5l-8 2zM90 563q32 150 83 254.5t123 165.5t157 88t194 27 q456 0 334 -576q-32 -150 -82.5 -255.5t-121.5 -168t-155.5 -90.5t-193.5 -28q-218 0 -309.5 144t-28.5 439zM780 539q25 116 25.5 195t-23 123t-62 62.5t-97.5 18.5t-106 -18.5t-90 -62.5t-77 -123.5t-59 -194.5q-23 -118 -25 -195.5t23.5 -123t64 -63.5t97.5 -18 t105.5 18.5t89 63t76 123.5t58.5 195z" />
<glyph unicode="&#xf7;" horiz-adv-x="1083" d="M735 1022l-41 -193q-38 -14 -108 -14q-33 0 -59 3.5t-36 7.5l-10 3l41 193q37 14 111 14q31 0 56.5 -3.5t35.5 -6.5zM940 518h-838q-6 29 4 76q4 21 10.5 40t11.5 28l5 8h838q6 -29 -2 -76q-4 -21 -11.5 -40t-12.5 -28zM594 358l-41 -192q-39 -14 -109 -14q-33 0 -59 3.5 t-35 6.5l-10 4l41 192q37 15 111 15q31 0 56.5 -3.5t35.5 -7.5z" />
<glyph unicode="&#xf8;" horiz-adv-x="1105" d="M1081 1116l-127 -155q89 -147 27 -439q-32 -150 -82.5 -255.5t-121.5 -168t-155.5 -90.5t-193.5 -28q-136 0 -221 55l-107 -133q-75 3 -108 57l129 160q-93 151 -31 444q32 150 83 254.5t123 165.5t157 88t194 27q138 0 221 -54l107 130q32 -1 60.5 -18.5t45.5 -39.5z M623 938q-59 0 -106 -18.5t-90 -62.5t-77 -123.5t-59 -194.5q-33 -146 -23 -242l484 602q-42 39 -129 39zM451 139q59 0 105.5 18.5t89 63t76 123.5t58.5 195q33 142 23 237l-481 -598q44 -39 129 -39z" />
<glyph unicode="&#xf9;" horiz-adv-x="1124" d="M680 1579l129 -283q-42 -47 -127 -61l-193 270q28 35 86 57.5t105 16.5zM82 334l154 729q38 14 106 14q31 0 55.5 -3.5t33.5 -7.5l9 -3l-155 -737q-39 -181 151 -181q68 0 136.5 34t123.5 97l166 787q41 14 107 14q32 0 56.5 -3.5t32.5 -7.5l9 -3l-223 -1049 q-24 -14 -96 -14q-29 0 -53 3.5t-33 6.5l-9 4l6 95q-67 -68 -139.5 -97.5t-169.5 -29.5q-112 0 -180.5 50.5t-88 128.5t0.5 173z" />
<glyph unicode="&#xfa;" horiz-adv-x="1124" d="M958 1513l-315 -276q-79 14 -102 63l256 289q50 6 98 -17t63 -59zM82 334l154 729q38 14 106 14q31 0 55.5 -3.5t33.5 -7.5l9 -3l-155 -737q-39 -181 151 -181q68 0 136.5 34t123.5 97l166 787q41 14 107 14q32 0 56.5 -3.5t32.5 -7.5l9 -3l-223 -1049q-24 -14 -96 -14 q-29 0 -53 3.5t-33 6.5l-9 4l6 95q-67 -68 -139.5 -97.5t-169.5 -29.5q-112 0 -180.5 50.5t-88 128.5t0.5 173z" />
<glyph unicode="&#xfb;" horiz-adv-x="1124" d="M774 1544l240 -221q-49 -70 -111 -90l-178 141l-240 -139q-55 20 -75 88l313 221h51zM82 334l154 729q38 14 106 14q31 0 55.5 -3.5t33.5 -7.5l9 -3l-155 -737q-39 -181 151 -181q68 0 136.5 34t123.5 97l166 787q41 14 107 14q32 0 56.5 -3.5t32.5 -7.5l9 -3l-223 -1049 q-24 -14 -96 -14q-29 0 -53 3.5t-33 6.5l-9 4l6 95q-67 -68 -139.5 -97.5t-169.5 -29.5q-112 0 -180.5 50.5t-88 128.5t0.5 173z" />
<glyph unicode="&#xfc;" horiz-adv-x="1124" d="M469 1446q31 12 94 12q27 0 50 -3t33 -6l9 -3l-34 -168q-38 -12 -99 -12q-28 0 -50 3t-30 6l-8 3zM817 1446q31 12 94 12q27 0 50.5 -3t32.5 -6l10 -3l-35 -168q-38 -12 -99 -12q-28 0 -50 3t-30 6l-8 3zM82 334l154 729q38 14 106 14q31 0 55.5 -3.5t33.5 -7.5l9 -3 l-155 -737q-39 -181 151 -181q68 0 136.5 34t123.5 97l166 787q41 14 107 14q32 0 56.5 -3.5t32.5 -7.5l9 -3l-223 -1049q-24 -14 -96 -14q-29 0 -53 3.5t-33 6.5l-9 4l6 95q-67 -68 -139.5 -97.5t-169.5 -29.5q-112 0 -180.5 50.5t-88 128.5t0.5 173z" />
<glyph unicode="&#xfd;" horiz-adv-x="1126" d="M862 1063q41 14 107 14q32 0 56.5 -3.5t32.5 -7.5l9 -3l-217 -1028q-63 -293 -200 -420t-392 -127q-94 0 -170 18.5t-106 37.5l-29 18q23 88 88 137q11 -5 30 -12.5t78 -20t117 -12.5q46 0 78.5 2.5t69 11t62 24t53 42.5t47 65.5t37.5 93.5t32 127l14 74 q-66 -62 -139 -88t-170 -26q-160 0 -232 92.5t-38 251.5l156 739q38 14 106 14q31 0 55.5 -3.5t33.5 -7.5l9 -3l-155 -737q-39 -181 151 -181q68 0 136.5 34t123.5 97zM940 1473l-297 -256q-79 14 -102 63l250 289q47 6 89.5 -25t59.5 -71z" />
<glyph unicode="&#xfe;" horiz-adv-x="1142" d="M342 1522q34 14 102 14q31 0 57 -3.5t36 -6.5l10 -4l-119 -557q120 133 324 133q383 0 262 -576q-32 -153 -81.5 -260.5t-115 -168t-139 -87t-164.5 -26.5q-204 0 -266 133l-123 -574q-37 -12 -107 -12q-30 0 -54.5 3t-33.5 6l-10 3zM807 539q24 113 25.5 189.5 t-21.5 120.5t-63.5 62.5t-104.5 18.5q-103 0 -178 -74.5t-98 -183.5l-58 -262q-23 -111 21 -187t147 -76q86 0 145 34t106 121t79 237z" />
<glyph unicode="&#xff;" horiz-adv-x="1126" d="M862 1063q41 14 107 14q32 0 56.5 -3.5t32.5 -7.5l9 -3l-217 -1028q-63 -293 -200 -420t-392 -127q-94 0 -170 18.5t-106 37.5l-29 18q23 88 88 137q11 -5 30 -12.5t78 -20t117 -12.5q46 0 78.5 2.5t69 11t62 24t53 42.5t47 65.5t37.5 93.5t32 127l14 74 q-66 -62 -139 -88t-170 -26q-160 0 -232 92.5t-38 251.5l156 739q38 14 106 14q31 0 55.5 -3.5t33.5 -7.5l9 -3l-155 -737q-39 -181 151 -181q68 0 136.5 34t123.5 97zM633 1448l-35 -166q-35 -12 -94 -12q-28 0 -51 3t-32 6l-9 3l34 166q36 12 99 12q26 0 48 -3t31 -6z M981 1448l-35 -166q-35 -12 -96 -12q-28 0 -50.5 3t-31.5 6l-8 3l35 166q33 12 96 12q27 0 49.5 -3t31.5 -6z" />
<glyph unicode="&#x100;" horiz-adv-x="1339" d="M586 1747h583q6 -56 -26 -125h-584q-6 61 27 125zM725 1460q53 15 125 15q35 0 65 -3.5t43 -7.5l13 -4l205 -1446q-39 -14 -115 -14q-31 0 -53.5 3.5t-29.5 6.5l-7 4l-49 361h-607l-202 -361q-51 -14 -117 -14q-28 0 -51.5 3.5t-32.5 6.5l-10 4zM811 1257h-6l-395 -712 h487l-72 528q-6 47 -9.5 93t-3.5 68z" />
<glyph unicode="&#x101;" horiz-adv-x="1134" d="M920 1307h-535q-10 66 27 125h534q13 -59 -26 -125zM889 1063q26 14 96 14q30 0 52.5 -3.5t30.5 -7.5l7 -3l-223 -1049q-37 -14 -88 -14q-23 0 -45.5 3.5t-33.5 6.5l-11 4l10 111q-126 -145 -338 -145q-180 0 -249 149t-5 442q27 122 66 215t84.5 151.5t102 95t114 51 t125.5 14.5q107 0 172 -34.5t96 -107.5zM788 674q21 107 -27 181.5t-151 74.5q-116 0 -192.5 -86.5t-126.5 -304.5q-48 -217 -14 -304.5t159 -87.5q105 0 189 77.5t106 185.5z" />
<glyph unicode="&#x102;" horiz-adv-x="1339" d="M897 1739q63 0 123 16.5t88 32.5l29 16q29 -10 48 -40t21 -62q-4 -5 -13 -12.5t-39.5 -27t-64.5 -34.5t-89.5 -27t-114.5 -12t-113 12.5t-88.5 30.5t-61 35.5t-38.5 30.5l-11 12q19 32 49.5 58t63.5 36q8 -7 23.5 -18t70 -29t117.5 -18zM725 1460q53 15 125 15 q35 0 65 -3.5t43 -7.5l13 -4l205 -1446q-39 -14 -115 -14q-31 0 -53.5 3.5t-29.5 6.5l-7 4l-49 361h-607l-202 -361q-51 -14 -117 -14q-28 0 -51.5 3.5t-32.5 6.5l-10 4zM811 1257h-6l-395 -712h487l-72 528q-6 47 -9.5 93t-3.5 68z" />
<glyph unicode="&#x103;" horiz-adv-x="1134" d="M1018 1372q-5 -5 -14 -13t-39.5 -28t-65 -35.5t-89.5 -28t-112 -12.5t-108.5 13t-84 31.5t-57 37.5t-34.5 32l-11 13q15 33 45.5 60t63.5 37q3 -3 8.5 -7.5t24.5 -15.5t40.5 -20t57.5 -16t74 -7q61 0 119 16.5t86 32.5l28 17q29 -8 47 -39.5t21 -67.5zM889 1063 q26 14 96 14q30 0 52.5 -3.5t30.5 -7.5l7 -3l-223 -1049q-37 -14 -88 -14q-23 0 -45.5 3.5t-33.5 6.5l-11 4l10 111q-126 -145 -338 -145q-180 0 -249 149t-5 442q27 122 66 215t84.5 151.5t102 95t114 51t125.5 14.5q107 0 172 -34.5t96 -107.5zM788 674q21 107 -27 181.5 t-151 74.5q-116 0 -192.5 -86.5t-126.5 -304.5q-48 -217 -14 -304.5t159 -87.5q105 0 189 77.5t106 185.5z" />
<glyph unicode="&#x104;" horiz-adv-x="1339" d="M725 1460q53 15 125 15q35 0 65 -3.5t43 -7.5l13 -4l205 -1446q-98 -66 -171.5 -164t-66.5 -159q7 -39 45.5 -42t77.5 25q14 -22 21.5 -61t0.5 -70q-78 -55 -184 -55q-65 0 -110 31.5t-48 95.5q-3 90 64 196t188 195l-22 8l-49 361h-607l-202 -361q-51 -14 -117 -14 q-28 0 -51.5 3.5t-32.5 6.5l-10 4zM811 1257h-6l-395 -712h487l-72 528q-6 47 -9.5 93t-3.5 68z" />
<glyph unicode="&#x105;" horiz-adv-x="1136" d="M889 1063q26 14 96 14q30 0 52.5 -3.5t30.5 -7.5l7 -3l-223 -1049q-99 -66 -173 -164.5t-67 -158.5q7 -39 45.5 -42t77.5 25q15 -22 22.5 -61t0.5 -70q-78 -55 -185 -55q-65 0 -109.5 31t-47.5 96q-3 87 65.5 193t192.5 206l10 111q-126 -145 -338 -145q-180 0 -249 149 t-5 442q27 122 66 215t84.5 151.5t102 95t114 51t125.5 14.5q107 0 172 -34.5t96 -107.5zM788 674q21 107 -27 181.5t-151 74.5q-116 0 -192.5 -86.5t-126.5 -304.5q-48 -217 -14 -304.5t159 -87.5q105 0 189 77.5t106 185.5z" />
<glyph unicode="&#x106;" horiz-adv-x="1144" d="M1188 1819l-316 -277q-79 13 -102 64l256 288q49 6 98 -17t64 -58zM150 766q79 370 264.5 549.5t482.5 179.5q101 0 185 -17.5t118 -35.5l33 -17q-12 -80 -94 -155q-12 5 -34 13t-89 21t-131 13q-75 0 -137.5 -16.5t-123 -57t-109 -106t-89.5 -167t-70 -235.5 q-28 -134 -29.5 -234.5t19 -164.5t64 -103.5t99 -55t130.5 -15.5q72 0 145.5 12t111.5 24l38 11q46 -55 29 -160q-17 -8 -48 -19.5t-132 -30.5t-208 -19q-290 0 -397 203.5t-28 582.5z" />
<glyph unicode="&#x107;" horiz-adv-x="909" d="M647 930q-146 0 -230 -94.5t-126 -296.5q-43 -201 5 -293t196 -92q50 0 100 8.5t75 17.5l25 8q20 -23 27.5 -63.5t-0.5 -83.5q-11 -7 -34 -17t-102.5 -27t-170.5 -17q-220 0 -301 155t-21 434q58 272 195.5 400.5t363.5 128.5q88 0 154 -13t88 -25l22 -13q-9 -42 -34 -82 t-58 -66q-65 31 -174 31zM903 1446l-297 -256q-79 14 -102 63l250 289q47 6 89.5 -25t59.5 -71z" />
<glyph unicode="&#x108;" horiz-adv-x="1146" d="M985 1880l246 -231q-52 -73 -115 -93l-184 146l-244 -143q-56 19 -76 90l320 231h53zM578 -20q-291 0 -398 207t-28 587q79 369 264 545t483 176q100 0 184 -17.5t118 -35.5l34 -17q-12 -82 -96 -155q-12 5 -34 13t-88.5 21t-131.5 13q-93 0 -169 -27.5t-145.5 -91.5 t-123 -180t-89.5 -283q-28 -134 -29.5 -234.5t18.5 -164.5t63.5 -103.5t99 -55t129.5 -15.5q73 0 146.5 12t110.5 24l38 11q49 -58 29 -160q-6 -3 -17.5 -7.5t-49.5 -16.5t-80 -21t-106.5 -16.5t-131.5 -7.5z" />
<glyph unicode="&#x109;" horiz-adv-x="909" d="M647 930q-146 0 -230 -94.5t-126 -296.5q-43 -201 5 -293t196 -92q50 0 100 8.5t75 17.5l25 8q20 -23 27.5 -63.5t-0.5 -83.5q-11 -7 -34 -17t-102.5 -27t-170.5 -17q-220 0 -301 155t-21 434q58 272 195.5 400.5t363.5 128.5q88 0 154 -13t88 -25l22 -13q-9 -42 -34 -82 t-58 -66q-65 31 -174 31zM707 1546l254 -231q-53 -75 -109 -92l-190 145l-244 -143q-29 10 -51.5 38.5t-30.5 61.5l317 221h54z" />
<glyph unicode="&#x10a;" horiz-adv-x="1146" d="M1059 1774l-37 -177q-39 -12 -102 -12q-30 0 -54 3t-32 6l-9 3l37 177q33 12 101 12q28 0 52 -3t34 -6zM578 -20q-291 0 -398 206t-28 586q79 369 264.5 546t482.5 177q100 0 184 -17.5t118 -35.5l34 -17q-12 -82 -96 -155q-12 5 -34 13t-88.5 21t-131.5 13 q-93 0 -169 -27.5t-145.5 -91.5t-123 -180t-89.5 -283q-28 -134 -29.5 -234.5t18.5 -164.5t63.5 -103.5t99 -55t129.5 -15.5q73 0 146.5 12t110.5 24l38 11q49 -58 29 -160q-6 -3 -17.5 -7.5t-49.5 -16.5t-80 -21t-106.5 -16.5t-131.5 -7.5z" />
<glyph unicode="&#x10b;" horiz-adv-x="909" d="M770 1454l-37 -174q-35 -12 -98 -12q-31 0 -55 3t-32 6l-9 3l36 174q31 12 101 12q28 0 51.5 -3t32.5 -6zM647 930q-146 0 -230 -94.5t-126 -296.5q-43 -201 5 -293t196 -92q50 0 100 8.5t75 17.5l25 8q20 -23 27.5 -63.5t-0.5 -83.5q-11 -7 -34 -17t-102.5 -27 t-170.5 -17q-220 0 -301 155t-21 434q58 272 195.5 400.5t363.5 128.5q88 0 154 -13t88 -25l22 -13q-9 -42 -34 -82t-58 -66q-65 31 -174 31z" />
<glyph unicode="&#x10c;" horiz-adv-x="1144" d="M899 1556l-254 226q51 72 113 92l186 -145l244 143q55 -20 76 -90l-312 -226h-53zM150 766q79 370 264.5 549.5t482.5 179.5q101 0 185 -17.5t118 -35.5l33 -17q-12 -80 -94 -155q-12 5 -34 13t-89 21t-131 13q-75 0 -137.5 -16.5t-123 -57t-109 -106t-89.5 -167 t-70 -235.5q-28 -134 -29.5 -234.5t19 -164.5t64 -103.5t99 -55t130.5 -15.5q72 0 145.5 12t111.5 24l38 11q46 -55 29 -160q-17 -8 -48 -19.5t-132 -30.5t-208 -19q-290 0 -397 203.5t-28 582.5z" />
<glyph unicode="&#x10d;" horiz-adv-x="909" d="M647 930q-146 0 -230 -94.5t-126 -296.5q-43 -201 5 -293t196 -92q50 0 100 8.5t75 17.5l25 8q20 -23 27.5 -63.5t-0.5 -83.5q-11 -7 -34 -17t-102.5 -27t-170.5 -17q-220 0 -301 155t-21 434q58 272 195.5 400.5t363.5 128.5q88 0 154 -13t88 -25l22 -13q-9 -42 -34 -82 t-58 -66q-65 31 -174 31zM610 1217l-245 221q51 72 110 90l178 -142l232 146q28 -8 49 -35t31 -59l-303 -221h-52z" />
<glyph unicode="&#x10e;" horiz-adv-x="1357" d="M797 1554l-258 228q52 73 112 92l185 -145l243 143q55 -19 76 -90l-305 -228h-53zM367 1475h454q145 0 244.5 -43t158.5 -135.5t65.5 -237t-34.5 -348.5q-34 -161 -86 -282.5t-117.5 -202.5t-150.5 -132t-180.5 -72.5t-212.5 -21.5h-455zM299 174h231q76 0 136.5 14 t119.5 51.5t104 100t84.5 162t67.5 235.5q29 136 32.5 236t-15 162.5t-61.5 99.5t-97.5 51t-130.5 14h-231z" />
<glyph unicode="&#x10f;" horiz-adv-x="1165" d="M1206 1235q76 69 111 134.5t47 160.5q116 23 168 -23q-29 -104 -95.5 -193t-150.5 -128q-62 6 -80 49zM971 1522q36 14 106 14q30 0 55 -3.5t34 -6.5l10 -4l-322 -1508q-37 -14 -88 -14q-23 0 -45.5 3.5t-33.5 6.5l-11 4l10 111q-63 -73 -137 -109t-184 -36 q-185 0 -260.5 140.5t-12.5 440.5q32 153 80.5 259.5t113 166.5t136.5 85.5t164 25.5q201 0 266 -133zM791 674q21 108 -23.5 182t-146.5 74q-86 0 -144.5 -33.5t-104.5 -120.5t-79 -237q-20 -91 -24 -158t5 -112t34 -72t60.5 -38.5t86.5 -11.5q103 0 179 76t99 187z" />
<glyph unicode="&#x110;" horiz-adv-x="1390" d="M393 1475h455q605 0 440 -764q-34 -161 -86.5 -282.5t-118.5 -202.5t-152.5 -132t-182.5 -72.5t-213 -21.5h-455l139 659h-162q-2 33 7 74t24 68h162zM565 1300l-106 -499h270q4 -28 -5.5 -69.5t-25.5 -72.5h-270l-102 -485h231q76 0 136.5 14t119.5 51.5t104 100 t84.5 162t67.5 235.5q29 136 32.5 236t-15 162.5t-61.5 99.5t-97.5 51t-130.5 14h-232z" />
<glyph unicode="&#x111;" horiz-adv-x="1136" d="M1145 1382h139q6 -22 -2 -63q-4 -18 -10 -34t-10 -23l-5 -7h-139l-264 -1241q-37 -14 -88 -14q-23 0 -45.5 3.5t-33.5 6.5l-11 4l10 111q-63 -73 -137 -109t-184 -36q-185 0 -260.5 140.5t-12.5 440.5q32 153 80.5 259.5t113 166.5t136.5 85.5t164 25.5q201 0 266 -133 l61 290h-227q-4 23 4 64q4 18 9.5 34t9.5 23l4 6h229l29 140q36 14 106 14q30 0 55 -3.5t34 -6.5l10 -4zM733 410l58 264q21 108 -23.5 182t-146.5 74q-86 0 -144.5 -33.5t-104.5 -120.5t-79 -237q-20 -91 -24 -158t5 -112t34 -72t60.5 -38.5t86.5 -11.5q103 0 179 76 t99 187z" />
<glyph unicode="&#x112;" horiz-adv-x="1138" d="M1104 1602h-602q-6 62 26 124h602q9 -56 -26 -124zM367 1475h831q5 -58 0 -80q-11 -47 -37 -90h-622l-101 -476h520q5 -58 0 -81q-7 -34 -34 -86h-521l-104 -492h643q4 -53 -2 -82q-7 -38 -35 -88h-852z" />
<glyph unicode="&#x113;" horiz-adv-x="1046" d="M963 1290h-531q-3 66 27 125h530q8 -70 -26 -125zM901 475h-625q-26 -179 26 -250t192 -71q64 0 127.5 15t94.5 29l32 15q23 -25 32.5 -66.5t1.5 -85.5q-6 -3 -16 -8.5t-45.5 -19.5t-74 -24.5t-99.5 -19.5t-123 -9q-232 0 -315 154t-19 437q61 271 206 399t357 128 q187 0 272.5 -106t43.5 -306q-12 -57 -29 -110t-28 -77zM778 713q21 99 -16 161t-144 62q-219 0 -311 -315h445q12 32 26 92z" />
<glyph unicode="&#x114;" horiz-adv-x="1138" d="M1141 1716q-5 -5 -15.5 -13.5t-44 -29.5t-71 -37t-95 -29.5t-116.5 -13.5q-60 0 -111.5 12.5t-83 30.5t-54.5 36.5t-32 31.5l-10 12q15 31 45 57.5t65 36.5q8 -7 24 -18t71 -29t118 -18t123 16.5t88 32.5l29 16q28 -10 46.5 -36t23.5 -58zM367 1475h831q5 -58 0 -80 q-11 -47 -37 -90h-622l-101 -476h520q5 -58 0 -81q-7 -34 -34 -86h-521l-104 -492h643q4 -53 -2 -82q-7 -38 -35 -88h-852z" />
<glyph unicode="&#x115;" horiz-adv-x="1046" d="M1016 1380l-13.5 -13.5t-38.5 -30t-64 -38t-88.5 -30t-111.5 -13.5t-109 13t-85 31.5t-58 36.5t-36 31l-11 13q18 33 47.5 60t61.5 37q3 -3 8.5 -7.5t24.5 -15.5t40.5 -20t57.5 -16t74 -7q61 0 119 16.5t86 32.5l28 17q30 -9 48 -36.5t20 -60.5zM901 475h-625 q-26 -179 26 -250t192 -71q64 0 127.5 15t94.5 29l32 15q23 -25 32.5 -66.5t1.5 -85.5q-6 -3 -16 -8.5t-45.5 -19.5t-74 -24.5t-99.5 -19.5t-123 -9q-232 0 -315 154t-19 437q61 271 206 399t357 128q187 0 272.5 -106t43.5 -306q-12 -57 -29 -110t-28 -77zM778 713 q21 99 -16 161t-144 62q-219 0 -311 -315h445q12 32 26 92z" />
<glyph unicode="&#x116;" horiz-adv-x="1138" d="M944 1774l-37 -177q-37 -12 -100 -12q-31 0 -54.5 3t-31.5 6l-8 3l37 177q30 12 100 12q28 0 51.5 -3t32.5 -6zM367 1475h831q5 -58 0 -80q-11 -47 -37 -90h-622l-101 -476h520q5 -58 0 -81q-7 -34 -34 -86h-521l-104 -492h643q4 -53 -2 -82q-7 -38 -35 -88h-852z" />
<glyph unicode="&#x117;" horiz-adv-x="1046" d="M819 1450l-37 -176q-37 -12 -100 -12q-30 0 -53.5 3t-32.5 6l-8 3l37 176q32 12 100 12q28 0 51.5 -3t33.5 -6zM901 475h-625q-26 -179 26 -250t192 -71q64 0 127.5 15t94.5 29l32 15q23 -25 32.5 -66.5t1.5 -85.5q-6 -3 -16 -8.5t-45.5 -19.5t-74 -24.5t-99.5 -19.5 t-123 -9q-232 0 -315 154t-19 437q61 271 206 399t357 128q187 0 272.5 -106t43.5 -306q-12 -57 -29 -110t-28 -77zM778 713q21 99 -16 161t-144 62q-219 0 -311 -315h445q12 32 26 92z" />
<glyph unicode="&#x118;" horiz-adv-x="1138" d="M367 1475h831q5 -58 0 -80q-11 -47 -37 -90h-622l-101 -476h520q5 -58 0 -81q-7 -34 -34 -86h-521l-104 -492h643q4 -53 -2 -82q-7 -38 -35 -88q-99 -66 -167.5 -157.5t-61.5 -151.5q7 -39 45.5 -42t77.5 25q14 -22 21.5 -61t0.5 -70q-78 -55 -184 -55q-65 0 -110 31.5 t-48 95.5q-3 89 63.5 192.5t188.5 192.5h-678z" />
<glyph unicode="&#x119;" horiz-adv-x="1046" d="M901 475h-625q-26 -179 26 -250t192 -71q64 0 127.5 15t94.5 29l32 15q23 -25 32.5 -66.5t1.5 -85.5q-10 -6 -18 -10q-98 -65 -184.5 -182t-79.5 -178q7 -39 45.5 -42t77.5 25q14 -22 21.5 -61t0.5 -70q-78 -55 -184 -55q-65 0 -110 31.5t-48 95.5q-3 87 58 186t176 187 q-47 -8 -113 -8q-232 0 -315 154t-19 437q61 271 206 399t357 128q187 0 272.5 -106t43.5 -306q-12 -57 -29 -110t-28 -77zM778 713q21 99 -16 161t-144 62q-219 0 -311 -315h445q12 32 26 92z" />
<glyph unicode="&#x11a;" horiz-adv-x="1138" d="M743 1550l-235 232q51 72 115 92l184 -145l244 143q54 -20 75 -90l-329 -232h-54zM367 1475h831q5 -58 0 -80q-11 -47 -37 -90h-622l-101 -476h520q5 -58 0 -81q-7 -34 -34 -86h-521l-104 -492h643q4 -53 -2 -82q-7 -38 -35 -88h-852z" />
<glyph unicode="&#x11b;" horiz-adv-x="1046" d="M666 1235l-238 217q50 71 109 88l176 -139l233 137q52 -18 72 -86l-301 -217h-51zM901 475h-625q-26 -179 26 -250t192 -71q64 0 127.5 15t94.5 29l32 15q23 -25 32.5 -66.5t1.5 -85.5q-6 -3 -16 -8.5t-45.5 -19.5t-74 -24.5t-99.5 -19.5t-123 -9q-232 0 -315 154 t-19 437q61 271 206 399t357 128q187 0 272.5 -106t43.5 -306q-12 -57 -29 -110t-28 -77zM778 713q21 99 -16 161t-144 62q-219 0 -311 -315h445q12 32 26 92z" />
<glyph unicode="&#x11c;" horiz-adv-x="1290" d="M1001 1882l252 -233q-52 -74 -112 -90l-185 145l-243 -145q-55 19 -76 90l311 233h53zM152 778q78 367 273.5 542t506.5 175q108 0 200 -17.5t130 -35.5l38 -17q-20 -95 -94 -153q-14 5 -39.5 13t-101 21t-147.5 13q-78 0 -145 -16.5t-131.5 -57.5t-116 -106.5 t-95 -167.5t-72.5 -236q-28 -134 -27.5 -235t24 -165t71.5 -104t107.5 -55.5t138.5 -15.5q116 0 188 16l101 473h-297q-8 31 2 84q5 24 13.5 45.5t14.5 31.5l6 9h494l-164 -770q-19 -8 -53.5 -19.5t-144 -30.5t-222.5 -19q-303 0 -420 209.5t-38 588.5z" />
<glyph unicode="&#x11d;" horiz-adv-x="1140" d="M760 1534l254 -231q-54 -77 -109 -93l-190 146l-244 -144q-29 10 -51.5 39t-30.5 62l318 221h53zM662 41l14 59q-111 -120 -299 -120q-90 0 -155.5 32.5t-107.5 103t-47.5 181.5t25.5 268q32 153 81 259t114.5 165t138 84t164.5 25q98 0 167 -38t99 -102l31 107 q28 12 98 12q30 0 54 -3.5t33 -7.5l9 -3l-215 -1010q-63 -300 -197.5 -432.5t-396.5 -132.5q-94 0 -170 18.5t-106 37.5l-29 18q23 88 88 137q11 -5 30 -12.5t78.5 -20t117.5 -12.5q78 0 131 14.5t101.5 55t84 118t64.5 199.5zM297 539q-25 -114 -27 -190t19 -120.5 t60.5 -63t103.5 -18.5q104 0 181 75.5t101 176.5l58 254q13 49 7.5 98.5t-23.5 89t-57.5 64.5t-94.5 25q-86 0 -144.5 -33.5t-104.5 -120.5t-79 -237z" />
<glyph unicode="&#x11e;" horiz-adv-x="1290" d="M1286 1722q-4 -5 -12.5 -13t-39 -28t-64.5 -35.5t-89 -28.5t-114 -13t-113 12t-88.5 29.5t-61 35t-38.5 29.5l-11 12q18 32 48 58.5t63 36.5q8 -7 23.5 -18t70 -29.5t117.5 -18.5t123 16.5t88 32.5l29 17q31 -10 49 -36.5t20 -58.5zM152 778q78 367 273.5 542t506.5 175 q108 0 200 -17.5t130 -35.5l38 -17q-20 -95 -94 -153q-14 5 -39.5 13t-101 21t-147.5 13q-78 0 -145 -16.5t-131.5 -57.5t-116 -106.5t-95 -167.5t-72.5 -236q-28 -134 -27.5 -235t24 -165t71.5 -104t107.5 -55.5t138.5 -15.5q116 0 188 16l101 473h-297q-8 31 2 84 q5 24 13.5 45.5t14.5 31.5l6 9h494l-164 -770q-19 -8 -53.5 -19.5t-144 -30.5t-222.5 -19q-303 0 -420 209.5t-38 588.5z" />
<glyph unicode="&#x11f;" horiz-adv-x="1140" d="M662 41l14 59q-111 -120 -299 -120q-90 0 -155.5 32.5t-107.5 103t-47.5 181.5t25.5 268q32 153 81 259t114.5 165t138 84t164.5 25q98 0 167 -38t99 -102l31 107q28 12 98 12q30 0 54 -3.5t33 -7.5l9 -3l-215 -1010q-63 -300 -197.5 -432.5t-396.5 -132.5 q-94 0 -170 18.5t-106 37.5l-29 18q23 88 88 137q11 -5 30 -12.5t78.5 -20t117.5 -12.5q78 0 131 14.5t101.5 55t84 118t64.5 199.5zM297 539q-25 -114 -27 -190t19 -120.5t60.5 -63t103.5 -18.5q104 0 181 75.5t101 176.5l58 254q13 49 7.5 98.5t-23.5 89t-57.5 64.5 t-94.5 25q-86 0 -144.5 -33.5t-104.5 -120.5t-79 -237zM1008 1364q-5 -5 -14 -13t-39.5 -28t-65 -35.5t-89.5 -28t-112 -12.5t-108.5 13t-84 31.5t-57 37.5t-34.5 32l-11 13q15 32 45 59t64 37q8 -7 23 -18t68 -29t114 -18t119 16.5t86 32.5l28 16q29 -8 47 -39t21 -67z" />
<glyph unicode="&#x120;" horiz-adv-x="1290" d="M1087 1774l-36 -177q-38 -12 -101 -12q-30 0 -53.5 3t-32.5 6l-8 3l37 177q32 12 100 12q28 0 51.5 -3t33.5 -6zM152 778q78 367 273.5 542t506.5 175q108 0 200 -17.5t130 -35.5l38 -17q-20 -95 -94 -153q-14 5 -39.5 13t-101 21t-147.5 13q-78 0 -145 -16.5 t-131.5 -57.5t-116 -106.5t-95 -167.5t-72.5 -236q-28 -134 -27.5 -235t24 -165t71.5 -104t107.5 -55.5t138.5 -15.5q116 0 188 16l101 473h-297q-8 31 2 84q5 24 13.5 45.5t14.5 31.5l6 9h494l-164 -770q-19 -8 -53.5 -19.5t-144 -30.5t-222.5 -19q-303 0 -420 209.5 t-38 588.5z" />
<glyph unicode="&#x121;" horiz-adv-x="1140" d="M807 1450l-37 -174q-37 -12 -100 -12q-30 0 -54.5 3t-33.5 6l-9 3l37 174q35 12 103 12q28 0 51.5 -3t33.5 -6zM662 41l14 59q-111 -120 -299 -120q-90 0 -155.5 32.5t-107.5 103t-47.5 181.5t25.5 268q32 153 81 259t114.5 165t138 84t164.5 25q98 0 167 -38t99 -102 l31 107q28 12 98 12q30 0 54 -3.5t33 -7.5l9 -3l-215 -1010q-63 -300 -197.5 -432.5t-396.5 -132.5q-94 0 -170 18.5t-106 37.5l-29 18q23 88 88 137q11 -5 30 -12.5t78.5 -20t117.5 -12.5q78 0 131 14.5t101.5 55t84 118t64.5 199.5zM297 539q-25 -114 -27 -190t19 -120.5 t60.5 -63t103.5 -18.5q104 0 181 75.5t101 176.5l58 254q13 49 7.5 98.5t-23.5 89t-57.5 64.5t-94.5 25q-86 0 -144.5 -33.5t-104.5 -120.5t-79 -237z" />
<glyph unicode="&#x122;" horiz-adv-x="1290" d="M152 778q78 367 273.5 542t506.5 175q108 0 200 -17.5t130 -35.5l38 -17q-20 -95 -94 -153q-14 5 -39.5 13t-101 21t-147.5 13q-78 0 -145 -16.5t-131.5 -57.5t-116 -106.5t-95 -167.5t-72.5 -236q-28 -134 -27.5 -235t24 -165t71.5 -104t107.5 -55.5t138.5 -15.5 q116 0 188 16l101 473h-297q-8 31 2 84q5 24 13.5 45.5t14.5 31.5l6 9h494l-164 -770q-19 -8 -53.5 -19.5t-144 -30.5t-222.5 -19q-303 0 -420 209.5t-38 588.5zM455 -530l-68 49l3 3q4 3 8 6.5t10 10t12.5 14t14.5 17.5t15.5 21t15.5 24.5t15 27.5t13.5 31t11.5 35 q-22 1 -39.5 4t-24.5 5l-6 3l39 181q43 14 117 14q33 0 60.5 -3.5t38.5 -6.5l11 -4l-26 -119q-12 -58 -39 -111.5t-57.5 -88.5t-59 -62t-46.5 -39z" />
<glyph unicode="&#x123;" horiz-adv-x="1140" d="M662 41l14 59q-111 -120 -299 -120q-90 0 -155.5 32.5t-107.5 103t-47.5 181.5t25.5 268q32 153 81 259t114.5 165t138 84t164.5 25q98 0 167 -38t99 -102l31 107q28 12 98 12q30 0 54 -3.5t33 -7.5l9 -3l-215 -1010q-63 -300 -197.5 -432.5t-396.5 -132.5 q-94 0 -170 18.5t-106 37.5l-29 18q23 88 88 137q11 -5 30 -12.5t78.5 -20t117.5 -12.5q78 0 131 14.5t101.5 55t84 118t64.5 199.5zM297 539q-25 -114 -27 -190t19 -120.5t60.5 -63t103.5 -18.5q104 0 181 75.5t101 176.5l58 254q13 49 7.5 98.5t-23.5 89t-57.5 64.5 t-94.5 25q-86 0 -144.5 -33.5t-104.5 -120.5t-79 -237zM799 1655l63 -45l-4 -4q-4 -3 -8.5 -7.5l-12 -12t-15 -16.5t-15.5 -20t-16.5 -24t-16 -28t-14.5 -32.5t-12 -35.5q22 -2 38.5 -5t22.5 -5l6 -3l-37 -172q-38 -10 -110 -10q-31 0 -58 2.5t-38 4.5l-11 3l25 115 q11 55 37.5 105.5t55.5 83.5t56.5 58t45.5 37z" />
<glyph unicode="&#x124;" horiz-adv-x="1400" d="M1004 1874l233 -234q-52 -74 -113 -90l-184 146l-244 -146q-54 18 -75 90l329 234h54zM1055 846l131 614q38 15 106 15q30 0 56 -3.5t36 -7.5l11 -4l-310 -1446q-36 -14 -104 -14q-35 0 -61 3.5t-34 6.5l-9 4l139 652h-615l-139 -652q-38 -14 -106 -14q-33 0 -58.5 3.5 t-35.5 6.5l-9 4l309 1446q37 15 105 15q31 0 57 -3.5t36 -7.5l11 -4l-131 -614h615z" />
<glyph unicode="&#x125;" horiz-adv-x="1128" d="M541 1880l235 -225q-52 -70 -110 -86l-179 139l-231 -139q-56 17 -74 86l307 225h52zM1012 756l-160 -742q-36 -14 -104 -14q-31 0 -56.5 3.5t-35.5 6.5l-9 4l158 738q39 180 -152 180q-68 0 -137 -35t-123 -96l-168 -787q-38 -14 -104 -14q-32 0 -57 3.5t-34 6.5l-10 4 l322 1508q32 14 104 14q29 0 54.5 -3.5t35.5 -6.5l11 -4l-117 -541q68 62 144 89.5t174 27.5q154 0 226 -92.5t38 -249.5z" />
<glyph unicode="&#x126;" horiz-adv-x="1445" d="M1366 1239h154q6 -54 -29 -129h-154l-233 -1096q-37 -14 -105 -14q-35 0 -61 3.5t-34 6.5l-9 4l139 652h-614l-139 -652q-39 -14 -107 -14q-33 0 -58.5 3.5t-34.5 6.5l-9 4l233 1096h-133q-3 67 29 129h133l47 221q36 15 104 15q31 0 57.5 -3.5t37.5 -7.5l10 -4l-47 -221 h614l47 221q39 15 107 15q30 0 55.5 -3.5t35.5 -7.5l11 -4zM514 1110l-55 -264h614l55 264h-614z" />
<glyph unicode="&#x127;" horiz-adv-x="1128" d="M430 981q68 62 144 89.5t174 27.5q154 0 226 -92.5t38 -249.5l-160 -742q-36 -14 -104 -14q-31 0 -56.5 3.5t-35.5 6.5l-9 4l158 738q39 180 -152 180q-68 0 -137 -35t-123 -96l-168 -787q-38 -14 -104 -14q-32 0 -57 3.5t-34 6.5l-10 4l265 1239h-140q-7 71 27 129h139 l31 140q32 14 104 14q29 0 54.5 -3.5t35.5 -6.5l11 -4l-31 -140h270q7 -65 -26 -129h-271z" />
<glyph unicode="&#x128;" horiz-adv-x="577" d="M635 1704q27 0 53.5 13t39.5 25l13 13q24 -10 39 -35t15 -53l-4 -5q-4 -5 -9.5 -12t-15 -16t-20 -17.5t-25.5 -17.5t-30.5 -15.5t-35.5 -10.5t-41 -4q-62 0 -128 32.5t-103 32.5q-27 0 -53 -13t-38 -25l-13 -13q-54 34 -54 90q2 4 7 10.5t21.5 23t35.5 29t50 23t64 10.5 q62 0 128.5 -32.5t103.5 -32.5zM53 14l309 1446q37 15 105 15q32 0 58 -3.5t36 -7.5l10 -4l-309 -1446q-38 -14 -106 -14q-33 0 -58.5 3.5t-35.5 6.5z" />
<glyph unicode="&#x129;" horiz-adv-x="516" d="M518 1386q23 0 45.5 14t33.5 28l11 14q20 -12 32 -37t11 -53l-4 -6q-4 -7 -8.5 -13t-12.5 -15t-17 -17.5t-21.5 -17t-25.5 -14.5t-29.5 -10t-34.5 -4q-49 0 -104.5 32t-86.5 32q-23 0 -45 -12.5t-32 -25.5l-11 -13q-49 31 -43 90q63 94 152 94q50 0 104.5 -33t85.5 -33z M453 1063l-224 -1049q-36 -14 -104 -14q-32 0 -57 3.5t-34 6.5l-9 4l223 1049q34 14 106 14q30 0 55 -3.5t35 -7.5z" />
<glyph unicode="&#x12a;" horiz-adv-x="577" d="M791 1550h-605q-6 61 27 125h604q6 -56 -26 -125zM53 14l309 1446q37 15 105 15q32 0 58 -3.5t36 -7.5l10 -4l-309 -1446q-38 -14 -106 -14q-33 0 -58.5 3.5t-35.5 6.5z" />
<glyph unicode="&#x12b;" horiz-adv-x="516" d="M604 1307h-397q0 65 24 118h398q0 -57 -25 -118zM453 1063l-224 -1049q-36 -14 -104 -14q-32 0 -57 3.5t-34 6.5l-9 4l223 1049q34 14 106 14q30 0 55 -3.5t35 -7.5z" />
<glyph unicode="&#x12c;" horiz-adv-x="577" d="M829 1710q-5 -5 -15 -13.5t-43.5 -29.5t-70.5 -37t-94.5 -29.5t-116.5 -13.5t-111 12.5t-83.5 30.5t-55 36.5t-33.5 31.5l-9 12q45 73 112 94q8 -7 23.5 -18t70 -29t117.5 -18t123 16.5t89 32.5l28 16q30 -10 48.5 -36.5t20.5 -57.5zM53 14l309 1446q37 15 105 15 q32 0 58 -3.5t36 -7.5l10 -4l-309 -1446q-38 -14 -106 -14q-33 0 -58.5 3.5t-35.5 6.5z" />
<glyph unicode="&#x12d;" horiz-adv-x="516" d="M723 1382q-4 -5 -13 -13.5t-39 -30.5t-63.5 -39t-88 -30.5t-111.5 -13.5t-109 13t-85 31.5t-58 37.5t-36 32l-11 13q18 33 47 60t61 37q3 -3 8.5 -7.5t25 -15.5t41.5 -20t58 -16t74 -7q61 0 118.5 16.5t85.5 32.5l27 17q30 -9 48 -36.5t20 -60.5zM453 1063l-224 -1049 q-36 -14 -104 -14q-32 0 -57 3.5t-34 6.5l-9 4l223 1049q34 14 106 14q30 0 55 -3.5t35 -7.5z" />
<glyph unicode="&#x12e;" horiz-adv-x="577" d="M94 0h-43l311 1460q37 15 105 15q32 0 58 -3.5t36 -7.5l10 -4l-313 -1460q-172 -193 -158 -309q7 -39 45.5 -42t77.5 25q15 -22 22.5 -61t0.5 -70q-78 -55 -185 -55q-65 0 -109.5 31t-47.5 96q-3 90 46 191.5t144 193.5z" />
<glyph unicode="&#x12f;" horiz-adv-x="516" d="M326 1448q36 14 110 14q31 0 57 -3.5t36 -6.5l10 -4l-41 -193q-39 -14 -109 -14q-33 0 -59 3.5t-36 7.5l-9 3zM23 0l225 1063q34 14 106 14q30 0 55 -3.5t35 -7.5l9 -3l-226 -1063q-171 -192 -157 -309q7 -39 45.5 -42t77.5 25q14 -22 21.5 -61t0.5 -70q-78 -55 -184 -55 q-65 0 -110 31.5t-48 95.5q-3 90 46 191.5t144 193.5h-40z" />
<glyph unicode="&#x130;" horiz-adv-x="577" d="M426 1759q35 13 109 13q31 0 57 -3t36 -7l11 -3l-43 -194q-39 -13 -109 -13q-33 0 -59 3t-36 7l-9 3zM362 1460q37 15 105 15q32 0 58 -3.5t36 -7.5l10 -4l-309 -1446q-38 -14 -106 -14q-33 0 -58.5 3.5t-35.5 6.5l-9 4z" />
<glyph unicode="&#x131;" horiz-adv-x="516" d="M453 1063l-224 -1049q-36 -14 -104 -14q-32 0 -57 3.5t-34 6.5l-9 4l223 1049q34 14 106 14q30 0 55 -3.5t35 -7.5z" />
<glyph unicode="&#x132;" horiz-adv-x="1419" d="M55 14l310 1446q36 15 104 15q32 0 58 -3.5t36 -7.5l10 -4l-309 -1446q-38 -14 -106 -14q-33 0 -58.5 3.5t-35.5 6.5zM985 385l229 1075q31 15 107 15q31 0 56 -3.5t35 -7.5l9 -4l-229 -1075q-43 -203 -169.5 -304t-311.5 -101q-72 0 -143.5 15t-107.5 31l-36 15 q19 99 92 158q87 -37 191 -37q229 0 278 223z" />
<glyph unicode="&#x133;" horiz-adv-x="999" d="M545 1477l-41 -193q-39 -14 -109 -14q-33 0 -59 3.5t-36 6.5l-9 4l41 193q36 14 110 14q31 0 57 -3.5t36 -7.5zM453 1063l-224 -1049q-36 -14 -104 -14q-32 0 -57 3.5t-34 6.5l-9 4l223 1049q34 14 106 14q30 0 55 -3.5t35 -7.5zM1028 1479l-41 -193q-38 -14 -108 -14 q-33 0 -59 3.5t-36 6.5l-10 4l41 193q37 14 111 14q31 0 56.5 -3.5t35.5 -7.5zM465 -188l266 1251q35 14 107 14q30 0 54.5 -3.5t33.5 -7.5l10 -3l-264 -1243q-34 -162 -128 -247t-239 -85q-38 0 -71.5 4.5t-47.5 9.5l-14 4q-2 21 4 48q6 32 16.5 58t17.5 36l7 10 q33 -8 76 -8q139 0 172 162z" />
<glyph unicode="&#x134;" horiz-adv-x="913" d="M922 1874l233 -234q-52 -74 -113 -90l-184 146l-244 -146q-54 18 -75 90l329 234h54zM477 385l230 1075q30 15 106 15q31 0 56.5 -3.5t35.5 -7.5l10 -4l-227 -1069q-43 -203 -171.5 -307t-311.5 -104q-73 0 -144.5 15t-106.5 31l-36 15q19 98 90 158q87 -37 191 -37 q229 0 278 223z" />
<glyph unicode="&#x135;" horiz-adv-x="518" d="M475 1509l227 -225q-50 -70 -110 -90l-180 143l-240 -141q-58 22 -74 88l324 225h53zM-16 -188l266 1251q34 14 106 14q30 0 55 -3.5t35 -7.5l9 -3l-265 -1243q-34 -162 -127.5 -247t-238.5 -85q-38 0 -71.5 4.5t-47.5 9.5l-14 4q-2 21 4 48q6 32 16.5 58t17.5 36l7 10 q33 -8 76 -8q139 0 172 162z" />
<glyph unicode="&#x136;" horiz-adv-x="1261" d="M373 -557l-64 51q9 8 24 23.5t47.5 68.5t49.5 111q-21 2 -37 5.5t-22 5.5l-6 3l41 193q38 14 108 14q31 0 57 -3.5t37 -6.5l10 -4l-26 -127q-13 -62 -40.5 -119t-57 -94.5t-57.5 -66t-46 -41.5zM590 850l545 610q67 15 110 15q37 0 115 -15l-610 -702l362 -744 q-35 -14 -115 -14q-34 0 -63.5 3.5t-41.5 6.5l-13 4l-314 668h-159l-144 -668q-32 -14 -106 -14q-29 0 -55 3.5t-37 6.5l-11 4l309 1446q39 15 109 15q30 0 55 -3.5t35 -7.5l10 -4l-131 -610h150z" />
<glyph unicode="&#x137;" horiz-adv-x="1028" d="M276 -559l-63 51q9 8 24 23.5t48 69t49 112.5q-21 2 -37.5 5.5t-22.5 5.5l-6 3l41 193q39 14 109 14q31 0 57 -3.5t37 -6.5l10 -4l-26 -129q-13 -62 -40.5 -119t-57.5 -94.5t-58 -66t-46 -41.5zM479 639l359 424q53 14 116 14q25 0 49.5 -3t36.5 -6l11 -3l-422 -512 l245 -539q-46 -16 -116 -16q-31 0 -54 4t-30 8l-8 4l-211 471h-127l-101 -471q-43 -14 -102 -14q-29 0 -54.5 3.5t-36.5 6.5l-11 4l321 1512q44 10 107 10q24 0 48.5 -2.5t36.5 -5.5l13 -2l-189 -887h119z" />
<glyph unicode="&#x138;" horiz-adv-x="1050" d="M1075 1063l-450 -428l276 -612q-47 -23 -125 -23q-34 0 -60.5 4t-35.5 8l-10 4l-201 471l-178 -170l-66 -303q-46 -14 -102 -14q-65 0 -103 14l226 1053q52 10 106 10t99 -10l-99 -461l482 461q66 12 122 12q63 0 119 -16z" />
<glyph unicode="&#x139;" horiz-adv-x="1058" d="M780 1819l-315 -277q-80 14 -103 64l256 288q49 6 98 -17t64 -58zM51 0l311 1460q37 15 105 15q32 0 58 -3.5t36 -7.5l10 -4l-272 -1280h612q7 -44 -4 -90q-8 -45 -35 -90h-821z" />
<glyph unicode="&#x13a;" horiz-adv-x="522" d="M750 1862l-316 -277q-79 13 -102 64l256 288q50 6 98.5 -16.5t63.5 -58.5zM555 1522l-322 -1508q-36 -14 -104 -14q-32 0 -57 3.5t-34 6.5l-9 4l321 1508q33 14 105 14q30 0 55 -3.5t35 -6.5z" />
<glyph unicode="&#x13b;" horiz-adv-x="1058" d="M51 0l311 1460q37 15 105 15q32 0 58 -3.5t36 -7.5l10 -4l-272 -1280h612q7 -44 -4 -90q-8 -45 -35 -90h-821zM317 -557l-63 51q9 8 23.5 23.5t47 68.5t48.5 111q-20 2 -36.5 5.5t-22.5 5.5l-7 3l41 193q39 14 109 14q31 0 57 -3.5t36 -6.5l11 -4l-26 -127 q-13 -62 -40.5 -119t-57 -94.5t-57 -66t-45.5 -41.5z" />
<glyph unicode="&#x13c;" horiz-adv-x="522" d="M555 1522l-322 -1508q-36 -14 -104 -14q-32 0 -57 3.5t-34 6.5l-9 4l321 1508q33 14 105 14q30 0 55 -3.5t35 -6.5zM-29 -557l-63 51q9 8 24 23.5t48 68.5t49 111q-21 2 -37.5 5.5t-22.5 5.5l-6 3l41 193q39 14 109 14q31 0 57 -3.5t36 -6.5l11 -4l-27 -127 q-13 -62 -40.5 -119t-57 -94.5t-57.5 -66t-46 -41.5z" />
<glyph unicode="&#x13d;" horiz-adv-x="1060" d="M737 1192q-59 13 -71 57q79 63 120 126.5t64 158.5q114 10 162 -41q-39 -102 -114.5 -185.5t-160.5 -115.5zM53 0l312 1460q36 15 104 15q32 0 58 -3.5t36 -7.5l10 -4l-272 -1280h612q7 -44 -4 -90q-8 -45 -35 -90h-821z" />
<glyph unicode="&#x13e;" horiz-adv-x="544" d="M664 1186q-62 6 -80 49q75 69 110.5 134.5t48.5 160.5q114 23 166 -23q-29 -104 -95 -193t-150 -128zM555 1522l-322 -1508q-36 -14 -104 -14q-32 0 -57 3.5t-34 6.5l-9 4l321 1508q33 14 105 14q30 0 55 -3.5t35 -6.5z" />
<glyph unicode="&#x13f;" horiz-adv-x="1069" d="M51 0l311 1460q37 15 105 15q32 0 58 -3.5t36 -7.5l10 -4l-272 -1280h612q7 -44 -4 -90q-8 -45 -35 -90h-821zM862 768l-37 -166q-35 -14 -96 -14q-29 0 -52 3.5t-31 6.5l-9 4l37 166q30 14 96 14q27 0 50 -3.5t32 -6.5z" />
<glyph unicode="&#x140;" horiz-adv-x="743" d="M555 1522l-322 -1508q-36 -14 -104 -14q-32 0 -57 3.5t-34 6.5l-9 4l321 1508q33 14 105 14q30 0 55 -3.5t35 -6.5zM768 768l-37 -166q-35 -14 -94 -14q-29 0 -52 3.5t-31 6.5l-9 4l37 166q30 14 96 14q26 0 48.5 -3.5t31.5 -6.5z" />
<glyph unicode="&#x141;" horiz-adv-x="1097" d="M403 1460q37 15 105 15q32 0 58 -3.5t36 -7.5l10 -4l-118 -555l243 127q40 -50 43 -112l-319 -164l-121 -576h612q7 -44 -4 -90q-8 -45 -35 -90h-821l135 635l-135 -68q-36 39 -43 111l209 106z" />
<glyph unicode="&#x142;" horiz-adv-x="704" d="M438 1522q33 14 105 14q30 0 55 -3.5t35 -6.5l10 -4l-121 -564l162 82q8 0 31 -47q5 -18 7.5 -33t2 -22t-1.5 -8l-231 -121l-170 -795q-37 -14 -105 -14q-32 0 -57 3.5t-34 6.5l-9 4l145 676l-153 -78q-1 0 -5.5 4.5t-12 16t-13.5 26.5q-10 28 -10 64l225 115z" />
<glyph unicode="&#x143;" horiz-adv-x="1437" d="M1262 1819l-316 -277q-79 13 -102 64l256 288q49 6 98 -17t64 -58zM877 14l-308 932q-19 59 -37.5 125t-27.5 103l-8 36h-9q-16 -137 -59 -344l-182 -852q-33 -14 -101 -14q-29 0 -52 3.5t-31 6.5l-9 4l309 1446q45 15 127 15q36 0 66.5 -3.5t42.5 -7.5l12 -4l303 -923 q19 -59 38.5 -127.5t29.5 -107.5l10 -38h6q19 152 60 342l182 854q32 15 100 15q30 0 53.5 -3.5t31.5 -7.5l8 -4l-310 -1446q-41 -14 -123 -14q-36 0 -66.5 3.5t-42.5 6.5z" />
<glyph unicode="&#x144;" horiz-adv-x="1128" d="M946 1513l-315 -276q-80 14 -103 63l256 289q50 6 98.5 -17t63.5 -59zM1010 745l-158 -731q-36 -14 -104 -14q-31 0 -56.5 3.5t-35.5 6.5l-9 4l158 738q39 180 -152 180q-68 0 -137 -35t-123 -96l-168 -787q-38 -14 -104 -14q-32 0 -57 3.5t-34 6.5l-10 4l224 1049 q34 14 106 14q29 0 54 -3.5t35 -7.5l10 -3l-21 -94q141 129 317 129q157 0 229 -91t36 -262z" />
<glyph unicode="&#x145;" horiz-adv-x="1437" d="M446 -557l-63 51q9 8 24 23.5t47.5 68.5t49.5 111q-21 2 -37.5 5.5t-22.5 5.5l-6 3l41 193q39 14 109 14q31 0 57 -3.5t37 -6.5l10 -4l-26 -127q-13 -62 -40.5 -119t-57.5 -94.5t-58 -66t-46 -41.5zM877 14l-308 932q-19 59 -37.5 125t-27.5 103l-8 36h-9 q-16 -137 -59 -344l-182 -852q-33 -14 -101 -14q-29 0 -52 3.5t-31 6.5l-9 4l309 1446q45 15 127 15q36 0 66.5 -3.5t42.5 -7.5l12 -4l303 -923q19 -59 38.5 -127.5t29.5 -107.5l10 -38h6q19 152 60 342l182 854q32 15 100 15q30 0 53.5 -3.5t31.5 -7.5l8 -4l-310 -1446 q-41 -14 -123 -14q-36 0 -66.5 3.5t-42.5 6.5z" />
<glyph unicode="&#x146;" horiz-adv-x="1128" d="M307 -551l-63 49q9 8 23.5 24t45.5 69.5t47 111.5q-19 2 -35 5.5t-22 5.5l-6 3l41 193q38 14 108 14q31 0 57.5 -3.5t36.5 -6.5l11 -4l-29 -129q-13 -62 -40 -119t-56 -94t-56.5 -65t-45.5 -41zM1010 745l-158 -731q-36 -14 -104 -14q-31 0 -56.5 3.5t-35.5 6.5l-9 4 l158 738q39 180 -152 180q-68 0 -137 -35t-123 -96l-168 -787q-38 -14 -104 -14q-32 0 -57 3.5t-34 6.5l-10 4l224 1049q34 14 106 14q29 0 54 -3.5t35 -7.5l10 -3l-21 -94q141 129 317 129q157 0 229 -91t36 -262z" />
<glyph unicode="&#x147;" horiz-adv-x="1437" d="M899 1550l-254 232q52 73 113 92l184 -145l238 149q29 -10 50.5 -36.5t31.5 -59.5l-310 -232h-53zM877 14l-308 932q-19 59 -37.5 125t-27.5 103l-8 36h-9q-16 -137 -59 -344l-182 -852q-33 -14 -101 -14q-29 0 -52 3.5t-31 6.5l-9 4l309 1446q45 15 127 15 q36 0 66.5 -3.5t42.5 -7.5l12 -4l303 -923q19 -59 38.5 -127.5t29.5 -107.5l10 -38h6q19 152 60 342l182 854q32 15 100 15q30 0 53.5 -3.5t31.5 -7.5l8 -4l-310 -1446q-41 -14 -123 -14q-36 0 -66.5 3.5t-42.5 6.5z" />
<glyph unicode="&#x148;" horiz-adv-x="1128" d="M705 1386l221 132q46 -13 69 -82l-284 -211h-47l-232 211q42 66 103 84zM1010 745l-158 -731q-36 -14 -104 -14q-31 0 -56.5 3.5t-35.5 6.5l-9 4l158 738q39 180 -152 180q-68 0 -137 -35t-123 -96l-168 -787q-38 -14 -104 -14q-32 0 -57 3.5t-34 6.5l-10 4l224 1049 q34 14 106 14q29 0 54 -3.5t35 -7.5l10 -3l-21 -94q141 129 317 129q157 0 229 -91t36 -262z" />
<glyph unicode="&#x149;" horiz-adv-x="1128" d="M356 1192q-59 13 -71 57q79 63 120 126.5t64 158.5q114 10 162 -41q-39 -102 -114.5 -185.5t-160.5 -115.5zM1010 745l-158 -731q-36 -14 -104 -14q-31 0 -56.5 3.5t-35.5 6.5l-9 4l158 738q39 180 -152 180q-68 0 -137 -35t-123 -96l-168 -787q-38 -14 -104 -14 q-32 0 -57 3.5t-34 6.5l-10 4l224 1049q34 14 106 14q29 0 54 -3.5t35 -7.5l10 -3l-21 -94q141 129 317 129q157 0 229 -91t36 -262z" />
<glyph unicode="&#x14a;" horiz-adv-x="1439" d="M1241 1460q32 15 100 15q30 0 53.5 -3.5t31.5 -7.5l8 -4l-330 -1548q-34 -157 -112.5 -246t-225.5 -133q-61 49 -35 150q70 25 109.5 76t60.5 151l21 96l-45 8l-306 932q-19 59 -37.5 125t-27.5 103l-8 36h-9q-16 -137 -59 -344l-182 -852q-33 -14 -101 -14 q-29 0 -52 3.5t-31 6.5l-9 4l310 1446q45 15 127 15q36 0 66 -3.5t42 -7.5l12 -4l306 -923q20 -59 39 -127.5t27 -107.5l9 -38h6q19 152 60 342z" />
<glyph unicode="&#x14b;" horiz-adv-x="1128" d="M428 969q141 129 317 129q154 0 226 -96.5t37 -256.5l-177 -833q-32 -156 -112 -245.5t-227 -133.5q-58 52 -35 148q71 25 109.5 76.5t60.5 152.5l178 842q39 180 -152 180q-68 0 -137 -35t-123 -96l-168 -787q-38 -14 -104 -14q-32 0 -57 3.5t-34 6.5l-10 4l224 1049 q34 14 106 14q29 0 54 -3.5t35 -7.5l10 -3z" />
<glyph unicode="&#x14c;" horiz-adv-x="1384" d="M639 1733h573q6 -56 -26 -125h-574q-5 55 27 125zM154 782q42 194 110.5 333t162.5 221.5t204.5 120.5t247.5 38q271 0 378.5 -200t22.5 -590q-42 -196 -110 -336.5t-160.5 -225.5t-203.5 -124t-249 -39q-272 0 -379.5 205t-23.5 597zM1075 737q28 133 33 234.5t-11 167 t-52.5 107t-86 58.5t-116.5 17q-85 0 -154.5 -28t-132.5 -93.5t-112.5 -181t-84.5 -281.5q-28 -133 -31.5 -234.5t13.5 -167t54 -106.5t86 -58t114 -17q86 0 155 28t131.5 93t111.5 180.5t83 281.5z" />
<glyph unicode="&#x14d;" horiz-adv-x="1105" d="M461 1419h512q12 -51 -25 -123h-512q-3 62 25 123zM90 563q32 150 83 254.5t123 165.5t157 88t194 27q456 0 334 -576q-32 -150 -82.5 -255.5t-121.5 -168t-155.5 -90.5t-193.5 -28q-218 0 -309.5 144t-28.5 439zM780 539q25 116 25.5 195t-23 123t-62 62.5t-97.5 18.5 t-106 -18.5t-90 -62.5t-77 -123.5t-59 -194.5q-23 -118 -25 -195.5t23.5 -123t64 -63.5t97.5 -18t105.5 18.5t89 63t76 123.5t58.5 195z" />
<glyph unicode="&#x14e;" horiz-adv-x="1384" d="M928 1780q63 0 122.5 16.5t87.5 32.5l29 16q30 -10 49 -36.5t21 -57.5q-4 -5 -12.5 -13.5t-39 -29.5t-64.5 -37t-89 -29.5t-114 -13.5t-113 12.5t-89 31t-61.5 36.5t-38.5 30l-12 13q19 32 49.5 58t63.5 36q8 -7 23.5 -18t70 -29t117.5 -18zM154 782q42 194 110.5 333 t162.5 221.5t204.5 120.5t247.5 38q271 0 378.5 -200t22.5 -590q-42 -196 -110 -336.5t-160.5 -225.5t-203.5 -124t-249 -39q-272 0 -379.5 205t-23.5 597zM1075 737q28 133 33 234.5t-11 167t-52.5 107t-86 58.5t-116.5 17q-85 0 -154.5 -28t-132.5 -93.5t-112.5 -181 t-84.5 -281.5q-28 -133 -31.5 -234.5t13.5 -167t54 -106.5t86 -58t114 -17q86 0 155 28t131.5 93t111.5 180.5t83 281.5z" />
<glyph unicode="&#x14f;" horiz-adv-x="1105" d="M700 1417q61 0 119.5 16.5t86.5 32.5l28 17q28 -10 46 -37t21 -60q-5 -5 -14 -13.5t-40 -30.5t-65.5 -38.5t-89.5 -30t-112 -13.5t-108.5 13t-83.5 31.5t-56 37t-34 31.5l-11 13q15 33 45.5 60t63.5 37q8 -7 22.5 -18t67.5 -29.5t114 -18.5zM90 563q32 150 83 254.5 t123 165.5t157 88t194 27q456 0 334 -576q-32 -150 -82.5 -255.5t-121.5 -168t-155.5 -90.5t-193.5 -28q-218 0 -309.5 144t-28.5 439zM780 539q25 116 25.5 195t-23 123t-62 62.5t-97.5 18.5t-106 -18.5t-90 -62.5t-77 -123.5t-59 -194.5q-23 -118 -25 -195.5t23.5 -123 t64 -63.5t97.5 -18t105.5 18.5t89 63t76 123.5t58.5 195z" />
<glyph unicode="&#x150;" horiz-adv-x="1384" d="M639 1610l231 268q50 6 97.5 -16t62.5 -56l-293 -258q-79 14 -98 62zM961 1610l233 268q50 6 96.5 -16t61.5 -56l-291 -258q-81 14 -100 62zM154 782q42 194 110.5 333t162.5 221.5t204.5 120.5t247.5 38q271 0 378.5 -200t22.5 -590q-42 -196 -110 -336.5t-160.5 -225.5 t-203.5 -124t-249 -39q-272 0 -379.5 205t-23.5 597zM1075 737q28 133 33 234.5t-11 167t-52.5 107t-86 58.5t-116.5 17q-85 0 -154.5 -28t-132.5 -93.5t-112.5 -181t-84.5 -281.5q-28 -133 -31.5 -234.5t13.5 -167t54 -106.5t86 -58t114 -17q86 0 155 28t131.5 93 t111.5 180.5t83 281.5z" />
<glyph unicode="&#x151;" horiz-adv-x="1105" d="M471 1288l227 240q46 4 91.5 -14.5t60.5 -47.5l-285 -229q-71 10 -94 51zM780 1288l226 240q47 4 92.5 -14.5t60.5 -47.5l-285 -229q-74 10 -94 51zM90 563q32 150 83 254.5t123 165.5t157 88t194 27q456 0 334 -576q-32 -150 -82.5 -255.5t-121.5 -168t-155.5 -90.5 t-193.5 -28q-218 0 -309.5 144t-28.5 439zM780 539q25 116 25.5 195t-23 123t-62 62.5t-97.5 18.5t-106 -18.5t-90 -62.5t-77 -123.5t-59 -194.5q-23 -118 -25 -195.5t23.5 -123t64 -63.5t97.5 -18t105.5 18.5t89 63t76 123.5t58.5 195z" />
<glyph unicode="&#x152;" horiz-adv-x="1781" d="M150 764q42 196 112 337.5t165.5 227.5t210 126t255.5 40q92 0 174 -20h774q6 -42 -2 -84q-8 -40 -35 -86h-569l-100 -476h467q7 -46 0 -81q-10 -37 -35 -86h-467l-105 -492h590q6 -44 -2 -86q-8 -38 -35 -84h-796q-88 -20 -181 -20q-280 0 -391.5 198t-29.5 586z M1044 1286q-81 35 -188 35q-88 0 -159.5 -28t-136.5 -93t-116 -181t-86 -282q-28 -133 -31.5 -234t14 -167t56.5 -107t90 -58t121 -17q121 0 205 36z" />
<glyph unicode="&#x153;" horiz-adv-x="1656" d="M1509 475h-589q-25 -183 18 -256.5t172 -73.5q63 0 126 14t94 28l32 14q44 -41 33 -135l-15 -9t-44.5 -21t-72.5 -26t-98 -20.5t-123 -9.5q-218 0 -274 174q-139 -174 -358 -174q-446 0 -324 575q32 150 84 256t124.5 168.5t158.5 90.5t194 28q225 0 277 -180 q135 180 348 180q188 0 267.5 -105t37.5 -307q-12 -57 -29 -110t-28 -77zM614 940q-119 0 -199 -88.5t-128 -312.5q-25 -115 -25.5 -195t23 -124.5t61.5 -63.5t96 -19q116 0 187.5 87.5t120.5 316.5q25 117 28.5 195t-16 122.5t-55 63t-93.5 18.5zM1391 713 q21 100 -14 161.5t-140 61.5q-98 0 -167.5 -74.5t-117.5 -240.5h412q15 39 27 92z" />
<glyph unicode="&#x154;" horiz-adv-x="1290" d="M651 1606l256 288q49 6 98 -17t64 -58l-315 -277q-80 14 -103 64zM367 1475h524q197 0 287.5 -129.5t48.5 -327.5q-32 -151 -125.5 -248.5t-237.5 -136.5l223 -619q-44 -14 -124 -14q-34 0 -57 3.5t-30 6.5l-6 4l-211 598h-266l-129 -598q-36 -14 -104 -14q-34 0 -60 3.5 t-36 6.5l-9 4zM719 786q119 0 198 67t105 189q26 123 -24.5 190.5t-170.5 67.5h-288l-109 -514h289z" />
<glyph unicode="&#x155;" horiz-adv-x="808" d="M426 1300l256 289q50 6 98.5 -17t63.5 -59l-316 -276q-79 14 -102 63zM420 942q70 91 140.5 122.5t146.5 31.5q95 0 165 -52q-34 -97 -122 -167q-46 38 -121 38q-59 0 -123 -41.5t-121 -113.5l-160 -746q-36 -14 -104 -14q-32 0 -57 3.5t-34 6.5l-10 4l224 1049 q34 14 106 14q30 0 52.5 -3.5t29.5 -7.5l8 -3z" />
<glyph unicode="&#x156;" horiz-adv-x="1290" d="M471 -80q37 14 107 14q30 0 55.5 -3.5t36.5 -6.5l10 -4l-27 -125q-13 -61 -40 -117t-56 -92.5t-56.5 -64.5t-44.5 -41l-18 -12l-63 51q9 8 23.5 23t47 66.5t48.5 108.5q-20 2 -36 5.5t-22 6.5l-6 3zM367 1475h524q197 0 287.5 -129.5t48.5 -327.5q-32 -151 -125.5 -248.5 t-237.5 -136.5l223 -619q-44 -14 -124 -14q-34 0 -57 3.5t-30 6.5l-6 4l-211 598h-266l-129 -598q-36 -14 -104 -14q-34 0 -60 3.5t-36 6.5l-9 4zM719 786q119 0 198 67t105 189q26 123 -24.5 190.5t-170.5 67.5h-288l-109 -514h289z" />
<glyph unicode="&#x157;" horiz-adv-x="808" d="M0 -98q39 14 109 14q30 0 55.5 -3.5t35.5 -6.5l11 -4l-27 -127q-13 -62 -40.5 -119t-56.5 -94.5t-56.5 -66t-45.5 -41.5l-18 -13l-63 51q9 8 24 23.5t47.5 68.5t49.5 111q-21 2 -37.5 5.5t-22.5 5.5l-6 3zM420 942q70 91 140.5 122.5t146.5 31.5q95 0 165 -52 q-34 -97 -122 -167q-46 38 -121 38q-59 0 -123 -41.5t-121 -113.5l-160 -746q-36 -14 -104 -14q-32 0 -57 3.5t-34 6.5l-10 4l224 1049q34 14 106 14q30 0 52.5 -3.5t29.5 -7.5l8 -3z" />
<glyph unicode="&#x158;" horiz-adv-x="1290" d="M836 1729l243 143q55 -19 76 -90l-309 -228h-53l-254 228q52 73 112 92zM367 1475h524q197 0 287.5 -129.5t48.5 -327.5q-32 -151 -125.5 -248.5t-237.5 -136.5l223 -619q-44 -14 -124 -14q-34 0 -57 3.5t-30 6.5l-6 4l-211 598h-266l-129 -598q-36 -14 -104 -14 q-34 0 -60 3.5t-36 6.5l-9 4zM719 786q119 0 198 67t105 189q26 123 -24.5 190.5t-170.5 67.5h-288l-109 -514h289z" />
<glyph unicode="&#x159;" horiz-adv-x="808" d="M580 1399l225 131q50 -17 67 -84l-286 -203h-47l-232 203q48 69 105 86zM420 942q70 91 140.5 122.5t146.5 31.5q95 0 165 -52q-34 -97 -122 -167q-46 38 -121 38q-59 0 -123 -41.5t-121 -113.5l-160 -746q-36 -14 -104 -14q-32 0 -57 3.5t-34 6.5l-10 4l224 1049 q34 14 106 14q30 0 52.5 -3.5t29.5 -7.5l8 -3z" />
<glyph unicode="&#x15a;" horiz-adv-x="1159" d="M1104 1823l-318 -256q-78 17 -96 71l258 273q51 1 97.5 -25t58.5 -63zM221 1120q79 375 576 375q109 0 206.5 -14.5t140.5 -28.5l42 -14q-21 -102 -92 -164q-15 5 -41 12.5t-106.5 20t-158.5 12.5q-323 0 -370 -225q-10 -46 2.5 -84t35.5 -63.5t72 -51.5t86.5 -40.5 t104.5 -37.5q36 -13 65.5 -27t62 -32t57.5 -39t48 -47t37.5 -57t23.5 -67t8 -80t-11 -93q-42 -203 -189.5 -299t-402.5 -96q-76 0 -147.5 9t-119.5 21.5t-85 25t-54 21.5l-18 9q16 87 84 165q20 -7 55 -17.5t132 -28t181 -17.5q313 0 363 233q21 100 -36 159.5t-171 98.5 q-157 57 -218 91q-164 94 -174 252q-3 54 11 118z" />
<glyph unicode="&#x15b;" horiz-adv-x="907" d="M860 1513l-315 -276q-80 14 -103 63l256 289q50 6 98.5 -17t63.5 -59zM145 803q70 295 441 295q89 0 158 -14t94 -28l24 -14q-8 -40 -31 -80.5t-53 -64.5q-92 33 -209 33q-208 0 -239 -148q-7 -34 6 -61t47 -47.5t66.5 -34t84.5 -32.5q10 -3 15 -5q29 -10 52.5 -20.5 t49 -26t43 -33.5t34.5 -42.5t22.5 -53t8 -65t-8.5 -78.5q-34 -155 -144 -229t-305 -74q-60 0 -116 7.5t-93 18t-65 21.5t-41 19l-13 7q24 100 88 152q14 -6 38.5 -14.5t94.5 -22.5t134 -14q198 0 227 147q3 21 3.5 37.5t-6 31t-15 25.5t-23 21t-28.5 17.5t-33.5 15t-38 13 t-39.5 12.5q-7 2 -10 3q-277 87 -220 326z" />
<glyph unicode="&#x15c;" horiz-adv-x="1159" d="M881 1903l254 -226q-52 -74 -113 -90l-186 144l-242 -144q-55 19 -76 90l309 226h54zM221 1120q79 375 576 375q109 0 206.5 -14.5t140.5 -28.5l42 -14q-21 -102 -92 -164q-15 5 -41 12.5t-106.5 20t-158.5 12.5q-323 0 -370 -225q-10 -46 2.5 -84t35.5 -63.5t72 -51.5 t86.5 -40.5t104.5 -37.5q36 -13 65.5 -27t62 -32t57.5 -39t48 -47t37.5 -57t23.5 -67t8 -80t-11 -93q-42 -203 -189.5 -299t-402.5 -96q-76 0 -147.5 9t-119.5 21.5t-85 25t-54 21.5l-18 9q16 87 84 165q20 -7 55 -17.5t132 -28t181 -17.5q313 0 363 233q21 100 -36 159.5 t-171 98.5q-157 57 -218 91q-164 94 -174 252q-3 54 11 118z" />
<glyph unicode="&#x15d;" horiz-adv-x="907" d="M676 1520l239 -220q-51 -72 -112 -88l-180 140l-238 -140q-54 18 -74 88l314 220h51zM145 803q70 295 441 295q89 0 158 -14t94 -28l24 -14q-8 -40 -31 -80.5t-53 -64.5q-92 33 -209 33q-208 0 -239 -148q-7 -34 6 -61t47 -47.5t66.5 -34t84.5 -32.5q10 -3 15 -5 q29 -10 52.5 -20.5t49 -26t43 -33.5t34.5 -42.5t22.5 -53t8 -65t-8.5 -78.5q-34 -155 -144 -229t-305 -74q-60 0 -116 7.5t-93 18t-65 21.5t-41 19l-13 7q24 100 88 152q14 -6 38.5 -14.5t94.5 -22.5t134 -14q198 0 227 147q3 21 3.5 37.5t-6 31t-15 25.5t-23 21t-28.5 17.5 t-33.5 15t-38 13t-39.5 12.5q-7 2 -10 3q-277 87 -220 326z" />
<glyph unicode="&#x15e;" horiz-adv-x="1159" d="M221 1120q79 375 576 375q109 0 206.5 -14.5t140.5 -28.5l42 -14q-21 -102 -92 -164q-15 5 -41 12.5t-106.5 20t-158.5 12.5q-323 0 -370 -225q-10 -46 2.5 -84t35.5 -63.5t72 -51.5t86.5 -40.5t104.5 -37.5q36 -13 65.5 -27t62 -32t57.5 -39t48 -47t37.5 -57t23.5 -67 t8 -80t-11 -93q-39 -190 -170 -286t-355 -107l-39 -101q213 0 170 -194q-21 -100 -97 -152.5t-193 -52.5q-54 0 -98 12t-61 24l-17 13q10 59 61 86q52 -29 127 -29q129 0 151 105q9 43 -13.5 68.5t-80.5 25.5h-73l-21 29l66 166q-107 4 -200 25t-133 40l-40 19q16 87 84 165 q20 -7 55 -17.5t132 -28t181 -17.5q313 0 363 233q21 100 -36 159.5t-171 98.5q-157 57 -218 91q-164 94 -174 252q-3 54 11 118z" />
<glyph unicode="&#x15f;" horiz-adv-x="907" d="M145 803q70 295 441 295q89 0 158 -14t94 -28l24 -14q-8 -40 -31 -80.5t-53 -64.5q-92 33 -209 33q-208 0 -239 -148q-7 -34 6 -61t47 -47.5t66.5 -34t84.5 -32.5q10 -3 15 -5q29 -10 52.5 -20.5t49 -26t43 -33.5t34.5 -42.5t22.5 -53t8 -65t-8.5 -78.5 q-61 -283 -392 -301l-45 -111q209 0 170 -186q-21 -97 -95 -147t-189 -50q-52 0 -95.5 11t-61.5 23l-17 11q12 57 59 86q56 -31 127 -31q56 0 96 25t51 78q8 42 -14.5 66t-77.5 24h-73l-19 26l70 175q-79 4 -147 22t-96 34l-28 15q24 100 88 152q14 -6 38.5 -14.5 t94.5 -22.5t134 -14q198 0 227 147q3 21 3.5 37.5t-6 31t-15 25.5t-23 21t-28.5 17.5t-33.5 15t-38 13t-39.5 12.5q-7 2 -10 3q-277 87 -220 326z" />
<glyph unicode="&#x160;" horiz-adv-x="1159" d="M815 1581l-256 215q50 71 115 90l184 -145l244 143q57 -17 74 -88l-308 -215h-53zM221 1120q79 375 576 375q109 0 206.5 -14.5t140.5 -28.5l42 -14q-21 -102 -92 -164q-15 5 -41 12.5t-106.5 20t-158.5 12.5q-323 0 -370 -225q-10 -46 2.5 -84t35.5 -63.5t72 -51.5 t86.5 -40.5t104.5 -37.5q36 -13 65.5 -27t62 -32t57.5 -39t48 -47t37.5 -57t23.5 -67t8 -80t-11 -93q-42 -203 -189.5 -299t-402.5 -96q-76 0 -147.5 9t-119.5 21.5t-85 25t-54 21.5l-18 9q16 87 84 165q20 -7 55 -17.5t132 -28t181 -17.5q313 0 363 233q21 100 -36 159.5 t-171 98.5q-157 57 -218 91q-164 94 -174 252q-3 54 11 118z" />
<glyph unicode="&#x161;" horiz-adv-x="907" d="M588 1237l-226 209q48 66 105 82l166 -131l221 131q51 -17 68 -82l-285 -209h-49zM145 803q70 295 441 295q89 0 158 -14t94 -28l24 -14q-8 -40 -31 -80.5t-53 -64.5q-92 33 -209 33q-208 0 -239 -148q-7 -34 6 -61t47 -47.5t66.5 -34t84.5 -32.5q10 -3 15 -5 q29 -10 52.5 -20.5t49 -26t43 -33.5t34.5 -42.5t22.5 -53t8 -65t-8.5 -78.5q-34 -155 -144 -229t-305 -74q-60 0 -116 7.5t-93 18t-65 21.5t-41 19l-13 7q24 100 88 152q14 -6 38.5 -14.5t94.5 -22.5t134 -14q198 0 227 147q3 21 3.5 37.5t-6 31t-15 25.5t-23 21t-28.5 17.5 t-33.5 15t-38 13t-39.5 12.5q-7 2 -10 3q-277 87 -220 326z" />
<glyph unicode="&#x162;" horiz-adv-x="1112" d="M248 1475h981q8 -38 -2 -89q-5 -24 -14.5 -47t-16.5 -34l-6 -11h-381l-272 -1280q-39 -14 -107 -14q-33 0 -58.5 3.5t-34.5 6.5l-9 4l272 1280h-391q-8 35 4 90q4 23 13 45.5t16 34.5zM270 -569l-63 51q3 3 9 8.5t22 25t30 41.5t30 57.5t26 72.5q-19 1 -35 4t-23 5l-6 3 l41 195q39 12 109 12q31 0 57 -3t37 -6l10 -3l-27 -130q-13 -62 -40.5 -119t-56.5 -94t-56.5 -65.5t-45.5 -41.5z" />
<glyph unicode="&#x163;" horiz-adv-x="763" d="M479 924l-114 -537q-30 -139 -2.5 -190.5t135.5 -51.5q18 0 45 2.5t45 4.5l18 2q6 -35 -4 -82q-4 -21 -10 -39.5t-10 -26.5l-4 -8q-70 -18 -152 -18q-185 0 -247.5 98.5t-20.5 298.5l116 547h-157q-6 28 4 75q4 23 11.5 42.5t12.5 27.5l5 8h157l39 187q94 51 213 41 l-47 -228h266q6 -27 -4 -76q-4 -21 -11.5 -40t-12.5 -28l-5 -9h-266zM170 -584l-61 52q9 8 23 23.5t45.5 68.5t47.5 112q-20 1 -36 4t-23 6l-6 3l41 194q40 12 110 12q31 0 57 -3t36 -6l10 -3l-27 -129q-13 -62 -40.5 -119t-56.5 -94.5t-56.5 -66t-45.5 -41.5z" />
<glyph unicode="&#x164;" horiz-adv-x="1112" d="M723 1573l-254 227q52 73 113 92l184 -145l244 143q54 -18 75 -90l-309 -227h-53zM248 1475h981q8 -38 -2 -89q-5 -24 -14.5 -47t-16.5 -34l-6 -11h-381l-272 -1280q-39 -14 -107 -14q-33 0 -58.5 3.5t-34.5 6.5l-9 4l272 1280h-391q-8 35 4 90q4 23 13 45.5t16 34.5z " />
<glyph unicode="&#x165;" horiz-adv-x="763" d="M748 1192q-60 13 -72 57q79 63 120 126.5t64 158.5q114 10 162 -41q-39 -102 -114 -185.5t-160 -115.5zM479 924l-114 -537q-30 -139 -2.5 -190.5t135.5 -51.5q18 0 45 2.5t45 4.5l18 2q6 -35 -4 -82q-4 -21 -10 -39.5t-10 -26.5l-4 -8q-70 -18 -152 -18 q-185 0 -247.5 98.5t-20.5 298.5l116 547h-157q-6 28 4 75q4 23 11.5 42.5t12.5 27.5l5 8h157l39 187q94 51 213 41l-47 -228h266q6 -27 -4 -76q-4 -21 -11.5 -40t-12.5 -28l-5 -9h-266z" />
<glyph unicode="&#x166;" horiz-adv-x="1148" d="M713 768h270q3 -63 -29 -129h-270l-133 -625q-39 -14 -107 -14q-33 0 -58.5 3.5t-34.5 6.5l-9 4l133 625h-278q-3 68 28 129h279l110 526h-391q-8 35 4 90q4 23 13 45.5t16 34.5l6 11h981q8 -38 -2 -89q-5 -24 -14.5 -47t-16.5 -34l-6 -11h-381z" />
<glyph unicode="&#x167;" horiz-adv-x="768" d="M502 145q18 0 45 2.5t45 4.5l18 2q6 -35 -4 -82q-4 -21 -10 -39.5t-10 -26.5l-4 -8q-70 -18 -152 -18q-185 0 -247.5 98.5t-20.5 298.5l31 141h-138q-3 62 27 127h137l60 279h-158q-6 28 4 75q4 23 11.5 42.5t12.5 27.5l5 8h157l39 187q94 51 213 41l-47 -228h266 q6 -27 -4 -76q-4 -21 -11 -40t-12 -28l-5 -9h-267l-59 -279h207q6 -57 -27 -127h-207l-28 -131q-30 -139 -2.5 -190.5t135.5 -51.5z" />
<glyph unicode="&#x168;" d="M1051 1726q28 0 54.5 13.5t38.5 26.5l13 14q27 -12 42 -36.5t15 -53.5q-2 -4 -7 -10.5t-22.5 -22.5t-37 -28.5t-51.5 -23t-66 -10.5q-63 0 -130 33t-105 33q-28 0 -55.5 -13.5t-40.5 -27.5l-13 -14q-55 34 -55 90q2 4 7 10.5t22.5 23t37 29t51.5 23t66 10.5q64 0 131 -33 t105 -33zM1384 1460l-208 -993q-51 -245 -207.5 -366t-397.5 -121q-238 0 -356.5 138.5t-67.5 381.5l205 960q37 15 105 15q31 0 56.5 -3.5t35.5 -7.5l10 -4l-213 -993q-31 -148 33.5 -229.5t212.5 -81.5q149 0 246.5 81.5t128.5 229.5l213 993q34 15 102 15q30 0 55.5 -3.5 t36.5 -7.5z" />
<glyph unicode="&#x169;" horiz-adv-x="1124" d="M426 1366q3 4 8 11t22.5 24t37 30t52 24t66.5 11q51 0 92.5 -17t76 -33.5t67.5 -16.5q28 0 55.5 13.5t40.5 27.5l14 14q26 -12 41 -37.5t15 -56.5q-3 -4 -8 -10.5t-22.5 -23.5t-37.5 -30t-52.5 -23.5t-66.5 -10.5q-50 0 -91 17t-75.5 33.5t-68.5 16.5q-28 0 -56 -14.5 t-42 -28.5l-13 -14q-58 34 -55 94zM82 334l154 729q38 14 106 14q31 0 55.5 -3.5t33.5 -7.5l9 -3l-155 -737q-39 -181 151 -181q68 0 136.5 34t123.5 97l166 787q41 14 107 14q32 0 56.5 -3.5t32.5 -7.5l9 -3l-223 -1049q-24 -14 -96 -14q-29 0 -53 3.5t-33 6.5l-9 4l6 95 q-67 -68 -139.5 -97.5t-169.5 -29.5q-112 0 -180.5 50.5t-88 128.5t0.5 173z" />
<glyph unicode="&#x16a;" d="M1206 1616h-604q-6 64 27 125h604q6 -54 -27 -125zM1384 1460l-208 -993q-51 -245 -207.5 -366t-397.5 -121q-238 0 -356.5 138.5t-67.5 381.5l205 960q37 15 105 15q31 0 56.5 -3.5t35.5 -7.5l10 -4l-213 -993q-31 -148 33.5 -229.5t212.5 -81.5q149 0 246.5 81.5 t128.5 229.5l213 993q34 15 102 15q30 0 55.5 -3.5t36.5 -7.5z" />
<glyph unicode="&#x16b;" horiz-adv-x="1124" d="M469 1432h494q5 -47 -27 -117h-494q3 68 27 117zM82 334l154 729q38 14 106 14q31 0 55.5 -3.5t33.5 -7.5l9 -3l-155 -737q-39 -181 151 -181q68 0 136.5 34t123.5 97l166 787q41 14 107 14q32 0 56.5 -3.5t32.5 -7.5l9 -3l-223 -1049q-24 -14 -96 -14q-29 0 -53 3.5 t-33 6.5l-9 4l6 95q-67 -68 -139.5 -97.5t-169.5 -29.5q-112 0 -180.5 50.5t-88 128.5t0.5 173z" />
<glyph unicode="&#x16c;" d="M1241 1710q-5 -5 -13.5 -13t-39.5 -28.5t-65.5 -36t-90 -28.5t-114.5 -13t-112.5 12.5t-88 29.5t-60.5 34.5t-37 30.5l-12 12q19 32 49.5 58t63.5 36q8 -7 23.5 -18t70 -29t117.5 -18t122.5 16.5t87.5 32.5l29 16q31 -10 49.5 -36t20.5 -58zM1384 1460l-208 -993 q-51 -245 -207.5 -366t-397.5 -121q-238 0 -356.5 138.5t-67.5 381.5l205 960q37 15 105 15q31 0 56.5 -3.5t35.5 -7.5l10 -4l-213 -993q-31 -148 33.5 -229.5t212.5 -81.5q149 0 246.5 81.5t128.5 229.5l213 993q34 15 102 15q30 0 55.5 -3.5t36.5 -7.5z" />
<glyph unicode="&#x16d;" horiz-adv-x="1124" d="M727 1415q61 0 119.5 16.5t86.5 32.5l28 17q27 -10 44.5 -37t22.5 -60l-13.5 -13.5t-39 -30t-64.5 -37.5t-88.5 -29.5t-111.5 -13.5q-58 0 -110 13t-85 31t-58 36t-36 31l-10 13q41 76 110 97q3 -3 8.5 -7.5t24.5 -15.5t40.5 -20t57.5 -16t74 -7zM82 334l154 729 q38 14 106 14q31 0 55.5 -3.5t33.5 -7.5l9 -3l-155 -737q-39 -181 151 -181q68 0 136.5 34t123.5 97l166 787q41 14 107 14q32 0 56.5 -3.5t32.5 -7.5l9 -3l-223 -1049q-24 -14 -96 -14q-29 0 -53 3.5t-33 6.5l-9 4l6 95q-67 -68 -139.5 -97.5t-169.5 -29.5 q-112 0 -180.5 50.5t-88 128.5t0.5 173z" />
<glyph unicode="&#x16e;" d="M895 1563q-106 0 -162 61t-33 168q22 105 107.5 165t185.5 60t161.5 -59.5t39.5 -165.5t-107.5 -167.5t-191.5 -61.5zM1075 1792q10 50 -17 85.5t-89 35.5q-61 0 -101.5 -36t-50.5 -85q-10 -50 15 -86.5t86 -36.5q62 0 104.5 37t52.5 86zM1384 1460l-208 -993 q-51 -245 -207.5 -366t-397.5 -121q-238 0 -356.5 138.5t-67.5 381.5l205 960q37 15 105 15q31 0 56.5 -3.5t35.5 -7.5l10 -4l-213 -993q-31 -148 33.5 -229.5t212.5 -81.5q149 0 246.5 81.5t128.5 229.5l213 993q34 15 102 15q30 0 55.5 -3.5t36.5 -7.5z" />
<glyph unicode="&#x16f;" horiz-adv-x="1124" d="M487 1436q22 105 107.5 165t185.5 60t161.5 -59.5t39.5 -165.5t-107.5 -168t-191.5 -62t-162 61.5t-33 168.5zM862 1436q10 50 -16 85t-88 35q-61 0 -102.5 -36t-51.5 -84q-10 -50 15 -86.5t86 -36.5q62 0 104.5 37t52.5 86zM82 334l154 729q38 14 106 14q31 0 55.5 -3.5 t33.5 -7.5l9 -3l-155 -737q-39 -181 151 -181q68 0 136.5 34t123.5 97l166 787q41 14 107 14q32 0 56.5 -3.5t32.5 -7.5l9 -3l-223 -1049q-24 -14 -96 -14q-29 0 -53 3.5t-33 6.5l-9 4l6 95q-67 -68 -139.5 -97.5t-169.5 -29.5q-112 0 -180.5 50.5t-88 128.5t0.5 173z" />
<glyph unicode="&#x170;" d="M1044 1810l-301 -264q-78 10 -98 64l240 274q49 6 96.5 -17t62.5 -57zM1370 1810l-301 -264q-78 10 -98 64l239 274q50 6 97.5 -16.5t62.5 -57.5zM1384 1460l-208 -993q-51 -245 -207.5 -366t-397.5 -121q-238 0 -356.5 138.5t-67.5 381.5l205 960q37 15 105 15 q31 0 56.5 -3.5t35.5 -7.5l10 -4l-213 -993q-31 -148 33.5 -229.5t212.5 -81.5q149 0 246.5 81.5t128.5 229.5l213 993q34 15 102 15q30 0 55.5 -3.5t36.5 -7.5z" />
<glyph unicode="&#x171;" horiz-adv-x="1124" d="M813 1483l-289 -252q-72 10 -92 59l232 262q49 6 92 -14.5t57 -54.5zM1124 1483l-288 -252q-76 11 -95 59l232 262q49 6 92.5 -14.5t58.5 -54.5zM82 334l154 729q38 14 106 14q31 0 55.5 -3.5t33.5 -7.5l9 -3l-155 -737q-39 -181 151 -181q68 0 136.5 34t123.5 97 l166 787q41 14 107 14q32 0 56.5 -3.5t32.5 -7.5l9 -3l-223 -1049q-24 -14 -96 -14q-29 0 -53 3.5t-33 6.5l-9 4l6 95q-67 -68 -139.5 -97.5t-169.5 -29.5q-112 0 -180.5 50.5t-88 128.5t0.5 173z" />
<glyph unicode="&#x172;" d="M1384 1460l-208 -993q-48 -228 -191 -352q-137 -123 -232.5 -244.5t-88.5 -179.5q7 -39 45 -42t77 25q15 -22 22.5 -61t0.5 -70q-78 -55 -184 -55q-65 0 -110 31.5t-48 95.5q-3 88 58 188t177 187q-72 -10 -131 -10q-238 0 -356.5 138.5t-67.5 381.5l205 960 q37 15 105 15q31 0 56.5 -3.5t35.5 -7.5l10 -4l-213 -993q-31 -148 33.5 -229.5t212.5 -81.5q149 0 246.5 81.5t128.5 229.5l213 993q34 15 102 15q30 0 55.5 -3.5t36.5 -7.5z" />
<glyph unicode="&#x173;" horiz-adv-x="1128" d="M82 334l154 729q38 14 106 14q31 0 55.5 -3.5t33.5 -7.5l9 -3l-155 -737q-39 -181 151 -181q68 0 136.5 34t123.5 97l166 787q41 14 107 14q32 0 56.5 -3.5t32.5 -7.5l9 -3l-223 -1049q-100 -65 -173.5 -163.5t-66.5 -159.5q7 -39 45.5 -42t77.5 25q15 -22 22.5 -61 t0.5 -70q-78 -55 -185 -55q-65 0 -109.5 31t-47.5 96q-3 89 67 197.5t193 197.5l-9 99q-67 -68 -139.5 -97.5t-169.5 -29.5q-112 0 -180.5 50.5t-88 128.5t0.5 173z" />
<glyph unicode="&#x174;" horiz-adv-x="1974" d="M1276 1874l244 -234q-52 -74 -113 -90l-184 146l-244 -146q-55 19 -76 90l320 234h53zM1149 14l-35 938q-1 84 3 159.5t9 108.5l4 33h-8q-28 -111 -112 -301l-437 -938q-68 -14 -135 -14q-53 0 -116 14l-93 1446q37 15 107 15q32 0 55 -3.5t30 -7.5l7 -4l64 -962 q4 -59 4 -127t-2 -106l-2 -38h8q45 136 106 271l451 962q45 15 121 15q35 0 59.5 -3.5t31.5 -7.5l7 -4l39 -962q2 -63 -0.5 -130.5t-6.5 -103.5l-3 -37h6q42 124 114 271l473 962q50 15 107 15q27 0 51 -3.5t34 -7.5l11 -4l-708 -1446q-49 -14 -121 -14q-31 0 -62 3.5 t-46 6.5z" />
<glyph unicode="&#x175;" horiz-adv-x="1630" d="M1020 1536l240 -217q-49 -70 -111 -90l-178 141l-240 -139q-56 20 -76 88l314 217h51zM905 14l-39 555q-10 180 8 295h-8q-38 -132 -121 -295l-280 -555q-49 -14 -119 -14q-71 0 -117 14l-86 1049q27 14 93 14q23 0 45 -3.5t33 -7.5l10 -3l59 -653q8 -83 2 -201h6 q36 100 86 201l324 653q53 14 114 14q30 0 54.5 -3.5t33.5 -7.5l9 -3l43 -649q7 -108 -2 -205h6q22 59 94 203l326 651q43 14 100 14q28 0 51.5 -3.5t33.5 -7.5l9 -3l-532 -1049q-55 -14 -119 -14q-65 0 -117 14z" />
<glyph unicode="&#x176;" horiz-adv-x="1294" d="M958 1874l234 -234q-52 -74 -113 -90l-184 146l-244 -146q-59 20 -76 90l330 234h53zM1208 1460q51 15 123 15q31 0 60 -3.5t42 -7.5l13 -4l-698 -844l-130 -602q-36 -14 -104 -14q-33 0 -59 3.5t-35 6.5l-10 4l129 598l-324 848q47 15 129 15q28 0 54.5 -3.5t38.5 -7.5 l12 -4l239 -633z" />
<glyph unicode="&#x177;" horiz-adv-x="1126" d="M862 1063q41 14 107 14q32 0 56.5 -3.5t32.5 -7.5l9 -3l-217 -1028q-63 -293 -200 -420t-392 -127q-94 0 -170 18.5t-106 37.5l-29 18q23 88 88 137q11 -5 30 -12.5t78 -20t117 -12.5q46 0 78.5 2.5t69 11t62 24t53 42.5t47 65.5t37.5 93.5t32 127l14 74 q-66 -62 -139 -88t-170 -26q-160 0 -232 92.5t-38 251.5l156 739q38 14 106 14q31 0 55.5 -3.5t33.5 -7.5l9 -3l-155 -737q-39 -181 151 -181q68 0 136.5 34t123.5 97zM758 1540l254 -231q-53 -75 -109 -92l-190 145l-244 -143q-29 10 -51.5 38.5t-30.5 61.5l318 221h53z " />
<glyph unicode="&#x178;" horiz-adv-x="1294" d="M629 1761q33 13 96 13q26 0 48.5 -3t32.5 -7l9 -3l-37 -168q-35 -12 -94 -12q-28 0 -51 3t-32 6l-9 3zM977 1761q30 13 96 13q26 0 48.5 -3t32.5 -7l9 -3l-37 -168q-35 -12 -94 -12q-29 0 -52 3t-32 6l-8 3zM1208 1460q51 15 123 15q31 0 60 -3.5t42 -7.5l13 -4 l-698 -844l-130 -602q-36 -14 -104 -14q-33 0 -59 3.5t-35 6.5l-10 4l129 598l-324 848q47 15 129 15q28 0 54.5 -3.5t38.5 -7.5l12 -4l239 -633z" />
<glyph unicode="&#x179;" horiz-adv-x="1212" d="M690 1614l252 280q49 6 98 -17t64 -58l-309 -271q-79 14 -105 66zM326 1475h944q8 -35 -4 -89q-12 -53 -35 -94l-1006 -1108h797q4 -45 -6 -88q-7 -34 -33 -96h-1026q-7 48 4 94q7 40 35 90l995 1108h-704q0 62 8 97q7 31 31 86z" />
<glyph unicode="&#x17a;" horiz-adv-x="954" d="M922 1513l-316 -276q-79 13 -102 63l254 289q52 6 100.5 -17t63.5 -59zM209 168h543q6 -29 -4 -84q-5 -23 -13 -44t-13 -30l-5 -10h-760q0 55 6 88q10 43 29 80l702 741h-510q-4 35 6 86q5 24 13 44.5t13 28.5l5 9h725q6 -29 -6 -80q-10 -53 -31 -88z" />
<glyph unicode="&#x17b;" horiz-adv-x="1212" d="M768 1839q32 12 100 12q28 0 52 -3t34 -6l11 -3l-37 -176q-40 -12 -103 -12q-30 0 -53.5 3t-31.5 6l-9 3zM326 1475h944q8 -35 -4 -89q-12 -53 -35 -94l-1006 -1108h797q4 -45 -6 -88q-7 -34 -33 -96h-1026q-7 48 4 94q7 40 35 90l995 1108h-704q0 62 8 97q7 31 31 86z " />
<glyph unicode="&#x17c;" horiz-adv-x="954" d="M209 168h543q6 -29 -4 -84q-5 -23 -13 -44t-13 -30l-5 -10h-760q0 55 6 88q10 43 29 80l702 741h-510q-4 35 6 86q5 24 13 44.5t13 28.5l5 9h725q6 -29 -6 -80q-10 -53 -31 -88zM776 1477l-41 -193q-38 -14 -108 -14q-33 0 -59 3.5t-36 6.5l-10 4l41 193q37 14 111 14 q31 0 56.5 -3.5t35.5 -7.5z" />
<glyph unicode="&#x17d;" horiz-adv-x="1212" d="M850 1729l244 143q54 -18 75 -90l-313 -228h-53l-250 228q52 73 113 92zM326 1475h944q8 -35 -4 -89q-12 -53 -35 -94l-1006 -1108h797q4 -45 -6 -88q-7 -34 -33 -96h-1026q-7 48 4 94q7 40 35 90l995 1108h-704q0 62 8 97q7 31 31 86z" />
<glyph unicode="&#x17e;" horiz-adv-x="954" d="M594 1235l-229 205q45 64 102 84l166 -131l221 129q51 -14 68 -82l-281 -205h-47zM209 168h543q6 -29 -4 -84q-5 -23 -13 -44t-13 -30l-5 -10h-760q0 55 6 88q10 43 29 80l702 741h-510q-4 35 6 86q5 24 13 44.5t13 28.5l5 9h725q6 -29 -6 -80q-10 -53 -31 -88z" />
<glyph unicode="&#x17f;" horiz-adv-x="612" d="M545 1210l-256 -1196q-37 -14 -105 -14q-32 0 -57 3.5t-34 6.5l-9 4l195 910h-140q0 75 33 153h139l27 123q33 160 130 248t282 88q61 0 115 -11t78 -21l24 -11q-20 -82 -84 -143q-60 22 -154 22q-85 0 -125.5 -38.5t-58.5 -123.5z" />
<glyph unicode="&#x2c6;" horiz-adv-x="811" d="M410 1473l254 -232q-53 -75 -109 -92l-190 145l-244 -143q-29 10 -51.5 38.5t-30.5 61.5l317 222h54z" />
<glyph unicode="&#x2da;" horiz-adv-x="704" d="M268 1030q-108 0 -170.5 62t-38.5 168q22 106 102 165.5t179 59.5q64 0 117 -24t82 -77t14 -124q-24 -108 -102.5 -169t-182.5 -61zM434 1260q10 50 -17 85t-89 35q-61 0 -101.5 -36t-50.5 -84q-11 -50 14 -86.5t86 -36.5q62 0 105 37.5t53 85.5z" />
<glyph unicode="&#x2dc;" horiz-adv-x="669" d="M449 1403q28 0 55 13.5t40 27.5l13 14q57 -25 57 -94q-3 -4 -8 -10.5t-23 -23.5t-38 -30t-52.5 -23.5t-66.5 -10.5q-64 0 -131 33.5t-105 33.5q-28 0 -55.5 -14.5t-40.5 -28.5l-14 -14q-55 34 -55 94q3 4 8 11t23 24t38 30t52.5 24t66.5 11q64 0 131 -33.5t105 -33.5z " />
<glyph unicode="&#x2000;" horiz-adv-x="1008" />
<glyph unicode="&#x2001;" horiz-adv-x="2017" />
<glyph unicode="&#x2002;" horiz-adv-x="1008" />
<glyph unicode="&#x2003;" horiz-adv-x="2017" />
<glyph unicode="&#x2004;" horiz-adv-x="672" />
<glyph unicode="&#x2005;" horiz-adv-x="504" />
<glyph unicode="&#x2006;" horiz-adv-x="336" />
<glyph unicode="&#x2007;" horiz-adv-x="336" />
<glyph unicode="&#x2008;" horiz-adv-x="252" />
<glyph unicode="&#x2009;" horiz-adv-x="403" />
<glyph unicode="&#x200a;" horiz-adv-x="112" />
<glyph unicode="&#x2010;" horiz-adv-x="735" d="M557 518h-426q-6 29 4 76q4 21 10.5 40t11.5 28l5 8h426q6 -29 -2 -76q-4 -21 -11.5 -40t-12.5 -28z" />
<glyph unicode="&#x2011;" horiz-adv-x="735" d="M557 518h-426q-6 29 4 76q4 21 10.5 40t11.5 28l5 8h426q6 -29 -2 -76q-4 -21 -11.5 -40t-12.5 -28z" />
<glyph unicode="&#x2012;" horiz-adv-x="735" d="M557 518h-426q-6 29 4 76q4 21 10.5 40t11.5 28l5 8h426q6 -29 -2 -76q-4 -21 -11.5 -40t-12.5 -28z" />
<glyph unicode="&#x2013;" horiz-adv-x="1144" d="M967 518h-836q-6 29 4 76q4 21 10.5 40t11.5 28l5 8h835q6 -29 -2 -76q-4 -21 -11 -40t-12 -28z" />
<glyph unicode="&#x2014;" horiz-adv-x="1656" d="M1479 518h-1348q-6 29 4 76q4 21 10.5 40t11.5 28l5 8h1347q6 -29 -2 -76q-4 -21 -11 -40t-12 -28z" />
<glyph unicode="&#x2018;" horiz-adv-x="466" d="M446 1475l64 -52q-9 -8 -24 -23.5t-47.5 -69t-49.5 -113.5q21 -1 38 -3.5t23 -5.5l7 -2l-41 -194q-35 -13 -109 -13q-31 0 -57 3.5t-36 6.5l-11 3l26 129q13 62 40.5 119t56.5 94.5t56.5 66t45.5 41.5z" />
<glyph unicode="&#x2019;" horiz-adv-x="448" d="M270 999l-63 52q9 8 23.5 23t47 67.5t48.5 111.5q-21 2 -37 5.5t-21 6.5l-6 3l41 192q35 15 109 15q31 0 57 -3.5t37 -7.5l10 -4l-29 -127q-13 -62 -40.5 -119t-56.5 -94.5t-56.5 -66t-45.5 -41.5z" />
<glyph unicode="&#x201a;" horiz-adv-x="477" d="M14 -256l-61 51q3 3 9 8.5t21.5 25t30 41.5t31 57.5t27.5 72.5q-21 1 -37.5 4.5t-22.5 6.5l-6 3l41 193q35 14 111 14q31 0 56.5 -3.5t35.5 -7.5l10 -3l-27 -129q-13 -62 -40.5 -119t-57 -94.5t-57.5 -66t-46 -41.5z" />
<glyph unicode="&#x201c;" horiz-adv-x="671" d="M743 1475l64 -52q-9 -8 -23.5 -23t-46.5 -67.5t-49 -111.5q21 -2 37 -5.5t21 -6.5l6 -3l-41 -192q-33 -15 -109 -15q-30 0 -56 3.5t-37 7.5l-11 4l28 127q13 62 40.5 119t56.5 94.5t56.5 66t45.5 41.5zM451 1475l63 -52q-9 -8 -23.5 -23t-46.5 -67.5t-49 -111.5 q21 -2 37 -5.5t22 -6.5l5 -3l-41 -192q-33 -15 -109 -15q-31 0 -57 3.5t-36 7.5l-11 4l28 127q13 62 40.5 119t57 94.5t57 66t45.5 41.5z" />
<glyph unicode="&#x201d;" horiz-adv-x="741" d="M270 999l-63 52q9 8 23.5 23t46.5 67.5t49 111.5q-21 2 -37 5.5t-21 6.5l-6 3l41 192q33 15 109 15q30 0 56 -3.5t37 -7.5l11 -4l-29 -127q-13 -62 -40.5 -119t-56.5 -94.5t-56.5 -66t-45.5 -41.5zM563 999l-63 52q9 8 23 23t46 67.5t49 111.5q-21 2 -36.5 5.5t-21.5 6.5 l-5 3l41 192q33 15 109 15q31 0 57 -3.5t36 -7.5l11 -4l-29 -127q-13 -62 -40.5 -119t-56.5 -94.5t-56.5 -66t-45.5 -41.5z" />
<glyph unicode="&#x201e;" horiz-adv-x="772" d="M14 -256l-61 51q3 3 9 8.5t21.5 25t30 41.5t31 57.5t27.5 72.5q-21 1 -37.5 4.5t-22.5 6.5l-6 3l41 193q37 14 111 14q31 0 56.5 -3.5t35.5 -7.5l10 -3l-27 -129q-13 -62 -40.5 -119t-57 -94.5t-57.5 -66t-46 -41.5zM309 -256l-61 51q3 3 9 8.5t21.5 25t30 41.5t31 57.5 t27.5 72.5q-21 1 -37.5 4.5t-22.5 6.5l-6 3l41 193q35 14 111 14q30 0 55.5 -3.5t35.5 -7.5l11 -3l-27 -129q-13 -62 -40.5 -119t-57 -94.5t-57.5 -66t-46 -41.5z" />
<glyph unicode="&#x2020;" horiz-adv-x="1146" d="M395 -260l-76 47l242 1075l-452 -14q-2 35 6 80q5 23 11.5 42.5t10.5 27.5l4 8l449 -15l78 436q39 9 86 9q21 0 41 -2t29 -4l10 -3l-107 -436l436 15q4 -33 -6 -78q-4 -21 -11 -41t-12 -29l-4 -10l-432 14l-213 -1075z" />
<glyph unicode="&#x2021;" horiz-adv-x="1282" d="M639 324l453 14q1 -33 -9 -80q-5 -24 -11 -43.5t-10 -26.5l-3 -8l-449 15l-78 -437q-37 -8 -86 -8q-22 0 -41.5 2t-28.5 4l-9 2l106 437l-450 -15q-4 31 6 78q4 22 10.5 42t10.5 29l5 9l447 -14l41 268l71 270l-452 -14q-2 33 8 80q5 24 11.5 43.5t10.5 26.5l3 8l448 -15 l78 436q37 9 86 9q22 0 42 -2t29 -4l9 -3l-107 -436l451 15q4 -31 -6 -78q-4 -22 -11 -42t-12 -29l-4 -9l-446 14l-43 -270z" />
<glyph unicode="&#x2022;" horiz-adv-x="692" d="M508 578q-17 -75 -75.5 -121.5t-131.5 -46.5q-75 0 -114.5 46.5t-22.5 121.5q17 77 76.5 123.5t134.5 46.5q74 0 112 -46.5t21 -123.5z" />
<glyph unicode="&#x2026;" horiz-adv-x="1312" d="M260 207l-41 -193q-38 -14 -108 -14q-33 0 -59 3.5t-36 6.5l-10 4l41 193q37 14 111 14q31 0 56.5 -3.5t35.5 -7.5zM680 207l-41 -193q-39 -14 -109 -14q-33 0 -59 3.5t-35 6.5l-10 4l41 193q37 14 111 14q31 0 56.5 -3.5t35.5 -7.5zM1096 207l-41 -193q-39 -14 -109 -14 q-33 0 -59 3.5t-35 6.5l-10 4l41 193q36 14 110 14q31 0 57 -3.5t36 -7.5z" />
<glyph unicode="&#x202f;" horiz-adv-x="403" />
<glyph unicode="&#x2030;" horiz-adv-x="2222" d="M1432 1425l-1096 -1433q-29 -12 -84 -12q-23 0 -42.5 3t-27.5 6l-8 3l1098 1433q27 13 82 13q24 0 43.5 -3t26.5 -7zM381 707q-138 0 -191.5 84t-13.5 270q74 354 356 354q281 0 205 -354t-356 -354zM508 1296q-66 0 -108.5 -50.5t-71.5 -184.5q-15 -71 -16.5 -118 t11 -72t32.5 -34.5t53 -9.5q64 0 105.5 49t70.5 185q22 92 15.5 144.5t-28 71.5t-63.5 19zM1059 -20q-137 0 -190 84t-13 270q39 184 127.5 269t224.5 85t190.5 -84.5t16.5 -269.5q-76 -354 -356 -354zM1729 -20q-137 0 -190 84t-13 270q39 184 127.5 269t224.5 85 q282 0 209 -354q-76 -354 -358 -354zM1184 569q-65 0 -107.5 -51t-70.5 -184q-15 -71 -17 -118t10 -72t32 -34.5t52 -9.5q66 0 108 49t71 185q21 92 14.5 144.5t-28 71.5t-64.5 19zM1853 569q-65 0 -106.5 -50.5t-69.5 -184.5q-15 -71 -17 -118t10 -72t31.5 -34.5t51.5 -9.5 q43 0 73 17.5t57.5 70.5t47.5 146q21 92 14.5 144.5t-28 71.5t-64.5 19z" />
<glyph unicode="&#x2039;" horiz-adv-x="694" d="M111 637l501 405q43 -40 43 -120l-399 -371l242 -369q-32 -79 -95 -121l-329 402q-8 31 2 82q5 25 14 48t15 33z" />
<glyph unicode="&#x203a;" horiz-adv-x="694" d="M258 1042l324 -424q5 -35 -7 -92q-4 -23 -11.5 -43.5t-13.5 -29.5l-5 -9l-496 -383q-21 20 -32 53t-9 68l398 369l-240 371q28 78 92 120z" />
<glyph unicode="&#x2044;" horiz-adv-x="278" d="M-473 -8l1096 1433q27 13 82 13q24 0 42.5 -3t25.5 -7l7 -3l-1097 -1433q-33 -12 -82 -12q-20 0 -38.5 3t-26.5 6z" />
<glyph unicode="&#x205f;" horiz-adv-x="504" />
<glyph unicode="&#x20ac;" horiz-adv-x="1208" d="M332 915q182 478 618 478q90 0 164 -16.5t102 -32.5l29 -17q-25 -94 -90 -141q-92 41 -219 41q-64 0 -118 -15.5t-105 -51t-95 -97t-79 -148.5h499q1 -29 -13 -65.5t-36 -63.5h-495q-10 -34 -25 -102q-12 -51 -18 -94h434q1 -30 -13 -67t-36 -64h-396 q-7 -171 62.5 -241.5t204.5 -70.5q64 0 128.5 10.5t96.5 21.5l33 11q45 -42 26 -145q-14 -7 -41 -18t-115.5 -29t-183.5 -18q-439 0 -415 479h-175q0 29 15 67t37 64h135l16 96q15 64 27 100h-160q0 30 14 66.5t37 62.5h150z" />
<glyph unicode="&#x20bd;" horiz-adv-x="1228" d="M375 524l-29 -135h617q3 -13 -8.5 -64.5t-20.5 -70.5h-617l-51 -240q-34 -14 -102 -14q-33 0 -58 3.5t-34 6.5l-9 4l52 240h-131q-3 13 8 65.5t20 69.5h131l213 1004h521q128 0 213 -62t114.5 -165.5t3.5 -231.5q-38 -192 -177 -301t-339 -109h-317zM410 692h292 q118 0 194.5 67.5t102.5 192.5q28 129 -19.5 200t-164.5 71h-293z" />
<glyph unicode="&#x2122;" horiz-adv-x="1263" d="M250 1475h416q6 -16 0 -35q-2 -11 -15 -37h-162l-108 -510q-18 -8 -47 -8q-14 0 -24 2t-14 4l-3 2l108 510h-165q-3 17 0 35q4 21 14 37zM756 1466q22 9 55 9q19 0 49 -9l51 -174q24 -82 37 -157q12 21 101 147l127 184q32 9 57 9q16 0 29 -2.5t18 -4.5l6 -2l-121 -573 q-16 -8 -43 -8q-13 0 -23 2t-14 4l-4 2l52 240q35 177 49 227l-86 -129l-131 -182q-14 -7 -39 -7q-11 0 -20 2t-12 4l-3 1l-51 180q-22 85 -31 131q-10 -58 -43 -227l-51 -240q-16 -8 -43 -8q-10 0 -19.5 2t-13.5 4l-4 2z" />
<glyph unicode="&#x25fc;" horiz-adv-x="1075" d="M0 1075h1075v-1075h-1075v1075z" />
</font>
</defs>
</svg>
