<?xml version="1.0" standalone="no"?>
<!DOCTYPE svg PUBLIC "-//W3C//DTD SVG 1.1//EN" "http://www.w3.org/Graphics/SVG/1.1/DTD/svg11.dtd" >
<svg xmlns="http://www.w3.org/2000/svg" xmlns:xlink="http://www.w3.org/1999/xlink" version="1.1">
<metadata></metadata>
<defs>
<font id="globerbook_italic" horiz-adv-x="1126" >
<font-face units-per-em="2048" ascent="1536" descent="-512" />
<missing-glyph horiz-adv-x="518" />
<glyph horiz-adv-x="0" />
<glyph horiz-adv-x="682" />
<glyph unicode=" "  horiz-adv-x="518" />
<glyph unicode="&#x09;" horiz-adv-x="518" />
<glyph unicode="&#xa0;" horiz-adv-x="518" />
<glyph unicode="!" horiz-adv-x="512" d="M156 336l223 1130q4 9 57 9q24 0 37 -2.5t15 -4.5l1 -2l-256 -1130q-13 -10 -40 -10q-13 0 -22 2.5t-12 5.5zM211 123l-25 -115q-20 -8 -63 -8q-19 0 -34 2t-21 4l-5 2l25 115q21 8 64 8q19 0 34 -2t20 -4z" />
<glyph unicode="&#x22;" horiz-adv-x="636" d="M256 1069l63 397q21 9 56 9q16 0 29 -2.5t18 -4.5l4 -2l-104 -397q-12 -6 -35 -6q-10 0 -18 1.5t-11 3.5zM494 1069l63 397q18 9 55 9q16 0 29 -2.5t18 -4.5l5 -2l-105 -397q-12 -6 -35 -6q-10 0 -17.5 1.5t-10.5 3.5z" />
<glyph unicode="#" horiz-adv-x="1327" d="M1155 1268q21 8 49 8q31 0 47 -8l-147 -297h201q0 -35 -2 -43q-5 -22 -19 -47h-225l-248 -502h195q5 -20 0 -45q-8 -30 -19 -45h-221l-137 -279q-30 -10 -51 -10q-16 0 -46 10l138 279h-342l-138 -279q-30 -10 -53 -10q-13 0 -43 10l137 279h-208q0 30 4 45q5 26 14 45 h235l248 502h-205q0 33 3 45q6 24 18 45h229l148 297q21 8 49 8q31 0 47 -8l-147 -297h342zM621 881l-248 -502h342l248 502h-342z" />
<glyph unicode="$" horiz-adv-x="1146" d="M729 1608q18 8 53 8q16 0 29 -2t18 -4l5 -2l-64 -240q96 -1 179.5 -12.5t118.5 -23.5l36 -11q-7 -29 -17 -45q-11 -18 -30 -37q-127 39 -305 39q-186 0 -294.5 -67.5t-135.5 -192.5q-12 -56 1 -99t45 -69.5t78 -48t100 -35t110.5 -30.5t110 -34t98 -45.5t75 -65t40.5 -93 t-5 -129.5q-34 -159 -164 -255t-332 -108l-43 -262q-14 -8 -51 -8q-16 0 -29.5 2t-18.5 4l-5 2l67 260q-108 1 -204 18.5t-139 34.5l-42 17q0 19 13 45q13 25 30 37q19 -6 52.5 -15.5t129.5 -25t183 -15.5q187 0 301 65.5t143 196.5q12 59 -0.5 104.5t-44.5 73.5t-78 51 t-100.5 36.5t-111 30.5t-110 32.5t-98.5 43t-75.5 62.5t-41 89.5t4.5 124.5q33 155 157 249t322 107z" />
<glyph unicode="%" horiz-adv-x="1525" d="M1384 1430l-1099 -1442q-19 -8 -56 -8q-14 0 -25 2t-16 4l-4 2l1100 1442q16 8 53 8q16 0 27.5 -2t15.5 -4zM385 707q-129 0 -178.5 84t-9.5 270q74 354 340 354q268 0 192 -354t-344 -354zM520 1337q-84 0 -141.5 -63t-89.5 -213q-32 -151 -1 -213t115 -62t141 62 t89 213q32 149 1 212.5t-114 63.5zM1020 -20q-130 0 -179.5 84t-9.5 270q74 354 338 354q268 0 195 -354q-76 -354 -344 -354zM1153 610q-84 0 -141 -63t-88 -213q-32 -152 -2 -213.5t114 -61.5t142 62t90 213q31 149 -0.5 212.5t-114.5 63.5z" />
<glyph unicode="&#x26;" horiz-adv-x="1294" d="M827 1413q131 0 192 -71.5t38 -174.5q-11 -52 -34 -98t-59.5 -86.5t-76.5 -74.5t-98.5 -69.5t-111.5 -63.5t-128 -64q73 -242 287 -432q128 120 211 294q28 2 51 -8.5t30 -29.5q-73 -157 -235 -308q96 -78 231 -139q-4 -27 -22.5 -52.5t-40.5 -37.5q-124 53 -254 154 q-25 -21 -56 -42t-92 -54.5t-142.5 -54.5t-166.5 -21q-76 0 -139 20t-110.5 62t-63 108t1.5 158q14 66 49.5 127t77.5 103.5t95 81.5t92.5 61t80.5 40q-41 166 -6 318q35 165 138 259.5t261 94.5zM801 1331q-101 0 -172.5 -67.5t-98.5 -196.5q-30 -139 0 -281 q93 44 157.5 80.5t123.5 81t93.5 95.5t47.5 110q17 83 -22 130.5t-129 47.5zM383 70q61 0 122 14.5t109.5 38t79.5 42.5t56 38q-216 198 -297 465q-43 -22 -82.5 -48t-88 -67t-84 -97t-48.5 -118q-26 -125 37 -196.5t196 -71.5z" />
<glyph unicode="'" horiz-adv-x="399" d="M256 1069l63 397q19 9 56 9q16 0 29 -2.5t18 -4.5l4 -2l-104 -397q-12 -6 -35 -6q-10 0 -18 1.5t-11 3.5z" />
<glyph unicode="(" horiz-adv-x="581" d="M692 1649q10 -6 17 -14.5t9 -13.5l1 -5q-15 -15 -39.5 -44t-93 -125.5t-127.5 -201t-123.5 -265.5t-99.5 -325t-40.5 -323t12 -269t40 -197t42.5 -129l19 -42q-12 -19 -39 -33q-13 -6 -24.5 -9t-17.5 -3h-5q-9 17 -23 48.5t-44.5 135.5t-47.5 214t-14.5 276t37.5 331 q26 120 68 240.5t89.5 217t98.5 185t97.5 153t83.5 113t59 72.5l22 25q23 2 43 -12z" />
<glyph unicode=")" horiz-adv-x="579" d="M354 655q35 164 40.5 323t-11.5 269t-39 197t-42 130l-19 42q10 19 39 33q13 6 24 9t16 3h5q9 -17 23 -48.5t44.5 -135.5t47.5 -214.5t14.5 -276.5t-37.5 -331q-26 -120 -68 -240.5t-89.5 -216.5t-98.5 -184.5t-97.5 -153.5t-83.5 -113t-59 -73l-22 -24q-23 -2 -43 12 q-10 6 -16.5 14.5t-7.5 13.5l-1 5q14 15 39 44t93 125.5t127 201t123 265t99 324.5z" />
<glyph unicode="*" horiz-adv-x="706" d="M449 1262l36 178q40 13 68 0l-37 -178l184 57q17 -22 7 -66l-187 -55l80 -151q-33 -28 -61 -37l-80 147l-137 -149q-30 8 -50 36l142 154l-160 55q10 43 35 66z" />
<glyph unicode="+" horiz-adv-x="942" d="M410 551h-304q-3 14 3 43q3 13 7 23.5t6 14.5l3 5h303l66 303q14 8 43 8q13 0 23.5 -2t15.5 -4l4 -2l-66 -303h303q6 -14 0 -43q-3 -13 -7.5 -23.5t-7.5 -14.5l-3 -5h-303l-64 -303q-16 -8 -45 -8q-13 0 -23 2t-14 4l-4 2z" />
<glyph unicode="," horiz-adv-x="450" d="M10 -209l-37 31q78 78 107 178q-13 0 -23.5 2t-14.5 4l-5 2l24 115q25 8 68 8q19 0 35 -2t22 -4l7 -2l-19 -82q-10 -46 -30.5 -89t-42.5 -71t-43 -49.5t-34 -31.5z" />
<glyph unicode="-" horiz-adv-x="731" d="M539 551h-385q-4 14 2 43q3 13 7 23.5t7 14.5l2 5h385q6 -14 0 -43q-3 -13 -7.5 -23.5t-7.5 -14.5z" />
<glyph unicode="." horiz-adv-x="442" d="M190 123l-24 -115q-25 -8 -68 -8q-19 0 -35 2t-22 4l-6 2l24 115q25 8 68 8q19 0 35 -2t22 -4z" />
<glyph unicode="/" horiz-adv-x="901" d="M-102 -88l1036 1616q18 8 53 8q17 0 31 -2t19 -4l5 -2l-1036 -1616q-22 -8 -59 -8q-16 0 -28 2t-17 4z" />
<glyph unicode="0" horiz-adv-x="1267" d="M510 -20q-243 0 -332 171t-16 545q74 371 231 544t398 173q243 0 333 -172t17 -545t-230.5 -544.5t-400.5 -171.5zM782 1321q-192 0 -315.5 -147.5t-194.5 -477.5q-49 -220 -34.5 -359t82.5 -202t196 -63q195 0 318.5 147.5t193.5 476.5q69 334 9 479.5t-255 145.5z" />
<glyph unicode="1" horiz-adv-x="802" d="M162 1073q281 70 481 311q14 9 51 9q16 0 28 -2.5t16 -4.5l5 -2l-292 -1376q-17 -8 -56 -8q-16 0 -29 2t-18 4l-4 2l201 942q37 182 69 283q-173 -181 -444 -250q-27 34 -8 90z" />
<glyph unicode="2" horiz-adv-x="1077" d="M338 1262q-14 12 -17.5 36t3.5 50q19 7 52.5 18t136 29t202.5 18q86 0 154 -22t116 -67.5t63 -116t-4 -167.5q-15 -65 -45 -119t-61 -90.5t-98 -82t-111.5 -71t-145.5 -79.5q-17 -9 -26 -14q-18 -10 -61.5 -32.5t-67 -35t-64 -37t-65 -44t-56.5 -50t-52 -60.5 t-38.5 -69.5t-27.5 -83.5q-12 -52 -12 -74h702q5 -15 -2 -49q-7 -32 -18 -49h-797q2 65 16 137q12 58 33.5 109.5t43 89.5t58.5 76.5t62.5 61.5t74.5 54.5t74.5 46t82 45.5t79.5 44q175 98 215 125q124 83 171 180q20 40 30 88q7 33 8 63t-6 61t-26 56t-48.5 44.5t-78 30.5 t-111.5 11q-76 0 -160.5 -15.5t-131.5 -30.5z" />
<glyph unicode="3" horiz-adv-x="1052" d="M858 354q-17 -77 -56 -142t-103.5 -118.5t-164.5 -83.5t-227 -30q-57 0 -111.5 7t-90.5 16.5t-64.5 19.5t-41.5 17l-13 7q3 22 16 45t29 33q2 -1 16 -5.5t21 -6.5t24 -7t29 -8t31.5 -7.5t37.5 -6.5t39.5 -5t45 -4t47.5 -1q369 0 432 297q11 65 9 113.5t-23.5 83.5t-49 58 t-68.5 36t-80.5 18.5t-86.5 5.5h-109q-6 43 19 88h108q326 0 387 283q27 127 -38 196.5t-224 69.5q-74 0 -148 -12.5t-112 -25.5l-37 -13q-17 10 -22 32.5t2 43.5q17 7 47.5 18t121.5 29t179 18q198 0 283 -103.5t51 -262.5q-26 -121 -91.5 -197.5t-193.5 -124.5 q129 -53 169.5 -140t10.5 -231z" />
<glyph unicode="4" horiz-adv-x="1169" d="M49 461l877 923q16 9 55 9q16 0 29 -2.5t18 -4.5l4 -2l-196 -923h208q4 -14 -2 -45q-3 -14 -7.5 -25t-7.5 -15l-3 -5h-209l-76 -363q-18 -8 -53 -8q-16 0 -28 2t-16 4l-5 2l76 363h-684q-4 14 2 45q3 14 7.5 25t7.5 15zM897 1235l-733 -774h569z" />
<glyph unicode="5" horiz-adv-x="1064" d="M444 1296l-110 -516q1 0 10 1.5t24.5 3t35.5 3.5t46 3.5t52 1.5q238 0 332.5 -110.5t50.5 -315.5q-40 -195 -184.5 -291t-403.5 -96q-97 0 -173 14t-103 28l-27 13q2 23 13.5 45.5t29.5 34.5q12 -5 34.5 -12t92 -19t139.5 -12q205 0 321 75t150 234q11 56 12 104 t-18.5 87.5t-56.5 68t-102 44t-156 15.5q-84 0 -244 -20l149 713h682q9 -50 -18 -97h-578z" />
<glyph unicode="6" horiz-adv-x="1128" d="M1034 1395q10 -43 -16 -92q-259 -26 -440 -155t-281 -388q184 92 352 92q184 0 274.5 -115.5t43.5 -343.5q-43 -208 -179.5 -310.5t-338.5 -102.5q-98 0 -171 31.5t-120.5 98t-57.5 169.5t19 247q44 211 131 373t207 266.5t264 161.5t313 68zM860 416q37 175 -30 261.5 t-212 86.5q-161 0 -358 -111q-18 -56 -35 -135q-49 -226 17 -338t217 -112q148 0 256.5 89.5t144.5 258.5z" />
<glyph unicode="7" horiz-adv-x="1007" d="M240 1393h833q3 -28 -4 -62q-18 -82 -52 -156.5t-77.5 -136t-95.5 -121t-107.5 -117.5t-111 -118.5t-109.5 -131.5t-101 -149t-86 -179t-63 -214q-32 -8 -53 -8q-27 0 -51 8q31 146 84.5 272.5t116 219t132.5 174.5t139.5 154t130.5 141t111.5 152.5t77.5 172.5h-735 q-4 18 2 49q4 15 8.5 27.5t7.5 17.5z" />
<glyph unicode="8" horiz-adv-x="1196" d="M762 1413q187 0 279 -96.5t61 -253.5q-43 -215 -305 -352q254 -145 200 -396q-34 -162 -174 -248.5t-368 -86.5q-212 0 -312.5 106.5t-66.5 263.5q14 66 49 126.5t72.5 101t91 80t85.5 58.5t75 42q-212 125 -164 344q30 147 158.5 229t318.5 82zM389 1092 q-7 -40 -5 -71.5t15 -59.5t32 -50t46 -42t57 -36.5t64.5 -33.5t69.5 -32q23 -10 34 -15q253 135 293 327q25 116 -44 181t-210 65q-139 0 -234 -63.5t-118 -169.5zM481 70q166 0 276.5 73.5t135.5 190.5q9 36 6.5 67.5t-10.5 57.5t-25 49.5t-37 42.5t-46.5 36.5t-54 32.5 t-59 30t-61.5 29q-46 21 -69 32q-29 -15 -58.5 -31.5t-81 -53.5t-91 -76.5t-75.5 -96.5t-49 -117q-26 -120 48.5 -193t250.5 -73z" />
<glyph unicode="9" horiz-adv-x="1124" d="M121 0q-6 21 -1 48t17 46q258 26 438.5 153t280.5 386q-179 -92 -352 -92q-118 0 -198 50t-113 152.5t0 257.5q44 205 186.5 308.5t335.5 103.5q202 0 291 -135.5t30 -411.5q-45 -211 -132 -372.5t-206.5 -265.5t-263.5 -160.5t-313 -67.5zM293 977q-37 -175 30 -261.5 t212 -86.5q170 0 360 110q28 99 35 135q47 226 -19.5 338.5t-216.5 112.5q-148 0 -256 -89t-145 -259z" />
<glyph unicode=":" horiz-adv-x="458" d="M360 932l-24 -115q-25 -8 -68 -8q-19 0 -35 2t-22 4l-6 2l24 115q25 8 68 8q19 0 35 -2t22 -4zM188 123l-24 -115q-25 -8 -68 -8q-19 0 -35 2t-22 4l-6 2l24 115q25 8 68 8q19 0 35 -2t22 -4z" />
<glyph unicode=";" horiz-adv-x="487" d="M27 -209l-35 31q73 73 104 178q-13 0 -23.5 2t-14.5 4l-5 2l25 115q24 8 67 8q19 0 35 -2t22 -4l7 -2l-19 -82q-10 -46 -30.5 -89t-42.5 -71t-42.5 -49.5t-34.5 -31.5zM381 932l-25 -115q-24 -8 -67 -8q-19 0 -35 2t-22 4l-7 2l25 115q24 8 67 8q19 0 35 -2t22 -4z" />
<glyph unicode="&#x3c;" horiz-adv-x="952" d="M696 238l-592 301q-3 22 5 55q3 15 7.5 28t7.5 19l3 6l719 301q6 -12 0 -45q-3 -14 -7.5 -25.5t-8.5 -16.5l-3 -5l-630 -264l518 -260q6 -14 0 -47q-4 -14 -8.5 -25.5t-7.5 -16.5z" />
<glyph unicode="=" horiz-adv-x="1046" d="M887 725h-688q0 45 18 86h688q3 -39 -18 -86zM813 377h-688q-3 45 18 86h688q3 -36 -18 -86z" />
<glyph unicode="&#x3e;" horiz-adv-x="950" d="M811 539l-719 -301q-6 16 2 47q3 15 7 26.5t7 16.5l3 4l628 260l-516 264q-4 16 2 47q3 15 7 26t7 15l3 4l592 -301q3 -20 -3 -53q-4 -15 -9 -28.5t-8 -19.5z" />
<glyph unicode="?" horiz-adv-x="872" d="M868 1085q-18 -83 -53 -148.5t-78 -109t-92 -81t-97.5 -75.5t-91.5 -81t-78 -107.5t-52 -146.5q-16 -10 -47 -10q-12 0 -22.5 2.5t-14.5 5.5l-4 2q20 95 55.5 169t77.5 121t89 86t93 73.5t86 72.5t72 94t47 127q23 111 -31.5 176.5t-198.5 65.5q-75 0 -145 -12.5 t-103 -25.5l-32 -13q-35 25 -17 78q15 7 43 18t114 29t173 18q94 0 161.5 -25t102.5 -69t47.5 -104t-4.5 -130zM303 123l-24 -115q-25 -8 -68 -8q-19 0 -35 2t-22 4l-7 2l25 115q25 8 68 8q19 0 35 -2t22 -4z" />
<glyph unicode="@" horiz-adv-x="1873" d="M1731 621q-43 -209 -159 -328t-280 -119q-80 0 -128.5 36t-55.5 109q-105 -145 -295 -145q-70 0 -122 20t-89.5 66.5t-44.5 122t14 186.5q23 108 65 187.5t97.5 124.5t116.5 65.5t131 20.5q170 0 223 -119l25 113q16 8 45 8q13 0 24.5 -2t17.5 -4l5 -2l-109 -510 q-44 -201 101 -201q106 0 197 92.5t130 278.5q68 318 -76.5 507t-471.5 189q-208 0 -389 -89.5t-309.5 -260t-176.5 -396.5q-36 -191 -11.5 -328.5t105.5 -226.5t195 -131.5t258 -42.5q305 0 602 172q36 -16 27 -59q-306 -193 -666 -193q-159 0 -286 50t-215 150.5 t-115.5 252.5t12.5 356q53 248 198.5 436t349 287t435.5 99q248 0 407 -98.5t213 -271.5t5 -402zM672 569q-67 -321 182 -321q99 0 172.5 65t95.5 154l43 201q20 90 -26 157.5t-148 67.5q-43 0 -79 -8t-74 -29.5t-67.5 -57t-55.5 -94t-43 -135.5z" />
<glyph unicode="A" horiz-adv-x="1310" d="M780 1466q21 9 56 9q16 0 28.5 -2.5t17.5 -4.5l5 -2l254 -1458q-21 -8 -60 -8q-13 0 -24.5 2t-16.5 4l-6 2l-73 418h-691l-252 -418q-18 -8 -63 -8q-16 0 -27.5 2t-15.5 4l-4 2zM813 1337h-4q-20 -43 -55 -106l-430 -711h622l-123 711q-4 29 -6.5 55.5t-2.5 38.5z" />
<glyph unicode="B" horiz-adv-x="1288" d="M393 1475h496q86 0 150 -22t100 -60t56.5 -89t19 -109.5t-12.5 -121.5q-7 -36 -18.5 -68t-24 -57.5t-29 -48.5t-30 -39.5t-32 -32.5t-30.5 -25.5t-30 -20t-26 -14.5t-21.5 -10.5t-14.5 -6.5q1 -1 6 -3q13 -6 23.5 -11.5t32.5 -21.5t37.5 -34t33 -48t26 -64t9 -83 t-11.5 -104q-19 -91 -56 -159.5t-98.5 -119t-152.5 -76.5t-211 -26h-504zM354 791h369q306 0 371 296q30 143 -26 219t-224 76h-365zM207 92h385q180 0 273.5 76.5t125.5 226.5q34 157 -32 231t-240 74h-383z" />
<glyph unicode="C" horiz-adv-x="1132" d="M170 756q82 376 256 557.5t453 181.5q99 0 181 -17t114 -34l32 -17q-11 -44 -51 -81q-12 6 -35 15t-97 24.5t-151 15.5q-107 0 -193.5 -32.5t-164 -107t-137.5 -206.5t-101 -320q-32 -151 -35 -265.5t19.5 -189t71 -120.5t111.5 -65t149 -19q84 0 166 14t122 28l40 13 q23 -32 16 -84q-6 -3 -16.5 -7.5t-47 -16t-77.5 -20.5t-105.5 -16t-132.5 -7q-548 0 -387 776z" />
<glyph unicode="D" horiz-adv-x="1355" d="M393 1475h393q119 0 207.5 -24.5t152 -80t93.5 -143t29 -215.5t-37 -295q-44 -209 -109 -349t-157.5 -221t-203.5 -114t-263 -33h-418zM207 94h289q124 0 215 28.5t171 99.5t138 198t98 317q33 153 36 265t-20.5 184.5t-76 116t-122 60.5t-167.5 17h-289z" />
<glyph unicode="E" horiz-adv-x="1138" d="M393 1475h801q3 -21 -2 -45q-7 -34 -18 -50h-695l-125 -585h592q3 -21 0 -45q-6 -27 -18 -48h-592l-129 -608h715q0 -37 -2 -45q-6 -26 -19 -49h-821z" />
<glyph unicode="F" horiz-adv-x="1101" d="M332 682l-144 -674q-18 -8 -55 -8q-16 0 -29 2t-18 4l-4 2l311 1467h797q0 -39 -2 -48q-4 -24 -19 -47h-690l-129 -606h600q5 -11 0 -45q-3 -11 -7 -21t-7 -17t-4 -9h-600z" />
<glyph unicode="G" horiz-adv-x="1269" d="M170 764q159 731 731 731q105 0 195 -17t128 -34l38 -17q-17 -48 -52 -79q-15 6 -42.5 15t-110 23.5t-162.5 14.5q-107 0 -197 -32.5t-172.5 -106.5t-147 -207t-104.5 -320q-32 -151 -32.5 -266t25.5 -188.5t78 -120t117.5 -65.5t151.5 -19q117 0 285 33l123 577h-369 q-4 18 2 47q3 15 7.5 26.5t7.5 16.5l4 4h473l-156 -733q-19 -8 -53 -19t-141.5 -29.5t-216.5 -18.5q-277 0 -383 201t-27 583z" />
<glyph unicode="H" horiz-adv-x="1390" d="M1110 805l141 661q21 9 56 9q16 0 28.5 -2.5t17.5 -4.5l5 -2l-309 -1458q-19 -8 -56 -8q-18 0 -31 2t-16 4l-4 2l148 699h-754l-148 -699q-20 -8 -55 -8q-17 0 -30 2t-17 4l-4 2l309 1458q20 9 55 9q16 0 29 -2.5t18 -4.5l5 -2l-142 -661h754z" />
<glyph unicode="I" horiz-adv-x="530" d="M82 8l309 1458q18 9 55 9q16 0 29 -2.5t18 -4.5l5 -2l-310 -1458q-18 -8 -55 -8q-17 0 -30 2t-17 4z" />
<glyph unicode="J" horiz-adv-x="874" d="M506 334l239 1132q17 9 56 9q16 0 28.5 -2.5t17.5 -4.5l5 -2l-240 -1130q-38 -182 -139.5 -269t-269.5 -87q-69 0 -136.5 15t-100.5 31l-32 15q10 57 50 84q11 -5 31.5 -13.5t80 -22t115.5 -13.5q115 0 189.5 59.5t105.5 198.5z" />
<glyph unicode="K" horiz-adv-x="1245" d="M610 813l594 653q27 9 62 9q23 0 59 -9l-633 -706l383 -752q-22 -8 -63 -8q-16 0 -31 2t-22 4l-7 2l-354 711h-260l-152 -711q-18 -8 -55 -8q-16 0 -28.5 2t-17.5 4l-5 2l309 1458q20 9 57 9q16 0 28.5 -2.5t17.5 -4.5l4 -2l-140 -653h254z" />
<glyph unicode="L" horiz-adv-x="1034" d="M80 0l311 1466q20 9 55 9q16 0 29 -2.5t18 -4.5l5 -2l-291 -1370h661q0 -35 -2 -47q-3 -19 -18 -49h-768z" />
<glyph unicode="M" horiz-adv-x="1728" d="M1546 1466q45 9 80 9q21 0 38.5 -2.5t24.5 -4.5l7 -2l-310 -1458q-18 -8 -55 -8q-16 0 -29 2t-18 4l-4 2l221 1039q41 195 74 303h-6q-30 -63 -150 -215l-575 -729q-18 -9 -43 -9q-11 0 -21 2.5t-14 4.5l-4 2q-34 100 -118.5 346.5t-129.5 380.5q-25 69 -41 132.5 t-16 84.5h-6q0 -65 -52 -312l-219 -1030q-16 -8 -51 -8q-16 0 -28 2t-17 4l-4 2l309 1458q29 9 70 9q17 0 31.5 -2.5t19.5 -4.5l6 -2l307 -929h4z" />
<glyph unicode="N" horiz-adv-x="1425" d="M958 8l-497 1309h-4q-13 -71 -54 -268l-221 -1041q-18 -8 -55 -8q-15 0 -26.5 2t-16.5 4l-4 2l309 1458q25 9 66 9q19 0 34 -2.5t20 -4.5l5 -2l502 -1325h4q14 113 49 273l223 1052q17 9 54 9q16 0 27.5 -2.5t15.5 -4.5l4 -2l-310 -1458q-20 -8 -63 -8q-19 0 -34.5 2 t-21.5 4z" />
<glyph unicode="O" horiz-adv-x="1384" d="M170 764q82 384 256 557.5t440 173.5q265 0 371.5 -193.5t22.5 -580.5q-83 -389 -252.5 -565t-434.5 -176q-175 0 -282.5 85.5t-142.5 259.5t22 439zM1153 737q31 143 33 256.5t-20.5 189.5t-67 126t-104.5 72t-136 22q-212 0 -359.5 -157t-222.5 -509 q-30 -142 -30.5 -255.5t24 -189t70 -126t104 -72.5t129.5 -22q212 0 359.5 157.5t220.5 507.5z" />
<glyph unicode="P" horiz-adv-x="1226" d="M317 616l-129 -608q-18 -8 -53 -8q-17 0 -30.5 2t-18.5 4l-4 2l311 1467h506q95 0 165 -34.5t107 -95t48.5 -143t-11.5 -178.5q-40 -191 -169 -299.5t-322 -108.5h-400zM338 713h395q143 0 240.5 87.5t130.5 241.5q34 159 -26 248.5t-204 89.5h-395z" />
<glyph unicode="Q" horiz-adv-x="1384" d="M866 1495q265 0 371.5 -193.5t22.5 -580.5q-99 -467 -332 -635q81 -99 225 -137q-19 -63 -82 -92q-68 19 -131 67t-100 109q-115 -53 -267 -53q-175 0 -282.5 85.5t-142.5 259.5t22 439q82 384 256 557.5t440 173.5zM858 1403q-212 0 -359.5 -157t-222.5 -509 q-30 -142 -30.5 -255.5t24 -189t70 -126t104 -72.5t129.5 -22q212 0 359.5 157.5t220.5 507.5q31 143 33 256.5t-20.5 189.5t-67 126t-104.5 72t-136 22z" />
<glyph unicode="R" horiz-adv-x="1269" d="M393 1475h494q189 0 274.5 -122t44.5 -311q-32 -153 -131 -249t-250 -127l215 -658q-22 -8 -63 -8q-17 0 -32.5 2t-22.5 4l-7 2l-206 645h-383l-138 -645q-18 -8 -53 -8q-17 0 -30.5 2t-18.5 4l-4 2zM479 1380l-133 -632h385q139 0 238 83.5t129 231.5q32 149 -31.5 233 t-202.5 84h-385z" />
<glyph unicode="S" horiz-adv-x="1146" d="M242 1122q38 182 178 277.5t368 95.5q102 0 193.5 -12.5t132.5 -25.5l41 -13q-13 -55 -47 -86q-146 43 -326 43q-188 0 -299 -78.5t-139 -218.5q-7 -34 -7.5 -64t4 -53.5t18 -44.5t27.5 -37t39 -31t45.5 -25.5t54.5 -23t59 -20l65 -19.5t72 -23.5t68.5 -28t63.5 -35.5 t53.5 -43t42.5 -54t26.5 -66t10.5 -81t-11 -97q-39 -187 -184 -282.5t-379 -95.5q-71 0 -138 8t-112.5 19.5t-80.5 22.5t-52 19l-17 8q11 52 47 88q19 -7 52 -18t128.5 -29t182.5 -18q186 0 302.5 77t147.5 224q8 38 8.5 70.5t-8 59t-21 47.5t-34 39t-42.5 31t-52 25.5 t-57 21t-62 19.5q-42 13 -69 22t-66 24t-64 28.5t-56 34.5t-49.5 42.5t-36 51t-24.5 62.5t-7 74.5t10 88.5z" />
<glyph unicode="T" horiz-adv-x="1083" d="M246 1475h948q4 -17 -2 -48q-3 -13 -7.5 -24.5t-7.5 -16.5l-3 -6h-416l-291 -1372q-18 -8 -55 -8q-17 0 -30 2t-18 4l-4 2l291 1372h-426q-4 18 2 47q3 13 7.5 25t7.5 18z" />
<glyph unicode="U" horiz-adv-x="1368" d="M1348 1466l-213 -999q-49 -233 -198.5 -360t-369.5 -127q-224 0 -336.5 130t-64.5 357l213 999q20 9 55 9q16 0 29.5 -2.5t18.5 -4.5l5 -2l-215 -1013q-38 -182 39.5 -281.5t257.5 -99.5q179 0 300 100t159 281l215 1013q18 9 53 9q16 0 29 -2.5t18 -4.5z" />
<glyph unicode="V" horiz-adv-x="1255" d="M332 1466l174 -1177q5 -38 7.5 -75.5t2.5 -55.5v-19h6q25 64 74 148l674 1179q18 9 61 9q17 0 30.5 -2.5t18.5 -4.5l4 -2l-833 -1458q-22 -8 -55 -8q-15 0 -28 2t-18 4l-6 2l-215 1456q19 11 60 11q13 0 23.5 -2.5t15.5 -4.5z" />
<glyph unicode="W" horiz-adv-x="1939" d="M1217 8l-87 1116q-4 69 -3.5 115t3.5 69l3 23h-7q-14 -70 -84 -207l-569 -1116q-32 -8 -59 -8q-20 0 -52 8l-124 1458q18 9 55 9q17 0 30.5 -2.5t18.5 -4.5l4 -2l90 -1118q4 -52 5 -104.5t0 -79.5l-1 -27h6q28 92 89 211l571 1118q16 9 53 9q16 0 28.5 -2.5t16.5 -4.5 l4 -2l82 -1118q4 -54 4.5 -106.5t-0.5 -78.5l-2 -26h4q25 88 86 211l560 1118q18 9 59 9q15 0 27 -2.5t17 -4.5l5 -2l-727 -1458q-20 -8 -55 -8q-15 0 -27.5 2t-18.5 4z" />
<glyph unicode="X" horiz-adv-x="1222" d="M1188 1466q36 9 74 9q23 0 59 -9l-610 -704l323 -752q-24 -10 -67 -10q-14 0 -26 2t-17 4l-6 2l-289 672l-563 -672q-32 -8 -76 -8q-28 0 -60 8l631 750l-301 708q23 9 68 9q13 0 25 -2.5t18 -4.5l6 -2l268 -630z" />
<glyph unicode="Y" horiz-adv-x="1257" d="M1268 1466q20 9 69 9q19 0 34.5 -2.5t21.5 -4.5l6 -2l-719 -843l-131 -615q-20 -8 -55 -8q-16 0 -29 2t-18 4l-5 2l129 613l-346 845q25 9 68 9q14 0 26 -2.5t17 -4.5l6 -2l301 -731z" />
<glyph unicode="Z" horiz-adv-x="1181" d="M328 1475h911q0 -40 -2 -48q-4 -22 -18 -51l-1117 -1278h871q5 -16 -2 -49q-3 -16 -19 -49h-993q0 36 2 49q5 21 19 49l1116 1278h-789q0 1 -1 9.5t-0.5 19t3.5 22.5q7 29 19 48z" />
<glyph unicode="[" horiz-adv-x="647" d="M428 1659h354q6 -14 -2 -47q-3 -15 -7.5 -26.5t-7.5 -15.5l-3 -5h-252l-385 -1819h252q4 -16 -2 -47q-4 -15 -8.5 -26.5t-7.5 -16.5l-3 -4h-354z" />
<glyph unicode="\" horiz-adv-x="892" d="M350 1526l346 -1612q-20 -10 -57 -10q-16 0 -30 2.5t-19 5.5l-6 2l-346 1612q20 10 57 10q17 0 31 -2.5t19 -5.5z" />
<glyph unicode="]" horiz-adv-x="647" d="M231 -348h-354q-6 14 2 47q3 14 7.5 25.5t7.5 16.5l4 5h252l385 1819h-252q-4 14 2 47q4 15 8.5 26.5t6.5 15.5l3 5h354z" />
<glyph unicode="^" horiz-adv-x="1044" d="M756 1466l245 -532q-14 -8 -51 -8q-16 0 -29 2t-17 4l-5 2l-213 459l-403 -459q-17 -8 -54 -8q-16 0 -28 2t-15 4l-4 2l471 532q17 9 54 9q16 0 28.5 -2.5t16.5 -4.5z" />
<glyph unicode="_" horiz-adv-x="1087" d="M811 -121h-836q-6 10 2 41q3 13 7 22.5t7 13.5l3 3h835q6 -10 0 -39q-4 -14 -8.5 -24t-6.5 -14z" />
<glyph unicode="`" horiz-adv-x="487" d="M311 1313l-192 295q18 21 48 34.5t58 12.5l162 -303q-26 -33 -76 -39z" />
<glyph unicode="a" horiz-adv-x="1134" d="M956 1073q17 8 48 8q16 0 28 -2t16 -4l3 -2l-226 -1065q-18 -8 -45 -8q-12 0 -23 2t-15 4l-5 2l27 158q-142 -186 -377 -186q-396 0 -274 579q32 153 82.5 260t117.5 167t142.5 86t169.5 26q222 0 293 -187zM862 670q17 83 -1.5 158.5t-79 127.5t-152.5 52 q-167 0 -263.5 -108.5t-150.5 -360.5q-53 -253 -4 -361t215 -108q137 0 245.5 105t135.5 235z" />
<glyph unicode="b" horiz-adv-x="1140" d="M473 1528l-131 -610q139 180 369 180q400 0 278 -578q-32 -153 -82 -260t-117.5 -167.5t-144 -86.5t-172.5 -26q-118 0 -190.5 49t-102.5 131l-33 -152q-16 -8 -51 -8q-16 0 -28.5 2t-16.5 4l-4 2l324 1520q14 8 51 8q16 0 29 -2t17 -4zM883 539q54 253 4.5 361 t-219.5 108q-129 0 -237.5 -102t-139.5 -228l-58 -268q-17 -83 2 -159.5t78 -128.5t148 -52q171 0 269.5 108.5t152.5 360.5z" />
<glyph unicode="c" horiz-adv-x="905" d="M651 1006q-177 0 -284.5 -114.5t-157.5 -348.5q-51 -235 11.5 -351t242.5 -116q56 0 108 11t77 21l24 11q15 -11 23 -33t5 -47q-11 -7 -32 -16.5t-92 -26t-148 -16.5q-207 0 -291 154.5t-26 428.5q114 535 540 535q74 0 133.5 -12t81.5 -24l23 -13q-10 -54 -53 -80 q-66 37 -185 37z" />
<glyph unicode="d" horiz-adv-x="1134" d="M1047 1528q14 8 51 8q16 0 29 -2t17 -4l5 -2l-324 -1520q-18 -8 -45 -8q-12 0 -23 2t-15 4l-5 2l27 158q-69 -91 -155.5 -138.5t-207.5 -47.5q-409 0 -288 577q32 152 83.5 260t119.5 168t143 86.5t166 26.5q223 0 290 -180zM862 670q15 60 6.5 120.5t-32.5 108.5 t-76 78.5t-123 30.5q-166 0 -267.5 -110t-154.5 -359q-53 -253 -1.5 -361t222.5 -108q71 0 136 30t111.5 79.5t78.5 109t45 121.5z" />
<glyph unicode="e" horiz-adv-x="1034" d="M879 506h-676q-38 -219 23.5 -325.5t226.5 -106.5q72 0 141.5 19.5t103.5 38.5l33 20q37 -33 29 -80q-5 -4 -14 -10t-41 -22t-67.5 -28t-92.5 -22t-117 -10q-210 0 -294.5 157t-20.5 434q60 261 197.5 394t326.5 133q177 0 259.5 -112t43.5 -286q-13 -56 -28 -104.5 t-24 -69.5zM850 723q15 57 7 109t-32 91.5t-74.5 63t-121.5 23.5q-144 0 -249 -103t-159 -317h588q25 49 41 133z" />
<glyph unicode="f" horiz-adv-x="696" d="M342 1200q16 79 42.5 137t69.5 104.5t110 70.5t157 24q49 0 96 -7t69 -15l23 -7q-7 -51 -45 -82q-59 23 -149 23q-128 0 -186 -57.5t-83 -180.5l-28 -133h315q0 -35 -2 -43q-2 -10 -5.5 -19t-7 -16t-3.5 -8h-316l-209 -983q-16 -8 -53 -8q-16 0 -28.5 2t-16.5 4l-4 2 l209 983h-143q-5 14 0 43q6 25 18 43h143z" />
<glyph unicode="g" horiz-adv-x="1136" d="M735 53l25 109q-68 -88 -152 -135t-207 -47q-193 0 -271.5 142.5t-14.5 444.5q26 123 64.5 215.5t84.5 152t104.5 96.5t120 52t136.5 15q217 0 290 -185l33 156q16 8 53 8q16 0 29 -2t18 -4l5 -2l-215 -1016q-31 -148 -73 -248.5t-108 -174.5t-162.5 -108t-230.5 -34 q-78 0 -147 14t-99 28l-30 13q11 57 47 78q108 -41 239 -41q101 0 170.5 20.5t126.5 74t96 145t68 233.5zM215 539q-53 -253 -1.5 -361t222.5 -108q62 0 118 22t96.5 56.5t73 79t52 87.5t29.5 84l59 277q5 40 6.5 84.5t-13.5 89t-39.5 79.5t-71.5 57t-109 22 q-171 0 -269.5 -108.5t-152.5 -360.5z" />
<glyph unicode="h" horiz-adv-x="1128" d="M989 772l-164 -764q-18 -8 -53 -8q-16 0 -28.5 2t-16.5 4l-4 2l162 762q51 240 -195 240q-98 0 -201.5 -62.5t-175.5 -169.5l-163 -770q-19 -8 -54 -8q-16 0 -28 2t-16 4l-5 2l324 1520q16 8 51 8q16 0 28.5 -2t17.5 -4l5 -2l-131 -608q161 178 389 178q148 0 219 -88.5 t39 -237.5z" />
<glyph unicode="i" horiz-adv-x="471" d="M475 1446l-24 -115q-25 -8 -68 -8q-19 0 -35 2t-22 4l-7 2l25 115q25 8 68 8q19 0 35 -2t22 -4zM381 1069l-225 -1061q-17 -8 -54 -8q-16 0 -28.5 2t-16.5 4l-4 2l226 1061q16 8 53 8q16 0 28.5 -2t16.5 -4z" />
<glyph unicode="j" horiz-adv-x="471" d="M475 1452l-24 -115q-23 -8 -66 -8q-20 0 -36 2t-21 4l-6 2l24 115q23 8 68 8q19 0 34.5 -2t21.5 -4zM10 -188l269 1257q14 8 53 8q16 0 28 -2t16 -4l5 -2l-266 -1249q-34 -166 -124 -249t-222 -83q-38 0 -67.5 4.5t-39.5 9.5l-10 4q-2 11 0 25q4 16 10 29.5t10 18.5l4 5 q31 -8 86 -8q101 0 161.5 56t86.5 180z" />
<glyph unicode="k" horiz-adv-x="1013" d="M494 606l413 463q17 8 60 8q16 0 30 -1.5t19 -3.5l6 -1l-461 -518l285 -543q-23 -10 -62 -10q-14 0 -26 2.5t-18 5.5l-5 2l-262 510h-215l-108 -512q-19 -8 -54 -8q-16 0 -28 2t-16 4l-5 2l324 1520q16 8 51 8q16 0 28.5 -2t17.5 -4l5 -2l-197 -922h218z" />
<glyph unicode="l" horiz-adv-x="479" d="M483 1528l-323 -1520q-17 -8 -54 -8q-16 0 -28.5 2t-16.5 4l-4 2l324 1520q14 8 51 8q16 0 29 -2t17 -4z" />
<glyph unicode="m" horiz-adv-x="1724" d="M956 897q175 201 385 201q141 0 209 -85t35 -237l-164 -768q-18 -8 -53 -8q-16 0 -28.5 2t-16.5 4l-4 2l162 762q26 123 -17 181.5t-157 58.5q-95 0 -193.5 -61.5t-167.5 -174.5l-162 -766q-18 -8 -53 -8q-16 0 -28 2t-17 4l-4 2l162 762q26 123 -17 181.5t-157 58.5 q-91 0 -189 -62.5t-166 -169.5l-163 -770q-21 -8 -56 -8q-16 0 -28 2t-16 4l-5 2l225 1061q19 8 54 8q16 0 28.5 -2t17.5 -4l5 -2l-33 -156q161 185 361 185q105 0 175 -51t76 -150z" />
<glyph unicode="n" d="M987 772l-162 -764q-18 -8 -53 -8q-16 0 -28.5 2t-16.5 4l-4 2l162 762q51 240 -195 240q-98 0 -201.5 -62.5t-175.5 -169.5l-163 -770q-19 -8 -54 -8q-16 0 -28 2t-16 4l-5 2l225 1061q19 8 54 8q16 0 28 -2t16 -4l5 -2l-33 -158q88 93 179 140t204 47q147 0 220 -89.5 t42 -236.5z" />
<glyph unicode="o" horiz-adv-x="1101" d="M113 561q31 148 84.5 254.5t124 167t149.5 88t174 27.5q431 0 309 -576q-31 -149 -84 -255.5t-123 -168.5t-150 -90t-177 -28q-207 0 -288.5 142t-18.5 439zM852 539q22 107 25 188t-12 135t-48 87.5t-78 48t-106 14.5q-69 0 -129.5 -23.5t-117 -76.5t-101 -147.5 t-72.5 -225.5q-23 -107 -26 -188t12 -135t48.5 -87.5t78.5 -48t106 -14.5q318 0 420 473z" />
<glyph unicode="p" horiz-adv-x="1136" d="M342 918q139 180 369 180q94 0 159 -32t103.5 -101.5t40.5 -179.5t-29 -267q-32 -154 -81.5 -260t-116 -166t-142 -86t-172.5 -26q-99 0 -177.5 58.5t-109.5 141.5l-143 -674q-16 -8 -53 -8q-16 0 -28.5 2t-16.5 4l-4 2l331 1563q17 8 54 8q16 0 28.5 -2t16.5 -4l4 -2z M883 539q54 253 4.5 361t-219.5 108q-138 0 -243.5 -100.5t-133.5 -229.5l-53 -248q-17 -81 7.5 -164.5t87 -139.5t144.5 -56q169 0 260.5 107t145.5 362z" />
<glyph unicode="q" horiz-adv-x="1138" d="M621 -494l139 654q-139 -180 -363 -180q-406 0 -284 581q32 153 83 259.5t119.5 166.5t145.5 85.5t174 25.5q107 0 182 -51t103 -129l32 151q15 8 52 8q16 0 29 -2t17 -4l5 -2l-332 -1563q-16 -8 -53 -8q-16 0 -28.5 2t-16.5 4zM219 539q-55 -253 -7.5 -361t216.5 -108 q135 0 242.5 99.5t138.5 227.5l59 281q15 80 -5.5 154.5t-79 125t-142.5 50.5q-171 0 -269.5 -108.5t-152.5 -360.5z" />
<glyph unicode="r" horiz-adv-x="794" d="M338 903q37 54 79 92.5t75 57.5t73 29.5t61 12t52 1.5q41 0 79.5 -11t56 -20t26.5 -16q-16 -59 -68 -86q-62 36 -139 36t-162 -59.5t-164 -183.5l-157 -748q-17 -8 -54 -8q-16 0 -28.5 2t-16.5 4l-4 2l225 1061q17 8 54 8q16 0 28.5 -2t16.5 -4l4 -2z" />
<glyph unicode="s" horiz-adv-x="905" d="M168 829q60 269 412 269q74 0 138 -12t91 -24l27 -11q-3 -22 -17 -45t-31 -35q-92 37 -217 37q-265 0 -307 -197q-10 -45 2 -81t43 -61t68 -42.5t88 -32.5q27 -9 47.5 -16.5t46.5 -18.5t45.5 -22.5t40.5 -27.5t35.5 -33t27 -40t18 -48t5 -57t-7.5 -67q-62 -284 -426 -284 q-88 0 -164 16.5t-107 32.5l-32 16q7 52 45 80q14 -6 38 -15t94.5 -23.5t135.5 -14.5q122 0 205.5 51.5t105.5 157.5q5 26 5.5 48t-3 39.5t-13 33.5t-19.5 27.5t-27 22.5t-31.5 18.5t-37 16t-39.5 14t-43 13.5q-291 90 -242 315z" />
<glyph unicode="t" horiz-adv-x="718" d="M406 991l-136 -631q-22 -101 -20 -165.5t41 -94.5t125 -30q26 0 59.5 2.5t53.5 5.5l20 2q1 -2 2 -5.5t2 -15t-2 -24.5q-3 -12 -6.5 -21.5t-5.5 -13.5l-2 -4q-96 -16 -144 -16q-168 0 -216.5 93.5t-8.5 284.5l135 633h-164q-6 12 0 43q3 14 7.5 24.5t7.5 14.5l4 4h164 l43 203q53 31 106 25l-47 -228h313q6 -14 0 -43q-3 -13 -7.5 -23.5t-7.5 -14.5l-3 -5h-313z" />
<glyph unicode="u" d="M104 311l160 758q18 8 53 8q16 0 28.5 -2t16.5 -4l5 -2l-162 -762q-26 -122 22.5 -180.5t171.5 -58.5q98 0 201.5 61.5t175.5 169.5l164 770q18 8 53 8q16 0 28 -2t17 -4l4 -2l-225 -1061q-18 -8 -53 -8q-16 0 -28 2t-16 4l-5 2l33 148q-84 -89 -176.5 -132.5 t-206.5 -43.5q-146 0 -219 91.5t-42 239.5z" />
<glyph unicode="v" horiz-adv-x="1026" d="M252 1069l125 -741q8 -50 13 -101.5t6 -77.5l1 -26h6q41 86 109 201l438 745q17 8 60 8q15 0 27 -2t17 -4l5 -2l-623 -1061q-22 -8 -55 -8q-16 0 -28.5 2t-17.5 4l-5 2l-180 1061q20 8 57 8q14 0 25 -2t16 -4z" />
<glyph unicode="w" horiz-adv-x="1622" d="M981 8l-82 684q-16 139 -16 260h-6q-13 -53 -125 -260l-373 -684q-32 -8 -51 -8q-12 0 -52 8l-116 1061q16 8 51 8q15 0 26.5 -2t16.5 -4l4 -2l84 -766q12 -124 4 -174h6q1 1 11 26t29 65t42 83l414 766q20 8 63 8q12 0 22 -2t13 -4l4 -2l92 -762q12 -120 2 -178h7 q1 1 11 25t29.5 64.5t43.5 86.5l405 764q12 8 57 8q16 0 29.5 -2t19.5 -4l5 -2l-568 -1061q-40 -8 -53 -8q-9 0 -49 8z" />
<glyph unicode="x" horiz-adv-x="999" d="M420 549l-254 520q20 8 59 8q14 0 26 -2t17 -4l6 -2l222 -446l405 446q9 8 60 8q17 0 33 -2t23 -4l7 -2l-477 -522l264 -539q-20 -8 -59 -8q-14 0 -25.5 2t-16.5 4l-5 2l-232 463l-420 -463q-8 -10 -63 -10q-16 0 -31.5 2.5t-22.5 5.5l-8 2z" />
<glyph unicode="y" d="M940 1069q18 8 53 8q16 0 28 -2t17 -4l4 -2l-217 -1024q-31 -148 -72 -247t-106.5 -171.5t-160.5 -105.5t-230 -33q-78 0 -147 14t-99 28l-30 13q11 57 47 78q108 -41 239 -41q102 0 170.5 19.5t126.5 71t97 142t71 232.5l25 111q-84 -89 -174.5 -132.5t-204.5 -43.5 q-161 0 -233.5 93t-39.5 249l160 747q18 8 53 8q16 0 28.5 -2t16.5 -4l5 -2l-162 -762q-26 -122 22.5 -180.5t171.5 -58.5q98 0 201.5 61.5t175.5 169.5z" />
<glyph unicode="z" horiz-adv-x="923" d="M92 90h613q6 -12 0 -45q-4 -14 -8.5 -25t-7.5 -16l-3 -4h-727q0 37 2 47q3 12 6.5 21t6.5 15t3 7l799 897h-561q-4 14 2 45q3 15 7.5 26t7.5 15l4 4h673q0 -35 -2 -43q-4 -26 -18 -47z" />
<glyph unicode="{" horiz-adv-x="696" d="M733 1659h98l1 -8q1 -8 0.5 -17.5t-3.5 -19.5q-2 -10 -5.5 -19.5t-7 -17t-3.5 -8.5h-80q-187 0 -229 -187l-109 -512q-14 -71 -38 -114t-68 -70q32 -26 37.5 -73t-9.5 -113l-108 -512q-42 -187 147 -187h80q5 -14 0 -45q-6 -27 -18 -45h-99q-133 0 -187.5 73.5 t-27.5 199.5l119 553q8 45 -7 73.5t-58 28.5h-68q0 33 2 45q7 29 19 47h67q43 0 71 29.5t36 73.5l118 552q27 127 112 200t218 73z" />
<glyph unicode="|" horiz-adv-x="520" d="M418 1610q16 8 53 8q16 0 28.5 -2t16.5 -4l4 -2l-426 -2005q-16 -8 -53 -8q-16 0 -28.5 2t-16.5 4l-4 2z" />
<glyph unicode="}" horiz-adv-x="694" d="M301 1659h98q133 0 187.5 -73.5t27.5 -199.5l-118 -552q-8 -45 7 -74t58 -29h68l1 -8q1 -8 0.5 -17.5t-3.5 -19.5q-4 -24 -19 -47h-67q-43 0 -71 -29t-36 -73l-119 -553q-27 -127 -111.5 -200t-217.5 -73h-99q0 28 4 45q2 10 5 19.5t6.5 17t3.5 8.5h80q187 0 229 187 l109 512q14 71 38 114t68 70q-32 26 -38 73t9 113l109 512q42 187 -148 187h-79q0 31 2 43q7 33 16 47z" />
<glyph unicode="~" horiz-adv-x="1105" d="M383 621q-44 0 -86.5 -18.5t-62.5 -36.5l-21 -19q-45 9 -45 59q4 4 10.5 11.5t30.5 26t50 32.5t67.5 25.5t85.5 11.5q45 0 85.5 -16.5t66.5 -36t65 -36t82 -16.5q44 0 87 18.5t64 37.5l21 18q46 -9 49 -57q-4 -4 -10.5 -11.5t-30 -26.5t-50 -33t-69.5 -26t-88 -12 t-86 16.5t-67 36t-65.5 36t-82.5 16.5z" />
<glyph unicode="&#xa1;" horiz-adv-x="489" d="M270 1053q25 8 68 8q19 0 35 -2t22 -4l6 -2l-24 -115q-25 -8 -68 -8q-19 0 -35 2t-22 4l-6 2zM227 725q12 10 41 10q12 0 21 -2.5t13 -4.5l3 -3l-223 -1131q-4 -8 -57 -8l-54 8z" />
<glyph unicode="&#xa2;" horiz-adv-x="942" d="M645 1284q24 8 53 8q35 0 47 -8l-49 -186q63 -3 114 -15t71 -23l20 -11q-10 -53 -51 -78q-7 4 -21 10t-62 16.5t-101 10.5q-176 0 -285.5 -117t-159.5 -352q-51 -235 11.5 -350t242.5 -115q56 0 109 11t78 21l26 11q28 -20 21 -78q-11 -6 -31.5 -15t-85.5 -25t-133 -19 l-31 -187q-25 -10 -53 -10q-27 0 -47 10l51 189q-183 15 -251 157.5t-13 399.5q55 258 183.5 400t317.5 157z" />
<glyph unicode="&#xa3;" horiz-adv-x="1054" d="M797 647h-373q5 -74 -1 -135t-29.5 -132.5t-78 -142.5t-139.5 -139h641q7 -7 0 -49q-6 -39 -20 -49h-777l21 98q77 57 131 115.5t82 111.5t43 108.5t14 107t-4 106.5h-170l-1 9q-1 8 -0.5 16.5t3.5 17.5q7 32 17 43h143q-19 159 -15 230q2 46 11 88q40 185 170 274.5 t323 89.5q74 0 147.5 -13t105 -23.5t49.5 -18.5q-7 -57 -52 -82q-11 5 -41 14.5t-93.5 20t-125.5 10.5q-311 0 -372 -279q-3 -15 -5 -31t-3 -29t-1 -31.5v-29.5t1.5 -32t2 -30t3.5 -32.5t3.5 -30.5t4 -33t4.5 -32h399q6 -19 2 -41q-6 -31 -20 -45z" />
<glyph unicode="&#xa4;" horiz-adv-x="1204" d="M893 94l-123 152q-130 -88 -266 -88q-137 0 -232 88l-182 -152q-17 0 -35 23q-7 9 -10 18t-3 14l1 5l184 151q-63 110 -34 250q27 139 141 250l-121 151q6 19 29 39q13 9 23.5 14t14.5 6l5 1l125 -152q130 88 264 88q132 0 227 -88l180 152q17 -1 35 -21q7 -9 10.5 -18.5 t3.5 -14.5v-6l-182 -151q65 -112 39 -250q-29 -139 -143 -250l121 -151q-6 -19 -29 -37q-12 -11 -23 -17t-15 -6h-5zM655 868q-131 0 -241 -90.5t-138 -222.5q-29 -131 43 -222t203 -91q132 0 242 90.5t139 222.5q28 132 -44 222.5t-204 90.5z" />
<glyph unicode="&#xa5;" horiz-adv-x="1236" d="M1212 1393q21 8 58 8q16 0 29.5 -2t18.5 -4l5 -2l-635 -756h316q0 -1 1 -7.5t1 -14.5t-2 -17q-2 -8 -17 -39h-350l-35 -162h350q6 -11 0 -39q-4 -21 -16 -39h-350l-66 -311q-14 -8 -51 -8q-16 0 -28 2t-15 4l-4 2l65 311h-350q0 1 -1 8t-1 15t2 16q2 9 5.5 17t7 14t4.5 8 h350l35 162h-351q0 1 -1 7.5t-1 14.5t2 17q4 19 17 39h315l-291 754q21 10 58 10q18 0 32.5 -2t19.5 -4l5 -2l272 -713z" />
<glyph unicode="&#xa6;" horiz-adv-x="524" d="M420 1610q14 8 51 8q16 0 29 -2t18 -4l4 -2l-190 -895q-16 -8 -53 -8q-16 0 -28.5 2t-16.5 4l-5 2zM182 500q17 8 54 8q16 0 28.5 -2t16.5 -4l4 -2l-191 -895q-14 -8 -51 -8q-16 0 -29 2t-18 4l-4 2z" />
<glyph unicode="&#xa7;" horiz-adv-x="993" d="M674 248q9 42 -10.5 74t-58 51t-89 37.5t-104.5 33t-103.5 37t-86 49.5t-53 72t-3.5 103q32 143 211 243q-123 74 -94 211q27 125 130.5 189.5t266.5 64.5q68 0 133 -10.5t92 -18.5t41 -14q0 -21 -11.5 -43.5t-29.5 -32.5q-11 4 -36.5 10.5t-81.5 15.5t-103 9 q-141 0 -212 -43.5t-89 -124.5q-9 -43 9 -76.5t54 -53.5t84 -39t99 -33.5t98 -37t82 -49.5t50 -71t3 -101q-31 -140 -196 -235q67 -36 97.5 -87t14.5 -130q-59 -268 -444 -268q-81 0 -157 12t-112 24l-36 13q4 55 41 80q156 -39 264 -39q155 0 237.5 42t102.5 136zM453 909 q-161 -85 -183 -190q-8 -36 2 -65t28.5 -47t56 -35t67.5 -26t80.5 -23.5t79.5 -24.5q153 84 174 190q7 34 -2.5 61.5t-29 45.5t-55 35t-66 27.5t-77.5 25.5t-75 26z" />
<glyph unicode="&#xa8;" horiz-adv-x="931" d="M344 1368l-22 -108q-23 -9 -64 -9q-18 0 -33 2.5t-21 4.5l-5 2l22 108q23 6 64 6q18 0 33 -1.5t20 -2.5zM649 1368l-22 -108q-23 -9 -64 -9q-18 0 -33 2.5t-20 4.5l-6 2l22 108q23 6 64 6q18 0 33 -1.5t21 -2.5z" />
<glyph unicode="&#xa9;" horiz-adv-x="1650" d="M694 4q-113 0 -211.5 35t-169 98t-117.5 150t-57.5 190t11.5 219q40 188 166.5 347t305.5 251t367 92t327.5 -92t197.5 -251t18 -347q-30 -141 -112 -269t-194 -221t-251.5 -147.5t-280.5 -54.5zM973 1309q-166 0 -325.5 -82t-272.5 -223.5t-148 -307.5 q-19 -102 -9.5 -193.5t51.5 -168.5t105 -133t150 -87.5t187 -31.5q166 0 324.5 82.5t271 224t147.5 307.5q19 102 10 193.5t-51 168.5t-104 132.5t-149 87t-187 31.5zM762 301q-171 0 -236.5 105.5t-23.5 304.5q87 407 434 407q60 0 109 -11t69 -23l19 -11q-6 -37 -43 -63 q-70 37 -158 37q-140 0 -222 -78.5t-120 -257.5q-72 -334 198 -334q43 0 88.5 8.5t69.5 16.5l25 8q25 -15 18 -62q-10 -5 -28 -13t-77 -21t-122 -13z" />
<glyph unicode="&#xaa;" horiz-adv-x="739" d="M305 1249q104 41 217 41q112 0 153 -53.5t19 -161.5l-96 -448q-13 -9 -31 -9q-9 0 -16 2t-9 4l-3 3l8 86q-40 -51 -102 -79t-134 -28q-88 0 -130.5 52.5t-22.5 144.5q43 192 274 192q45 0 170 -10l16 80q18 84 -12 122t-108 38q-42 0 -88 -8.5t-72 -16.5l-25 -8 q-18 26 -8 57zM590 928q-100 8 -160 8q-88 0 -136 -32t-63 -101q-25 -133 109 -133q85 0 150 53t88 145zM102 500h463q3 -30 -14 -64h-463q-3 30 14 64z" />
<glyph unicode="&#xab;" horiz-adv-x="1013" d="M113 596l516 446q29 -20 22 -69l-465 -420l287 -422q-14 -50 -53 -70l-326 447q-6 16 0 43q3 13 7.5 24t8.5 16zM459 594l471 407q27 -18 20 -67l-418 -381l256 -383q-14 -50 -49 -68l-299 408q-4 14 2 41q3 13 7 23.5t7 15.5z" />
<glyph unicode="&#xac;" horiz-adv-x="1224" d="M1104 899l-111 -520q-18 -8 -49 -8q-14 0 -24.5 2t-14.5 4l-4 2l92 428h-825q-6 16 0 45q4 14 8.5 25.5t7.5 16.5l2 5h918z" />
<glyph unicode="&#xad;" horiz-adv-x="548" />
<glyph unicode="&#xae;" horiz-adv-x="1099" d="M530 539q-116 0 -201.5 57t-121.5 155t-12 214q38 177 188.5 301.5t327.5 124.5t275.5 -124.5t60.5 -301.5q-37 -177 -188.5 -301.5t-328.5 -124.5zM700 1341q-155 0 -287.5 -109.5t-166.5 -266.5q-34 -156 52.5 -266.5t242.5 -110.5t288 110t166 267t-52 266.5 t-243 109.5zM705 1206q73 0 102.5 -35t15.5 -100q-19 -97 -116 -125l77 -198q-12 -9 -30 -9q-8 0 -15 1.5t-11 3.5l-3 1l-74 195h-129l-43 -195q-10 -6 -24 -6q-7 0 -14 1.5t-10 3.5l-3 1l98 461h179zM530 985h127q51 0 77.5 21.5t35.5 64.5q9 46 -8 68t-68 22h-127z" />
<glyph unicode="&#xaf;" horiz-adv-x="833" d="M662 1290h-596q-12 38 16 82h596q11 -33 -16 -82z" />
<glyph unicode="&#xb0;" horiz-adv-x="737" d="M250 1264q22 99 105 173t200 74q116 0 164.5 -72t28.5 -169q-22 -99 -101.5 -171.5t-195.5 -72.5q-121 0 -171.5 70t-29.5 168zM684 1268q15 77 -20 131.5t-123 54.5t-150 -56.5t-78 -131.5q-15 -76 21 -129.5t127 -53.5q88 0 147.5 54t75.5 131z" />
<glyph unicode="&#xb1;" horiz-adv-x="1056" d="M516 780h-303q-6 14 0 43q3 13 7.5 23.5t7.5 15.5l3 4h304l51 242q16 8 45 8q13 0 23 -2t14 -4l4 -2l-51 -242h303q4 -14 -2 -43q-3 -13 -7 -23.5t-7 -15.5l-3 -4h-303l-51 -241q-16 -9 -45 -9q-13 0 -23 2t-14 4l-4 3zM801 293h-692q-4 14 2 43q3 13 7 23.5t6 14.5l3 5 h692q6 -14 0 -43q-3 -13 -7.5 -23.5t-7.5 -14.5z" />
<glyph unicode="&#xb2;" horiz-adv-x="618" d="M113 793q12 57 42.5 101t70 72t85.5 50.5t91 42.5t83.5 41.5t66 53.5t36.5 73q13 58 -20 94.5t-124 36.5q-32 0 -69 -5t-58 -9.5t-24 -6.5q-18 24 -4 58q76 26 180 26q118 0 165.5 -50.5t29.5 -137.5q-15 -72 -66 -122t-114.5 -79.5t-126.5 -58.5t-112 -78t-61 -119h373 q3 -16 0 -35q-3 -18 -14 -32h-439q-1 37 9 84z" />
<glyph unicode="&#xb3;" horiz-adv-x="618" d="M588 899q-42 -201 -314 -201q-47 0 -90 8t-62 16l-20 7q4 34 29 53q68 -20 154 -20q116 0 166.5 37.5t64.5 103.5q14 72 -23.5 106.5t-113.5 34.5h-90q-7 32 14 64h90q69 0 112.5 33.5t55.5 91.5q12 62 -21.5 93.5t-109.5 31.5q-40 0 -81 -5t-62 -9l-21 -5q-17 20 -4 56 q75 26 184 26q112 0 162 -47t31 -135q-14 -59 -45 -97t-86 -63q54 -24 75 -64.5t5 -115.5z" />
<glyph unicode="&#xb4;" horiz-adv-x="458" d="M414 1608l-320 -295q-46 6 -59 39l293 303q29 1 53 -12t33 -35z" />
<glyph unicode="&#xb5;" horiz-adv-x="1189" d="M973 1069q16 8 53 8q16 0 28.5 -2t16.5 -4l4 -2l-225 -1061q-16 -8 -53 -8q-16 0 -28.5 2t-16.5 4l-4 2l32 154q-168 -182 -383 -182q-158 0 -219 96q-36 -194 -50.5 -334t-10.5 -184l4 -43q-24 -18 -58 -24.5t-61 1.5q-1 6 -1 17t1.5 53t7 92.5t19 135.5t34.5 181 l234 1098q18 8 53 8q17 0 29.5 -2t16.5 -4l3 -2l-163 -766q-48 -235 198 -235q107 0 209 67t166 162z" />
<glyph unicode="&#xb6;" horiz-adv-x="960" d="M72 -457l299 1413q-109 3 -153.5 73t-24.5 165q22 97 99.5 167.5t188.5 70.5h80l-401 -1889q-16 -8 -47 -8q-15 0 -25 2t-13 4zM909 1423l-399 -1880q-14 -8 -45 -8q-15 0 -25.5 2t-13.5 4l-4 2l399 1880q14 9 47 9q14 0 24 -2t14 -4z" />
<glyph unicode="&#xb7;" horiz-adv-x="452" d="M289 635l-23 -107q-22 -8 -63 -8q-18 0 -33 2t-21 4l-6 2l23 107q22 8 63 8q18 0 33 -2t21 -4z" />
<glyph unicode="&#xb8;" horiz-adv-x="606" d="M-53 86l67 -10l-51 -129q116 0 162 -48.5t27 -136.5q-44 -200 -279 -200q-47 0 -89.5 12t-61.5 24l-19 11q11 37 41 57l9 -4q9 -5 21.5 -9.5t29.5 -9.5t39.5 -8.5t45.5 -3.5q151 0 181 133q11 56 -19.5 85.5t-99.5 29.5h-66l-10 21z" />
<glyph unicode="&#xb9;" horiz-adv-x="495" d="M193 1264q72 18 143 57t121 84q12 6 37 6q23 0 32 -6l-147 -692q-16 -4 -33 -4q-27 0 -39 4l111 518q5 29 18 82q-116 -84 -239 -111q-18 21 -4 62z" />
<glyph unicode="&#xba;" horiz-adv-x="776" d="M190 948q38 178 120 260t216 82q135 0 182.5 -81t8.5 -261q-38 -180 -120 -262t-216 -82t-181.5 82t-9.5 262zM641 948q31 149 0.5 214t-129.5 65q-100 0 -157 -65t-89 -214q-32 -152 -2.5 -215t129.5 -63t158 64t90 214zM123 500h471v-31q-6 -25 -14 -33h-471q0 25 2 33 q3 22 12 31z" />
<glyph unicode="&#xbb;" horiz-adv-x="1013" d="M561 1042l328 -446q4 -16 -2 -45q-3 -12 -7 -22.5t-7 -15.5l-3 -5l-518 -447q-26 23 -20 70l463 422l-285 420q14 46 51 69zM244 1001l299 -407q2 -14 -4 -43q-3 -12 -6.5 -22t-6.5 -15l-2 -4l-471 -408q-27 18 -20 68l418 383l-256 381q15 49 49 67z" />
<glyph unicode="&#xbc;" horiz-adv-x="1316" d="M86 -14l1102 1444q14 8 43 8q12 0 20.5 -2t11.5 -4l3 -2l-1100 -1444q-14 -6 -41 -6q-11 0 -21 1.5t-14 2.5zM213 1264q72 18 142 57t120 84q15 6 37 6q23 0 35 -6l-148 -692q-16 -4 -34 -4q-25 0 -37 4l110 518q2 12 19 82q-116 -83 -240 -111q-18 21 -4 62zM1055 254 h86q5 -14 0 -31q-3 -13 -13 -33h-86l-38 -184q-18 -6 -33 -6q-27 0 -33 6l39 184h-369q-4 9 -2 23q3 16 12 25l459 458q18 6 39 6t33 -6zM1065 604l-356 -350h280z" />
<glyph unicode="&#xbd;" horiz-adv-x="1431" d="M1188 1430q14 8 43 8q12 0 20.5 -2t11.5 -4l3 -2l-1100 -1444q-14 -6 -41 -6q-11 0 -21 1.5t-14 2.5l-4 2zM475 1405q15 6 37 6q23 0 35 -6l-148 -692q-16 -4 -34 -4q-25 0 -37 4l110 518q2 12 19 82q-116 -83 -240 -111q-18 21 -4 62q72 18 142 57t120 84zM934 686 q78 27 182 27q118 0 165.5 -51t27.5 -138q-11 -53 -41 -94t-70 -67t-86 -47.5t-92 -43.5t-85 -47t-67.5 -65t-38.5 -92h373q6 -16 0 -35q-3 -20 -14 -33h-438q0 37 10 84q12 57 42.5 101t70 72t85.5 50.5t91 42.5t83.5 41.5t66 53.5t36.5 73q12 58 -21.5 94.5t-123.5 36.5 q-32 0 -69.5 -4.5t-58.5 -9t-24 -6.5q-16 26 -4 57z" />
<glyph unicode="&#xbe;" horiz-adv-x="1425" d="M1296 1430q14 8 43 8q12 0 20.5 -2t11.5 -4l3 -2l-1100 -1444q-14 -6 -41 -6q-11 0 -20.5 1.5t-13.5 2.5l-4 2zM287 1395q75 26 184 26q112 0 162 -47t31 -135q-26 -113 -132 -160q54 -24 75 -64.5t5 -115.5q-42 -201 -313 -201q-47 0 -90 8t-63 16l-19 7q4 34 29 53 q67 -20 153 -20q116 0 167 37.5t65 103.5q14 72 -24 106.5t-114 34.5h-90q-7 31 15 64h90q69 0 112.5 33.5t55.5 91.5q12 62 -21.5 93.5t-109.5 31.5q-40 0 -81 -5t-62 -9l-21 -5q-17 20 -4 56zM1186 696q18 6 39 6q20 0 32 -6l-94 -442h86q5 -14 0 -31q-4 -16 -12 -33h-86 l-39 -184q-18 -6 -33 -6q-26 0 -32 6l38 184h-368q-5 9 -2 25q3 14 12 23zM817 254h281l76 350z" />
<glyph unicode="&#xbf;" horiz-adv-x="856" d="M526 942l25 115q22 8 65 8q19 0 35 -2t23 -4l6 -2l-25 -115q-22 -8 -65 -8q-19 0 -35 2t-23 4zM-41 -20q17 83 52.5 148.5t78.5 109t92 81t98.5 75.5t92.5 81t78.5 107.5t52.5 146.5q14 8 43 8q13 0 23.5 -2t15.5 -4l4 -2q-20 -95 -56 -169t-78 -121t-88.5 -86 t-92.5 -73.5t-86 -72.5t-72 -94t-47 -127q-23 -111 31 -176.5t198 -65.5q75 0 145.5 13t103.5 25l34 13q15 -12 19.5 -34t-3.5 -44q-15 -7 -43.5 -18t-114.5 -29t-172 -18q-185 0 -263 91t-46 237z" />
<glyph unicode="&#xc0;" horiz-adv-x="1310" d="M805 1888l162 -303q-26 -33 -76 -39l-193 295q18 21 48.5 34.5t58.5 12.5zM780 1466q21 9 56 9q16 0 28.5 -2.5t17.5 -4.5l5 -2l254 -1458q-21 -8 -60 -8q-13 0 -24.5 2t-16.5 4l-6 2l-73 418h-691l-252 -418q-18 -8 -63 -8q-16 0 -27.5 2t-15.5 4l-4 2zM813 1337h-4 q-20 -43 -55 -106l-430 -711h622l-123 711q-4 29 -6.5 55.5t-2.5 38.5z" />
<glyph unicode="&#xc1;" horiz-adv-x="1310" d="M766 1587l291 303q29 1 53 -12t33 -35l-318 -295q-46 6 -59 39zM780 1466q21 9 56 9q16 0 28.5 -2.5t17.5 -4.5l5 -2l254 -1458q-21 -8 -60 -8q-16 0 -27.5 2t-15.5 4l-4 2l-73 418h-691l-252 -418q-24 -8 -63 -8q-16 0 -27.5 2t-15.5 4l-4 2zM813 1337h-4 q-20 -43 -55 -106l-430 -711h622l-123 711q-4 29 -6.5 55.5t-2.5 38.5z" />
<glyph unicode="&#xc2;" horiz-adv-x="1310" d="M938 1841l215 -213q-23 -45 -61 -53l-197 172l-270 -178q-44 18 -47 59l307 213h53zM780 1466q21 9 56 9q16 0 28.5 -2.5t17.5 -4.5l5 -2l254 -1458q-21 -8 -60 -8q-13 0 -24.5 2t-16.5 4l-6 2l-73 418h-691l-252 -418q-18 -8 -63 -8q-16 0 -27.5 2t-15.5 4l-4 2z M813 1337h-4q-20 -43 -55 -106l-430 -711h622l-123 711q-4 29 -6.5 55.5t-2.5 38.5z" />
<glyph unicode="&#xc3;" horiz-adv-x="1310" d="M610 1638l5.5 11t16.5 25t29 31.5t43 25t58 12.5q55 0 123.5 -37t105.5 -37q25 1 48 15t33 28l11 14q46 0 60 -34q-2 -4 -5.5 -10.5t-17.5 -24t-30 -30.5t-44 -24t-59 -12q-43 -1 -83 17.5t-75.5 37t-68.5 17.5q-25 0 -48.5 -14.5t-34.5 -29.5l-11 -15q-22 0 -37.5 9.5 t-18.5 24.5zM780 1466q21 9 56 9q16 0 28.5 -2.5t17.5 -4.5l5 -2l254 -1458q-21 -8 -60 -8q-13 0 -24.5 2t-16.5 4l-6 2l-73 418h-691l-252 -418q-24 -8 -63 -8q-16 0 -27.5 2t-15.5 4l-4 2zM813 1337h-4q-20 -43 -55 -106l-430 -711h622l-123 711q-4 29 -6.5 55.5 t-2.5 38.5z" />
<glyph unicode="&#xc4;" horiz-adv-x="1310" d="M670 1702q18 6 61 6q17 0 32 -1.5t21 -2.5l7 -2l-25 -109q-22 -8 -61 -8q-19 0 -34 2t-21 4l-5 2zM973 1702q20 6 61 6q18 0 33.5 -1.5t22.5 -2.5l6 -2l-25 -109q-22 -8 -63 -8q-18 0 -33 2t-21 4l-6 2zM780 1466q21 9 56 9q16 0 28.5 -2.5t17.5 -4.5l5 -2l254 -1458 q-21 -8 -60 -8q-13 0 -24.5 2t-16.5 4l-6 2l-73 418h-691l-252 -418q-18 -8 -63 -8q-16 0 -27.5 2t-15.5 4l-4 2zM813 1337h-4q-20 -43 -55 -106l-430 -711h622l-123 711q-4 29 -6.5 55.5t-2.5 38.5z" />
<glyph unicode="&#xc5;" horiz-adv-x="1310" d="M895 1425l246 -1417q-21 -8 -60 -8q-16 0 -27.5 2t-15.5 4l-4 2l-73 418h-691l-252 -418q-18 -8 -63 -8q-16 0 -27.5 2t-15.5 4l-4 2l848 1415q-72 16 -106.5 70t-16.5 137q22 101 103.5 159t176.5 58t154 -58t37 -159q-18 -82 -75.5 -135.5t-133.5 -69.5zM1024 1630 q13 61 -20 103.5t-109 42.5q-72 0 -120.5 -43t-61.5 -103q-12 -61 17.5 -104t103.5 -43q75 0 127 44t63 103zM946 520l-123 711q-4 29 -6.5 55.5t-2.5 38.5l-1 12h-4q-20 -43 -55 -106l-430 -711h622z" />
<glyph unicode="&#xc6;" horiz-adv-x="1742" d="M1094 1475h704q13 -45 -20 -95h-586l-125 -585h483q9 -49 -18 -95h-483l-129 -606h606q10 -48 -21 -94h-704l86 406h-547l-324 -398q-36 -8 -63 -8q-41 0 -57 8zM416 500h491l172 815z" />
<glyph unicode="&#xc7;" horiz-adv-x="1130" d="M932 96q2 -14 1 -25t-3 -17l-2 -7q-6 -3 -16.5 -7.5t-47 -16t-77 -20.5t-104 -16t-130.5 -7l-61 -117q116 0 159.5 -46t24.5 -134q-40 -195 -277 -195q-47 0 -89.5 12t-61.5 24l-19 11q11 37 41 57l9 -4q9 -4 21 -9t29 -10t39.5 -8t45.5 -3q153 0 178 123q12 56 -18 85 t-99 29h-65l-13 21l90 168q-236 22 -316 219t-5 557q82 376 254 555.5t450 179.5q99 0 181 -17t115 -34l32 -17q0 -18 -14 -43q-7 -13 -16.5 -22.5t-15.5 -12.5l-5 -3q-12 6 -35 15t-97 24.5t-151 15.5q-107 0 -193.5 -32.5t-164 -107t-137.5 -206.5t-101 -320 q-32 -151 -35 -265.5t19.5 -189t71 -120.5t111.5 -65t149 -19q84 0 166 14t122 28l39 13q15 -8 21 -35z" />
<glyph unicode="&#xc8;" horiz-adv-x="1138" d="M829 1546l-192 295q18 21 48 34.5t58 12.5l162 -303q-26 -33 -76 -39zM393 1475h801q3 -21 -2 -45q-7 -34 -18 -50h-695l-125 -585h592q3 -21 0 -45q-6 -27 -18 -48h-592l-129 -608h715q0 -37 -2 -45q-6 -26 -19 -49h-821z" />
<glyph unicode="&#xc9;" horiz-adv-x="1138" d="M1036 1845l-317 -295q-47 6 -60 39l291 303q30 1 53.5 -12t32.5 -35zM393 1475h801q3 -21 -2 -45q-7 -34 -18 -50h-695l-125 -585h592q3 -21 0 -45q-6 -27 -18 -48h-592l-129 -608h715q0 -37 -2 -45q-6 -26 -19 -49h-821z" />
<glyph unicode="&#xca;" horiz-adv-x="1138" d="M891 1841l215 -213q-24 -47 -62 -55l-202 174l-273 -176q-36 14 -39 57l308 213h53zM393 1475h801q3 -21 -2 -45q-7 -34 -18 -50h-695l-125 -585h592q3 -21 0 -45q-6 -27 -18 -48h-592l-129 -608h715q0 -37 -2 -45q-6 -26 -19 -49h-821z" />
<glyph unicode="&#xcb;" horiz-adv-x="1138" d="M756 1686l-23 -109q-22 -8 -61 -8q-18 0 -33 2t-21 4l-6 2l23 109q22 6 63 6q17 0 31.5 -1.5t20.5 -2.5zM1061 1686l-23 -109q-22 -8 -63 -8q-18 0 -32.5 2t-19.5 4l-5 2l22 109q20 6 61 6q18 0 33 -1.5t21 -2.5zM393 1475h801q3 -21 -2 -45q-7 -34 -18 -50h-695 l-125 -585h592q3 -21 0 -45q-6 -27 -18 -48h-592l-129 -608h715q0 -37 -2 -45q-6 -26 -19 -49h-821z" />
<glyph unicode="&#xcc;" horiz-adv-x="530" d="M514 1546l-192 295q18 21 48 34.5t58 12.5l162 -303q-26 -33 -76 -39zM82 8l309 1458q18 9 55 9q16 0 29 -2.5t18 -4.5l5 -2l-310 -1458q-18 -8 -55 -8q-17 0 -30 2t-17 4z" />
<glyph unicode="&#xcd;" horiz-adv-x="530" d="M700 1845l-317 -295q-46 6 -59 39l290 303q30 1 53.5 -12t32.5 -35zM82 8l309 1458q18 9 55 9q16 0 29 -2.5t18 -4.5l5 -2l-310 -1458q-18 -8 -55 -8q-17 0 -30 2t-17 4z" />
<glyph unicode="&#xce;" horiz-adv-x="530" d="M551 1841l215 -213q-25 -48 -55 -55l-203 174l-272 -176q-43 17 -46 57l308 213h53zM82 8l309 1458q18 9 55 9q16 0 29 -2.5t18 -4.5l5 -2l-310 -1458q-18 -8 -55 -8q-17 0 -30 2t-17 4z" />
<glyph unicode="&#xcf;" horiz-adv-x="530" d="M401 1686l-22 -109q-23 -8 -64 -8q-18 0 -33 2t-20 4l-6 2l23 109q22 6 63 6q18 0 33 -1.5t21 -2.5zM707 1686l-23 -109q-22 -8 -63 -8q-18 0 -33 2t-21 4l-6 2l23 109q22 6 63 6q18 0 33 -1.5t21 -2.5zM82 8l309 1458q18 9 55 9q16 0 29 -2.5t18 -4.5l5 -2l-310 -1458 q-18 -8 -55 -8q-17 0 -30 2t-17 4z" />
<glyph unicode="&#xd0;" horiz-adv-x="1368" d="M406 1475h393q119 0 207.5 -24.5t151.5 -80t93.5 -143t29 -215.5t-37.5 -295q-44 -209 -109 -349t-157.5 -221t-203.5 -114t-263 -33h-418l148 690h-174q-3 35 16 82h174zM508 94q124 0 215 28.5t171 99.5t138 198t98 317q33 153 36 265t-20.5 184.5t-76 116t-122 60.5 t-167.5 17h-288l-130 -608h300q3 -33 -17 -82h-299l-127 -596h289z" />
<glyph unicode="&#xd1;" horiz-adv-x="1425" d="M1063 1651q26 0 51.5 13.5t37.5 26.5l13 13q17 -5 30.5 -20.5t12.5 -32.5q-10 -15 -25 -30.5t-50.5 -33.5t-75.5 -18q-55 0 -122 36.5t-104 36.5q-26 0 -51.5 -15t-37.5 -29l-13 -15q-40 17 -43 51q2 4 5.5 9.5t16.5 21t28.5 27t43 21t58.5 9.5q55 0 122 -35.5t103 -35.5 zM958 8l-497 1309h-4q-13 -71 -54 -268l-221 -1041q-18 -8 -55 -8q-15 0 -26.5 2t-16.5 4l-4 2l309 1458q25 9 66 9q19 0 34 -2.5t20 -4.5l5 -2l502 -1325h4q14 113 49 273l223 1052q17 9 54 9q16 0 27.5 -2.5t15.5 -4.5l4 -2l-310 -1458q-20 -8 -63 -8q-19 0 -34.5 2 t-21.5 4z" />
<glyph unicode="&#xd2;" horiz-adv-x="1384" d="M885 1888l151 -289q-26 -33 -75 -36l-183 278q18 21 48.5 34.5t58.5 12.5zM170 764q82 384 256 557.5t440 173.5q265 0 371.5 -193.5t22.5 -580.5q-83 -389 -252.5 -565t-434.5 -176q-175 0 -282.5 85.5t-142.5 259.5t22 439zM1153 737q31 143 33 256.5t-20.5 189.5 t-67 126t-104.5 72t-136 22q-212 0 -359.5 -157t-222.5 -509q-30 -142 -30.5 -255.5t24 -189t70 -126t104 -72.5t129.5 -22q212 0 359.5 157.5t220.5 507.5z" />
<glyph unicode="&#xd3;" horiz-adv-x="1384" d="M879 1614l278 289q31 2 55 -11.5t33 -36.5l-305 -278q-49 6 -61 37zM170 764q82 384 256 557.5t440 173.5q265 0 371.5 -193.5t22.5 -580.5q-83 -389 -252.5 -565t-434.5 -176q-175 0 -282.5 85.5t-142.5 259.5t22 439zM1153 737q31 143 33 256.5t-20.5 189.5t-67 126 t-104.5 72t-136 22q-212 0 -359.5 -157t-222.5 -509q-30 -142 -30.5 -255.5t24 -189t70 -126t104 -72.5t129.5 -22q212 0 359.5 157.5t220.5 507.5z" />
<glyph unicode="&#xd4;" horiz-adv-x="1384" d="M981 1841l215 -213q-25 -48 -55 -55l-203 174l-272 -176q-42 17 -45 57l307 213h53zM170 764q82 384 256 557.5t440 173.5q265 0 371.5 -193.5t22.5 -580.5q-83 -389 -252.5 -565t-434.5 -176q-175 0 -282.5 85.5t-142.5 259.5t22 439zM1153 737q31 143 33 256.5 t-20.5 189.5t-67 126t-104.5 72t-136 22q-212 0 -359.5 -157t-222.5 -509q-30 -142 -30.5 -255.5t24 -189t70 -126t104 -72.5t129.5 -22q212 0 359.5 157.5t220.5 507.5z" />
<glyph unicode="&#xd5;" horiz-adv-x="1384" d="M1040 1700q27 1 53 15.5t38 28.5l12 15q34 -10 37 -47q-1 -4 -4 -10t-14.5 -21.5t-26.5 -28t-41.5 -23t-57.5 -11.5q-53 -2 -122.5 32t-106.5 33q-27 -1 -52 -15.5t-37 -29.5l-11 -14q-34 18 -39 47q1 4 4 9.5t14.5 21t26 27.5t41 22.5t57.5 11.5q55 2 124.5 -31 t104.5 -32zM170 764q82 384 256 557.5t440 173.5q265 0 371.5 -193.5t22.5 -580.5q-83 -389 -252.5 -565t-434.5 -176q-175 0 -282.5 85.5t-142.5 259.5t22 439zM1153 737q31 143 33 256.5t-20.5 189.5t-67 126t-104.5 72t-136 22q-212 0 -359.5 -157t-222.5 -509 q-30 -142 -30.5 -255.5t24 -189t70 -126t104 -72.5t129.5 -22q212 0 359.5 157.5t220.5 507.5z" />
<glyph unicode="&#xd6;" horiz-adv-x="1384" d="M711 1726q22 7 63 7q18 0 33 -1.5t21 -3.5l6 -2l-23 -108q-22 -8 -63 -8q-18 0 -33 2t-21 4l-6 2zM1016 1726q22 7 63 7q17 0 32 -1.5t21 -3.5l7 -2l-23 -108q-24 -8 -63 -8q-18 0 -33 2t-21 4l-6 2zM170 764q82 384 256 557.5t440 173.5q265 0 371.5 -193.5t22.5 -580.5 q-83 -389 -252.5 -565t-434.5 -176q-175 0 -282.5 85.5t-142.5 259.5t22 439zM1153 737q31 143 33 256.5t-20.5 189.5t-67 126t-104.5 72t-136 22q-212 0 -359.5 -157t-222.5 -509q-30 -142 -30.5 -255.5t24 -189t70 -126t104 -72.5t129.5 -22q212 0 359.5 157.5 t220.5 507.5z" />
<glyph unicode="&#xd7;" horiz-adv-x="933" d="M444 524l-286 -235q-17 5 -31 28q-8 8 -13.5 17.5t-6.5 14.5l-1 5l285 238l-184 237q10 19 37 37q10 10 21 17.5t17 9.5l5 2l186 -236l289 236q17 -6 31 -29q8 -8 13 -17t6 -15l1 -5l-287 -237l187 -238q-10 -19 -37 -37q-10 -10 -21 -17t-17 -9l-5 -2z" />
<glyph unicode="&#xd8;" horiz-adv-x="1382" d="M1358 1522l-144 -183q135 -199 46 -618q-83 -389 -252.5 -565t-434.5 -176q-210 0 -323 122l-152 -194q-50 10 -71 41l174 223q-114 207 -31 592q82 384 256 557.5t440 173.5q182 0 291 -92l125 162q45 -9 76 -43zM858 1403q-212 0 -359.5 -157t-222.5 -509 q-62 -300 0 -465l816 1047q-87 84 -234 84zM573 72q212 0 359.5 157.5t220.5 507.5q72 337 -10 508l-824 -1055q83 -118 254 -118z" />
<glyph unicode="&#xd9;" horiz-adv-x="1368" d="M899 1565l-180 276q18 21 48 34.5t58 12.5l150 -284q-23 -33 -76 -39zM1348 1466l-213 -999q-49 -233 -198.5 -360t-369.5 -127q-224 0 -336.5 130t-64.5 357l213 999q20 9 55 9q16 0 29.5 -2.5t18.5 -4.5l5 -2l-215 -1013q-38 -182 39.5 -281.5t257.5 -99.5 q179 0 300 100t159 281l215 1013q18 9 53 9q16 0 29 -2.5t18 -4.5z" />
<glyph unicode="&#xda;" horiz-adv-x="1368" d="M1139 1845l-318 -295q-46 6 -59 39l291 303q30 1 53.5 -12t32.5 -35zM1348 1466l-213 -999q-49 -233 -198.5 -360t-369.5 -127q-224 0 -336.5 130t-64.5 357l213 999q20 9 55 9q16 0 29.5 -2.5t18.5 -4.5l5 -2l-215 -1013q-38 -182 39.5 -281.5t257.5 -99.5 q179 0 300 100t159 281l215 1013q18 9 53 9q16 0 29 -2.5t18 -4.5z" />
<glyph unicode="&#xdb;" horiz-adv-x="1368" d="M977 1841l215 -213q-9 -17 -14.5 -25.5t-15.5 -17.5t-23 -12l-203 174l-272 -176q-45 18 -48 57l308 213h53zM1348 1466l-213 -999q-49 -233 -198.5 -360t-369.5 -127q-224 0 -336.5 130t-64.5 357l213 999q20 9 55 9q16 0 29.5 -2.5t18.5 -4.5l5 -2l-215 -1013 q-38 -182 39.5 -281.5t257.5 -99.5q179 0 300 100t159 281l215 1013q18 9 53 9q16 0 29 -2.5t18 -4.5z" />
<glyph unicode="&#xdc;" horiz-adv-x="1368" d="M823 1718l-22 -108q-23 -8 -64 -8q-18 0 -33 2t-20 4l-6 2l22 108q23 6 64 6q18 0 33 -1.5t21 -2.5zM1128 1718l-22 -108q-23 -8 -64 -8q-18 0 -33 2t-21 4l-5 2l23 108q22 6 63 6q18 0 33 -1.5t20 -2.5zM1348 1466l-213 -999q-49 -233 -198.5 -360t-369.5 -127 q-224 0 -336.5 130t-64.5 357l213 999q20 9 55 9q16 0 29.5 -2.5t18.5 -4.5l5 -2l-215 -1013q-38 -182 39.5 -281.5t257.5 -99.5q179 0 300 100t159 281l215 1013q18 9 53 9q16 0 29 -2.5t18 -4.5z" />
<glyph unicode="&#xdd;" horiz-adv-x="1257" d="M725 1589l291 303q30 1 53.5 -12t32.5 -35l-318 -295q-46 6 -59 39zM1268 1466q20 9 69 9q19 0 34.5 -2.5t21.5 -4.5l6 -2l-719 -843l-131 -615q-20 -8 -55 -8q-16 0 -29 2t-18 4l-5 2l129 613l-346 845q25 9 68 9q14 0 26 -2.5t17 -4.5l6 -2l301 -731z" />
<glyph unicode="&#xde;" horiz-adv-x="1236" d="M391 1466q16 9 55 9q17 0 30 -2.5t18 -4.5l4 -2l-62 -288h400q189 0 274.5 -125.5t44.5 -317.5q-40 -185 -171 -288t-325 -103h-399l-72 -336q-16 -8 -55 -8q-17 0 -30 2t-17 4l-4 2zM416 1081l-135 -641h395q144 0 240 84t128 234q32 154 -28.5 238.5t-204.5 84.5h-395z " />
<glyph unicode="&#xdf;" horiz-adv-x="1167" d="M47 8l240 1131q83 397 483 397q95 0 165 -30t103.5 -79t46.5 -112t-4 -129q-6 -30 -16.5 -59.5t-21.5 -52.5t-20 -40.5t-17 -30.5t-9 -14q-10 0 -26.5 -1t-60.5 -12t-80 -29t-71 -58t-46 -94q-9 -45 5 -83t43 -64.5t66 -56t72.5 -57.5t62.5 -70t37.5 -92.5t-4.5 -125.5 q-58 -266 -385 -266q-63 0 -113 9t-69 18l-18 9q4 56 39 80q82 -28 163 -28q123 0 194 53.5t89 142.5q12 56 -0.5 102.5t-40.5 77t-64.5 61t-73 56t-64.5 62t-40 78.5t0 106q10 49 32.5 89t51 65t60.5 44t62 28.5t54.5 15.5t39.5 7l14 1q31 46 47 127q7 42 7.5 81t-14 72 t-39.5 58t-68 39t-99 14q-160 0 -249.5 -79t-121.5 -230l-239 -1131q-17 -8 -54 -8q-16 0 -28.5 2t-16.5 4z" />
<glyph unicode="&#xe0;" horiz-adv-x="1134" d="M645 1585l164 -303q-26 -33 -76 -39l-192 295q15 20 46 34t58 13zM956 1073q17 8 48 8q16 0 28 -2t16 -4l3 -2l-226 -1065q-18 -8 -45 -8q-12 0 -23 2t-15 4l-5 2l27 158q-142 -186 -377 -186q-396 0 -274 579q32 153 82.5 260t117.5 167t142.5 86t169.5 26 q222 0 293 -187zM862 670q17 83 -1.5 158.5t-79 127.5t-152.5 52q-167 0 -263.5 -108.5t-150.5 -360.5q-53 -253 -4 -361t215 -108q137 0 245.5 105t135.5 235z" />
<glyph unicode="&#xe1;" horiz-adv-x="1134" d="M547 1284l293 303q29 1 53 -12t33 -35l-320 -295q-46 6 -59 39zM956 1073q17 8 48 8q16 0 28 -2t16 -4l3 -2l-226 -1065q-18 -8 -45 -8q-12 0 -23 2t-15 4l-5 2l27 158q-142 -186 -377 -186q-396 0 -274 579q32 153 82.5 260t117.5 167t142.5 86t169.5 26q222 0 293 -187 zM862 670q17 83 -1.5 158.5t-79 127.5t-152.5 52q-167 0 -263.5 -108.5t-150.5 -360.5q-53 -253 -4 -361t215 -108q137 0 245.5 105t135.5 235z" />
<glyph unicode="&#xe2;" horiz-adv-x="1134" d="M782 1495l211 -211q-22 -43 -59 -51l-189 170l-270 -172q-39 16 -45 53l301 211h51zM956 1073q17 8 48 8q16 0 28 -2t16 -4l3 -2l-226 -1065q-18 -8 -45 -8q-12 0 -23 2t-15 4l-5 2l27 158q-142 -186 -377 -186q-396 0 -274 579q32 153 82.5 260t117.5 167t142.5 86 t169.5 26q222 0 293 -187zM862 670q17 83 -1.5 158.5t-79 127.5t-152.5 52q-167 0 -263.5 -108.5t-150.5 -360.5q-53 -253 -4 -361t215 -108q137 0 245.5 105t135.5 235z" />
<glyph unicode="&#xe3;" horiz-adv-x="1134" d="M479 1362q1 1 10.5 13.5t20.5 23t28 23.5t40 20.5t49 7.5q55 0 121.5 -36t103.5 -36q60 0 102 54q35 -9 35 -50q-6 -12 -19 -28t-47.5 -36t-74.5 -20q-55 0 -123 36t-104 36q-26 0 -52.5 -14t-39.5 -28l-13 -15q-31 15 -37 49zM956 1073q17 8 48 8q16 0 28 -2t16 -4l3 -2 l-226 -1065q-18 -8 -45 -8q-12 0 -23 2t-15 4l-5 2l27 158q-142 -186 -377 -186q-396 0 -274 579q32 153 82.5 260t117.5 167t142.5 86t169.5 26q222 0 293 -187zM862 670q17 83 -1.5 158.5t-79 127.5t-152.5 52q-167 0 -263.5 -108.5t-150.5 -360.5q-53 -253 -4 -361 t215 -108q137 0 245.5 105t135.5 235z" />
<glyph unicode="&#xe4;" horiz-adv-x="1134" d="M535 1442q20 6 61 6q18 0 33.5 -1.5t21.5 -2.5l6 -2l-24 -109q-23 -8 -64 -8q-18 0 -33 2t-20 4l-6 2zM840 1442q20 6 61 6q18 0 33.5 -1.5t21.5 -2.5l7 -2l-25 -109q-23 -8 -64 -8q-18 0 -33 2t-21 4l-5 2zM956 1073q17 8 48 8q16 0 28 -2t16 -4l3 -2l-226 -1065 q-18 -8 -45 -8q-12 0 -23 2t-15 4l-5 2l27 158q-142 -186 -377 -186q-396 0 -274 579q32 153 82.5 260t117.5 167t142.5 86t169.5 26q222 0 293 -187zM862 670q17 83 -1.5 158.5t-79 127.5t-152.5 52q-167 0 -263.5 -108.5t-150.5 -360.5q-53 -253 -4 -361t215 -108 q137 0 245.5 105t135.5 235z" />
<glyph unicode="&#xe5;" horiz-adv-x="1134" d="M520 1427q21 92 96 145.5t164 53.5q88 0 142.5 -53t33.5 -146q-20 -93 -94.5 -146.5t-169.5 -53.5t-143.5 53t-28.5 147zM879 1427q11 56 -17.5 92.5t-97.5 36.5q-66 0 -110.5 -37.5t-55.5 -91.5q-11 -55 17 -93t94 -38q68 0 113.5 38.5t56.5 92.5zM956 1073q17 8 48 8 q16 0 28 -2t16 -4l3 -2l-226 -1065q-18 -8 -45 -8q-12 0 -23 2t-15 4l-5 2l27 158q-142 -186 -377 -186q-396 0 -274 579q32 153 82.5 260t117.5 167t142.5 86t169.5 26q222 0 293 -187zM862 670q17 83 -1.5 158.5t-79 127.5t-152.5 52q-167 0 -263.5 -108.5t-150.5 -360.5 q-53 -253 -4 -361t215 -108q137 0 245.5 105t135.5 235z" />
<glyph unicode="&#xe6;" horiz-adv-x="1648" d="M1292 1098q169 0 237 -104t30 -281q-11 -49 -27 -97t-26 -71l-11 -23h-610q-38 -231 11.5 -340.5t193.5 -109.5q43 0 85 7.5t71 18t52 21.5t34 19l11 7q34 -24 25 -73q-5 -4 -13.5 -10t-38.5 -22t-63.5 -28t-86.5 -22t-109 -10q-201 0 -250 174l-31 -146q-18 -8 -41 -8 q-12 0 -22.5 2t-15.5 4l-5 2l19 139q-64 -86 -143 -126.5t-191 -40.5q-85 0 -146.5 32t-101 102t-43.5 180t27 267q32 152 83.5 259.5t118 166.5t139.5 85t160 26q110 0 171 -38.5t92 -125.5l34 139q16 8 47 8q15 0 25.5 -2t14.5 -4l3 -2l-28 -141q128 166 319 166zM903 606 h522q19 37 35 119q15 57 11.5 108.5t-21 91t-61 62.5t-109.5 23q-126 0 -226 -97.5t-151 -306.5zM766 410l55 260q15 60 7.5 120.5t-28.5 108.5t-68 78.5t-111 30.5q-156 0 -254.5 -110.5t-151.5 -358.5q-51 -253 -1.5 -361t204.5 -108q69 0 130.5 30t104 79.5t71.5 108.5 t42 122z" />
<glyph unicode="&#xe7;" horiz-adv-x="905" d="M111 563q114 535 540 535q74 0 133.5 -12t81.5 -24l23 -13q-10 -54 -53 -80q-66 37 -185 37q-177 0 -284.5 -114.5t-157.5 -348.5q-51 -235 11.5 -351t242.5 -116q56 0 108 11t77 21l24 11q15 -11 23 -33t5 -47q-11 -6 -31.5 -15.5t-89.5 -26t-145 -17.5l-49 -127 q116 0 161 -49t27 -136q-21 -96 -87.5 -138t-184.5 -42q-47 0 -89.5 12t-61.5 24l-19 11q11 37 41 57l9 -4q9 -4 21 -9t28.5 -10t39 -8t45.5 -3q155 0 179 120q12 55 -18.5 83t-100.5 28h-66l-10 21l63 174q-172 25 -238.5 177t-12.5 402z" />
<glyph unicode="&#xe8;" horiz-adv-x="1034" d="M721 1245l-193 295q18 21 48.5 34.5t58.5 12.5l162 -303q-26 -33 -76 -39zM879 506h-676q-38 -219 23.5 -325.5t226.5 -106.5q72 0 141.5 19.5t103.5 38.5l33 20q37 -33 29 -80q-5 -4 -14 -10t-41 -22t-67.5 -28t-92.5 -22t-117 -10q-210 0 -294.5 157t-20.5 434 q60 261 197.5 394t326.5 133q177 0 259.5 -112t43.5 -286q-13 -56 -28 -104.5t-24 -69.5zM850 723q15 57 7 109t-32 91.5t-74.5 63t-121.5 23.5q-144 0 -249 -103t-159 -317h588q25 49 41 133z" />
<glyph unicode="&#xe9;" horiz-adv-x="1034" d="M909 1540l-319 -295q-47 6 -60 39l293 303q29 1 53 -12t33 -35zM879 506h-676q-38 -219 23.5 -325.5t226.5 -106.5q72 0 141.5 19.5t103.5 38.5l33 20q37 -33 29 -80q-5 -4 -14 -10t-41 -22t-67.5 -28t-92.5 -22t-117 -10q-210 0 -294.5 157t-20.5 434q60 261 197.5 394 t326.5 133q177 0 259.5 -112t43.5 -286q-13 -56 -28 -104.5t-24 -69.5zM850 723q15 57 7 109t-32 91.5t-74.5 63t-121.5 23.5q-144 0 -249 -103t-159 -317h588q25 49 41 133z" />
<glyph unicode="&#xea;" horiz-adv-x="1034" d="M758 1497l211 -211q-22 -43 -60 -51l-190 170l-264 -172q-41 16 -47 53l299 211h51zM879 506h-676q-38 -219 23.5 -325.5t226.5 -106.5q72 0 141.5 19.5t103.5 38.5l33 20q37 -33 29 -80q-5 -4 -14 -10t-41 -22t-67.5 -28t-92.5 -22t-117 -10q-210 0 -294.5 157 t-20.5 434q60 261 197.5 394t326.5 133q177 0 259.5 -112t43.5 -286q-13 -56 -28 -104.5t-24 -69.5zM850 723q15 57 7 109t-32 91.5t-74.5 63t-121.5 23.5q-144 0 -249 -103t-159 -317h588q25 49 41 133z" />
<glyph unicode="&#xeb;" horiz-adv-x="1034" d="M627 1415l-23 -108q-22 -9 -63 -9q-18 0 -33 2t-21 4l-6 3l23 108q20 6 61 6q18 0 33.5 -1.5t21.5 -3.5zM932 1415l-23 -108q-22 -9 -63 -9q-18 0 -33 2t-21 4l-6 3l23 108q20 6 61 6q18 0 33.5 -1.5t22.5 -3.5zM879 506h-676q-38 -219 23.5 -325.5t226.5 -106.5 q72 0 141.5 19.5t103.5 38.5l33 20q37 -33 29 -80q-5 -4 -14 -10t-41 -22t-67.5 -28t-92.5 -22t-117 -10q-210 0 -294.5 157t-20.5 434q60 261 197.5 394t326.5 133q177 0 259.5 -112t43.5 -286q-13 -56 -28 -104.5t-24 -69.5zM850 723q15 57 7 109t-32 91.5t-74.5 63 t-121.5 23.5q-144 0 -249 -103t-159 -317h588q25 49 41 133z" />
<glyph unicode="&#xec;" horiz-adv-x="471" d="M410 1249l-195 295q18 21 48.5 34.5t58.5 12.5l163 -303q-26 -33 -75 -39zM381 1069l-225 -1061q-17 -8 -54 -8q-16 0 -28.5 2t-16.5 4l-4 2l226 1061q16 8 53 8q16 0 28.5 -2t16.5 -4z" />
<glyph unicode="&#xed;" horiz-adv-x="471" d="M627 1540l-320 -295q-46 6 -59 39l293 303q29 1 53 -12t33 -35zM381 1069l-225 -1061q-17 -8 -54 -8q-16 0 -28.5 2t-16.5 4l-4 2l226 1061q16 8 53 8q16 0 28.5 -2t16.5 -4z" />
<glyph unicode="&#xee;" horiz-adv-x="471" d="M434 1497l225 -211q-22 -43 -59 -51l-197 170l-268 -172q-33 13 -39 53l287 211h51zM381 1069l-225 -1061q-17 -8 -54 -8q-16 0 -28.5 2t-16.5 4l-4 2l226 1061q16 8 53 8q16 0 28.5 -2t16.5 -4z" />
<glyph unicode="&#xef;" horiz-adv-x="471" d="M309 1427l-22 -108q-23 -6 -64 -6q-18 0 -33 1.5t-20 3.5l-6 1l22 108q23 9 64 9q18 0 33 -2t21 -4zM614 1427l-22 -108q-23 -6 -64 -6q-18 0 -33 1.5t-21 3.5l-5 1l23 108q22 9 63 9q18 0 33 -2t20 -4zM381 1069l-225 -1061q-17 -8 -54 -8q-16 0 -28.5 2t-16.5 4l-4 2 l226 1061q16 8 53 8q16 0 28.5 -2t16.5 -4z" />
<glyph unicode="&#xf0;" horiz-adv-x="1134" d="M1006 1432l-148 -80q239 -249 137 -723q-38 -183 -93 -310t-128.5 -201t-159 -106t-194.5 -32q-204 0 -287.5 139t-23.5 420q29 141 78.5 242t117 160t145 85.5t173.5 26.5q108 0 191.5 -52t111.5 -135q1 150 -35.5 250t-118.5 184l-240 -131q-37 23 -34 64l211 119 q-101 78 -248 108q0 46 37 76q176 -33 303 -131l174 96q34 -24 31 -69zM432 66q75 0 136.5 22.5t117 73t98.5 139.5t70 215q24 103 20 179t-23 127.5t-57.5 83.5t-83.5 45.5t-100 13.5q-75 0 -134.5 -22t-111.5 -73t-91 -139t-66 -215q-25 -129 -23 -215.5t36.5 -138.5 t86 -74t125.5 -22z" />
<glyph unicode="&#xf1;" d="M471 1374l5 10t15.5 22t27.5 28t41.5 22t57.5 10q55 0 124 -35.5t106 -35.5q26 0 51 15.5t37 31.5l12 16q20 -5 32 -19t11 -34q-2 -4 -5.5 -10t-16.5 -22t-29 -28t-43.5 -22t-58.5 -10q-54 0 -121.5 36.5t-104.5 36.5q-26 0 -51.5 -17t-38.5 -33l-12 -17q-42 17 -39 55z M987 772l-162 -764q-18 -8 -53 -8q-16 0 -28.5 2t-16.5 4l-4 2l162 762q51 240 -195 240q-98 0 -201.5 -62.5t-175.5 -169.5l-163 -770q-19 -8 -54 -8q-16 0 -28 2t-16 4l-5 2l225 1061q19 8 54 8q16 0 28 -2t16 -4l5 -2l-33 -158q88 93 179 140t204 47q147 0 220 -89.5 t42 -236.5z" />
<glyph unicode="&#xf2;" horiz-adv-x="1101" d="M612 1587l162 -303q-26 -33 -76 -39l-192 295q18 21 48.5 34.5t57.5 12.5zM113 561q31 148 84.5 254.5t124 167t149.5 88t174 27.5q431 0 309 -576q-31 -149 -84 -255.5t-123 -168.5t-150 -90t-177 -28q-207 0 -288.5 142t-18.5 439zM852 539q22 107 25 188t-12 135 t-48 87.5t-78 48t-106 14.5q-69 0 -129.5 -23.5t-117 -76.5t-101 -147.5t-72.5 -225.5q-23 -107 -26 -188t12 -135t48.5 -87.5t78.5 -48t106 -14.5q318 0 420 473z" />
<glyph unicode="&#xf3;" horiz-adv-x="1101" d="M526 1284l293 303q29 1 53 -12t33 -35l-319 -295q-47 6 -60 39zM113 561q31 148 84.5 254.5t124 167t149.5 88t174 27.5q431 0 309 -576q-31 -149 -84 -255.5t-123 -168.5t-150 -90t-177 -28q-207 0 -288.5 142t-18.5 439zM852 539q22 107 25 188t-12 135t-48 87.5 t-78 48t-106 14.5q-69 0 -129.5 -23.5t-117 -76.5t-101 -147.5t-72.5 -225.5q-23 -107 -26 -188t12 -135t48.5 -87.5t78.5 -48t106 -14.5q318 0 420 473z" />
<glyph unicode="&#xf4;" horiz-adv-x="1101" d="M745 1497l224 -211q-22 -43 -60 -51l-196 170l-269 -172q-32 13 -38 53l288 211h51zM113 561q31 148 84.5 254.5t124 167t149.5 88t174 27.5q431 0 309 -576q-31 -149 -84 -255.5t-123 -168.5t-150 -90t-177 -28q-207 0 -288.5 142t-18.5 439zM852 539q22 107 25 188 t-12 135t-48 87.5t-78 48t-106 14.5q-69 0 -129.5 -23.5t-117 -76.5t-101 -147.5t-72.5 -225.5q-23 -107 -26 -188t12 -135t48.5 -87.5t78.5 -48t106 -14.5q318 0 420 473z" />
<glyph unicode="&#xf5;" horiz-adv-x="1101" d="M449 1358l5 10t16 22t28.5 28t42 22t57.5 10q55 0 123.5 -36t105.5 -36q26 0 52 16t39 32l12 16q38 -12 41 -53q-2 -4 -5.5 -10t-16.5 -22t-28.5 -28.5t-43 -22.5t-58.5 -10q-43 0 -83 18.5t-75.5 37t-68.5 18.5q-26 0 -52.5 -16t-39.5 -32l-13 -15q-38 14 -38 51z M113 561q31 148 84.5 254.5t124 167t149.5 88t174 27.5q431 0 309 -576q-31 -149 -84 -255.5t-123 -168.5t-150 -90t-177 -28q-207 0 -288.5 142t-18.5 439zM852 539q22 107 25 188t-12 135t-48 87.5t-78 48t-106 14.5q-69 0 -129.5 -23.5t-117 -76.5t-101 -147.5 t-72.5 -225.5q-23 -107 -26 -188t12 -135t48.5 -87.5t78.5 -48t106 -14.5q318 0 420 473z" />
<glyph unicode="&#xf6;" horiz-adv-x="1101" d="M508 1440q22 8 63 8q17 0 32 -2t21 -4l7 -2l-23 -109q-24 -8 -63 -8q-18 0 -33 2t-21 4l-6 2zM813 1440q21 8 64 8q17 0 31.5 -2t19.5 -4l6 -2l-23 -109q-22 -8 -61 -8q-19 0 -34 2t-20 4l-5 2zM113 561q31 148 84.5 254.5t124 167t149.5 88t174 27.5q431 0 309 -576 q-31 -149 -84 -255.5t-123 -168.5t-150 -90t-177 -28q-207 0 -288.5 142t-18.5 439zM852 539q22 107 25 188t-12 135t-48 87.5t-78 48t-106 14.5q-69 0 -129.5 -23.5t-117 -76.5t-101 -147.5t-72.5 -225.5q-23 -107 -26 -188t12 -135t48.5 -87.5t78.5 -48t106 -14.5 q318 0 420 473z" />
<glyph unicode="&#xf7;" horiz-adv-x="1144" d="M713 981l-25 -115q-24 -8 -67 -8q-19 0 -35 2t-22 4l-7 2l25 115q24 8 67 8q19 0 35 -2t22 -4zM952 551h-796q-4 14 2 43q3 13 7 23.5t7 14.5l2 5h797q6 -14 0 -43q-3 -13 -7.5 -23.5t-7.5 -14.5zM571 322l-24 -115q-23 -8 -66 -8q-19 0 -35.5 2t-23.5 4l-6 2l24 115 q25 8 68 8q19 0 35 -2t22 -4z" />
<glyph unicode="&#xf8;" horiz-adv-x="1097" d="M1047 1128l-123 -155q94 -142 28 -451q-31 -149 -84 -255.5t-123 -168.5t-150 -90t-177 -28q-138 0 -217 61l-103 -131q-44 9 -63 41l112 143q-105 142 -36 467q31 148 84.5 254.5t124 167t149.5 88t174 27.5q147 0 229 -68l109 137q44 -6 66 -39zM631 1012 q-69 0 -129.5 -23.5t-117 -76.5t-101 -147.5t-72.5 -225.5q-53 -247 2 -361l600 772q-59 62 -182 62zM430 66q318 0 420 473q48 234 4 346l-596 -770q60 -49 172 -49z" />
<glyph unicode="&#xf9;" d="M643 1587l162 -303q-26 -33 -76 -39l-192 295q18 21 48 34.5t58 12.5zM104 311l160 758q18 8 53 8q16 0 28.5 -2t16.5 -4l5 -2l-162 -762q-26 -122 22.5 -180.5t171.5 -58.5q98 0 201.5 61.5t175.5 169.5l164 770q18 8 53 8q16 0 28 -2t17 -4l4 -2l-225 -1061 q-18 -8 -53 -8q-16 0 -28 2t-16 4l-5 2l33 148q-84 -89 -176.5 -132.5t-206.5 -43.5q-146 0 -219 91.5t-42 239.5z" />
<glyph unicode="&#xfa;" d="M934 1540l-320 -295q-46 6 -59 39l293 303q29 1 53 -12t33 -35zM104 311l160 758q18 8 53 8q16 0 28.5 -2t16.5 -4l5 -2l-162 -762q-26 -122 22.5 -180.5t171.5 -58.5q98 0 201.5 61.5t175.5 169.5l164 770q18 8 53 8q16 0 28 -2t17 -4l4 -2l-225 -1061q-18 -8 -53 -8 q-16 0 -28 2t-16 4l-5 2l33 148q-84 -89 -176.5 -132.5t-206.5 -43.5q-146 0 -219 91.5t-42 239.5z" />
<glyph unicode="&#xfb;" d="M762 1499l219 -213q-22 -43 -59 -51l-197 170l-268 -172q-33 13 -39 53l293 213h51zM104 311l160 758q18 8 53 8q16 0 28.5 -2t16.5 -4l5 -2l-162 -762q-26 -122 22.5 -180.5t171.5 -58.5q98 0 201.5 61.5t175.5 169.5l164 770q18 8 53 8q16 0 28 -2t17 -4l4 -2 l-225 -1061q-18 -8 -53 -8q-16 0 -28 2t-16 4l-5 2l33 148q-84 -89 -176.5 -132.5t-206.5 -43.5q-146 0 -219 91.5t-42 239.5z" />
<glyph unicode="&#xfc;" d="M514 1444q23 8 64 8q17 0 32 -2t21 -4l6 -2l-23 -109q-24 -6 -63 -6q-18 0 -33 1.5t-20 3.5l-6 1zM819 1444q21 8 62 8q18 0 33 -2t20 -4l6 -2l-22 -109q-23 -6 -64 -6q-18 0 -32.5 1.5t-19.5 3.5l-5 1zM104 311l160 758q18 8 53 8q16 0 28.5 -2t16.5 -4l5 -2l-162 -762 q-26 -122 22.5 -180.5t171.5 -58.5q98 0 201.5 61.5t175.5 169.5l164 770q18 8 53 8q16 0 28 -2t17 -4l4 -2l-225 -1061q-18 -8 -53 -8q-16 0 -28 2t-16 4l-5 2l33 148q-84 -89 -176.5 -132.5t-206.5 -43.5q-146 0 -219 91.5t-42 239.5z" />
<glyph unicode="&#xfd;" d="M926 1518l-312 -289q-48 6 -57 37l285 297q29 2 53 -10.5t31 -34.5zM940 1069q18 8 53 8q16 0 28 -2t17 -4l4 -2l-217 -1024q-31 -148 -72 -247t-106.5 -171.5t-160.5 -105.5t-230 -33q-78 0 -147 14t-99 28l-30 13q11 57 47 78q108 -41 239 -41q102 0 170.5 19.5 t126.5 71t97 142t71 232.5l25 111q-84 -89 -174.5 -132.5t-204.5 -43.5q-161 0 -233.5 93t-39.5 249l160 747q18 8 53 8q16 0 28.5 -2t16.5 -4l5 -2l-162 -762q-26 -122 22.5 -180.5t171.5 -58.5q98 0 201.5 61.5t175.5 169.5z" />
<glyph unicode="&#xfe;" horiz-adv-x="1140" d="M371 1528q14 8 51 8q16 0 29 -2t17 -4l5 -2l-131 -610q139 180 369 180q400 0 278 -578q-32 -153 -82 -260t-117.5 -167.5t-144 -86.5t-172.5 -26q-108 0 -185.5 48t-105.5 132l-139 -654q-16 -8 -53 -8q-16 0 -28.5 2t-16.5 4l-4 2zM883 539q55 253 7 361t-218 108 q-70 0 -135.5 -29t-114 -77t-82.5 -106t-49 -118l-58 -268q-17 -82 5.5 -159.5t83.5 -129t145 -51.5q170 0 266 108t150 361z" />
<glyph unicode="&#xff;" d="M647 1446l-22 -109q-23 -8 -64 -8q-18 0 -33 2t-20 4l-6 2l22 109q23 8 64 8q18 0 33 -2t21 -4zM952 1446l-22 -109q-23 -8 -64 -8q-18 0 -33 2t-21 4l-5 2l22 109q23 8 64 8q18 0 33 -2t20 -4zM940 1069q18 8 53 8q16 0 28 -2t17 -4l4 -2l-217 -1024q-31 -148 -72 -247 t-106.5 -171.5t-160.5 -105.5t-230 -33q-78 0 -147 14t-99 28l-30 13q11 57 47 78q108 -41 239 -41q102 0 170.5 19.5t126.5 71t97 142t71 232.5l25 111q-84 -89 -174.5 -132.5t-204.5 -43.5q-161 0 -233.5 93t-39.5 249l160 747q18 8 53 8q16 0 28.5 -2t16.5 -4l5 -2 l-162 -762q-26 -122 22.5 -180.5t171.5 -58.5q98 0 201.5 61.5t175.5 169.5z" />
<glyph unicode="&#x100;" horiz-adv-x="1310" d="M594 1704h563q10 -38 -18 -82h-564q-10 42 19 82zM780 1466q21 9 56 9q16 0 28.5 -2.5t17.5 -4.5l5 -2l254 -1458q-21 -8 -60 -8q-13 0 -24.5 2t-16.5 4l-6 2l-73 418h-691l-252 -418q-18 -8 -63 -8q-16 0 -27.5 2t-15.5 4l-4 2zM813 1337h-4q-20 -43 -55 -106l-430 -711 h622l-123 711q-4 29 -6.5 55.5t-2.5 38.5z" />
<glyph unicode="&#x101;" horiz-adv-x="1134" d="M987 1335h-510q-4 18 1 43.5t16 40.5h510q5 -33 -17 -84zM956 1073q17 8 48 8q16 0 28 -2t16 -4l3 -2l-226 -1065q-18 -8 -45 -8q-12 0 -23 2t-15 4l-5 2l27 158q-142 -186 -377 -186q-396 0 -274 579q32 153 82.5 260t117.5 167t142.5 86t169.5 26q222 0 293 -187z M862 670q17 83 -1.5 158.5t-79 127.5t-152.5 52q-167 0 -263.5 -108.5t-150.5 -360.5q-53 -253 -4 -361t215 -108q137 0 245.5 105t135.5 235z" />
<glyph unicode="&#x102;" horiz-adv-x="1310" d="M874 1692q63 0 125.5 20t93.5 40l31 20q39 -12 39 -54q0 -10 -34.5 -34t-109 -49t-159.5 -25q-53 0 -100 11.5t-76 27.5t-50.5 32t-30.5 27l-9 12q22 39 63 52q3 -3 9 -8.5t26.5 -19.5t44 -24.5t61 -19t76.5 -8.5zM780 1466q21 9 56 9q16 0 28.5 -2.5t17.5 -4.5l5 -2 l254 -1458q-21 -8 -60 -8q-16 0 -27.5 2t-15.5 4l-4 2l-73 418h-691l-252 -418q-24 -8 -63 -8q-16 0 -27.5 2t-15.5 4l-4 2zM813 1337h-4q-20 -43 -55 -106l-430 -711h622l-123 711q-4 29 -6.5 55.5t-2.5 38.5z" />
<glyph unicode="&#x103;" horiz-adv-x="1134" d="M731 1374q61 0 122 20.5t91 41.5l31 20q36 -14 39 -61q-4 -4 -12 -11.5t-35 -26.5t-57 -33t-78.5 -26t-100.5 -12t-98.5 12t-77 29t-53.5 33.5t-33 28.5l-10 12q21 41 61 55q3 -3 9 -8.5t26 -20t42.5 -25t59 -19.5t74.5 -9zM956 1073q17 8 48 8q16 0 28 -2t16 -4l3 -2 l-226 -1065q-18 -8 -45 -8q-12 0 -23 2t-15 4l-5 2l27 158q-142 -186 -377 -186q-396 0 -274 579q32 153 82.5 260t117.5 167t142.5 86t169.5 26q222 0 293 -187zM862 670q17 83 -1.5 158.5t-79 127.5t-152.5 52q-167 0 -263.5 -108.5t-150.5 -360.5q-53 -253 -4 -361 t215 -108q137 0 245.5 105t135.5 235z" />
<glyph unicode="&#x104;" horiz-adv-x="1308" d="M780 1466q21 9 56 9q16 0 28.5 -2.5t17.5 -4.5l5 -2l254 -1458q-128 -67 -231 -173t-95 -189q8 -70 88 -74q38 0 119 31q9 -9 16 -32t4 -40q-71 -43 -168 -43q-63 0 -107 28.5t-52 88.5q-6 55 19 115.5t71.5 114t105 100t121.5 79.5l-71 412h-691l-252 -418 q-18 -8 -63 -8q-16 0 -27.5 2t-15.5 4l-4 2zM813 1337h-4q-20 -43 -55 -106l-430 -711h622l-123 711q-4 29 -6.5 55.5t-2.5 38.5z" />
<glyph unicode="&#x105;" horiz-adv-x="1138" d="M956 1073q17 8 48 8q16 0 28 -2t16 -4l3 -2l-226 -1065q-2 -2 -4 -2q-127 -66 -226 -171t-91 -189q8 -70 88 -74q38 0 119 31q9 -9 16 -32t4 -40q-71 -43 -168 -43q-63 0 -107.5 28.5t-52.5 88.5q-13 106 86.5 222.5t249.5 199.5l25 139q-142 -186 -377 -186 q-396 0 -274 579q32 153 82.5 260t117.5 167t142.5 86t169.5 26q222 0 293 -187zM862 670q17 83 -1.5 158.5t-79 127.5t-152.5 52q-167 0 -263.5 -108.5t-150.5 -360.5q-53 -253 -4 -361t215 -108q137 0 245.5 105t135.5 235z" />
<glyph unicode="&#x106;" horiz-adv-x="1132" d="M1141 1833l-334 -277q-46 11 -55 46l309 286q29 -1 50.5 -16.5t29.5 -38.5zM170 756q82 376 256 557.5t453 181.5q99 0 181 -17t114 -34l32 -17q-11 -44 -51 -81q-12 6 -35 15t-97 24.5t-151 15.5q-107 0 -193.5 -32.5t-164 -107t-137.5 -206.5t-101 -320 q-32 -151 -35 -265.5t19.5 -189t71 -120.5t111.5 -65t149 -19q84 0 166 14t122 28l40 13q23 -32 16 -84q-6 -3 -16.5 -7.5t-47 -16t-77.5 -20.5t-105.5 -16t-132.5 -7q-548 0 -387 776z" />
<glyph unicode="&#x107;" horiz-adv-x="905" d="M895 1540l-320 -299q-21 3 -37.5 17.5t-23.5 31.5l295 297q29 1 53 -12t33 -35zM651 1006q-177 0 -284.5 -114.5t-157.5 -348.5q-51 -235 11.5 -351t242.5 -116q56 0 108 11t77 21l24 11q15 -11 23 -33t5 -47q-11 -7 -32 -16.5t-92 -26t-148 -16.5q-207 0 -291 154.5 t-26 428.5q114 535 540 535q74 0 133.5 -12t81.5 -24l23 -13q-10 -54 -53 -80q-66 37 -185 37z" />
<glyph unicode="&#x108;" horiz-adv-x="1132" d="M987 1808l213 -215q-20 -42 -57 -51l-199 172l-270 -176q-43 17 -49 55l309 215h53zM170 756q82 376 256 557.5t453 181.5q99 0 181 -17t114 -34l32 -17q-11 -44 -51 -81q-12 6 -35 15t-97 24.5t-151 15.5q-107 0 -193.5 -32.5t-164 -107t-137.5 -206.5t-101 -320 q-32 -151 -35 -265.5t19.5 -189t71 -120.5t111.5 -65t149 -19q84 0 166 14t122 28l40 13q23 -32 16 -84q-6 -3 -16.5 -7.5t-47 -16t-77.5 -20.5t-105.5 -16t-132.5 -7q-548 0 -387 776z" />
<glyph unicode="&#x109;" horiz-adv-x="905" d="M741 1501l211 -209q-21 -44 -59 -53l-191 170l-272 -170q-36 11 -39 53l299 209h51zM651 1006q-177 0 -284.5 -114.5t-157.5 -348.5q-51 -235 11.5 -351t242.5 -116q56 0 108 11t77 21l24 11q15 -11 23 -33t5 -47q-11 -7 -32 -16.5t-92 -26t-148 -16.5q-207 0 -291 154.5 t-26 428.5q114 535 540 535q74 0 133.5 -12t81.5 -24l23 -13q-10 -54 -53 -80q-66 37 -185 37z" />
<glyph unicode="&#x10a;" horiz-adv-x="1132" d="M993 1731l-24 -111q-25 -8 -66 -8q-19 0 -34 2t-20 4l-5 2l24 111q19 8 62 8q18 0 34 -2t22 -4zM170 756q82 376 256 557.5t453 181.5q99 0 181 -17t114 -34l32 -17q-11 -44 -51 -81q-12 6 -35 15t-97 24.5t-151 15.5q-107 0 -193.5 -32.5t-164 -107t-137.5 -206.5 t-101 -320q-32 -151 -35 -265.5t19.5 -189t71 -120.5t111.5 -65t149 -19q84 0 166 14t122 28l40 13q23 -32 16 -84q-6 -3 -16.5 -7.5t-47 -16t-77.5 -20.5t-105.5 -16t-132.5 -7q-548 0 -387 776z" />
<glyph unicode="&#x10b;" horiz-adv-x="905" d="M766 1440l-23 -111q-24 -8 -65 -8q-18 0 -33 2t-21 4l-6 2l23 111q23 8 64 8q18 0 33.5 -2t21.5 -4zM651 1006q-177 0 -284.5 -114.5t-157.5 -348.5q-51 -235 11.5 -351t242.5 -116q56 0 108 11t77 21l24 11q15 -11 23 -33t5 -47q-11 -7 -32 -16.5t-92 -26t-148 -16.5 q-207 0 -291 154.5t-26 428.5q114 535 540 535q74 0 133.5 -12t81.5 -24l23 -13q-10 -54 -53 -80q-66 37 -185 37z" />
<glyph unicode="&#x10c;" horiz-adv-x="1132" d="M864 1571l-217 213q22 46 55 57l203 -176l273 174q18 -5 31 -20t14 -35l-305 -213h-54zM170 756q82 376 256 557.5t453 181.5q99 0 181 -17t114 -34l32 -17q-11 -44 -51 -81q-12 6 -35 15t-97 24.5t-151 15.5q-107 0 -193.5 -32.5t-164 -107t-137.5 -206.5t-101 -320 q-32 -151 -35 -265.5t19.5 -189t71 -120.5t111.5 -65t149 -19q84 0 166 14t122 28l40 13q23 -32 16 -84q-6 -3 -16.5 -7.5t-47 -16t-77.5 -20.5t-105.5 -16t-132.5 -7q-548 0 -387 776z" />
<glyph unicode="&#x10d;" horiz-adv-x="905" d="M651 1233l-200 197q20 39 53 51l184 -162l250 160q38 -10 41 -49l-281 -197h-47zM651 1006q-177 0 -284.5 -114.5t-157.5 -348.5q-51 -235 11.5 -351t242.5 -116q56 0 108 11t77 21l24 11q15 -11 23 -33t5 -47q-11 -7 -32 -16.5t-92 -26t-148 -16.5q-207 0 -291 154.5 t-26 428.5q114 535 540 535q74 0 133.5 -12t81.5 -24l23 -13q-10 -54 -53 -80q-66 37 -185 37z" />
<glyph unicode="&#x10e;" horiz-adv-x="1355" d="M770 1571l-217 213q11 23 22.5 34.5t32.5 18.5l199 -176l276 174q42 -11 45 -51l-305 -213h-53zM393 1475h393q119 0 207.5 -24.5t152 -80t93.5 -143t29 -215.5t-37 -295q-44 -209 -109 -349t-157.5 -221t-203.5 -114t-263 -33h-418zM207 94h289q124 0 215 28.5t171 99.5 t138 198t98 317q33 153 36 265t-20.5 184.5t-76 116t-122 60.5t-167.5 17h-289z" />
<glyph unicode="&#x10f;" horiz-adv-x="1159" d="M1196 1227q76 61 116 135.5t54 171.5q64 16 94 -8q-18 -95 -76.5 -187t-140.5 -141q-34 3 -47 29zM1047 1528q14 8 51 8q16 0 29 -2t17 -4l5 -2l-324 -1520q-18 -8 -45 -8q-12 0 -23 2t-15 4l-5 2l27 158q-69 -91 -155.5 -138.5t-207.5 -47.5q-409 0 -288 577 q32 152 83.5 260t119.5 168t143 86.5t166 26.5q223 0 290 -180zM862 670q15 60 6.5 120.5t-32.5 108.5t-76 78.5t-123 30.5q-166 0 -267.5 -110t-154.5 -359q-53 -253 -1.5 -361t222.5 -108q71 0 136 30t111.5 79.5t78.5 109t45 121.5z" />
<glyph unicode="&#x110;" horiz-adv-x="1368" d="M406 1475h393q119 0 207.5 -24.5t151.5 -80t93.5 -143t29 -215.5t-37.5 -295q-44 -209 -109 -349t-157.5 -221t-203.5 -114t-263 -33h-418l148 690h-174q-3 35 16 82h174zM508 94q124 0 215 28.5t171 99.5t138 198t98 317q33 153 36 265t-20.5 184.5t-76 116t-122 60.5 t-167.5 17h-288l-130 -608h300q3 -33 -17 -82h-299l-127 -596h289z" />
<glyph unicode="&#x111;" horiz-adv-x="1136" d="M1260 1356q3 -10 -3 -37q-3 -12 -6.5 -21.5t-5.5 -12.5l-2 -3h-145l-271 -1274q-18 -8 -45 -8q-12 0 -23 2t-15 4l-5 2l23 158q-142 -186 -373 -186q-95 0 -159.5 28.5t-105.5 94t-43 172.5t28 264q32 154 82.5 263.5t117.5 173.5t145 93t173 29q231 0 291 -180l77 364 h-239q-4 10 2 37q3 12 6.5 21.5t5.5 12.5l2 3h240l37 172q14 8 51 8q16 0 29 -2t17 -4l5 -2l-37 -172h146zM809 410l55 260q15 60 6.5 120.5t-32.5 108.5t-76 78.5t-123 30.5q-171 0 -269.5 -108.5t-152.5 -360.5q-53 -253 -1.5 -361t222.5 -108q71 0 136 30t111.5 79.5 t78.5 109t45 121.5z" />
<glyph unicode="&#x112;" horiz-adv-x="1138" d="M1104 1622h-563q-3 44 18 82h563q7 -38 -18 -82zM393 1475h801q3 -21 -2 -45q-7 -34 -18 -50h-695l-125 -585h592q3 -21 0 -45q-6 -27 -18 -48h-592l-129 -608h715q0 -37 -2 -45q-6 -26 -19 -49h-821z" />
<glyph unicode="&#x113;" horiz-adv-x="1034" d="M950 1323h-493q-7 41 18 80h494q4 -47 -19 -80zM879 506h-676q-38 -219 23.5 -325.5t226.5 -106.5q72 0 141.5 19.5t103.5 38.5l33 20q37 -33 29 -80q-5 -4 -14 -10t-41 -22t-67.5 -28t-92.5 -22t-117 -10q-210 0 -294.5 157t-20.5 434q60 261 197.5 394t326.5 133 q177 0 259.5 -112t43.5 -286q-13 -56 -28 -104.5t-24 -69.5zM850 723q15 57 7 109t-32 91.5t-74.5 63t-121.5 23.5q-144 0 -249 -103t-159 -317h588q25 49 41 133z" />
<glyph unicode="&#x114;" horiz-adv-x="1138" d="M1130 1735q-5 -4 -14 -11.5t-40.5 -26.5t-65 -33t-85 -26t-104.5 -12t-100 11t-75.5 27t-49.5 32.5t-30 27.5l-9 11q21 40 66 55q3 -3 9 -8.5t26 -19.5t43 -24.5t60.5 -19t76.5 -8.5q63 0 126 20t94 40l32 20q37 -11 40 -55zM393 1475h801q3 -21 -2 -45q-7 -34 -18 -50 h-695l-125 -585h592q3 -21 0 -45q-6 -27 -18 -48h-592l-129 -608h715q0 -37 -2 -45q-6 -26 -19 -49h-821z" />
<glyph unicode="&#x115;" horiz-adv-x="1034" d="M991 1401q-4 -5 -12 -12.5t-35 -27.5t-57.5 -35t-79 -27.5t-100.5 -12.5t-99 12t-77 29t-53 33.5t-34 28.5l-10 12q21 41 62 55q3 -3 9 -8.5t26 -20t42.5 -25t59 -19.5t74.5 -9q61 0 121.5 20.5t91.5 41.5l30 20q41 -12 41 -55zM879 506h-676q-38 -219 23.5 -325.5 t226.5 -106.5q72 0 141.5 19.5t103.5 38.5l33 20q37 -33 29 -80q-5 -4 -14 -10t-41 -22t-67.5 -28t-92.5 -22t-117 -10q-210 0 -294.5 157t-20.5 434q60 261 197.5 394t326.5 133q177 0 259.5 -112t43.5 -286q-13 -56 -28 -104.5t-24 -69.5zM850 723q15 57 7 109t-32 91.5 t-74.5 63t-121.5 23.5q-144 0 -249 -103t-159 -317h588q25 49 41 133z" />
<glyph unicode="&#x116;" horiz-adv-x="1138" d="M915 1724l-24 -110q-23 -8 -64 -8q-19 0 -34.5 2t-20.5 4l-6 2l25 110q20 9 63 9q18 0 33.5 -2.5t21.5 -4.5zM393 1475h801q3 -21 -2 -45q-7 -34 -18 -50h-695l-125 -585h592q3 -21 0 -45q-6 -27 -18 -48h-592l-129 -608h715q0 -37 -2 -45q-6 -26 -19 -49h-821z" />
<glyph unicode="&#x117;" horiz-adv-x="1034" d="M784 1436l-24 -111q-21 -8 -62 -8q-19 0 -34.5 2t-21.5 4l-5 2l25 111q20 8 63 8q18 0 33 -2t20 -4zM879 506h-676q-38 -219 23.5 -325.5t226.5 -106.5q72 0 141.5 19.5t103.5 38.5l33 20q37 -33 29 -80q-5 -4 -14 -10t-41 -22t-67.5 -28t-92.5 -22t-117 -10 q-210 0 -294.5 157t-20.5 434q60 261 197.5 394t326.5 133q177 0 259.5 -112t43.5 -286q-13 -56 -28 -104.5t-24 -69.5zM850 723q15 57 7 109t-32 91.5t-74.5 63t-121.5 23.5q-144 0 -249 -103t-159 -317h588q25 49 41 133z" />
<glyph unicode="&#x118;" horiz-adv-x="1138" d="M780 0h-700l313 1475h801q3 -21 -2 -45q-7 -34 -18 -50h-695l-125 -585h592q3 -21 0 -45q-6 -27 -18 -48h-592l-129 -608h715q0 -37 -2 -45q-6 -26 -19 -49q-129 -67 -228 -169t-91 -185q8 -70 88 -74q37 0 118 31q10 -10 17 -33t4 -39q-71 -43 -168 -43 q-63 0 -107.5 28.5t-52.5 88.5q-12 106 76.5 211.5t222.5 183.5z" />
<glyph unicode="&#x119;" horiz-adv-x="1030" d="M879 506h-676q-38 -219 23.5 -325.5t226.5 -106.5q72 0 141.5 19.5t103.5 38.5l33 20q37 -33 29 -80q-16 -13 -39 -25q-90 -50 -172 -120t-135 -147t-47 -134q8 -70 88 -74q37 0 118 31q10 -10 17 -33t4 -39q-71 -43 -168 -43q-63 0 -107.5 28.5t-52.5 88.5 q-12 98 61 197t193 184q-44 -6 -92 -6q-210 0 -294.5 157t-20.5 434q60 261 197.5 394t326.5 133q177 0 259.5 -112t43.5 -286q-13 -56 -28 -104.5t-24 -69.5zM850 723q15 57 7 109t-32 91.5t-74.5 63t-121.5 23.5q-144 0 -249 -103t-159 -317h588q25 49 41 133z" />
<glyph unicode="&#x11a;" horiz-adv-x="1138" d="M762 1571l-217 213q22 46 55 57l203 -176l272 174q18 -5 31 -20t14 -35l-305 -213h-53zM393 1475h801q3 -21 -2 -45q-7 -34 -18 -50h-695l-125 -585h592q3 -21 0 -45q-6 -27 -18 -48h-592l-129 -608h715q0 -37 -2 -45q-6 -26 -19 -49h-821z" />
<glyph unicode="&#x11b;" horiz-adv-x="1034" d="M502 1489l186 -168l260 166q18 -5 30 -19t13 -32l-291 -203h-51l-207 203q21 41 60 53zM879 506h-676q-38 -219 23.5 -325.5t226.5 -106.5q72 0 141.5 19.5t103.5 38.5l33 20q37 -33 29 -80q-5 -4 -14 -10t-41 -22t-67.5 -28t-92.5 -22t-117 -10q-210 0 -294.5 157 t-20.5 434q60 261 197.5 394t326.5 133q177 0 259.5 -112t43.5 -286q-13 -56 -28 -104.5t-24 -69.5zM850 723q15 57 7 109t-32 91.5t-74.5 63t-121.5 23.5q-144 0 -249 -103t-159 -317h588q25 49 41 133z" />
<glyph unicode="&#x11c;" horiz-adv-x="1269" d="M1030 1841l215 -213q-25 -48 -55 -55l-203 174l-272 -176q-42 17 -45 57l307 213h53zM170 764q159 731 731 731q105 0 195 -17t128 -34l38 -17q-17 -48 -52 -79q-15 6 -42.5 15t-110 23.5t-162.5 14.5q-107 0 -197 -32.5t-172.5 -106.5t-147 -207t-104.5 -320 q-32 -151 -32.5 -266t25.5 -188.5t78 -120t117.5 -65.5t151.5 -19q117 0 285 33l123 577h-369q-4 18 2 47q3 15 7.5 26.5t7.5 16.5l4 4h473l-156 -733q-19 -8 -53 -19t-141.5 -29.5t-216.5 -18.5q-277 0 -383 201t-27 583z" />
<glyph unicode="&#x11d;" horiz-adv-x="1136" d="M774 1497l211 -211q-22 -43 -59 -51l-189 170l-270 -176q-38 15 -45 57l301 211h51zM735 53l25 109q-68 -88 -152 -135t-207 -47q-193 0 -271.5 142.5t-14.5 444.5q26 123 64.5 215.5t84.5 152t104.5 96.5t120 52t136.5 15q217 0 290 -185l33 156q16 8 53 8q16 0 29 -2 t18 -4l5 -2l-215 -1016q-31 -148 -73 -248.5t-108 -174.5t-162.5 -108t-230.5 -34q-78 0 -147 14t-99 28l-30 13q11 57 47 78q108 -41 239 -41q101 0 170.5 20.5t126.5 74t96 145t68 233.5zM215 539q-53 -253 -1.5 -361t222.5 -108q62 0 118 22t96.5 56.5t73 79t52 87.5 t29.5 84l59 277q5 40 6.5 84.5t-13.5 89t-39.5 79.5t-71.5 57t-109 22q-171 0 -269.5 -108.5t-152.5 -360.5z" />
<glyph unicode="&#x11e;" horiz-adv-x="1269" d="M1239 1718q-5 -4 -14 -11.5t-39.5 -26.5t-64 -33.5t-85 -26.5t-104.5 -12t-100 11.5t-75.5 27.5t-49.5 32t-30 27l-9 12q22 40 63 54q3 -3 9 -8.5t27.5 -19.5t45 -24.5t61 -19t76.5 -8.5q63 0 125.5 20t93.5 40l31 20q39 -12 39 -54zM170 764q159 731 731 731 q105 0 195 -17t128 -34l38 -17q-17 -48 -52 -79q-15 6 -42.5 15t-110 23.5t-162.5 14.5q-107 0 -197 -32.5t-172.5 -106.5t-147 -207t-104.5 -320q-32 -151 -32.5 -266t25.5 -188.5t78 -120t117.5 -65.5t151.5 -19q117 0 285 33l123 577h-369q-4 18 2 47q3 15 7.5 26.5 t7.5 16.5l4 4h473l-156 -733q-19 -8 -53 -19t-141.5 -29.5t-216.5 -18.5q-277 0 -383 201t-27 583z" />
<glyph unicode="&#x11f;" horiz-adv-x="1136" d="M1014 1395q-4 -5 -12 -12.5t-35.5 -27.5t-58 -35t-79 -27.5t-100.5 -12.5t-98.5 12t-76 29t-51.5 33.5t-32 28.5l-10 12q18 41 59 55q3 -3 9 -8.5t26 -20t42.5 -25t59 -19.5t74.5 -9q61 0 122 20.5t91 41.5l31 20q39 -11 39 -55zM735 53l25 109q-68 -88 -152 -135 t-207 -47q-193 0 -271.5 142.5t-14.5 444.5q26 123 64.5 215.5t84.5 152t104.5 96.5t120 52t136.5 15q217 0 290 -185l33 156q16 8 53 8q16 0 29 -2t18 -4l5 -2l-215 -1016q-31 -148 -73 -248.5t-108 -174.5t-162.5 -108t-230.5 -34q-78 0 -147 14t-99 28l-30 13 q11 57 47 78q108 -41 239 -41q101 0 170.5 20.5t126.5 74t96 145t68 233.5zM215 539q-53 -253 -1.5 -361t222.5 -108q62 0 118 22t96.5 56.5t73 79t52 87.5t29.5 84l59 277q5 40 6.5 84.5t-13.5 89t-39.5 79.5t-71.5 57t-109 22q-171 0 -269.5 -108.5t-152.5 -360.5z" />
<glyph unicode="&#x120;" horiz-adv-x="1269" d="M1016 1724l-25 -110q-20 -8 -61 -8q-19 0 -35 2t-23 4l-6 2l25 110q22 9 65 9q18 0 33 -2.5t21 -4.5zM170 764q159 731 731 731q105 0 195 -17t128 -34l38 -17q-17 -48 -52 -79q-15 6 -42.5 15t-110 23.5t-162.5 14.5q-107 0 -197 -32.5t-172.5 -106.5t-147 -207 t-104.5 -320q-32 -151 -32.5 -266t25.5 -188.5t78 -120t117.5 -65.5t151.5 -19q117 0 285 33l123 577h-369q-4 18 2 47q3 15 7.5 26.5t7.5 16.5l4 4h473l-156 -733q-19 -8 -53 -19t-141.5 -29.5t-216.5 -18.5q-277 0 -383 201t-27 583z" />
<glyph unicode="&#x121;" horiz-adv-x="1136" d="M805 1432l-25 -111q-22 -8 -63 -8q-19 0 -34 2t-21 4l-5 2l25 111q18 8 61 8q18 0 33.5 -2t21.5 -4zM735 53l25 109q-68 -88 -152 -135t-207 -47q-193 0 -271.5 142.5t-14.5 444.5q26 123 64.5 215.5t84.5 152t104.5 96.5t120 52t136.5 15q217 0 290 -185l33 156 q16 8 53 8q16 0 29 -2t18 -4l5 -2l-215 -1016q-31 -148 -73 -248.5t-108 -174.5t-162.5 -108t-230.5 -34q-78 0 -147 14t-99 28l-30 13q11 57 47 78q108 -41 239 -41q101 0 170.5 20.5t126.5 74t96 145t68 233.5zM215 539q-53 -253 -1.5 -361t222.5 -108q62 0 118 22 t96.5 56.5t73 79t52 87.5t29.5 84l59 277q5 40 6.5 84.5t-13.5 89t-39.5 79.5t-71.5 57t-109 22q-171 0 -269.5 -108.5t-152.5 -360.5z" />
<glyph unicode="&#x122;" horiz-adv-x="1269" d="M170 764q159 731 731 731q105 0 195 -17t128 -34l38 -17q-17 -48 -52 -79q-15 6 -42.5 15t-110 23.5t-162.5 14.5q-107 0 -197 -32.5t-172.5 -106.5t-147 -207t-104.5 -320q-32 -151 -32.5 -266t25.5 -188.5t78 -120t117.5 -65.5t151.5 -19q117 0 285 33l123 577h-369 q-4 18 2 47q3 15 7.5 26.5t7.5 16.5l4 4h473l-156 -733q-19 -8 -53 -19t-141.5 -29.5t-216.5 -18.5q-277 0 -383 201t-27 583zM449 -449l-41 29l4 3l7.5 7.5l11 11t14 15t15 19t15.5 23t15.5 26t14 30t11.5 33.5q-14 0 -25 2t-15 4l-5 2l23 107q26 8 71 8q20 0 36.5 -2 t22.5 -4l7 -2l-17 -78q-9 -43 -29.5 -83t-43 -66.5t-43.5 -46.5t-35 -29z" />
<glyph unicode="&#x123;" horiz-adv-x="1136" d="M735 53l25 109q-68 -88 -152 -135t-207 -47q-193 0 -271.5 142.5t-14.5 444.5q26 123 64.5 215.5t84.5 152t104.5 96.5t120 52t136.5 15q217 0 290 -185l33 156q16 8 53 8q16 0 29 -2t18 -4l5 -2l-215 -1016q-31 -148 -73 -248.5t-108 -174.5t-162.5 -108t-230.5 -34 q-78 0 -147 14t-99 28l-30 13q11 57 47 78q108 -41 239 -41q101 0 170.5 20.5t126.5 74t96 145t68 233.5zM215 539q-53 -253 -1.5 -361t222.5 -108q62 0 118 22t96.5 56.5t73 79t52 87.5t29.5 84l59 277q5 40 6.5 84.5t-13.5 89t-39.5 79.5t-71.5 57t-109 22 q-171 0 -269.5 -108.5t-152.5 -360.5zM788 1536l39 -27l-5 -4q-4 -4 -9 -8.5t-12.5 -12.5t-15.5 -17.5t-16.5 -22t-16.5 -26t-15.5 -31t-13.5 -35.5q14 0 25 -2t16 -4l4 -3l-20 -100q-25 -6 -68 -6q-19 0 -35.5 1.5t-23.5 3.5l-7 1l17 74q9 40 28 77.5t40.5 62t42 43.5 t33.5 28z" />
<glyph unicode="&#x124;" horiz-adv-x="1390" d="M995 1841l215 -213q-24 -47 -61 -55l-193 174l-282 -176q-36 14 -39 57l307 213h53zM1110 805l141 661q21 9 56 9q16 0 28.5 -2.5t17.5 -4.5l5 -2l-309 -1458q-19 -8 -56 -8q-18 0 -31 2t-16 4l-4 2l148 699h-754l-148 -699q-20 -8 -55 -8q-17 0 -30 2t-17 4l-4 2 l309 1458q20 9 55 9q16 0 29 -2.5t18 -4.5l5 -2l-142 -661h754z" />
<glyph unicode="&#x125;" horiz-adv-x="1128" d="M504 1825l225 -205q-23 -44 -59 -53l-195 168l-260 -168q-36 11 -39 53l277 205h51zM989 772l-164 -764q-18 -8 -53 -8q-16 0 -28.5 2t-16.5 4l-4 2l162 762q51 240 -195 240q-98 0 -201.5 -62.5t-175.5 -169.5l-163 -770q-19 -8 -54 -8q-16 0 -28 2t-16 4l-5 2l324 1520 q16 8 51 8q16 0 28.5 -2t17.5 -4l5 -2l-131 -608q161 178 389 178q148 0 219 -88.5t39 -237.5z" />
<glyph unicode="&#x126;" horiz-adv-x="1409" d="M1317 1212h153q3 -15 -2 -38t-14 -37h-154l-239 -1129q-18 -8 -55 -8q-18 0 -31 2t-17 4l-4 2l148 699h-754l-147 -699q-21 -8 -56 -8q-17 0 -30 2t-17 4l-4 2l240 1129h-133q-6 38 16 75h133l53 254q21 9 56 9q16 0 28.5 -2.5t17.5 -4.5l5 -2l-53 -254h753l54 254 q20 9 55 9q16 0 28.5 -2.5t17.5 -4.5l5 -2zM440 1137l-71 -332h753l72 332h-754z" />
<glyph unicode="&#x127;" horiz-adv-x="1128" d="M342 920q161 178 389 178q148 0 219 -88.5t39 -237.5l-164 -764q-18 -8 -53 -8q-16 0 -28.5 2t-16.5 4l-4 2l162 762q51 240 -195 240q-98 0 -201.5 -62.5t-175.5 -169.5l-163 -770q-19 -8 -54 -8q-16 0 -28 2t-16 4l-5 2l270 1272h-145q-7 38 16 76h146l37 172 q16 8 51 8q16 0 28.5 -2t17.5 -4l5 -2l-37 -172h314q6 -29 -17 -76h-313z" />
<glyph unicode="&#x128;" horiz-adv-x="530" d="M612 1647q25 0 51 13.5t39 27.5l13 14q27 -10 30 -43q-9 -21 -55 -55.5t-104 -34.5q-34 0 -63 11t-46.5 24.5t-42 24.5t-49.5 11t-49 -13t-36 -27l-11 -13q-34 15 -37 45q2 3 6.5 9t19.5 21t32 26t44.5 20.5t57.5 9.5q34 0 63 -11t46 -24.5t41.5 -24.5t49.5 -11zM82 8 l309 1458q18 9 55 9q16 0 29 -2.5t18 -4.5l5 -2l-310 -1458q-18 -8 -55 -8q-17 0 -30 2t-17 4z" />
<glyph unicode="&#x129;" horiz-adv-x="471" d="M489 1374q21 0 42.5 15.5t32.5 30.5l11 16q36 -18 33 -52l-10 -16q-9 -16 -17 -24.5t-22 -21.5t-33.5 -19.5t-42.5 -6.5q-43 0 -98 35t-86 35q-21 0 -42.5 -14t-32.5 -28l-11 -15q-33 21 -31 51q47 84 123 84q45 0 100 -35t84 -35zM381 1069l-225 -1061q-17 -8 -54 -8 q-16 0 -28.5 2t-16.5 4l-4 2l226 1061q16 8 53 8q16 0 28.5 -2t16.5 -4z" />
<glyph unicode="&#x12a;" horiz-adv-x="530" d="M735 1591h-522q-10 43 18 82h523q10 -37 -19 -82zM82 8l309 1458q18 9 55 9q16 0 29 -2.5t18 -4.5l5 -2l-310 -1458q-18 -8 -55 -8q-17 0 -30 2t-17 4z" />
<glyph unicode="&#x12b;" horiz-adv-x="471" d="M573 1343h-368q-4 42 16 76h369q8 -40 -17 -76zM381 1069l-225 -1061q-17 -8 -54 -8q-16 0 -28.5 2t-16.5 4l-4 2l226 1061q16 8 53 8q16 0 28.5 -2t16.5 -4z" />
<glyph unicode="&#x12c;" horiz-adv-x="530" d="M778 1718q-5 -4 -14 -11.5t-39.5 -26.5t-64 -33.5t-85 -26.5t-104.5 -12t-100 11.5t-75.5 27.5t-49.5 32t-30 27l-9 12q23 40 65 54q3 -3 9 -8.5t26.5 -19.5t44 -24.5t61 -19t76.5 -8.5q63 0 125.5 20t93.5 40l31 20q39 -12 39 -54zM82 8l309 1458q18 9 55 9 q16 0 29 -2.5t18 -4.5l5 -2l-310 -1458q-18 -8 -55 -8q-17 0 -30 2t-17 4z" />
<glyph unicode="&#x12d;" horiz-adv-x="471" d="M676 1407q-4 -5 -12 -13t-35.5 -28t-58 -35.5t-79 -28t-100.5 -12.5t-98.5 12t-76 29.5t-51.5 34.5t-32 29l-10 12q22 42 61 53l8.5 -8.5t25.5 -20t42.5 -25t58.5 -19.5t74 -9q61 0 122.5 20.5t92.5 41.5l31 20q37 -11 37 -53zM381 1069l-225 -1061q-17 -8 -54 -8 q-16 0 -28.5 2t-16.5 4l-4 2l226 1061q16 8 53 8q16 0 28.5 -2t16.5 -4z" />
<glyph unicode="&#x12e;" horiz-adv-x="530" d="M188 0q-105 -73 -161 -173t-45 -181q10 -70 94 -74q38 0 119 31q9 -9 16 -32t4 -40q-71 -43 -168 -43q-143 0 -166 117q-19 96 41 207t162 196l307 1458q18 9 55 9q16 0 29 -2.5t18 -4.5l5 -2z" />
<glyph unicode="&#x12f;" horiz-adv-x="471" d="M326 1364q22 8 65 8q19 0 35.5 -2t23.5 -4l7 -2l-25 -115q-24 -8 -67 -8q-19 0 -35 2t-22 4l-7 2zM49 8l227 1061q17 8 54 8q16 0 28.5 -2t16.5 -4l4 -2l-229 -1069q-105 -72 -159.5 -172t-43.5 -182q10 -70 94 -74q38 0 119 31q9 -9 16 -32t4 -40q-71 -43 -168 -43 q-143 0 -166 117q-19 96 41 207t162 196z" />
<glyph unicode="&#x130;" horiz-adv-x="530" d="M436 1720q21 9 64 9q19 0 35.5 -2.5t22.5 -4.5l7 -2l-24 -114q-25 -9 -68 -9q-19 0 -34.5 2.5t-20.5 4.5l-6 2zM391 1466q18 9 55 9q16 0 29 -2.5t18 -4.5l5 -2l-310 -1458q-18 -8 -55 -8q-17 0 -30 2t-17 4l-4 2z" />
<glyph unicode="&#x131;" horiz-adv-x="471" d="M381 1069l-225 -1061q-17 -8 -54 -8q-16 0 -28.5 2t-16.5 4l-4 2l226 1061q16 8 53 8q16 0 28.5 -2t16.5 -4z" />
<glyph unicode="&#x132;" horiz-adv-x="1312" d="M82 8l309 1458q18 9 55 9q16 0 29 -2.5t18 -4.5l5 -2l-310 -1458q-18 -8 -55 -8q-17 0 -30 2t-17 4zM944 334l240 1132q16 9 55 9q16 0 28.5 -2.5t17.5 -4.5l5 -2l-239 -1132q-39 -182 -140 -268t-270 -86q-68 0 -135 15t-100 31l-33 15q10 58 49 84q11 -5 31.5 -13.5 t80 -22t115.5 -13.5q115 0 189.5 59.5t105.5 198.5z" />
<glyph unicode="&#x133;" horiz-adv-x="876" d="M475 1446l-24 -115q-25 -8 -68 -8q-19 0 -35 2t-22 4l-7 2l25 115q25 8 68 8q19 0 35 -2t22 -4zM381 1069l-225 -1061q-17 -8 -54 -8q-16 0 -28.5 2t-16.5 4l-4 2l226 1061q16 8 53 8q16 0 28.5 -2t16.5 -4zM881 1452l-25 -115q-22 -8 -65 -8q-20 0 -36 2t-22 4l-6 2 l25 115q22 8 67 8q19 0 34.5 -2t21.5 -4zM416 -188l268 1257q14 8 53 8q16 0 28 -2t17 -4l4 -2l-266 -1249q-34 -166 -124 -249t-222 -83q-38 0 -67.5 4.5t-39.5 9.5l-10 4q-2 11 0 25q4 16 10 29.5t11 18.5l4 5q31 -8 86 -8q101 0 161.5 56t86.5 180z" />
<glyph unicode="&#x134;" horiz-adv-x="874" d="M905 1841l215 -213q-24 -47 -61 -55l-203 174l-272 -176q-36 14 -39 57l307 213h53zM506 334l239 1132q17 9 56 9q16 0 28.5 -2.5t17.5 -4.5l5 -2l-240 -1130q-38 -182 -139.5 -269t-269.5 -87q-69 0 -136.5 15t-100.5 31l-32 15q10 57 50 84q11 -5 31.5 -13.5t80 -22 t115.5 -13.5q115 0 189.5 59.5t105.5 198.5z" />
<glyph unicode="&#x135;" horiz-adv-x="471" d="M428 1458l221 -209q-25 -45 -61 -53l-197 170l-268 -172q-34 15 -37 55l289 209h53zM10 -188l269 1257q14 8 53 8q16 0 28 -2t16 -4l5 -2l-266 -1249q-34 -166 -124 -249t-222 -83q-38 0 -67.5 4.5t-39.5 9.5l-10 4q-2 11 0 25q4 16 10 29.5t10 18.5l4 5q31 -8 86 -8 q101 0 161.5 56t86.5 180z" />
<glyph unicode="&#x136;" horiz-adv-x="1245" d="M610 813l594 653q27 9 62 9q23 0 59 -9l-633 -706l383 -752q-22 -8 -63 -8q-16 0 -31 2t-22 4l-7 2l-354 711h-260l-152 -711q-18 -8 -55 -8q-16 0 -28.5 2t-17.5 4l-5 2l309 1458q20 9 57 9q16 0 28.5 -2.5t17.5 -4.5l4 -2l-140 -653h254zM385 -424l-39 33 q81 81 109 178q-13 0 -23.5 2t-15.5 4l-4 2l24 115q23 8 66 8q19 0 35.5 -2t22.5 -4l7 -2l-18 -82q-10 -46 -30.5 -89.5t-42.5 -71.5t-43 -49.5t-35 -31.5z" />
<glyph unicode="&#x137;" horiz-adv-x="1013" d="M494 606l413 463q17 8 60 8q16 0 30 -1.5t19 -3.5l6 -1l-461 -518l285 -543q-23 -10 -62 -10q-14 0 -26 2.5t-18 5.5l-5 2l-262 510h-215l-108 -512q-19 -8 -54 -8q-16 0 -28 2t-16 4l-5 2l324 1520q16 8 51 8q16 0 28.5 -2t17.5 -4l5 -2l-197 -922h218zM283 -424l-39 31 q79 79 108 178q-14 0 -25 2t-15 4l-5 2l25 115q24 8 67 8q19 0 35 -2t22 -4l7 -2l-17 -82q-10 -46 -30.5 -89t-42.5 -71t-42.5 -49.5t-34.5 -30.5z" />
<glyph unicode="&#x138;" horiz-adv-x="1024" d="M1042 1069l-499 -457l313 -602q-22 -10 -59 -10q-18 0 -32.5 2t-20.5 4l-5 2l-276 533l-248 -226l-65 -307q-19 -8 -54 -8q-33 0 -49 8l225 1063q21 6 56 6q38 0 47 -6l-125 -602l655 600q24 8 66 8q50 0 71 -8z" />
<glyph unicode="&#x139;" horiz-adv-x="1034" d="M750 1845l-318 -295q-46 6 -59 39l291 303q30 1 53.5 -12t32.5 -35zM80 0l311 1466q20 9 55 9q16 0 29 -2.5t18 -4.5l5 -2l-291 -1370h661q0 -35 -2 -47q-3 -19 -18 -49h-768z" />
<glyph unicode="&#x13a;" horiz-adv-x="479" d="M702 1888l-319 -295q-46 6 -59 39l292 303q29 1 53 -12t33 -35zM483 1528l-323 -1520q-17 -8 -54 -8q-16 0 -28.5 2t-16.5 4l-4 2l324 1520q14 8 51 8q16 0 29 -2t17 -4z" />
<glyph unicode="&#x13b;" horiz-adv-x="1034" d="M80 0l311 1466q20 9 55 9q16 0 29 -2.5t18 -4.5l5 -2l-291 -1370h661q0 -35 -2 -47q-3 -19 -18 -49h-768zM340 -446l-37 32q78 78 109 178q-14 0 -25 2t-15 4l-5 3l24 114q23 9 66 9q19 0 35.5 -2t23.5 -4l6 -3l-18 -82q-10 -46 -30.5 -89t-42.5 -71.5t-43 -49.5t-34 -31 z" />
<glyph unicode="&#x13c;" horiz-adv-x="479" d="M485 1528l-323 -1520q-16 -8 -53 -8q-16 0 -28.5 2t-16.5 4l-5 2l324 1520q14 8 51 8q16 0 29 -2t17 -4zM-27 -424l-34 33q74 74 106 178q-14 0 -24.5 2t-14.5 4l-4 2l25 115q20 8 63 8q19 0 35.5 -2t23.5 -4l7 -2l-19 -82q-10 -46 -30.5 -89.5t-42.5 -71.5t-43 -49.5 t-35 -31.5z" />
<glyph unicode="&#x13d;" horiz-adv-x="1034" d="M709 1204q-36 5 -43 35q149 104 196 295q68 6 92 -21q-29 -95 -96 -182.5t-149 -126.5zM80 0l311 1466q20 9 55 9q16 0 29 -2.5t18 -4.5l5 -2l-291 -1370h661q0 -35 -2 -47q-3 -19 -18 -49h-768z" />
<glyph unicode="&#x13e;" horiz-adv-x="493" d="M578 1198q-35 3 -48 29q76 61 116 135.5t54 171.5q64 16 95 -8q-18 -95 -76.5 -187t-140.5 -141zM483 1528l-323 -1520q-17 -8 -54 -8q-16 0 -28.5 2t-16.5 4l-4 2l324 1520q14 8 51 8q16 0 29 -2t17 -4z" />
<glyph unicode="&#x13f;" horiz-adv-x="1038" d="M80 0l311 1466q20 9 55 9q16 0 29 -2.5t18 -4.5l5 -2l-291 -1370h661q0 -35 -2 -47q-3 -19 -18 -49h-768zM776 737l-22 -106q-21 -8 -62 -8q-18 0 -33.5 2t-21.5 4l-6 2l22 106q23 8 64 8q18 0 33 -2t20 -4z" />
<glyph unicode="&#x140;" horiz-adv-x="581" d="M483 1528l-323 -1520q-17 -8 -54 -8q-16 0 -28.5 2t-16.5 4l-4 2l324 1520q14 8 51 8q16 0 29 -2t17 -4zM612 737l-22 -106q-21 -8 -62 -8q-18 0 -33.5 2t-21.5 4l-6 2l22 106q23 8 64 8q18 0 33 -2t20 -4z" />
<glyph unicode="&#x141;" horiz-adv-x="1064" d="M424 1466q20 9 55 9q16 0 29 -2.5t18 -4.5l4 -2l-133 -630l238 125q27 -21 24 -70l-282 -148l-137 -647h661q0 -35 -2 -47q-3 -19 -18 -49h-768l145 682l-164 -82q-30 26 -24 68l206 106z" />
<glyph unicode="&#x142;" horiz-adv-x="622" d="M432 1528q14 8 51 8q16 0 29 -2t18 -4l5 -2l-136 -627l191 96q15 -10 20 -28q10 -23 6 -41l-235 -121l-170 -799q-16 -8 -53 -8q-16 0 -28.5 2t-16.5 4l-4 2l157 740l-172 -89q-6 4 -20 29q-6 19 -2 41l213 111z" />
<glyph unicode="&#x143;" horiz-adv-x="1425" d="M1231 1845l-318 -295q-46 6 -59 39l291 303q30 1 53.5 -12t32.5 -35zM958 8l-497 1309h-4q-13 -71 -54 -268l-221 -1041q-18 -8 -55 -8q-15 0 -26.5 2t-16.5 4l-4 2l309 1458q25 9 66 9q19 0 34 -2.5t20 -4.5l5 -2l502 -1325h4q14 113 49 273l223 1052q17 9 54 9 q16 0 27.5 -2.5t15.5 -4.5l4 -2l-310 -1458q-20 -8 -63 -8q-19 0 -34.5 2t-21.5 4z" />
<glyph unicode="&#x144;" d="M922 1540l-320 -295q-46 6 -59 39l293 303q29 1 53 -12t33 -35zM987 772l-162 -764q-18 -8 -53 -8q-16 0 -28.5 2t-16.5 4l-4 2l162 762q51 240 -195 240q-98 0 -201.5 -62.5t-175.5 -169.5l-163 -770q-19 -8 -54 -8q-16 0 -28 2t-16 4l-5 2l225 1061q19 8 54 8 q16 0 28 -2t16 -4l5 -2l-33 -158q88 93 179 140t204 47q147 0 220 -89.5t42 -236.5z" />
<glyph unicode="&#x145;" horiz-adv-x="1425" d="M958 8l-497 1309h-4q-13 -71 -54 -268l-221 -1041q-18 -8 -55 -8q-15 0 -26.5 2t-16.5 4l-4 2l309 1458q25 9 66 9q19 0 34 -2.5t20 -4.5l5 -2l502 -1325h4q14 113 49 273l223 1052q17 9 54 9q16 0 27.5 -2.5t15.5 -4.5l4 -2l-310 -1458q-20 -8 -63 -8q-19 0 -34.5 2 t-21.5 4zM444 -432l-38 33q79 79 108 178q-13 0 -23.5 2t-14.5 4l-5 2l25 115q22 8 65 8q19 0 35.5 -2t23.5 -4l7 -2l-19 -82q-10 -46 -30.5 -89.5t-42.5 -71.5t-43 -49.5t-34 -31.5z" />
<glyph unicode="&#x146;" d="M987 772l-162 -764q-18 -8 -53 -8q-16 0 -28.5 2t-16.5 4l-4 2l162 762q51 240 -195 240q-98 0 -201.5 -62.5t-175.5 -169.5l-163 -770q-19 -8 -54 -8q-16 0 -28 2t-16 4l-5 2l225 1061q19 8 54 8q16 0 28 -2t16 -4l5 -2l-33 -158q88 93 179 140t204 47q147 0 220 -89.5 t42 -236.5zM307 -436l-39 30q75 75 107 179q-13 1 -23.5 3t-15.5 4l-4 1l24 117q25 8 68 8q19 0 34.5 -2t21.5 -4l5 -2l-16 -84q-10 -46 -30 -88.5t-42 -70.5t-42.5 -49.5t-34.5 -31.5z" />
<glyph unicode="&#x147;" horiz-adv-x="1425" d="M903 1571l-217 213q22 45 57 57l203 -176l266 178q18 -5 33.5 -22t16.5 -37l-306 -213h-53zM958 8l-497 1309h-4q-13 -71 -54 -268l-221 -1041q-18 -8 -55 -8q-15 0 -26.5 2t-16.5 4l-4 2l309 1458q25 9 66 9q19 0 34 -2.5t20 -4.5l5 -2l502 -1325h4q14 113 49 273 l223 1052q17 9 54 9q16 0 27.5 -2.5t15.5 -4.5l4 -2l-310 -1458q-20 -8 -63 -8q-19 0 -34.5 2t-21.5 4z" />
<glyph unicode="&#x148;" d="M727 1333l250 160q30 -8 37 -49l-273 -199h-47l-207 199q21 40 56 51zM987 772l-162 -764q-18 -8 -53 -8q-16 0 -28.5 2t-16.5 4l-4 2l162 762q51 240 -195 240q-98 0 -201.5 -62.5t-175.5 -169.5l-163 -770q-19 -8 -54 -8q-16 0 -28 2t-16 4l-5 2l225 1061q19 8 54 8 q16 0 28 -2t16 -4l5 -2l-33 -158q88 93 179 140t204 47q147 0 220 -89.5t42 -236.5z" />
<glyph unicode="&#x149;" d="M334 1204q-36 5 -43 35q149 104 196 295q69 6 93 -21q-29 -94 -96 -182t-150 -127zM987 772l-162 -764q-18 -8 -53 -8q-16 0 -28.5 2t-16.5 4l-4 2l162 762q51 240 -195 240q-98 0 -201.5 -62.5t-175.5 -169.5l-163 -770q-19 -8 -54 -8q-16 0 -28 2t-16 4l-5 2l225 1061 q19 8 54 8q16 0 28 -2t16 -4l5 -2l-33 -158q88 93 179 140t204 47q147 0 220 -89.5t42 -236.5z" />
<glyph unicode="&#x14a;" horiz-adv-x="1427" d="M1292 1466q19 9 56 9q16 0 27.5 -2.5t15.5 -4.5l4 -2l-334 -1572q-31 -150 -97 -234.5t-206 -126.5q-35 24 -15 80q91 29 138 90.5t73 185.5l25 115l-18 4l-498 1327h-4q-12 -89 -53 -286l-222 -1041q-18 -8 -55 -8q-16 0 -27.5 2t-15.5 4l-4 2l309 1458q25 9 66 9 q18 0 33 -2.5t20 -4.5l6 -2l502 -1310h4q12 98 47 258z" />
<glyph unicode="&#x14b;" horiz-adv-x="1128" d="M342 911q88 93 179 140t204 47q147 0 220 -89.5t42 -236.5l-186 -878q-31 -150 -97 -234.5t-206 -126.5q-30 27 -15 78q93 31 141.5 93.5t73.5 184.5l187 881q51 240 -195 240q-98 0 -201.5 -62.5t-175.5 -169.5l-163 -770q-19 -8 -54 -8q-16 0 -28 2t-16 4l-5 2 l225 1061q19 8 54 8q16 0 28 -2t16 -4l5 -2z" />
<glyph unicode="&#x14c;" horiz-adv-x="1384" d="M649 1731h553q7 -38 -18 -82h-553q-5 37 18 82zM170 764q82 384 256 557.5t440 173.5q265 0 371.5 -193.5t22.5 -580.5q-83 -389 -252.5 -565t-434.5 -176q-175 0 -282.5 85.5t-142.5 259.5t22 439zM1153 737q31 143 33 256.5t-20.5 189.5t-67 126t-104.5 72t-136 22 q-212 0 -359.5 -157t-222.5 -509q-30 -142 -30.5 -255.5t24 -189t70 -126t104 -72.5t129.5 -22q212 0 359.5 157.5t220.5 507.5z" />
<glyph unicode="&#x14d;" horiz-adv-x="1101" d="M477 1421h479q11 -40 -16 -82h-479q-4 45 16 82zM113 561q31 148 84.5 254.5t124 167t149.5 88t174 27.5q431 0 309 -576q-31 -149 -84 -255.5t-123 -168.5t-150 -90t-177 -28q-207 0 -288.5 142t-18.5 439zM852 539q22 107 25 188t-12 135t-48 87.5t-78 48t-106 14.5 q-69 0 -129.5 -23.5t-117 -76.5t-101 -147.5t-72.5 -225.5q-23 -107 -26 -188t12 -135t48.5 -87.5t78.5 -48t106 -14.5q318 0 420 473z" />
<glyph unicode="&#x14e;" horiz-adv-x="1384" d="M924 1692q63 0 125.5 20t93.5 40l31 20q38 -11 38 -54q-4 -4 -12 -11.5t-36.5 -26.5t-59.5 -33.5t-81 -26.5t-103 -12t-101.5 11.5t-79.5 27.5t-54 32t-33 27l-11 12q22 40 66 54q3 -3 9 -8.5t26.5 -19.5t44 -24.5t61 -19t76.5 -8.5zM170 764q82 384 256 557.5t440 173.5 q265 0 371.5 -193.5t22.5 -580.5q-83 -389 -252.5 -565t-434.5 -176q-175 0 -282.5 85.5t-142.5 259.5t22 439zM1153 737q31 143 33 256.5t-20.5 189.5t-67 126t-104.5 72t-136 22q-212 0 -359.5 -157t-222.5 -509q-30 -142 -30.5 -255.5t24 -189t70 -126t104 -72.5 t129.5 -22q212 0 359.5 157.5t220.5 507.5z" />
<glyph unicode="&#x14f;" horiz-adv-x="1101" d="M711 1389q61 0 122 20.5t92 40.5l31 20q37 -11 37 -53q-4 -5 -12 -12.5t-35 -27t-57.5 -34.5t-79 -27.5t-100.5 -12.5t-98.5 11.5t-76 28.5t-52 34t-32.5 29l-10 11q22 39 62 53l8.5 -8.5t25.5 -19.5t42.5 -24.5t58.5 -19.5t74 -9zM113 561q31 148 84.5 254.5t124 167 t149.5 88t174 27.5q431 0 309 -576q-31 -149 -84 -255.5t-123 -168.5t-150 -90t-177 -28q-207 0 -288.5 142t-18.5 439zM852 539q22 107 25 188t-12 135t-48 87.5t-78 48t-106 14.5q-69 0 -129.5 -23.5t-117 -76.5t-101 -147.5t-72.5 -225.5q-23 -107 -26 -188t12 -135 t48.5 -87.5t78.5 -48t106 -14.5q318 0 420 473z" />
<glyph unicode="&#x150;" horiz-adv-x="1384" d="M696 1622l228 254q31 2 56.5 -10.5t35.5 -34.5l-264 -246q-47 6 -56 37zM995 1622l232 254q63 3 90 -45l-264 -246q-46 7 -58 37zM170 764q82 384 256 557.5t440 173.5q265 0 371.5 -193.5t22.5 -580.5q-83 -389 -252.5 -565t-434.5 -176q-175 0 -282.5 85.5 t-142.5 259.5t22 439zM1153 737q31 143 33 256.5t-20.5 189.5t-67 126t-104.5 72t-136 22q-212 0 -359.5 -157t-222.5 -509q-30 -142 -30.5 -255.5t24 -189t70 -126t104 -72.5t129.5 -22q212 0 359.5 157.5t220.5 507.5z" />
<glyph unicode="&#x151;" horiz-adv-x="1101" d="M489 1276l254 250q69 3 88 -39l-286 -244q-43 3 -56 33zM780 1276l252 250q68 3 90 -39l-286 -244q-46 3 -56 33zM113 561q31 148 84.5 254.5t124 167t149.5 88t174 27.5q431 0 309 -576q-31 -149 -84 -255.5t-123 -168.5t-150 -90t-177 -28q-207 0 -288.5 142t-18.5 439 zM852 539q22 107 25 188t-12 135t-48 87.5t-78 48t-106 14.5q-69 0 -129.5 -23.5t-117 -76.5t-101 -147.5t-72.5 -225.5q-23 -107 -26 -188t12 -135t48.5 -87.5t78.5 -48t106 -14.5q318 0 420 473z" />
<glyph unicode="&#x152;" horiz-adv-x="1714" d="M172 766q42 196 111 337t162 226.5t204 125.5t246 40q90 0 172 -20h700q5 -16 -2 -48q-7 -30 -18 -47h-608l-125 -585h506q4 -14 0 -45q-5 -24 -19 -48h-506l-129 -608h629q3 -24 -2 -45q-5 -27 -18 -49h-723q-90 -20 -179 -20q-269 0 -376 198.5t-25 587.5zM1040 1376 q-75 27 -163 27q-461 0 -603 -666q-35 -183 -32 -310t49.5 -206t120 -114t180.5 -35q104 0 176 28z" />
<glyph unicode="&#x153;" horiz-adv-x="1689" d="M1530 506h-623q-38 -233 12 -333.5t203 -100.5q64 0 128.5 18t97.5 36l32 19q34 -21 27 -73q-5 -4 -14.5 -10t-41.5 -22t-67.5 -28t-91 -22t-113.5 -10q-241 0 -276 256q-72 -134 -165 -195t-226 -61q-203 0 -283.5 140.5t-17.5 436.5q32 150 81.5 255.5t117 167.5 t148 90t181.5 28q133 0 203.5 -61.5t83.5 -196.5q145 258 393 258q174 0 245 -104.5t33 -280.5q-12 -56 -28.5 -108t-27.5 -75zM625 1012q-74 0 -134 -23.5t-113 -77t-94 -146.5t-69 -226q-23 -107 -26 -188t11 -135t46 -87.5t75.5 -48t102.5 -14.5q99 0 168.5 42.5 t125 148.5t93.5 286q29 134 31 225.5t-24 145t-72.5 76t-120.5 22.5zM1501 725q27 126 -14.5 205.5t-171.5 79.5q-132 0 -233.5 -104t-155.5 -316h536q21 42 39 135z" />
<glyph unicode="&#x154;" horiz-adv-x="1269" d="M659 1589l291 303q30 1 53.5 -12t32.5 -35l-317 -295q-47 6 -60 39zM393 1475h494q189 0 274.5 -122t44.5 -311q-32 -153 -131 -249t-250 -127l215 -658q-22 -8 -63 -8q-17 0 -32.5 2t-22.5 4l-7 2l-206 645h-383l-138 -645q-18 -8 -53 -8q-17 0 -30.5 2t-18.5 4l-4 2z M479 1380l-133 -632h385q139 0 238 83.5t129 231.5q32 149 -31.5 233t-202.5 84h-385z" />
<glyph unicode="&#x155;" horiz-adv-x="794" d="M440 1284l293 303q29 1 53 -12t33 -35l-319 -295q-47 6 -60 39zM338 903q37 54 79 92.5t75 57.5t73 29.5t61 12t52 1.5q41 0 79.5 -11t56 -20t26.5 -16q-16 -59 -68 -86q-62 36 -139 36t-162 -59.5t-164 -183.5l-157 -748q-17 -8 -54 -8q-16 0 -28.5 2t-16.5 4l-4 2 l225 1061q17 8 54 8q16 0 28.5 -2t16.5 -4l4 -2z" />
<glyph unicode="&#x156;" horiz-adv-x="1269" d="M393 1475h494q189 0 274.5 -122t44.5 -311q-32 -153 -131 -249t-250 -127l215 -658q-22 -8 -63 -8q-17 0 -32.5 2t-22.5 4l-7 2l-206 645h-383l-138 -645q-18 -8 -53 -8q-17 0 -30.5 2t-18.5 4l-4 2zM479 1380l-133 -632h385q139 0 238 83.5t129 231.5q32 149 -31.5 233 t-202.5 84h-385zM479 -111q23 9 66 9q19 0 35.5 -2t23.5 -4l6 -3l-18 -82q-10 -46 -30.5 -89t-42.5 -71.5t-43 -49.5t-34 -31l-14 -10l-39 32q80 80 109 179q-13 0 -23.5 2t-14.5 4l-5 2z" />
<glyph unicode="&#x157;" horiz-adv-x="794" d="M340 903q37 54 79 92.5t75 57.5t73 29.5t61 12t52 1.5q41 0 79.5 -11t56 -20t26.5 -16q-16 -59 -68 -86q-62 36 -139 36t-162 -59.5t-164 -183.5l-157 -748q-17 -8 -54 -8q-16 0 -28.5 2t-16.5 4l-4 2l225 1061q17 8 54 8q16 0 28.5 -2t16.5 -4l4 -2zM16 -90q23 8 64 8 q19 0 35.5 -2t22.5 -4l7 -2l-18 -82q-10 -46 -30.5 -89.5t-42.5 -71.5t-43 -49.5t-35 -31.5l-13 -10l-35 33q75 75 107 178q-14 0 -24.5 2t-14.5 4l-4 2z" />
<glyph unicode="&#x158;" horiz-adv-x="1269" d="M811 1665l272 174q18 -5 31 -20t14 -35l-305 -213h-53l-217 213q22 46 55 57zM393 1475h494q189 0 274.5 -122t44.5 -311q-32 -153 -131 -249t-250 -127l215 -658q-22 -8 -63 -8q-17 0 -32.5 2t-22.5 4l-7 2l-206 645h-383l-138 -645q-18 -8 -53 -8q-17 0 -30.5 2 t-18.5 4l-4 2zM479 1380l-133 -632h385q139 0 238 83.5t129 231.5q32 149 -31.5 233t-202.5 84h-385z" />
<glyph unicode="&#x159;" horiz-adv-x="794" d="M565 1321l250 160q32 -8 35 -51l-268 -197h-47l-213 197q20 39 59 53zM338 903q37 54 79 92.5t75 57.5t73 29.5t61 12t52 1.5q41 0 79.5 -11t56 -20t26.5 -16q-16 -59 -68 -86q-62 36 -139 36t-162 -59.5t-164 -183.5l-157 -748q-17 -8 -54 -8q-16 0 -28.5 2t-16.5 4 l-4 2l225 1061q17 8 54 8q16 0 28.5 -2t16.5 -4l4 -2z" />
<glyph unicode="&#x15a;" horiz-adv-x="1146" d="M1069 1847l-303 -270q-48 6 -57 41l274 278q29 1 53 -12.5t33 -36.5zM242 1122q38 182 178 277.5t368 95.5q102 0 193.5 -12.5t132.5 -25.5l41 -13q-13 -55 -47 -86q-146 43 -326 43q-188 0 -299 -78.5t-139 -218.5q-7 -34 -7.5 -64t4 -53.5t18 -44.5t27.5 -37t39 -31 t45.5 -25.5t54.5 -23t59 -20l65 -19.5t72 -23.5t68.5 -28t63.5 -35.5t53.5 -43t42.5 -54t26.5 -66t10.5 -81t-11 -97q-39 -187 -184 -282.5t-379 -95.5q-71 0 -138 8t-112.5 19.5t-80.5 22.5t-52 19l-17 8q11 52 47 88q19 -7 52 -18t128.5 -29t182.5 -18q186 0 302.5 77 t147.5 224q8 38 8.5 70.5t-8 59t-21 47.5t-34 39t-42.5 31t-52 25.5t-57 21t-62 19.5q-42 13 -69 22t-66 24t-64 28.5t-56 34.5t-49.5 42.5t-36 51t-24.5 62.5t-7 74.5t10 88.5z" />
<glyph unicode="&#x15b;" horiz-adv-x="905" d="M831 1540l-319 -295q-46 6 -59 39l292 303q29 1 53 -12t33 -35zM168 829q60 269 412 269q74 0 138 -12t91 -24l27 -11q-3 -22 -17 -45t-31 -35q-92 37 -217 37q-265 0 -307 -197q-10 -45 2 -81t43 -61t68 -42.5t88 -32.5q27 -9 47.5 -16.5t46.5 -18.5t45.5 -22.5 t40.5 -27.5t35.5 -33t27 -40t18 -48t5 -57t-7.5 -67q-62 -284 -426 -284q-88 0 -164 16.5t-107 32.5l-32 16q7 52 45 80q14 -6 38 -15t94.5 -23.5t135.5 -14.5q122 0 205.5 51.5t105.5 157.5q5 26 5.5 48t-3 39.5t-13 33.5t-19.5 27.5t-27 22.5t-31.5 18.5t-37 16t-39.5 14 t-43 13.5q-291 90 -242 315z" />
<glyph unicode="&#x15c;" horiz-adv-x="1146" d="M885 1851l215 -213q-14 -46 -53 -55l-203 174l-273 -176q-42 18 -47 57l307 213h54zM242 1122q38 182 178 277.5t368 95.5q102 0 193.5 -12.5t132.5 -25.5l41 -13q-13 -55 -47 -86q-146 43 -326 43q-188 0 -299 -78.5t-139 -218.5q-7 -34 -7.5 -64t4 -53.5t18 -44.5 t27.5 -37t39 -31t45.5 -25.5t54.5 -23t59 -20l65 -19.5t72 -23.5t68.5 -28t63.5 -35.5t53.5 -43t42.5 -54t26.5 -66t10.5 -81t-11 -97q-39 -187 -184 -282.5t-379 -95.5q-71 0 -138 8t-112.5 19.5t-80.5 22.5t-52 19l-17 8q11 52 47 88q19 -7 52 -18t128.5 -29t182.5 -18 q186 0 302.5 77t147.5 224q8 38 8.5 70.5t-8 59t-21 47.5t-34 39t-42.5 31t-52 25.5t-57 21t-62 19.5q-42 13 -69 22t-66 24t-64 28.5t-56 34.5t-49.5 42.5t-36 51t-24.5 62.5t-7 74.5t10 88.5z" />
<glyph unicode="&#x15d;" horiz-adv-x="905" d="M664 1491l223 -209q-25 -45 -62 -53l-196 170l-269 -172q-33 13 -36 55l288 209h52zM168 829q60 269 412 269q74 0 138 -12t91 -24l27 -11q-3 -22 -17 -45t-31 -35q-92 37 -217 37q-265 0 -307 -197q-10 -45 2 -81t43 -61t68 -42.5t88 -32.5q27 -9 47.5 -16.5t46.5 -18.5 t45.5 -22.5t40.5 -27.5t35.5 -33t27 -40t18 -48t5 -57t-7.5 -67q-62 -284 -426 -284q-88 0 -164 16.5t-107 32.5l-32 16q7 52 45 80q14 -6 38 -15t94.5 -23.5t135.5 -14.5q122 0 205.5 51.5t105.5 157.5q5 26 5.5 48t-3 39.5t-13 33.5t-19.5 27.5t-27 22.5t-31.5 18.5 t-37 16t-39.5 14t-43 13.5q-291 90 -242 315z" />
<glyph unicode="&#x15e;" horiz-adv-x="1146" d="M242 1122q38 182 178 277.5t368 95.5q102 0 193.5 -12.5t132.5 -25.5l41 -13q-13 -55 -47 -86q-146 43 -326 43q-188 0 -299 -78.5t-139 -218.5q-7 -34 -7.5 -64t4 -53.5t18 -44.5t27.5 -37t39 -31t45.5 -25.5t54.5 -23t59 -20l65 -19.5t72 -23.5t68.5 -28t63.5 -35.5 t53.5 -43t42.5 -54t26.5 -66t10.5 -81t-11 -97q-38 -178 -171 -273.5t-349 -104.5l-43 -107q115 0 159.5 -50.5t26.5 -139.5q-43 -195 -276 -195q-47 0 -89.5 12t-61.5 24l-19 11q8 37 41 57q68 -34 143 -34q150 0 180 133q11 56 -18.5 85t-98.5 29h-65l-12 21l59 154 q-104 3 -196 22t-133 37l-40 18q11 52 47 88q19 -7 52 -18t128.5 -29t182.5 -18q186 0 302.5 77t147.5 224q8 38 8.5 70.5t-8 59t-21 47.5t-34 39t-42.5 31t-52 25.5t-57 21t-62 19.5q-42 13 -69 22t-66 24t-64 28.5t-56 34.5t-49.5 42.5t-36 51t-24.5 62.5t-7 74.5t10 88.5 z" />
<glyph unicode="&#x15f;" horiz-adv-x="905" d="M168 829q60 269 412 269q74 0 138 -12t91 -24l27 -11q-3 -22 -17 -45t-31 -35q-92 37 -217 37q-265 0 -307 -197q-10 -45 2 -81t43 -61t68 -42.5t88 -32.5q27 -9 47.5 -16.5t46.5 -18.5t45.5 -22.5t40.5 -27.5t35.5 -33t27 -40t18 -48t5 -57t-7.5 -67q-56 -261 -367 -282 l-47 -125q113 0 158 -46t27 -130q-20 -95 -90 -144t-181 -49q-46 0 -87.5 11t-59.5 23l-19 11q5 32 39 55q68 -34 140 -34q150 0 176 129q12 53 -17 81.5t-96 28.5h-66l-12 19l64 168q-84 1 -157 17t-104 32l-30 16q7 52 45 80q14 -6 38 -15t94.5 -23.5t135.5 -14.5 q122 0 205.5 51.5t105.5 157.5q5 26 5.5 48t-3 39.5t-13 33.5t-19.5 27.5t-27 22.5t-31.5 18.5t-37 16t-39.5 14t-43 13.5q-291 90 -242 315z" />
<glyph unicode="&#x160;" horiz-adv-x="1146" d="M788 1593l-217 211q22 46 58 58l202 -176l271 174q19 -4 31 -20t14 -36l-305 -211h-54zM242 1122q38 182 178 277.5t368 95.5q102 0 193.5 -12.5t132.5 -25.5l41 -13q-13 -55 -47 -86q-146 43 -326 43q-188 0 -299 -78.5t-139 -218.5q-7 -34 -7.5 -64t4 -53.5t18 -44.5 t27.5 -37t39 -31t45.5 -25.5t54.5 -23t59 -20l65 -19.5t72 -23.5t68.5 -28t63.5 -35.5t53.5 -43t42.5 -54t26.5 -66t10.5 -81t-11 -97q-39 -187 -184 -282.5t-379 -95.5q-71 0 -138 8t-112.5 19.5t-80.5 22.5t-52 19l-17 8q11 52 47 88q19 -7 52 -18t128.5 -29t182.5 -18 q186 0 302.5 77t147.5 224q8 38 8.5 70.5t-8 59t-21 47.5t-34 39t-42.5 31t-52 25.5t-57 21t-62 19.5q-42 13 -69 22t-66 24t-64 28.5t-56 34.5t-49.5 42.5t-36 51t-24.5 62.5t-7 74.5t10 88.5z" />
<glyph unicode="&#x161;" horiz-adv-x="905" d="M596 1245l-203 193q19 40 58 49l182 -158l237 160q16 -6 29 -20.5t14 -30.5l-268 -193h-49zM168 829q60 269 412 269q74 0 138 -12t91 -24l27 -11q-3 -22 -17 -45t-31 -35q-92 37 -217 37q-265 0 -307 -197q-10 -45 2 -81t43 -61t68 -42.5t88 -32.5q27 -9 47.5 -16.5 t46.5 -18.5t45.5 -22.5t40.5 -27.5t35.5 -33t27 -40t18 -48t5 -57t-7.5 -67q-62 -284 -426 -284q-88 0 -164 16.5t-107 32.5l-32 16q7 52 45 80q14 -6 38 -15t94.5 -23.5t135.5 -14.5q122 0 205.5 51.5t105.5 157.5q5 26 5.5 48t-3 39.5t-13 33.5t-19.5 27.5t-27 22.5 t-31.5 18.5t-37 16t-39.5 14t-43 13.5q-291 90 -242 315z" />
<glyph unicode="&#x162;" horiz-adv-x="1083" d="M246 1475h948q4 -17 -2 -48q-3 -13 -7.5 -24.5t-7.5 -16.5l-3 -6h-416l-291 -1372q-18 -8 -55 -8q-17 0 -30 2t-18 4l-4 2l291 1372h-426q-4 18 2 47q3 13 7.5 25t7.5 18zM281 -457l-39 33q74 74 106 178q-14 0 -24.5 2t-14.5 4l-4 2l25 115q24 8 67 8q19 0 34.5 -2 t21.5 -4l6 -2l-17 -82q-10 -46 -30.5 -89.5t-42.5 -71.5t-42 -49.5t-33 -31.5z" />
<glyph unicode="&#x163;" horiz-adv-x="718" d="M406 991l-136 -631q-22 -101 -20 -165.5t41 -94.5t125 -30q26 0 59.5 2.5t53.5 5.5l20 2q1 -2 2 -5.5t2 -15t-2 -24.5q-3 -12 -6.5 -21.5t-5.5 -13.5l-2 -4q-96 -16 -144 -16q-168 0 -216.5 93.5t-8.5 284.5l135 633h-164q-6 12 0 43q3 14 7.5 24.5t7.5 14.5l4 4h164 l43 203q53 31 106 25l-47 -228h313q6 -14 0 -43q-3 -13 -7.5 -23.5t-7.5 -14.5l-3 -5h-313zM156 -498l-35 33q74 74 106 178q-14 0 -25 2t-16 4l-4 2l25 115q24 8 67 8q19 0 35 -2t23 -4l6 -2l-19 -84q-10 -46 -30.5 -88.5t-42.5 -70.5t-42.5 -49.5t-33.5 -31.5z" />
<glyph unicode="&#x164;" horiz-adv-x="1083" d="M721 1571l-217 213q19 40 55 57l203 -176l272 174q18 -5 31 -20t14 -35l-305 -213h-53zM246 1475h948q4 -17 -2 -48q-3 -13 -7.5 -24.5t-7.5 -16.5l-3 -6h-416l-291 -1372q-18 -8 -55 -8q-17 0 -30 2t-18 4l-4 2l291 1372h-426q-4 18 2 47q3 13 7.5 25t7.5 18z" />
<glyph unicode="&#x165;" horiz-adv-x="716" d="M713 1204q-36 5 -43 35q149 104 196 295q68 6 92 -21q-29 -95 -96 -182.5t-149 -126.5zM406 991l-136 -631q-22 -101 -20 -165.5t41 -94.5t125 -30q26 0 59.5 2.5t53.5 5.5l20 2q1 -2 2 -5.5t2 -15t-2 -24.5q-3 -12 -6.5 -21.5t-5.5 -13.5l-2 -4q-96 -16 -144 -16 q-168 0 -216.5 93.5t-8.5 284.5l135 633h-164q-6 12 0 43q3 14 7.5 24.5t7.5 14.5l4 4h164l43 203q53 31 106 25l-47 -228h313q6 -14 0 -43q-3 -13 -7.5 -23.5t-7.5 -14.5l-3 -5h-313z" />
<glyph unicode="&#x166;" horiz-adv-x="1116" d="M637 743h268q3 -37 -16 -77h-268l-140 -658q-18 -8 -55 -8q-17 0 -30 2t-17 4l-4 2l139 658h-270q0 37 16 77h270l136 637h-426q-4 18 2 47q3 13 7.5 25t7.5 18l3 5h948q4 -17 -2 -48q-3 -13 -7.5 -24.5t-7.5 -16.5l-3 -6h-416z" />
<glyph unicode="&#x167;" horiz-adv-x="727" d="M422 70q26 0 59.5 2.5t53.5 5.5l20 2q1 -2 2 -5.5t2 -15t-2 -24.5q-3 -12 -6.5 -21.5t-5.5 -13.5l-2 -4q-96 -16 -144 -16q-168 0 -216.5 93.5t-8.5 284.5l39 185h-137q0 38 16 75h137l80 373h-164q-6 12 0 43q3 14 7.5 24.5t7.5 14.5l4 4h164l43 203q53 31 106 25 l-47 -228h313q6 -14 0 -43q-3 -13 -7.5 -23.5t-7.5 -14.5l-3 -5h-313l-80 -373h258q3 -34 -17 -75h-258l-39 -183q-22 -101 -20 -165.5t41 -94.5t125 -30z" />
<glyph unicode="&#x168;" horiz-adv-x="1368" d="M1030 1681q26 0 50.5 14t35.5 28l12 14q36 -12 39 -49q-1 -3 -4 -9t-15 -20.5t-26.5 -25.5t-40.5 -20t-57 -9q-51 0 -119 35.5t-106 35.5q-26 0 -51.5 -14.5t-37.5 -29.5l-12 -15q-36 15 -39 49q2 4 5 9.5t15.5 21t27.5 27t42 21t58 9.5q54 0 120 -36t103 -36zM1348 1466 l-213 -999q-49 -233 -198.5 -360t-369.5 -127q-224 0 -336.5 130t-64.5 357l213 999q20 9 55 9q16 0 29.5 -2.5t18.5 -4.5l5 -2l-215 -1013q-38 -182 39.5 -281.5t257.5 -99.5q179 0 300 100t159 281l215 1013q18 9 53 9q16 0 29 -2.5t18 -4.5z" />
<glyph unicode="&#x169;" d="M467 1372l5 10t16 22t29 28t43 22t58 10q55 0 122.5 -35.5t103.5 -35.5q26 0 52.5 15.5t39.5 30.5l14 15q39 -14 39 -51l-5 -10t-16 -21.5t-29 -27.5t-43 -21.5t-58 -9.5q-55 0 -122.5 35.5t-103.5 35.5q-26 0 -52.5 -16t-39.5 -32l-14 -15q-39 14 -39 51zM104 311 l160 758q18 8 53 8q16 0 28.5 -2t16.5 -4l5 -2l-162 -762q-26 -122 22.5 -180.5t171.5 -58.5q98 0 201.5 61.5t175.5 169.5l164 770q18 8 53 8q16 0 28 -2t17 -4l4 -2l-225 -1061q-18 -8 -53 -8q-16 0 -28 2t-16 4l-5 2l33 148q-84 -89 -176.5 -132.5t-206.5 -43.5 q-146 0 -219 91.5t-42 239.5z" />
<glyph unicode="&#x16a;" horiz-adv-x="1368" d="M1184 1638h-561q-6 42 16 82h561q10 -36 -16 -82zM1348 1466l-213 -999q-49 -233 -198.5 -360t-369.5 -127q-224 0 -336.5 130t-64.5 357l213 999q20 9 55 9q16 0 29.5 -2.5t18.5 -4.5l5 -2l-215 -1013q-38 -182 39.5 -281.5t257.5 -99.5q179 0 300 100t159 281l215 1013 q18 9 53 9q16 0 29 -2.5t18 -4.5z" />
<glyph unicode="&#x16b;" d="M506 1432h461q6 -31 -17 -76h-461q-6 38 17 76zM104 311l160 758q18 8 53 8q16 0 28.5 -2t16.5 -4l5 -2l-162 -762q-26 -122 22.5 -180.5t171.5 -58.5q98 0 201.5 61.5t175.5 169.5l164 770q18 8 53 8q16 0 28 -2t17 -4l4 -2l-225 -1061q-18 -8 -53 -8q-16 0 -28 2t-16 4 l-5 2l33 148q-84 -89 -176.5 -132.5t-206.5 -43.5q-146 0 -219 91.5t-42 239.5z" />
<glyph unicode="&#x16c;" horiz-adv-x="1368" d="M1198 1718q-4 -4 -12 -11.5t-35.5 -26.5t-58.5 -33.5t-80.5 -26.5t-102.5 -12t-101.5 11.5t-80 27.5t-55.5 32t-34 27l-11 12q19 40 63 54q3 -3 9 -8.5t26.5 -19.5t44 -24.5t61 -19t76.5 -8.5q63 0 125.5 20t93.5 40l31 20q38 -11 41 -54zM1348 1466l-213 -999 q-49 -233 -198.5 -360t-369.5 -127q-224 0 -336.5 130t-64.5 357l213 999q20 9 55 9q16 0 29.5 -2.5t18.5 -4.5l5 -2l-215 -1013q-38 -182 39.5 -281.5t257.5 -99.5q179 0 300 100t159 281l215 1013q18 9 53 9q16 0 29 -2.5t18 -4.5z" />
<glyph unicode="&#x16d;" d="M721 1382q61 0 122 20.5t91 41.5l31 20q39 -11 39 -55q-4 -5 -11.5 -12.5t-34.5 -27.5t-57 -35t-78 -27.5t-100 -12.5t-99 12t-77.5 29t-53.5 33.5t-33 28.5l-11 12q22 42 63 55l8.5 -8.5t25.5 -20t42.5 -25t58.5 -19.5t74 -9zM104 311l160 758q18 8 53 8q16 0 28.5 -2 t16.5 -4l5 -2l-162 -762q-26 -122 22.5 -180.5t171.5 -58.5q98 0 201.5 61.5t175.5 169.5l164 770q18 8 53 8q16 0 28 -2t17 -4l4 -2l-225 -1061q-18 -8 -53 -8q-16 0 -28 2t-16 4l-5 2l33 148q-84 -89 -176.5 -132.5t-206.5 -43.5q-146 0 -219 91.5t-42 239.5z" />
<glyph unicode="&#x16e;" horiz-adv-x="1368" d="M893 1571q-95 0 -154 62.5t-37 158.5q24 101 102.5 159t172.5 58q90 0 153 -61.5t41 -155.5q-24 -103 -101 -162t-177 -59zM1092 1792q13 61 -19 103t-108 42q-74 0 -122 -42.5t-61 -102.5q-13 -62 17 -104.5t104 -42.5q75 0 125.5 43.5t63.5 103.5zM1348 1466l-213 -999 q-49 -233 -198.5 -360t-369.5 -127q-224 0 -336.5 130t-64.5 357l213 999q20 9 55 9q16 0 29.5 -2.5t18.5 -4.5l5 -2l-215 -1013q-38 -182 39.5 -281.5t257.5 -99.5q179 0 300 100t159 281l215 1013q18 9 53 9q16 0 29 -2.5t18 -4.5z" />
<glyph unicode="&#x16f;" d="M500 1436q22 101 101 159t173 58q96 0 156.5 -58t38.5 -159q-23 -103 -99.5 -162.5t-175.5 -59.5q-103 0 -159.5 60t-34.5 162zM889 1436q13 61 -19 103t-108 42q-73 0 -121 -42.5t-61 -102.5q-13 -62 16.5 -105t103.5 -43q75 0 125.5 44t63.5 104zM104 311l160 758 q18 8 53 8q16 0 28.5 -2t16.5 -4l5 -2l-162 -762q-26 -122 22.5 -180.5t171.5 -58.5q98 0 201.5 61.5t175.5 169.5l164 770q18 8 53 8q16 0 28 -2t17 -4l4 -2l-225 -1061q-18 -8 -53 -8q-16 0 -28 2t-16 4l-5 2l33 148q-84 -89 -176.5 -132.5t-206.5 -43.5q-146 0 -219 91.5 t-42 239.5z" />
<glyph unicode="&#x170;" horiz-adv-x="1368" d="M1020 1835l-295 -272q-44 6 -55 39l258 280q32 1 56.5 -12t35.5 -35zM1325 1835l-295 -272q-46 6 -57 39l260 280q64 3 92 -47zM1348 1466l-213 -999q-49 -233 -198.5 -360t-369.5 -127q-224 0 -336.5 130t-64.5 357l213 999q20 9 55 9q16 0 29.5 -2.5t18.5 -4.5l5 -2 l-215 -1013q-38 -182 39.5 -281.5t257.5 -99.5q179 0 300 100t159 281l215 1013q18 9 53 9q16 0 29 -2.5t18 -4.5z" />
<glyph unicode="&#x171;" d="M823 1516l-295 -271q-40 3 -53 35l260 276q66 3 88 -40zM1114 1516l-293 -271q-42 3 -55 35l260 276q62 3 88 -40zM104 311l160 758q18 8 53 8q16 0 28.5 -2t16.5 -4l5 -2l-162 -762q-26 -122 22.5 -180.5t171.5 -58.5q98 0 201.5 61.5t175.5 169.5l164 770q18 8 53 8 q16 0 28 -2t17 -4l4 -2l-225 -1061q-18 -8 -53 -8q-16 0 -28 2t-16 4l-5 2l33 148q-84 -89 -176.5 -132.5t-206.5 -43.5q-146 0 -219 91.5t-42 239.5z" />
<glyph unicode="&#x172;" horiz-adv-x="1368" d="M1348 1466l-213 -999q-32 -150 -101.5 -251.5t-185.5 -170.5q-142 -85 -232 -198t-81 -201q8 -70 88 -74q37 0 118 31q10 -10 17 -33t4 -39q-71 -43 -168 -43q-63 0 -107.5 28.5t-52.5 88.5q-22 175 217 383q-54 -8 -84 -8q-224 0 -336.5 130t-64.5 357l213 999 q20 9 55 9q16 0 29.5 -2.5t18.5 -4.5l5 -2l-215 -1013q-38 -182 39.5 -281.5t257.5 -99.5q179 0 300 100t159 281l215 1013q18 9 53 9q16 0 29 -2.5t18 -4.5z" />
<glyph unicode="&#x173;" d="M104 311l160 758q18 8 53 8q16 0 28.5 -2t16.5 -4l5 -2l-162 -762q-26 -122 22.5 -180.5t171.5 -58.5q98 0 201.5 61.5t175.5 169.5l164 770q18 8 53 8q16 0 28 -2t17 -4l4 -2l-225 -1061l-2 -2q-127 -64 -229 -170t-94 -190q8 -70 88 -74q37 0 118 31q10 -10 17 -33 t4 -39q-71 -43 -168 -43q-63 0 -107.5 28.5t-52.5 88.5q-6 54 21 116t76 116.5t108.5 101.5t120.5 79l31 138q-84 -89 -176.5 -132.5t-206.5 -43.5q-146 0 -219 91.5t-42 239.5z" />
<glyph unicode="&#x174;" horiz-adv-x="1939" d="M1264 1841l215 -213q-25 -48 -56 -55l-202 174l-273 -176q-42 17 -45 57l307 213h54zM1217 8l-87 1116q-4 69 -3.5 115t3.5 69l3 23h-7q-14 -70 -84 -207l-569 -1116q-32 -8 -59 -8q-20 0 -52 8l-124 1458q18 9 55 9q17 0 30.5 -2.5t18.5 -4.5l4 -2l90 -1118 q4 -52 5 -104.5t0 -79.5l-1 -27h6q28 92 89 211l571 1118q16 9 53 9q16 0 28.5 -2.5t16.5 -4.5l4 -2l82 -1118q4 -54 4.5 -106.5t-0.5 -78.5l-2 -26h4q25 88 86 211l560 1118q18 9 59 9q15 0 27 -2.5t17 -4.5l5 -2l-727 -1458q-20 -8 -55 -8q-15 0 -27.5 2t-18.5 4z" />
<glyph unicode="&#x175;" horiz-adv-x="1622" d="M1018 1497l219 -211q-22 -43 -59 -51l-195 170l-268 -172q-33 13 -39 53l291 211h51zM981 8l-82 684q-16 139 -16 260h-6q-13 -53 -125 -260l-373 -684q-32 -8 -51 -8q-12 0 -52 8l-116 1061q16 8 51 8q15 0 26.5 -2t16.5 -4l4 -2l84 -766q12 -124 4 -174h6q1 1 11 26 t29 65t42 83l414 766q20 8 63 8q12 0 22 -2t13 -4l4 -2l92 -762q12 -120 2 -178h7q1 1 11 25t29.5 64.5t43.5 86.5l405 764q12 8 57 8q16 0 29.5 -2t19.5 -4l5 -2l-568 -1061q-40 -8 -53 -8q-9 0 -49 8z" />
<glyph unicode="&#x176;" horiz-adv-x="1257" d="M930 1841l215 -213q-21 -41 -55 -55l-201 174l-273 -176q-44 18 -47 57l308 213h53zM1268 1466q20 9 69 9q19 0 34.5 -2.5t21.5 -4.5l6 -2l-719 -843l-131 -615q-20 -8 -55 -8q-16 0 -29 2t-18 4l-5 2l129 613l-346 845q25 9 68 9q14 0 26 -2.5t17 -4.5l6 -2l301 -731z " />
<glyph unicode="&#x177;" d="M772 1497l219 -211q-22 -43 -59 -51l-195 170l-268 -172q-33 13 -39 53l291 211h51zM940 1069q18 8 53 8q16 0 28 -2t17 -4l4 -2l-217 -1024q-31 -148 -72 -247t-106.5 -171.5t-160.5 -105.5t-230 -33q-78 0 -147 14t-99 28l-30 13q11 57 47 78q108 -41 239 -41 q102 0 170.5 19.5t126.5 71t97 142t71 232.5l25 111q-84 -89 -174.5 -132.5t-204.5 -43.5q-161 0 -233.5 93t-39.5 249l160 747q18 8 53 8q16 0 28.5 -2t16.5 -4l5 -2l-162 -762q-26 -122 22.5 -180.5t171.5 -58.5q98 0 201.5 61.5t175.5 169.5z" />
<glyph unicode="&#x178;" horiz-adv-x="1257" d="M649 1720q21 6 62 6q18 0 33.5 -1.5t21.5 -2.5l6 -2l-24 -108q-23 -8 -64 -8q-18 0 -33 2t-21 4l-5 2zM954 1720q21 6 62 6q18 0 33.5 -1.5t21.5 -2.5l6 -2l-24 -108q-23 -8 -64 -8q-18 0 -33 2t-20 4l-6 2zM1268 1466q20 9 69 9q19 0 34.5 -2.5t21.5 -4.5l6 -2 l-719 -843l-131 -615q-20 -8 -55 -8q-16 0 -29 2t-18 4l-5 2l129 613l-346 845q25 9 68 9q14 0 26 -2.5t17 -4.5l6 -2l301 -731z" />
<glyph unicode="&#x179;" horiz-adv-x="1181" d="M705 1608l272 284q30 1 53.5 -12t32.5 -35l-299 -276q-51 7 -59 39zM328 1475h911q0 -40 -2 -48q-4 -22 -18 -51l-1117 -1278h871q5 -16 -2 -49q-3 -16 -19 -49h-993q0 36 2 49q5 21 19 49l1116 1278h-789q0 1 -1 9.5t-0.5 19t3.5 22.5q7 29 19 48z" />
<glyph unicode="&#x17a;" horiz-adv-x="923" d="M893 1540l-320 -295q-46 6 -59 39l293 303q29 1 53 -12t33 -35zM92 90h613q6 -12 0 -45q-4 -14 -8.5 -25t-7.5 -16l-3 -4h-727q0 37 2 47q3 12 6.5 21t6.5 15t3 7l799 897h-561q-4 14 2 45q3 15 7.5 26t7.5 15l4 4h673q0 -35 -2 -43q-4 -26 -18 -47z" />
<glyph unicode="&#x17b;" horiz-adv-x="1181" d="M784 1794q21 8 64 8q18 0 33 -2t21 -4l5 -2l-24 -111q-21 -8 -62 -8q-19 0 -34.5 2t-20.5 4l-6 2zM328 1475h911q0 -40 -2 -48q-4 -22 -18 -51l-1117 -1278h871q5 -16 -2 -49q-3 -16 -19 -49h-993q0 36 2 49q5 21 19 49l1116 1278h-789q0 1 -1 9.5t-0.5 19t3.5 22.5 q7 29 19 48z" />
<glyph unicode="&#x17c;" horiz-adv-x="923" d="M92 90h613q6 -12 0 -45q-4 -14 -8.5 -25t-7.5 -16l-3 -4h-727q0 37 2 47q3 12 6.5 21t6.5 15t3 7l799 897h-561q-4 14 2 45q3 15 7.5 26t7.5 15l4 4h673q0 -35 -2 -43q-4 -26 -18 -47zM711 1446l-25 -115q-25 -8 -68 -8q-19 0 -35 2t-22 4l-6 2l25 115q24 8 67 8 q19 0 35 -2t22 -4z" />
<glyph unicode="&#x17d;" horiz-adv-x="1181" d="M815 1665l277 178q17 -4 29 -21t14 -38l-306 -213h-53l-217 213q20 42 64 57zM328 1475h911q0 -40 -2 -48q-4 -22 -18 -51l-1117 -1278h871q5 -16 -2 -49q-3 -16 -19 -49h-993q0 36 2 49q5 21 19 49l1116 1278h-789q0 1 -1 9.5t-0.5 19t3.5 22.5q7 29 19 48z" />
<glyph unicode="&#x17e;" horiz-adv-x="923" d="M588 1233l-197 192q19 41 58 52l182 -158l246 156q27 -5 34 -50l-276 -192h-47zM92 90h613q6 -12 0 -45q-4 -14 -8.5 -25t-7.5 -16l-3 -4h-727q0 37 2 47q3 12 6.5 21t6.5 15t3 7l799 897h-561q-4 14 2 45q3 15 7.5 26t7.5 15l4 4h673q0 -35 -2 -43q-4 -26 -18 -47z" />
<glyph unicode="&#x17f;" horiz-adv-x="542" d="M449 1210l-256 -1202q-17 -8 -54 -8q-16 0 -28.5 2t-16.5 4l-4 2l209 983h-152q0 40 19 86h151l27 123q16 79 42.5 137t69.5 104.5t110 70.5t157 24q49 0 96 -7t69 -15l23 -7q-7 -51 -45 -82q-59 23 -149 23q-128 0 -185.5 -57.5t-82.5 -180.5z" />
<glyph unicode="&#x2c6;" horiz-adv-x="811" d="M420 1419l215 -215q-25 -45 -62 -53l-202 174l-273 -176q-36 14 -39 55l308 215h53z" />
<glyph unicode="&#x2da;" horiz-adv-x="704" d="M256 1038q-101 0 -154 59.5t-30 162.5q21 101 102 159t176 58t154 -58t37 -159q-23 -102 -103.5 -162t-181.5 -60zM461 1260q13 61 -19 103t-108 42q-74 0 -122.5 -42.5t-59.5 -102.5q-13 -62 16 -105t102 -43q75 0 126.5 44t64.5 104z" />
<glyph unicode="&#x2dc;" horiz-adv-x="669" d="M444 1346q26 0 52.5 15t39.5 31l13 15q37 -15 37 -51q-2 -4 -7 -10t-21 -22t-34 -28t-47.5 -22t-60.5 -10q-43 0 -78 18t-65 35.5t-62 17.5q-26 0 -52.5 -15.5t-39.5 -30.5l-13 -15q-40 15 -40 49l7.5 10t21.5 22.5t35.5 29t47.5 22.5t60 10q44 0 79 -17.5t65 -35.5 t62 -18z" />
<glyph unicode="&#x2000;" horiz-adv-x="1004" />
<glyph unicode="&#x2001;" horiz-adv-x="2009" />
<glyph unicode="&#x2002;" horiz-adv-x="1004" />
<glyph unicode="&#x2003;" horiz-adv-x="2009" />
<glyph unicode="&#x2004;" horiz-adv-x="669" />
<glyph unicode="&#x2005;" horiz-adv-x="502" />
<glyph unicode="&#x2006;" horiz-adv-x="334" />
<glyph unicode="&#x2007;" horiz-adv-x="334" />
<glyph unicode="&#x2008;" horiz-adv-x="251" />
<glyph unicode="&#x2009;" horiz-adv-x="401" />
<glyph unicode="&#x200a;" horiz-adv-x="111" />
<glyph unicode="&#x2010;" horiz-adv-x="731" d="M539 551h-385q-4 14 2 43q3 13 7 23.5t7 14.5l2 5h385q6 -14 0 -43q-3 -13 -7.5 -23.5t-7.5 -14.5z" />
<glyph unicode="&#x2011;" horiz-adv-x="731" d="M539 551h-385q-4 14 2 43q3 13 7 23.5t7 14.5l2 5h385q6 -14 0 -43q-3 -13 -7.5 -23.5t-7.5 -14.5z" />
<glyph unicode="&#x2012;" horiz-adv-x="731" d="M539 551h-385q-4 14 2 43q3 13 7 23.5t7 14.5l2 5h385q6 -14 0 -43q-3 -13 -7.5 -23.5t-7.5 -14.5z" />
<glyph unicode="&#x2013;" horiz-adv-x="1167" d="M963 551h-795q-4 14 2 43q3 13 7 23.5t7 14.5l2 5h795q6 -14 0 -43q-3 -13 -7.5 -23.5t-7.5 -14.5z" />
<glyph unicode="&#x2014;" horiz-adv-x="1679" d="M1475 551h-1307q-4 14 2 43q3 13 7 23.5t7 14.5l2 5h1307q6 -14 0 -43q-3 -13 -7.5 -23.5t-7.5 -14.5z" />
<glyph unicode="&#x2018;" horiz-adv-x="432" d="M432 1475l35 -33l-3 -3q-3 -3 -6.5 -6t-9.5 -9.5t-11.5 -13t-13 -16t-14 -19.5t-14 -22.5t-14 -26t-12.5 -29.5t-11 -33l48 -7l-25 -116q-23 -8 -66 -8q-19 0 -35.5 2t-23.5 4l-6 2l18 84q10 46 30.5 88.5t42.5 70.5t43 49.5t34 31.5z" />
<glyph unicode="&#x2019;" horiz-adv-x="417" d="M283 1133l-37 32q5 2 21.5 20t42.5 62.5t42 95.5q-14 0 -24.5 2.5t-14.5 4.5l-4 2l25 114q22 9 65 9q19 0 35 -2.5t22 -4.5l7 -2l-17 -82q-10 -46 -31 -89t-43 -71.5t-42.5 -49.5t-33.5 -31z" />
<glyph unicode="&#x201a;" horiz-adv-x="444" d="M10 -209l-37 31q78 78 107 178q-13 0 -23.5 2t-14.5 4l-5 2l24 115q25 8 68 8q19 0 35 -2t22 -4l7 -2l-19 -82q-10 -46 -30.5 -89t-42.5 -71t-43 -49.5t-34 -31.5z" />
<glyph unicode="&#x201c;" horiz-adv-x="649" d="M420 1473l37 -33l-9 -8q-8 -9 -20 -24t-25.5 -35t-27.5 -49.5t-23 -61.5q14 0 24.5 -2t14.5 -4l4 -3l-24 -114q-23 -9 -68 -9q-18 0 -33.5 2t-21.5 4l-6 3l16 82q10 46 30.5 89.5t42.5 71.5t42.5 49.5t33.5 31.5zM649 1473l37 -33q-76 -76 -104 -178q14 0 24.5 -2 t14.5 -4l4 -3l-25 -114q-23 -9 -68 -9q-19 0 -34.5 2t-21.5 4l-5 3l16 82q10 46 30.5 89.5t42.5 71.5t42.5 49.5t33.5 31.5z" />
<glyph unicode="&#x201d;" horiz-adv-x="649" d="M514 1133l-39 32q5 3 21.5 20.5t43 62t42.5 95.5q-14 0 -24.5 2.5t-14.5 4.5l-4 2l24 114q23 9 68 9q18 0 33.5 -2.5t21.5 -4.5l6 -2l-16 -82q-10 -46 -30.5 -89t-42.5 -71.5t-42.5 -49.5t-33.5 -31zM285 1133l-39 32q5 3 21.5 20.5t43 62t41.5 95.5q-14 0 -24.5 2.5 t-14.5 4.5l-4 2l25 114q22 9 67 9q19 0 34.5 -2.5t21.5 -4.5l6 -2l-17 -82q-10 -46 -30.5 -89t-42.5 -71.5t-42 -49.5t-33 -31z" />
<glyph unicode="&#x201e;" horiz-adv-x="675" d="M10 -209l-37 31q75 75 107 178q-14 0 -24.5 2t-14.5 4l-4 2l24 115q23 8 68 8q19 0 34.5 -2t20.5 -4l6 -2l-18 -82q-10 -46 -30 -89t-42 -71t-42.5 -49.5t-33.5 -31.5zM244 -209l-39 31q79 79 108 178q-14 0 -24.5 2t-14.5 4l-4 2l25 115q22 8 67 8q19 0 34.5 -2t21.5 -4 l6 -2l-18 -82q-10 -46 -30 -89t-42 -71t-42.5 -49.5t-33.5 -31.5z" />
<glyph unicode="&#x2020;" horiz-adv-x="1175" d="M401 -260l-43 37l252 1116l-487 -12q-4 18 2 47q3 14 7.5 25t7.5 15l3 5l482 -12l84 469q20 6 53 6q14 0 25.5 -1.5t16.5 -2.5l5 -2l-113 -469l484 12q4 -16 -2 -45q-3 -13 -7.5 -24.5t-8.5 -17.5l-3 -5l-477 12l-223 -1116z" />
<glyph unicode="&#x2021;" horiz-adv-x="1292" d="M610 291l488 14q2 -14 -4 -47q-4 -15 -8 -26t-6 -15l-3 -4l-479 14l-86 -471q-18 -6 -53 -6q-16 0 -27.5 1.5t-15.5 2.5l-4 2l114 471l-485 -14q-4 14 2 45q3 15 7.5 26.5t7.5 15.5l3 5l478 -14l49 301l80 301l-488 -12q-2 14 4 47q4 15 8 26t6 15l3 4l481 -12l84 469 q18 6 53 6q16 0 27.5 -1.5t15.5 -2.5l4 -2l-112 -469l483 12q4 -14 -2 -45q-3 -15 -7.5 -26.5t-7.5 -15.5l-3 -5l-478 12l-51 -301z" />
<glyph unicode="&#x2022;" horiz-adv-x="612" d="M387 578q-9 -41 -40 -66t-71 -25q-39 0 -60.5 25.5t-12.5 65.5q9 42 40 67t70 25q41 0 62 -25t12 -67z" />
<glyph unicode="&#x2026;" horiz-adv-x="1118" d="M190 123l-24 -115q-25 -8 -68 -8q-19 0 -35 2t-22 4l-6 2l24 115q25 8 68 8q19 0 35 -2t22 -4zM524 123l-24 -115q-25 -8 -68 -8q-19 0 -34.5 2t-21.5 4l-5 2l24 115q23 8 66 8q19 0 35 -2t22 -4zM858 123l-24 -115q-25 -8 -68 -8q-19 0 -34.5 2t-21.5 4l-5 2l24 115 q23 8 66 8q19 0 35 -2t22 -4z" />
<glyph unicode="&#x202f;" horiz-adv-x="401" />
<glyph unicode="&#x2030;" horiz-adv-x="2179" d="M1384 1430l-1099 -1442q-19 -8 -56 -8q-14 0 -25 2t-16 4l-4 2l1100 1442q16 8 53 8q16 0 27.5 -2t15.5 -4zM385 707q-129 0 -178.5 84t-9.5 270q74 354 340 354q268 0 192 -354t-344 -354zM520 1337q-84 0 -141.5 -63t-89.5 -213q-32 -151 -1 -213t115 -62t141 62 t89 213q32 149 1 212.5t-114 63.5zM1020 -20q-130 0 -179.5 84t-9.5 270q74 354 338 354q268 0 195 -354q-76 -354 -344 -354zM1679 -20q-129 0 -178.5 84t-9.5 270q74 354 338 354q267 0 194 -354q-76 -354 -344 -354zM1153 610q-84 0 -141 -63t-88 -213 q-32 -152 -2 -213.5t114 -61.5t142 62t90 213q31 149 -0.5 212.5t-114.5 63.5zM1812 610q-84 0 -141 -63t-88 -213q-32 -152 -1.5 -213.5t114.5 -61.5t141.5 62t89.5 213q31 149 -0.5 212.5t-114.5 63.5z" />
<glyph unicode="&#x2039;" horiz-adv-x="696" d="M113 596l516 446q29 -20 22 -69l-465 -420l287 -422q-14 -50 -53 -70l-326 447q-6 16 0 43q3 13 7.5 24t8.5 16z" />
<glyph unicode="&#x203a;" horiz-adv-x="694" d="M244 1042l327 -446q4 -16 -2 -45q-3 -12 -7 -22.5t-6 -15.5l-3 -5l-518 -447q-28 22 -21 70l463 422l-284 420q14 48 51 69z" />
<glyph unicode="&#x2044;" horiz-adv-x="260" d="M-449 -10l1098 1440q18 8 51 8q14 0 24.5 -2t14.5 -4l4 -2l-1099 -1440q-19 -10 -52 -10q-13 0 -23 2.5t-14 5.5z" />
<glyph unicode="&#x205f;" horiz-adv-x="502" />
<glyph unicode="&#x20ac;" horiz-adv-x="1189" d="M336 891q174 502 588 502q92 0 164 -16t98 -32l26 -16q-13 -47 -49 -74q-10 6 -29 14t-82.5 22t-131.5 14q-163 0 -281.5 -95t-196.5 -319h553q0 -43 -30 -78h-549q-4 -15 -29 -129q-18 -76 -25 -121h480q0 -39 -29 -76h-457q-6 -81 -3 -143t21 -108.5t43 -78t63 -51 t81 -28t96 -8.5q75 0 146 12t105 24l34 13q23 -26 16 -76q-13 -7 -38.5 -17.5t-112 -28t-182.5 -17.5q-212 0 -305 125.5t-70 381.5h-168q0 32 27 76h149l23 123q26 113 30 127h-161q3 37 28 78h158z" />
<glyph unicode="&#x20bd;" horiz-adv-x="1241" d="M324 561l-41 -190h645q3 -13 -3.5 -40.5t-15.5 -47.5h-645l-59 -275q-16 -8 -51 -8q-16 0 -29.5 2t-18.5 4l-6 2l60 275h-158q-3 13 3 42t15 46h158l219 1030h494q185 0 266.5 -119t40.5 -311q-40 -189 -169 -299.5t-316 -110.5h-389zM344 655h385q140 0 235 86.5 t128 237.5q35 162 -23.5 246t-202.5 84h-385z" />
<glyph unicode="&#x2122;" horiz-adv-x="1280" d="M260 1475h416q4 -15 0 -25q-3 -16 -10 -27h-179l-114 -532q-9 -6 -29 -6q-8 0 -14.5 1.5t-9.5 3.5l-3 1l115 532h-182v27q4 18 10 25zM782 1468q12 7 35 7q15 0 29 -7l65 -221q29 -92 39 -149q51 82 103 143l161 227q15 7 35 7q10 0 18 -1.5t11 -3.5l2 -2l-123 -577 q-8 -6 -24 -6q-8 0 -14.5 1.5t-9.5 3.5l-3 1l57 262l49 240q-63 -94 -90 -127l-157 -217q-11 -7 -29 -7q-8 0 -14 2t-8 4l-3 1l-61 217q-6 24 -19.5 65.5t-19.5 61.5q-9 -68 -45 -238l-57 -264q-9 -6 -25 -6q-7 0 -13.5 1.5t-8.5 3.5l-3 1z" />
<glyph unicode="&#x25fc;" horiz-adv-x="1075" d="M0 1075h1075v-1075h-1075v1075z" />
</font>
</defs>
</svg>
